G04 #@! TF.GenerationSoftware,KiCad,Pcbnew,(5.0.1-3-g963ef8bb5)*
G04 #@! TF.CreationDate,2019-05-10T17:58:09-07:00*
G04 #@! TF.ProjectId,NixieDriver,4E697869654472697665722E6B696361,rev?*
G04 #@! TF.SameCoordinates,Original*
G04 #@! TF.FileFunction,Copper,L1,Top,Signal*
G04 #@! TF.FilePolarity,Positive*
%FSLAX46Y46*%
G04 Gerber Fmt 4.6, Leading zero omitted, Abs format (unit mm)*
G04 Created by KiCad (PCBNEW (5.0.1-3-g963ef8bb5)) date Friday, May 10, 2019 at 05:58:09 PM*
%MOMM*%
%LPD*%
G01*
G04 APERTURE LIST*
G04 #@! TA.AperFunction,SMDPad,CuDef*
%ADD10R,0.797560X1.198880*%
G04 #@! TD*
G04 #@! TA.AperFunction,SMDPad,CuDef*
%ADD11R,0.520000X1.500000*%
G04 #@! TD*
G04 #@! TA.AperFunction,SMDPad,CuDef*
%ADD12R,1.500000X0.520000*%
G04 #@! TD*
G04 #@! TA.AperFunction,ComponentPad*
%ADD13O,1.700000X1.700000*%
G04 #@! TD*
G04 #@! TA.AperFunction,ComponentPad*
%ADD14R,1.700000X1.700000*%
G04 #@! TD*
G04 #@! TA.AperFunction,ComponentPad*
%ADD15C,6.350000*%
G04 #@! TD*
G04 #@! TA.AperFunction,ViaPad*
%ADD16C,0.800000*%
G04 #@! TD*
G04 #@! TA.AperFunction,Conductor*
%ADD17C,0.250000*%
G04 #@! TD*
G04 #@! TA.AperFunction,Conductor*
%ADD18C,0.500000*%
G04 #@! TD*
G04 APERTURE END LIST*
D10*
G04 #@! TO.P,C1,1*
G04 #@! TO.N,+12V*
X126629160Y-102108000D03*
G04 #@! TO.P,C1,2*
G04 #@! TO.N,GND*
X124830840Y-102108000D03*
G04 #@! TD*
D11*
G04 #@! TO.P,U1,1*
G04 #@! TO.N,Net-(J4-Pad11)*
X128506000Y-87854000D03*
G04 #@! TO.P,U1,2*
G04 #@! TO.N,Net-(J4-Pad12)*
X127706000Y-87854000D03*
G04 #@! TO.P,U1,3*
G04 #@! TO.N,Net-(J4-Pad13)*
X126906000Y-87854000D03*
G04 #@! TO.P,U1,4*
G04 #@! TO.N,Net-(J4-Pad14)*
X126106000Y-87854000D03*
G04 #@! TO.P,U1,5*
G04 #@! TO.N,Net-(J4-Pad15)*
X125306000Y-87854000D03*
G04 #@! TO.P,U1,6*
G04 #@! TO.N,Net-(J4-Pad16)*
X124506000Y-87854000D03*
G04 #@! TO.P,U1,7*
G04 #@! TO.N,Net-(J1-Pad1)*
X123706000Y-87854000D03*
G04 #@! TO.P,U1,8*
G04 #@! TO.N,Net-(J1-Pad2)*
X122906000Y-87854000D03*
G04 #@! TO.P,U1,9*
G04 #@! TO.N,Net-(J1-Pad3)*
X122106000Y-87854000D03*
G04 #@! TO.P,U1,10*
G04 #@! TO.N,Net-(J1-Pad4)*
X121306000Y-87854000D03*
G04 #@! TO.P,U1,11*
G04 #@! TO.N,Net-(J1-Pad5)*
X120506000Y-87854000D03*
D12*
G04 #@! TO.P,U1,12*
G04 #@! TO.N,Net-(J1-Pad6)*
X118456000Y-89904000D03*
G04 #@! TO.P,U1,13*
G04 #@! TO.N,Net-(J1-Pad7)*
X118456000Y-90704000D03*
G04 #@! TO.P,U1,14*
G04 #@! TO.N,Net-(J1-Pad8)*
X118456000Y-91504000D03*
G04 #@! TO.P,U1,15*
G04 #@! TO.N,Net-(J1-Pad9)*
X118456000Y-92304000D03*
G04 #@! TO.P,U1,16*
G04 #@! TO.N,Net-(J1-Pad10)*
X118456000Y-93104000D03*
G04 #@! TO.P,U1,17*
G04 #@! TO.N,Net-(J1-Pad11)*
X118456000Y-93904000D03*
G04 #@! TO.P,U1,18*
G04 #@! TO.N,Net-(J1-Pad12)*
X118456000Y-94704000D03*
G04 #@! TO.P,U1,19*
G04 #@! TO.N,Net-(J1-Pad13)*
X118456000Y-95504000D03*
G04 #@! TO.P,U1,20*
G04 #@! TO.N,Net-(J1-Pad14)*
X118456000Y-96304000D03*
G04 #@! TO.P,U1,21*
G04 #@! TO.N,Net-(J1-Pad15)*
X118456000Y-97104000D03*
G04 #@! TO.P,U1,22*
G04 #@! TO.N,Net-(J1-Pad16)*
X118456000Y-97904000D03*
D11*
G04 #@! TO.P,U1,23*
G04 #@! TO.N,/DO*
X120506000Y-99954000D03*
G04 #@! TO.P,U1,24*
G04 #@! TO.N,Net-(U1-Pad24)*
X121306000Y-99954000D03*
G04 #@! TO.P,U1,25*
G04 #@! TO.N,Net-(U1-Pad25)*
X122106000Y-99954000D03*
G04 #@! TO.P,U1,26*
G04 #@! TO.N,Net-(U1-Pad26)*
X122906000Y-99954000D03*
G04 #@! TO.P,U1,27*
G04 #@! TO.N,+12V*
X123706000Y-99954000D03*
G04 #@! TO.P,U1,28*
G04 #@! TO.N,/CLK*
X124506000Y-99954000D03*
G04 #@! TO.P,U1,29*
G04 #@! TO.N,GND*
X125306000Y-99954000D03*
G04 #@! TO.P,U1,30*
G04 #@! TO.N,+12V*
X126106000Y-99954000D03*
G04 #@! TO.P,U1,31*
G04 #@! TO.N,/~LE*
X126906000Y-99954000D03*
G04 #@! TO.P,U1,32*
G04 #@! TO.N,/DI*
X127706000Y-99954000D03*
G04 #@! TO.P,U1,33*
G04 #@! TO.N,/~BL*
X128506000Y-99954000D03*
D12*
G04 #@! TO.P,U1,34*
G04 #@! TO.N,Net-(U1-Pad34)*
X130556000Y-97904000D03*
G04 #@! TO.P,U1,35*
G04 #@! TO.N,Net-(J4-Pad1)*
X130556000Y-97104000D03*
G04 #@! TO.P,U1,36*
G04 #@! TO.N,Net-(J4-Pad2)*
X130556000Y-96304000D03*
G04 #@! TO.P,U1,37*
G04 #@! TO.N,Net-(J4-Pad3)*
X130556000Y-95504000D03*
G04 #@! TO.P,U1,38*
G04 #@! TO.N,Net-(J4-Pad4)*
X130556000Y-94704000D03*
G04 #@! TO.P,U1,39*
G04 #@! TO.N,Net-(J4-Pad5)*
X130556000Y-93904000D03*
G04 #@! TO.P,U1,40*
G04 #@! TO.N,Net-(J4-Pad6)*
X130556000Y-93104000D03*
G04 #@! TO.P,U1,41*
G04 #@! TO.N,Net-(J4-Pad7)*
X130556000Y-92304000D03*
G04 #@! TO.P,U1,42*
G04 #@! TO.N,Net-(J4-Pad8)*
X130556000Y-91504000D03*
G04 #@! TO.P,U1,43*
G04 #@! TO.N,Net-(J4-Pad9)*
X130556000Y-90704000D03*
G04 #@! TO.P,U1,44*
G04 #@! TO.N,Net-(J4-Pad10)*
X130556000Y-89904000D03*
G04 #@! TD*
D13*
G04 #@! TO.P,J3,6*
G04 #@! TO.N,/DI*
X140208000Y-92710000D03*
G04 #@! TO.P,J3,5*
G04 #@! TO.N,/CLK*
X140208000Y-95250000D03*
G04 #@! TO.P,J3,4*
G04 #@! TO.N,/~LE*
X142748000Y-92710000D03*
G04 #@! TO.P,J3,3*
G04 #@! TO.N,/~BL*
X142748000Y-95250000D03*
G04 #@! TO.P,J3,2*
G04 #@! TO.N,+12V*
X145288000Y-92710000D03*
D14*
G04 #@! TO.P,J3,1*
G04 #@! TO.N,GND*
X145288000Y-95250000D03*
G04 #@! TD*
G04 #@! TO.P,J2,1*
G04 #@! TO.N,GND*
X103886000Y-92964000D03*
D13*
G04 #@! TO.P,J2,2*
G04 #@! TO.N,+12V*
X103886000Y-95504000D03*
G04 #@! TO.P,J2,3*
G04 #@! TO.N,/~BL*
X106426000Y-92964000D03*
G04 #@! TO.P,J2,4*
G04 #@! TO.N,/~LE*
X106426000Y-95504000D03*
G04 #@! TO.P,J2,5*
G04 #@! TO.N,/CLK*
X108966000Y-92964000D03*
G04 #@! TO.P,J2,6*
G04 #@! TO.N,/DO*
X108966000Y-95504000D03*
G04 #@! TD*
D15*
G04 #@! TO.P,H4,P1*
G04 #@! TO.N,Net-(H4-PadP1)*
X106426000Y-101092000D03*
G04 #@! TD*
G04 #@! TO.P,H3,P1*
G04 #@! TO.N,Net-(H3-PadP1)*
X106426000Y-86868000D03*
G04 #@! TD*
G04 #@! TO.P,H2,P1*
G04 #@! TO.N,Net-(H2-PadP1)*
X142494000Y-86868000D03*
G04 #@! TD*
G04 #@! TO.P,H1,P1*
G04 #@! TO.N,Net-(H1-PadP1)*
X142494000Y-101092000D03*
G04 #@! TD*
D14*
G04 #@! TO.P,J4,1*
G04 #@! TO.N,Net-(J4-Pad1)*
X133604000Y-102870000D03*
D13*
G04 #@! TO.P,J4,2*
G04 #@! TO.N,Net-(J4-Pad2)*
X136144000Y-102870000D03*
G04 #@! TO.P,J4,3*
G04 #@! TO.N,Net-(J4-Pad3)*
X133604000Y-100330000D03*
G04 #@! TO.P,J4,4*
G04 #@! TO.N,Net-(J4-Pad4)*
X136144000Y-100330000D03*
G04 #@! TO.P,J4,5*
G04 #@! TO.N,Net-(J4-Pad5)*
X133604000Y-97790000D03*
G04 #@! TO.P,J4,6*
G04 #@! TO.N,Net-(J4-Pad6)*
X136144000Y-97790000D03*
G04 #@! TO.P,J4,7*
G04 #@! TO.N,Net-(J4-Pad7)*
X133604000Y-95250000D03*
G04 #@! TO.P,J4,8*
G04 #@! TO.N,Net-(J4-Pad8)*
X136144000Y-95250000D03*
G04 #@! TO.P,J4,9*
G04 #@! TO.N,Net-(J4-Pad9)*
X133604000Y-92710000D03*
G04 #@! TO.P,J4,10*
G04 #@! TO.N,Net-(J4-Pad10)*
X136144000Y-92710000D03*
G04 #@! TO.P,J4,11*
G04 #@! TO.N,Net-(J4-Pad11)*
X133604000Y-90170000D03*
G04 #@! TO.P,J4,12*
G04 #@! TO.N,Net-(J4-Pad12)*
X136144000Y-90170000D03*
G04 #@! TO.P,J4,13*
G04 #@! TO.N,Net-(J4-Pad13)*
X133604000Y-87630000D03*
G04 #@! TO.P,J4,14*
G04 #@! TO.N,Net-(J4-Pad14)*
X136144000Y-87630000D03*
G04 #@! TO.P,J4,15*
G04 #@! TO.N,Net-(J4-Pad15)*
X133604000Y-85090000D03*
G04 #@! TO.P,J4,16*
G04 #@! TO.N,Net-(J4-Pad16)*
X136144000Y-85090000D03*
G04 #@! TD*
D14*
G04 #@! TO.P,J1,1*
G04 #@! TO.N,Net-(J1-Pad1)*
X115316000Y-85090000D03*
D13*
G04 #@! TO.P,J1,2*
G04 #@! TO.N,Net-(J1-Pad2)*
X112776000Y-85090000D03*
G04 #@! TO.P,J1,3*
G04 #@! TO.N,Net-(J1-Pad3)*
X115316000Y-87630000D03*
G04 #@! TO.P,J1,4*
G04 #@! TO.N,Net-(J1-Pad4)*
X112776000Y-87630000D03*
G04 #@! TO.P,J1,5*
G04 #@! TO.N,Net-(J1-Pad5)*
X115316000Y-90170000D03*
G04 #@! TO.P,J1,6*
G04 #@! TO.N,Net-(J1-Pad6)*
X112776000Y-90170000D03*
G04 #@! TO.P,J1,7*
G04 #@! TO.N,Net-(J1-Pad7)*
X115316000Y-92710000D03*
G04 #@! TO.P,J1,8*
G04 #@! TO.N,Net-(J1-Pad8)*
X112776000Y-92710000D03*
G04 #@! TO.P,J1,9*
G04 #@! TO.N,Net-(J1-Pad9)*
X115316000Y-95250000D03*
G04 #@! TO.P,J1,10*
G04 #@! TO.N,Net-(J1-Pad10)*
X112776000Y-95250000D03*
G04 #@! TO.P,J1,11*
G04 #@! TO.N,Net-(J1-Pad11)*
X115316000Y-97790000D03*
G04 #@! TO.P,J1,12*
G04 #@! TO.N,Net-(J1-Pad12)*
X112776000Y-97790000D03*
G04 #@! TO.P,J1,13*
G04 #@! TO.N,Net-(J1-Pad13)*
X115316000Y-100330000D03*
G04 #@! TO.P,J1,14*
G04 #@! TO.N,Net-(J1-Pad14)*
X112776000Y-100330000D03*
G04 #@! TO.P,J1,15*
G04 #@! TO.N,Net-(J1-Pad15)*
X115316000Y-102870000D03*
G04 #@! TO.P,J1,16*
G04 #@! TO.N,Net-(J1-Pad16)*
X112776000Y-102870000D03*
G04 #@! TD*
D16*
G04 #@! TO.N,Net-(J4-Pad11)*
X128536865Y-89154865D03*
G04 #@! TO.N,Net-(J4-Pad12)*
X127706000Y-89864000D03*
G04 #@! TO.N,Net-(J4-Pad13)*
X126906000Y-89124000D03*
G04 #@! TO.N,Net-(J4-Pad14)*
X126106000Y-89864000D03*
G04 #@! TO.N,Net-(J4-Pad15)*
X125222000Y-89208000D03*
G04 #@! TO.N,Net-(J4-Pad16)*
X124460000Y-89970000D03*
G04 #@! TO.N,Net-(J1-Pad1)*
X123698000Y-89208000D03*
G04 #@! TO.N,Net-(J1-Pad2)*
X122936000Y-89970000D03*
G04 #@! TO.N,Net-(J1-Pad3)*
X122174000Y-89208000D03*
G04 #@! TO.N,Net-(J1-Pad4)*
X121412000Y-89970000D03*
G04 #@! TO.N,Net-(J1-Pad5)*
X120650000Y-89208000D03*
G04 #@! TO.N,Net-(J1-Pad6)*
X119726000Y-89904000D03*
G04 #@! TO.N,Net-(J1-Pad7)*
X120526000Y-90704000D03*
G04 #@! TO.N,Net-(J1-Pad8)*
X119802000Y-91504000D03*
G04 #@! TO.N,Net-(J1-Pad9)*
X120542000Y-92304000D03*
G04 #@! TO.N,Net-(J1-Pad10)*
X119780000Y-93104000D03*
G04 #@! TO.N,Net-(J1-Pad11)*
X120466000Y-93904000D03*
G04 #@! TO.N,Net-(J1-Pad12)*
X119666000Y-94704000D03*
G04 #@! TO.N,Net-(J1-Pad13)*
X120466000Y-95504000D03*
G04 #@! TO.N,Net-(J1-Pad14)*
X119726000Y-96302990D03*
G04 #@! TO.N,Net-(J1-Pad15)*
X120526000Y-97102990D03*
G04 #@! TO.N,Net-(J1-Pad16)*
X119726000Y-97904000D03*
G04 #@! TO.N,+12V*
X128016000Y-102108000D03*
G04 #@! TO.N,/CLK*
X124506000Y-97944000D03*
X121539000Y-101853994D03*
G04 #@! TO.N,GND*
X125423159Y-103442839D03*
G04 #@! TO.N,/~LE*
X126906000Y-98684000D03*
X122297879Y-102622199D03*
G04 #@! TO.N,/~BL*
X128506000Y-98684000D03*
X121589685Y-103465044D03*
G04 #@! TO.N,Net-(J4-Pad1)*
X128546000Y-97104000D03*
G04 #@! TO.N,Net-(J4-Pad2)*
X129286000Y-96304000D03*
G04 #@! TO.N,Net-(J4-Pad3)*
X128546000Y-95504000D03*
G04 #@! TO.N,Net-(J4-Pad4)*
X129286000Y-94704000D03*
G04 #@! TO.N,Net-(J4-Pad5)*
X128546000Y-93904000D03*
G04 #@! TO.N,Net-(J4-Pad6)*
X129286000Y-93104000D03*
G04 #@! TO.N,Net-(J4-Pad7)*
X128546000Y-92304000D03*
G04 #@! TO.N,Net-(J4-Pad8)*
X129286000Y-91504000D03*
G04 #@! TO.N,Net-(J4-Pad9)*
X128546000Y-90704000D03*
G04 #@! TO.N,Net-(J4-Pad10)*
X129286000Y-89904000D03*
G04 #@! TD*
D17*
G04 #@! TO.N,Net-(J4-Pad11)*
X128506000Y-87854000D02*
X128506000Y-89124000D01*
X128506000Y-89124000D02*
X128536865Y-89154865D01*
G04 #@! TO.N,Net-(J4-Pad12)*
X127706000Y-89864000D02*
X127706000Y-87854000D01*
G04 #@! TO.N,Net-(J4-Pad13)*
X126906000Y-89124000D02*
X126906000Y-87854000D01*
G04 #@! TO.N,Net-(J4-Pad14)*
X126106000Y-90064000D02*
X126106000Y-87854000D01*
G04 #@! TO.N,Net-(J4-Pad15)*
X125222000Y-87938000D02*
X125306000Y-87854000D01*
X125222000Y-89408000D02*
X125222000Y-87938000D01*
G04 #@! TO.N,Net-(J4-Pad16)*
X124460000Y-87900000D02*
X124506000Y-87854000D01*
X124460000Y-90170000D02*
X124460000Y-87900000D01*
G04 #@! TO.N,Net-(J1-Pad1)*
X123698000Y-87862000D02*
X123706000Y-87854000D01*
X123698000Y-89408000D02*
X123698000Y-87862000D01*
G04 #@! TO.N,Net-(J1-Pad2)*
X122936000Y-87884000D02*
X122906000Y-87854000D01*
X122936000Y-90170000D02*
X122936000Y-87884000D01*
G04 #@! TO.N,Net-(J1-Pad3)*
X122174000Y-87922000D02*
X122106000Y-87854000D01*
X122174000Y-89408000D02*
X122174000Y-87922000D01*
G04 #@! TO.N,Net-(J1-Pad4)*
X121412000Y-90170000D02*
X121412000Y-87960000D01*
X121412000Y-87960000D02*
X121306000Y-87854000D01*
G04 #@! TO.N,Net-(J1-Pad5)*
X120650000Y-89408000D02*
X120650000Y-87998000D01*
X120650000Y-87998000D02*
X120506000Y-87854000D01*
G04 #@! TO.N,Net-(J1-Pad6)*
X119926000Y-89904000D02*
X118456000Y-89904000D01*
G04 #@! TO.N,Net-(J1-Pad7)*
X120650000Y-90678000D02*
X120650000Y-90678000D01*
X120726000Y-90704000D02*
X118456000Y-90704000D01*
G04 #@! TO.N,Net-(J1-Pad8)*
X120002000Y-91504000D02*
X118456000Y-91504000D01*
X119888000Y-91440000D02*
X119888000Y-91440000D01*
G04 #@! TO.N,Net-(J1-Pad9)*
X120742000Y-92304000D02*
X118456000Y-92304000D01*
X120650000Y-92202000D02*
X120650000Y-92202000D01*
G04 #@! TO.N,Net-(J1-Pad10)*
X119980000Y-93104000D02*
X118494000Y-93104000D01*
X119888000Y-92964000D02*
X119888000Y-92964000D01*
G04 #@! TO.N,Net-(J1-Pad11)*
X120666000Y-93904000D02*
X118456000Y-93904000D01*
X120650000Y-93726000D02*
X120650000Y-93726000D01*
G04 #@! TO.N,Net-(J1-Pad12)*
X119866000Y-94704000D02*
X118456000Y-94704000D01*
X119888000Y-94488000D02*
X119888000Y-94488000D01*
G04 #@! TO.N,Net-(J1-Pad13)*
X120666000Y-95504000D02*
X118456000Y-95504000D01*
G04 #@! TO.N,Net-(J1-Pad14)*
X119926000Y-96304000D02*
X118456000Y-96304000D01*
G04 #@! TO.N,Net-(J1-Pad15)*
X118532000Y-97028000D02*
X118456000Y-97104000D01*
X120374000Y-97028000D02*
X118532000Y-97028000D01*
G04 #@! TO.N,Net-(J1-Pad16)*
X119926000Y-97904000D02*
X118456000Y-97904000D01*
G04 #@! TO.N,/DO*
X109887001Y-96425001D02*
X116491001Y-96425001D01*
X108966000Y-95504000D02*
X109887001Y-96425001D01*
X116491001Y-96425001D02*
X117094000Y-97028000D01*
X118910998Y-99954000D02*
X119996000Y-99954000D01*
X117094000Y-98137002D02*
X118910998Y-99954000D01*
X119996000Y-99954000D02*
X120506000Y-99954000D01*
X117094000Y-97028000D02*
X117094000Y-98137002D01*
D18*
G04 #@! TO.N,+12V*
X126106000Y-101635640D02*
X126106000Y-99954000D01*
X126578360Y-102108000D02*
X126106000Y-101635640D01*
X126578360Y-102108000D02*
X128016000Y-102108000D01*
X128016000Y-102108000D02*
X128016000Y-102108000D01*
D17*
X126110288Y-99949712D02*
X126106000Y-99954000D01*
X125983288Y-98044000D02*
X125984000Y-98044000D01*
X124275998Y-96901000D02*
X124840288Y-96901000D01*
X123706000Y-97470998D02*
X124275998Y-96901000D01*
X124840288Y-96901000D02*
X125983288Y-98044000D01*
X123706000Y-99954000D02*
X123706000Y-97470998D01*
X126106000Y-98166712D02*
X125983288Y-98044000D01*
X126106000Y-99954000D02*
X126106000Y-98166712D01*
G04 #@! TO.N,/CLK*
X124506000Y-97744000D02*
X124506000Y-99954000D01*
X105814592Y-104559512D02*
X106482754Y-104617968D01*
X102900032Y-99032788D02*
X102900032Y-101035255D01*
X108966000Y-92964000D02*
X107696000Y-94234000D01*
X104162730Y-103789236D02*
X104249978Y-103850328D01*
X106089979Y-97579023D02*
X104353797Y-97579023D01*
X103376719Y-102852500D02*
X103728761Y-103355267D01*
X118775032Y-104617968D02*
X121539000Y-101854000D01*
X102958483Y-101703403D02*
X103117333Y-102296242D01*
X104249978Y-103850328D02*
X104665497Y-104141276D01*
X103117333Y-102296242D02*
X103376719Y-102852500D01*
X105098695Y-104343278D02*
X105221759Y-104400664D01*
X106482754Y-104617968D02*
X118775032Y-104617968D01*
X102900032Y-101035255D02*
X102958483Y-101703403D01*
X104353797Y-97579023D02*
X102900032Y-99032788D01*
X107696000Y-95973002D02*
X106089979Y-97579023D01*
X104665497Y-104141276D02*
X104708669Y-104161407D01*
X104708669Y-104161407D02*
X104930722Y-104264952D01*
X121539000Y-101854000D02*
X121539000Y-101853994D01*
X107696000Y-94234000D02*
X107696000Y-95973002D01*
X104930722Y-104264952D02*
X104937514Y-104262688D01*
X103728761Y-103355267D02*
X104162730Y-103789236D01*
X105221759Y-104400664D02*
X105814592Y-104559512D01*
X104937514Y-104262688D02*
X105098695Y-104343278D01*
X143105411Y-104559514D02*
X142437251Y-104617968D01*
X122104685Y-101853994D02*
X121539000Y-101853994D01*
X122554994Y-101853994D02*
X122104685Y-101853994D01*
X145961513Y-101703406D02*
X145802662Y-102296250D01*
X140208000Y-95250000D02*
X141986000Y-97028000D01*
X143555180Y-97028000D02*
X146019968Y-99492788D01*
X146019968Y-99492788D02*
X146019968Y-101035249D01*
X143698247Y-104400665D02*
X143105411Y-104559514D01*
X142437251Y-104617968D02*
X125318968Y-104617968D01*
X144757264Y-103789241D02*
X144254503Y-104141277D01*
X141986000Y-97028000D02*
X143555180Y-97028000D01*
X146019968Y-101035249D02*
X146018616Y-101050697D01*
X146018616Y-101050697D02*
X145961513Y-101703406D01*
X145802662Y-102296250D02*
X145543275Y-102852505D01*
X145543275Y-102852505D02*
X145191236Y-103355269D01*
X144254503Y-104141277D02*
X143698247Y-104400665D01*
X145191236Y-103355269D02*
X144757264Y-103789241D01*
X125318968Y-104617968D02*
X122554994Y-101853994D01*
D18*
G04 #@! TO.N,GND*
X125306000Y-101683640D02*
X125306000Y-99954000D01*
X124881640Y-102108000D02*
X125306000Y-101683640D01*
X124881640Y-103107110D02*
X125217369Y-103442839D01*
X125217369Y-103442839D02*
X125423159Y-103442839D01*
X124881640Y-102108000D02*
X124881640Y-103107110D01*
D17*
G04 #@! TO.N,/~LE*
X126906000Y-98484000D02*
X126906000Y-99954000D01*
X104167397Y-97129012D02*
X102450021Y-98846388D01*
X104800988Y-97129012D02*
X104167397Y-97129012D01*
X102513617Y-101781845D02*
X102692847Y-102450743D01*
X105067250Y-104825149D02*
X105736148Y-105004378D01*
X103872368Y-104135284D02*
X104439642Y-104532491D01*
X102985508Y-103078361D02*
X103382714Y-103645630D01*
X106426000Y-95504000D02*
X104800988Y-97129012D01*
X102450021Y-98846388D02*
X102450021Y-101054887D01*
X102692847Y-102450743D02*
X102985508Y-103078361D01*
X104439642Y-104532491D02*
X105067250Y-104825149D01*
X103382714Y-103645630D02*
X103872368Y-104135284D01*
X106463107Y-105067979D02*
X118961432Y-105067979D01*
X102468633Y-101267657D02*
X102513617Y-101781845D01*
X105736148Y-105004378D02*
X106463107Y-105067979D01*
X118961432Y-105067979D02*
X121407212Y-102622199D01*
X102450021Y-101054887D02*
X102468633Y-101267657D01*
X121407212Y-102622199D02*
X121732194Y-102622199D01*
X121732194Y-102622199D02*
X122297879Y-102622199D01*
X143741579Y-96577989D02*
X146469979Y-99306389D01*
X144480365Y-104532488D02*
X143852748Y-104825151D01*
X146469979Y-99306389D02*
X146469979Y-101054893D01*
X146227149Y-102450752D02*
X145934486Y-103078367D01*
X141478000Y-95883590D02*
X142172399Y-96577989D01*
X145537283Y-103645632D02*
X145047629Y-104135286D01*
X142172399Y-96577989D02*
X143741579Y-96577989D01*
X146469979Y-101054893D02*
X146406379Y-101781851D01*
X142748000Y-92710000D02*
X141478000Y-93980000D01*
X145047629Y-104135286D02*
X144480365Y-104532488D01*
X146406379Y-101781851D02*
X146227149Y-102450752D01*
X145934486Y-103078367D02*
X145537283Y-103645632D01*
X143852748Y-104825151D02*
X143183853Y-105004380D01*
X143183853Y-105004380D02*
X142456894Y-105067979D01*
X142456894Y-105067979D02*
X124743659Y-105067979D01*
X122697878Y-103022198D02*
X122297879Y-102622199D01*
X124743659Y-105067979D02*
X122697878Y-103022198D01*
X141478000Y-93980000D02*
X141478000Y-95883590D01*
G04 #@! TO.N,/DI*
X132936999Y-93885001D02*
X131826000Y-94996000D01*
X137254999Y-93885001D02*
X132936999Y-93885001D01*
X138430000Y-92710000D02*
X137254999Y-93885001D01*
X131826000Y-94996000D02*
X131826000Y-98552000D01*
X140208000Y-92710000D02*
X138430000Y-92710000D01*
X127706000Y-100954000D02*
X127706000Y-99954000D01*
X128098000Y-101346000D02*
X127706000Y-100954000D01*
X129032000Y-101346000D02*
X128098000Y-101346000D01*
X131826000Y-98552000D02*
X129032000Y-101346000D01*
G04 #@! TO.N,/~BL*
X128506000Y-98484000D02*
X128506000Y-99954000D01*
X104450001Y-96679001D02*
X103980997Y-96679001D01*
X102000010Y-101074524D02*
X102019360Y-101295723D01*
X121189686Y-103865043D02*
X121589685Y-103465044D01*
X119536739Y-105517990D02*
X121189686Y-103865043D01*
X102068752Y-101860294D02*
X102268362Y-102605250D01*
X102268362Y-102605250D02*
X102594300Y-103304227D01*
X105156000Y-95973002D02*
X104450001Y-96679001D01*
X105156000Y-94234000D02*
X105156000Y-95973002D01*
X103582004Y-104481330D02*
X104213768Y-104923696D01*
X106443460Y-105517990D02*
X119536739Y-105517990D01*
X104213768Y-104923696D02*
X104912750Y-105249636D01*
X103980997Y-96679001D02*
X102000010Y-98659988D01*
X103036669Y-103935995D02*
X103582004Y-104481330D01*
X102000010Y-98659988D02*
X102000010Y-101074524D01*
X106426000Y-92964000D02*
X105156000Y-94234000D01*
X104912750Y-105249636D02*
X105657702Y-105449245D01*
X102594300Y-103304227D02*
X103036669Y-103935995D01*
X105657702Y-105449245D02*
X106443460Y-105517990D01*
X102019360Y-101295723D02*
X102068752Y-101860294D01*
X142476539Y-105517990D02*
X123642631Y-105517990D01*
X143262296Y-105449246D02*
X142476539Y-105517990D01*
X144007250Y-105249637D02*
X143262296Y-105449246D01*
X145883330Y-103935995D02*
X145337993Y-104481332D01*
X146325696Y-103304231D02*
X145883330Y-103935995D01*
X146651636Y-102605251D02*
X146325696Y-103304231D01*
X146851245Y-101860297D02*
X146651636Y-102605251D01*
X143899999Y-96099999D02*
X146919990Y-99119990D01*
X143597999Y-96099999D02*
X143899999Y-96099999D01*
X142748000Y-95250000D02*
X143597999Y-96099999D01*
X144706230Y-104923697D02*
X144007250Y-105249637D01*
X123642631Y-105517990D02*
X121989684Y-103865043D01*
X145337993Y-104481332D02*
X144706230Y-104923697D01*
X146919990Y-99119990D02*
X146919990Y-101074540D01*
X121989684Y-103865043D02*
X121589685Y-103465044D01*
X146919990Y-101074540D02*
X146851245Y-101860297D01*
G04 #@! TO.N,Net-(J4-Pad1)*
X128346000Y-97104000D02*
X130556000Y-97104000D01*
G04 #@! TO.N,Net-(J4-Pad2)*
X129086000Y-96304000D02*
X130556000Y-96304000D01*
G04 #@! TO.N,Net-(J4-Pad3)*
X128346000Y-95504000D02*
X130556000Y-95504000D01*
G04 #@! TO.N,Net-(J4-Pad4)*
X129286000Y-94704000D02*
X130556000Y-94704000D01*
G04 #@! TO.N,Net-(J4-Pad5)*
X128346000Y-93904000D02*
X130556000Y-93904000D01*
G04 #@! TO.N,Net-(J4-Pad6)*
X129286000Y-93104000D02*
X130556000Y-93104000D01*
G04 #@! TO.N,Net-(J4-Pad7)*
X128346000Y-92304000D02*
X130556000Y-92304000D01*
G04 #@! TO.N,Net-(J4-Pad8)*
X129086000Y-91504000D02*
X130556000Y-91504000D01*
G04 #@! TO.N,Net-(J4-Pad9)*
X128346000Y-90704000D02*
X130556000Y-90704000D01*
G04 #@! TO.N,Net-(J4-Pad10)*
X129086000Y-89904000D02*
X130556000Y-89904000D01*
G04 #@! TD*
M02*
