G04 #@! TF.GenerationSoftware,KiCad,Pcbnew,(5.0.1-3-g963ef8bb5)*
G04 #@! TF.CreationDate,2019-05-10T17:58:09-07:00*
G04 #@! TF.ProjectId,NixieDriver,4E697869654472697665722E6B696361,rev?*
G04 #@! TF.SameCoordinates,Original*
G04 #@! TF.FileFunction,Copper,L2,Bot,Signal*
G04 #@! TF.FilePolarity,Positive*
%FSLAX46Y46*%
G04 Gerber Fmt 4.6, Leading zero omitted, Abs format (unit mm)*
G04 Created by KiCad (PCBNEW (5.0.1-3-g963ef8bb5)) date Friday, May 10, 2019 at 05:58:09 PM*
%MOMM*%
%LPD*%
G01*
G04 APERTURE LIST*
G04 #@! TA.AperFunction,ComponentPad*
%ADD10O,1.700000X1.700000*%
G04 #@! TD*
G04 #@! TA.AperFunction,ComponentPad*
%ADD11R,1.700000X1.700000*%
G04 #@! TD*
G04 #@! TA.AperFunction,ComponentPad*
%ADD12C,6.350000*%
G04 #@! TD*
G04 #@! TA.AperFunction,ViaPad*
%ADD13C,0.800000*%
G04 #@! TD*
G04 #@! TA.AperFunction,Conductor*
%ADD14C,0.250000*%
G04 #@! TD*
G04 #@! TA.AperFunction,Conductor*
%ADD15C,0.500000*%
G04 #@! TD*
G04 APERTURE END LIST*
D10*
G04 #@! TO.P,J3,6*
G04 #@! TO.N,/DI*
X140208000Y-92710000D03*
G04 #@! TO.P,J3,5*
G04 #@! TO.N,/CLK*
X140208000Y-95250000D03*
G04 #@! TO.P,J3,4*
G04 #@! TO.N,/~LE*
X142748000Y-92710000D03*
G04 #@! TO.P,J3,3*
G04 #@! TO.N,/~BL*
X142748000Y-95250000D03*
G04 #@! TO.P,J3,2*
G04 #@! TO.N,+12V*
X145288000Y-92710000D03*
D11*
G04 #@! TO.P,J3,1*
G04 #@! TO.N,GND*
X145288000Y-95250000D03*
G04 #@! TD*
G04 #@! TO.P,J2,1*
G04 #@! TO.N,GND*
X103886000Y-92964000D03*
D10*
G04 #@! TO.P,J2,2*
G04 #@! TO.N,+12V*
X103886000Y-95504000D03*
G04 #@! TO.P,J2,3*
G04 #@! TO.N,/~BL*
X106426000Y-92964000D03*
G04 #@! TO.P,J2,4*
G04 #@! TO.N,/~LE*
X106426000Y-95504000D03*
G04 #@! TO.P,J2,5*
G04 #@! TO.N,/CLK*
X108966000Y-92964000D03*
G04 #@! TO.P,J2,6*
G04 #@! TO.N,/DO*
X108966000Y-95504000D03*
G04 #@! TD*
D12*
G04 #@! TO.P,H4,P1*
G04 #@! TO.N,Net-(H4-PadP1)*
X106426000Y-101092000D03*
G04 #@! TD*
G04 #@! TO.P,H3,P1*
G04 #@! TO.N,Net-(H3-PadP1)*
X106426000Y-86868000D03*
G04 #@! TD*
G04 #@! TO.P,H2,P1*
G04 #@! TO.N,Net-(H2-PadP1)*
X142494000Y-86868000D03*
G04 #@! TD*
G04 #@! TO.P,H1,P1*
G04 #@! TO.N,Net-(H1-PadP1)*
X142494000Y-101092000D03*
G04 #@! TD*
D11*
G04 #@! TO.P,J4,1*
G04 #@! TO.N,Net-(J4-Pad1)*
X133604000Y-102870000D03*
D10*
G04 #@! TO.P,J4,2*
G04 #@! TO.N,Net-(J4-Pad2)*
X136144000Y-102870000D03*
G04 #@! TO.P,J4,3*
G04 #@! TO.N,Net-(J4-Pad3)*
X133604000Y-100330000D03*
G04 #@! TO.P,J4,4*
G04 #@! TO.N,Net-(J4-Pad4)*
X136144000Y-100330000D03*
G04 #@! TO.P,J4,5*
G04 #@! TO.N,Net-(J4-Pad5)*
X133604000Y-97790000D03*
G04 #@! TO.P,J4,6*
G04 #@! TO.N,Net-(J4-Pad6)*
X136144000Y-97790000D03*
G04 #@! TO.P,J4,7*
G04 #@! TO.N,Net-(J4-Pad7)*
X133604000Y-95250000D03*
G04 #@! TO.P,J4,8*
G04 #@! TO.N,Net-(J4-Pad8)*
X136144000Y-95250000D03*
G04 #@! TO.P,J4,9*
G04 #@! TO.N,Net-(J4-Pad9)*
X133604000Y-92710000D03*
G04 #@! TO.P,J4,10*
G04 #@! TO.N,Net-(J4-Pad10)*
X136144000Y-92710000D03*
G04 #@! TO.P,J4,11*
G04 #@! TO.N,Net-(J4-Pad11)*
X133604000Y-90170000D03*
G04 #@! TO.P,J4,12*
G04 #@! TO.N,Net-(J4-Pad12)*
X136144000Y-90170000D03*
G04 #@! TO.P,J4,13*
G04 #@! TO.N,Net-(J4-Pad13)*
X133604000Y-87630000D03*
G04 #@! TO.P,J4,14*
G04 #@! TO.N,Net-(J4-Pad14)*
X136144000Y-87630000D03*
G04 #@! TO.P,J4,15*
G04 #@! TO.N,Net-(J4-Pad15)*
X133604000Y-85090000D03*
G04 #@! TO.P,J4,16*
G04 #@! TO.N,Net-(J4-Pad16)*
X136144000Y-85090000D03*
G04 #@! TD*
D11*
G04 #@! TO.P,J1,1*
G04 #@! TO.N,Net-(J1-Pad1)*
X115316000Y-85090000D03*
D10*
G04 #@! TO.P,J1,2*
G04 #@! TO.N,Net-(J1-Pad2)*
X112776000Y-85090000D03*
G04 #@! TO.P,J1,3*
G04 #@! TO.N,Net-(J1-Pad3)*
X115316000Y-87630000D03*
G04 #@! TO.P,J1,4*
G04 #@! TO.N,Net-(J1-Pad4)*
X112776000Y-87630000D03*
G04 #@! TO.P,J1,5*
G04 #@! TO.N,Net-(J1-Pad5)*
X115316000Y-90170000D03*
G04 #@! TO.P,J1,6*
G04 #@! TO.N,Net-(J1-Pad6)*
X112776000Y-90170000D03*
G04 #@! TO.P,J1,7*
G04 #@! TO.N,Net-(J1-Pad7)*
X115316000Y-92710000D03*
G04 #@! TO.P,J1,8*
G04 #@! TO.N,Net-(J1-Pad8)*
X112776000Y-92710000D03*
G04 #@! TO.P,J1,9*
G04 #@! TO.N,Net-(J1-Pad9)*
X115316000Y-95250000D03*
G04 #@! TO.P,J1,10*
G04 #@! TO.N,Net-(J1-Pad10)*
X112776000Y-95250000D03*
G04 #@! TO.P,J1,11*
G04 #@! TO.N,Net-(J1-Pad11)*
X115316000Y-97790000D03*
G04 #@! TO.P,J1,12*
G04 #@! TO.N,Net-(J1-Pad12)*
X112776000Y-97790000D03*
G04 #@! TO.P,J1,13*
G04 #@! TO.N,Net-(J1-Pad13)*
X115316000Y-100330000D03*
G04 #@! TO.P,J1,14*
G04 #@! TO.N,Net-(J1-Pad14)*
X112776000Y-100330000D03*
G04 #@! TO.P,J1,15*
G04 #@! TO.N,Net-(J1-Pad15)*
X115316000Y-102870000D03*
G04 #@! TO.P,J1,16*
G04 #@! TO.N,Net-(J1-Pad16)*
X112776000Y-102870000D03*
G04 #@! TD*
D13*
G04 #@! TO.N,Net-(J4-Pad11)*
X128536865Y-89154865D03*
G04 #@! TO.N,Net-(J4-Pad12)*
X127706000Y-89864000D03*
G04 #@! TO.N,Net-(J4-Pad13)*
X126906000Y-89124000D03*
G04 #@! TO.N,Net-(J4-Pad14)*
X126106000Y-89864000D03*
G04 #@! TO.N,Net-(J4-Pad15)*
X125222000Y-89208000D03*
G04 #@! TO.N,Net-(J4-Pad16)*
X124460000Y-89970000D03*
G04 #@! TO.N,Net-(J1-Pad1)*
X123698000Y-89208000D03*
G04 #@! TO.N,Net-(J1-Pad2)*
X122936000Y-89970000D03*
G04 #@! TO.N,Net-(J1-Pad3)*
X122174000Y-89208000D03*
G04 #@! TO.N,Net-(J1-Pad4)*
X121412000Y-89970000D03*
G04 #@! TO.N,Net-(J1-Pad5)*
X120650000Y-89208000D03*
G04 #@! TO.N,Net-(J1-Pad6)*
X119726000Y-89904000D03*
G04 #@! TO.N,Net-(J1-Pad7)*
X120526000Y-90704000D03*
G04 #@! TO.N,Net-(J1-Pad8)*
X119802000Y-91504000D03*
G04 #@! TO.N,Net-(J1-Pad9)*
X120542000Y-92304000D03*
G04 #@! TO.N,Net-(J1-Pad10)*
X119780000Y-93104000D03*
G04 #@! TO.N,Net-(J1-Pad11)*
X120466000Y-93904000D03*
G04 #@! TO.N,Net-(J1-Pad12)*
X119666000Y-94704000D03*
G04 #@! TO.N,Net-(J1-Pad13)*
X120466000Y-95504000D03*
G04 #@! TO.N,Net-(J1-Pad14)*
X119726000Y-96302990D03*
G04 #@! TO.N,Net-(J1-Pad15)*
X120526000Y-97102990D03*
G04 #@! TO.N,Net-(J1-Pad16)*
X119726000Y-97904000D03*
G04 #@! TO.N,+12V*
X128016000Y-102108000D03*
G04 #@! TO.N,/CLK*
X124506000Y-97944000D03*
X121539000Y-101853994D03*
G04 #@! TO.N,GND*
X125423159Y-103442839D03*
G04 #@! TO.N,/~LE*
X126906000Y-98684000D03*
X122297879Y-102622199D03*
G04 #@! TO.N,/~BL*
X128506000Y-98684000D03*
X121589685Y-103465044D03*
G04 #@! TO.N,Net-(J4-Pad1)*
X128546000Y-97104000D03*
G04 #@! TO.N,Net-(J4-Pad2)*
X129286000Y-96304000D03*
G04 #@! TO.N,Net-(J4-Pad3)*
X128546000Y-95504000D03*
G04 #@! TO.N,Net-(J4-Pad4)*
X129286000Y-94704000D03*
G04 #@! TO.N,Net-(J4-Pad5)*
X128546000Y-93904000D03*
G04 #@! TO.N,Net-(J4-Pad6)*
X129286000Y-93104000D03*
G04 #@! TO.N,Net-(J4-Pad7)*
X128546000Y-92304000D03*
G04 #@! TO.N,Net-(J4-Pad8)*
X129286000Y-91504000D03*
G04 #@! TO.N,Net-(J4-Pad9)*
X128546000Y-90704000D03*
G04 #@! TO.N,Net-(J4-Pad10)*
X129286000Y-89904000D03*
G04 #@! TD*
D14*
G04 #@! TO.N,Net-(J4-Pad11)*
X128706000Y-89124000D02*
X128506000Y-89324000D01*
X131572000Y-90170000D02*
X130526000Y-89124000D01*
X130526000Y-89124000D02*
X128706000Y-89124000D01*
X133604000Y-90170000D02*
X131572000Y-90170000D01*
G04 #@! TO.N,Net-(J4-Pad12)*
X127706000Y-88960410D02*
X127706000Y-89498315D01*
X136144000Y-90170000D02*
X134968999Y-88994999D01*
X128274410Y-88392000D02*
X127706000Y-88960410D01*
X134968999Y-88994999D02*
X131660196Y-88994999D01*
X131660196Y-88994999D02*
X131057197Y-88392000D01*
X131057197Y-88392000D02*
X128274410Y-88392000D01*
X127706000Y-89498315D02*
X127706000Y-90064000D01*
G04 #@! TO.N,Net-(J4-Pad13)*
X128400000Y-87630000D02*
X126906000Y-89124000D01*
X133604000Y-87630000D02*
X128400000Y-87630000D01*
G04 #@! TO.N,Net-(J4-Pad14)*
X126106000Y-88778000D02*
X126106000Y-89498315D01*
X128524000Y-86360000D02*
X126106000Y-88778000D01*
X126106000Y-89498315D02*
X126106000Y-90064000D01*
X134874000Y-86360000D02*
X128524000Y-86360000D01*
X136144000Y-87630000D02*
X134874000Y-86360000D01*
G04 #@! TO.N,Net-(J4-Pad15)*
X125222000Y-89408000D02*
X125222000Y-89408000D01*
X129032000Y-85090000D02*
X133604000Y-85090000D01*
X125222000Y-88900000D02*
X129032000Y-85090000D01*
X125222000Y-89408000D02*
X125222000Y-88900000D01*
G04 #@! TO.N,Net-(J4-Pad16)*
X134874000Y-83820000D02*
X136144000Y-85090000D01*
X129540000Y-83820000D02*
X134874000Y-83820000D01*
X124460000Y-88900000D02*
X129540000Y-83820000D01*
X124460000Y-90170000D02*
X124460000Y-88900000D01*
G04 #@! TO.N,Net-(J1-Pad1)*
X123698000Y-88900000D02*
X123698000Y-89208000D01*
X119888000Y-85090000D02*
X123698000Y-88900000D01*
X115316000Y-85090000D02*
X119888000Y-85090000D01*
G04 #@! TO.N,Net-(J1-Pad2)*
X114046000Y-86360000D02*
X112776000Y-85090000D01*
X122936000Y-88900000D02*
X120396000Y-86360000D01*
X120396000Y-86360000D02*
X114046000Y-86360000D01*
X122936000Y-89970000D02*
X122936000Y-88900000D01*
G04 #@! TO.N,Net-(J1-Pad3)*
X115316000Y-87630000D02*
X120961685Y-87630000D01*
X120961685Y-87630000D02*
X122174000Y-88842315D01*
X122174000Y-88842315D02*
X122174000Y-89408000D01*
G04 #@! TO.N,Net-(J1-Pad4)*
X114046000Y-88900000D02*
X112776000Y-87630000D01*
X115785002Y-88900000D02*
X114046000Y-88900000D01*
X116547002Y-88138000D02*
X115785002Y-88900000D01*
X120650000Y-88138000D02*
X116547002Y-88138000D01*
X121412000Y-88900000D02*
X120650000Y-88138000D01*
X121412000Y-90170000D02*
X121412000Y-88900000D01*
G04 #@! TO.N,Net-(J1-Pad5)*
X120650000Y-88900000D02*
X120650000Y-89408000D01*
X120396000Y-88646000D02*
X120650000Y-88900000D01*
X116840000Y-88646000D02*
X120396000Y-88646000D01*
X115316000Y-90170000D02*
X116840000Y-88646000D01*
G04 #@! TO.N,Net-(J1-Pad6)*
X112776000Y-90170000D02*
X113625999Y-91019999D01*
X113951001Y-91345001D02*
X115918999Y-91345001D01*
X113625999Y-91019999D02*
X113951001Y-91345001D01*
X115918999Y-91345001D02*
X117348000Y-89916000D01*
X117348000Y-89916000D02*
X119888000Y-89916000D01*
G04 #@! TO.N,Net-(J1-Pad7)*
X117322000Y-90704000D02*
X120726000Y-90704000D01*
X115316000Y-92710000D02*
X117322000Y-90704000D01*
G04 #@! TO.N,Net-(J1-Pad8)*
X120002000Y-91504000D02*
X119698000Y-91504000D01*
X118261002Y-91504000D02*
X120002000Y-91504000D01*
X114046000Y-93980000D02*
X115785002Y-93980000D01*
X115785002Y-93980000D02*
X118261002Y-91504000D01*
X112776000Y-92710000D02*
X114046000Y-93980000D01*
G04 #@! TO.N,Net-(J1-Pad9)*
X116165999Y-94400001D02*
X115316000Y-95250000D01*
X118262000Y-92304000D02*
X116165999Y-94400001D01*
X120742000Y-92304000D02*
X118262000Y-92304000D01*
G04 #@! TO.N,Net-(J1-Pad10)*
X113625999Y-96099999D02*
X112776000Y-95250000D01*
X119980000Y-93104000D02*
X119237178Y-93104000D01*
X114140999Y-96614999D02*
X113625999Y-96099999D01*
X115726179Y-96614999D02*
X114140999Y-96614999D01*
X119237178Y-93104000D02*
X115726179Y-96614999D01*
G04 #@! TO.N,Net-(J1-Pad11)*
X115316000Y-97661589D02*
X115316000Y-97790000D01*
X119073589Y-93904000D02*
X115316000Y-97661589D01*
X120666000Y-93904000D02*
X119073589Y-93904000D01*
G04 #@! TO.N,Net-(J1-Pad12)*
X115785002Y-99060000D02*
X114046000Y-99060000D01*
X116586000Y-97028000D02*
X116586000Y-98259002D01*
X119866000Y-94704000D02*
X118910000Y-94704000D01*
X116586000Y-98259002D02*
X115785002Y-99060000D01*
X114046000Y-99060000D02*
X112776000Y-97790000D01*
X118910000Y-94704000D02*
X116586000Y-97028000D01*
G04 #@! TO.N,Net-(J1-Pad13)*
X115316000Y-100330000D02*
X117094000Y-98552000D01*
X117094000Y-98552000D02*
X117094000Y-97156410D01*
X118746410Y-95504000D02*
X120666000Y-95504000D01*
X117094000Y-97156410D02*
X118746410Y-95504000D01*
G04 #@! TO.N,Net-(J1-Pad14)*
X119926000Y-96304000D02*
X118582820Y-96304000D01*
X117544010Y-97342810D02*
X117544010Y-100133990D01*
X118582820Y-96304000D02*
X117544010Y-97342810D01*
X113625999Y-101179999D02*
X112776000Y-100330000D01*
X114140999Y-101694999D02*
X113625999Y-101179999D01*
X115983001Y-101694999D02*
X114140999Y-101694999D01*
X117544010Y-100133990D02*
X115983001Y-101694999D01*
G04 #@! TO.N,Net-(J1-Pad15)*
X120374000Y-97028000D02*
X120574000Y-97028000D01*
X118618000Y-97028000D02*
X120374000Y-97028000D01*
X117994020Y-97651980D02*
X118618000Y-97028000D01*
X117994020Y-100320390D02*
X117994020Y-97651980D01*
X115444410Y-102870000D02*
X117994020Y-100320390D01*
X115316000Y-102870000D02*
X115444410Y-102870000D01*
G04 #@! TO.N,Net-(J1-Pad16)*
X114751999Y-104045001D02*
X114719998Y-104013000D01*
X116205000Y-104013000D02*
X115912002Y-104013000D01*
X114719998Y-104013000D02*
X113919000Y-104013000D01*
X115880001Y-104045001D02*
X114751999Y-104045001D01*
X118444030Y-101773970D02*
X116205000Y-104013000D01*
X115912002Y-104013000D02*
X115880001Y-104045001D01*
X118444030Y-98217970D02*
X118444030Y-101773970D01*
X118758000Y-97904000D02*
X118444030Y-98217970D01*
X113919000Y-104013000D02*
X112776000Y-102870000D01*
X119926000Y-97904000D02*
X118758000Y-97904000D01*
D15*
G04 #@! TO.N,+12V*
X143240512Y-105325674D02*
X142471078Y-105392990D01*
X143964339Y-105131725D02*
X143240512Y-105325674D01*
X144643489Y-104815032D02*
X143964339Y-105131725D01*
X131300990Y-105392990D02*
X128016000Y-102108000D01*
X142471078Y-105392990D02*
X131300990Y-105392990D01*
X145257334Y-104385213D02*
X144643489Y-104815032D01*
X146217031Y-103241490D02*
X145787212Y-103855335D01*
X146533724Y-102562340D02*
X146217031Y-103241490D01*
X146794990Y-93014909D02*
X146794990Y-101069078D01*
X146727673Y-101838513D02*
X146533724Y-102562340D01*
X145288000Y-92710000D02*
X146490081Y-92710000D01*
X146794990Y-101069078D02*
X146727673Y-101838513D01*
X146490081Y-92710000D02*
X146794990Y-93014909D01*
X145787212Y-103855335D02*
X145257334Y-104385213D01*
X124731010Y-105392990D02*
X127616001Y-102507999D01*
X106448923Y-105392990D02*
X124731010Y-105392990D01*
X105679486Y-105325673D02*
X106448923Y-105392990D01*
X104276508Y-104815030D02*
X104955662Y-105131725D01*
X104955662Y-105131725D02*
X105679486Y-105325673D01*
X103132786Y-103855334D02*
X103662664Y-104385212D01*
X103662664Y-104385212D02*
X104276508Y-104815030D01*
X102702967Y-103241489D02*
X103132786Y-103855334D01*
X127616001Y-102507999D02*
X128016000Y-102108000D01*
X102702967Y-96687033D02*
X102702967Y-103241489D01*
X103886000Y-95504000D02*
X102702967Y-96687033D01*
D14*
G04 #@! TO.N,/CLK*
X124506000Y-98886994D02*
X121938999Y-101453995D01*
X121938999Y-101453995D02*
X121539000Y-101853994D01*
X124506000Y-97744000D02*
X124506000Y-98886994D01*
D15*
G04 #@! TO.N,GND*
X112185979Y-104692979D02*
X124173019Y-104692979D01*
X124173019Y-104692979D02*
X125023160Y-103842838D01*
X109982000Y-91186000D02*
X110744000Y-91948000D01*
X103886000Y-92964000D02*
X103886000Y-91614000D01*
X104314000Y-91186000D02*
X109982000Y-91186000D01*
X103886000Y-91614000D02*
X104314000Y-91186000D01*
X110744000Y-103251000D02*
X112185979Y-104692979D01*
X125023160Y-103842838D02*
X125423159Y-103442839D01*
X110744000Y-91948000D02*
X110744000Y-103251000D01*
X140716000Y-97155000D02*
X143383000Y-97155000D01*
X138430000Y-99441000D02*
X140716000Y-97155000D01*
X138430000Y-103632000D02*
X138430000Y-99441000D01*
X143383000Y-97155000D02*
X145288000Y-95250000D01*
X137414000Y-104648000D02*
X138430000Y-103632000D01*
X131814002Y-104648000D02*
X137414000Y-104648000D01*
X127646998Y-101219000D02*
X128385002Y-101219000D01*
X128385002Y-101219000D02*
X131814002Y-104648000D01*
X125423159Y-103442839D02*
X127646998Y-101219000D01*
D14*
G04 #@! TO.N,/~LE*
X126906000Y-98484000D02*
X122767801Y-102622199D01*
X122767801Y-102622199D02*
X122297879Y-102622199D01*
G04 #@! TO.N,/~BL*
X128506000Y-98484000D02*
X123524956Y-103465044D01*
X122155370Y-103465044D02*
X121589685Y-103465044D01*
X123524956Y-103465044D02*
X122155370Y-103465044D01*
G04 #@! TO.N,Net-(J4-Pad1)*
X131978988Y-99977808D02*
X130925979Y-98924800D01*
X133604000Y-102870000D02*
X133604000Y-102705413D01*
X133604000Y-102705413D02*
X131978988Y-101080401D01*
X131978988Y-101080401D02*
X131978988Y-99977808D01*
X128346000Y-97104000D02*
X129464000Y-97104000D01*
X129464000Y-97104000D02*
X130925979Y-98565979D01*
X130925979Y-98565979D02*
X130925979Y-98806000D01*
X130925979Y-98924800D02*
X130925979Y-98806000D01*
G04 #@! TO.N,Net-(J4-Pad2)*
X131375990Y-98355990D02*
X131375990Y-98738400D01*
X134779001Y-101505001D02*
X136144000Y-102870000D01*
X129324000Y-96304000D02*
X131375990Y-98355990D01*
X133039999Y-101505001D02*
X134779001Y-101505001D01*
X132428999Y-100894001D02*
X133039999Y-101505001D01*
X132428999Y-99791409D02*
X132428999Y-100894001D01*
X131375990Y-98738400D02*
X132428999Y-99791409D01*
X129086000Y-96304000D02*
X129324000Y-96304000D01*
G04 #@! TO.N,Net-(J4-Pad3)*
X129540000Y-95504000D02*
X129343685Y-95504000D01*
X131826000Y-98552000D02*
X131826000Y-97790000D01*
X133604000Y-100330000D02*
X131826000Y-98552000D01*
X129343685Y-95504000D02*
X128778000Y-95504000D01*
X131826000Y-97790000D02*
X129540000Y-95504000D01*
G04 #@! TO.N,Net-(J4-Pad4)*
X134874000Y-99060000D02*
X136144000Y-100330000D01*
X132334000Y-98298000D02*
X133096000Y-99060000D01*
X129502000Y-94704000D02*
X132334000Y-97536000D01*
X133096000Y-99060000D02*
X134874000Y-99060000D01*
X132334000Y-97536000D02*
X132334000Y-98298000D01*
X129286000Y-94704000D02*
X129502000Y-94704000D01*
G04 #@! TO.N,Net-(J4-Pad5)*
X133477000Y-97790000D02*
X133604000Y-97790000D01*
X129591000Y-93904000D02*
X133477000Y-97790000D01*
X128346000Y-93904000D02*
X129591000Y-93904000D01*
G04 #@! TO.N,Net-(J4-Pad6)*
X132969000Y-96520000D02*
X134874000Y-96520000D01*
X129553000Y-93104000D02*
X132969000Y-96520000D01*
X134874000Y-96520000D02*
X136144000Y-97790000D01*
X129286000Y-93104000D02*
X129553000Y-93104000D01*
G04 #@! TO.N,Net-(J4-Pad7)*
X132461000Y-95250000D02*
X133604000Y-95250000D01*
X129515000Y-92304000D02*
X132461000Y-95250000D01*
X128346000Y-92304000D02*
X129515000Y-92304000D01*
G04 #@! TO.N,Net-(J4-Pad8)*
X132080000Y-93980000D02*
X129604000Y-91504000D01*
X134874000Y-93980000D02*
X132080000Y-93980000D01*
X136144000Y-95250000D02*
X134874000Y-93980000D01*
X129086000Y-91504000D02*
X129604000Y-91504000D01*
G04 #@! TO.N,Net-(J4-Pad9)*
X129566000Y-90704000D02*
X129794000Y-90932000D01*
X133604000Y-92710000D02*
X131572000Y-92710000D01*
X131572000Y-92710000D02*
X129794000Y-90932000D01*
X128346000Y-90704000D02*
X129566000Y-90704000D01*
G04 #@! TO.N,Net-(J4-Pad10)*
X131064000Y-91440000D02*
X129540000Y-89916000D01*
X129540000Y-89916000D02*
X129098000Y-89916000D01*
X136144000Y-92710000D02*
X134874000Y-91440000D01*
X129098000Y-89916000D02*
X129086000Y-89904000D01*
X134874000Y-91440000D02*
X131064000Y-91440000D01*
G04 #@! TD*
M02*
