G04 #@! TF.GenerationSoftware,KiCad,Pcbnew,(5.0.1-3-g963ef8bb5)*
G04 #@! TF.CreationDate,2019-05-10T17:55:58-07:00*
G04 #@! TF.ProjectId,ME203_Project,4D453230335F50726F6A6563742E6B69,rev?*
G04 #@! TF.SameCoordinates,Original*
G04 #@! TF.FileFunction,Soldermask,Bot*
G04 #@! TF.FilePolarity,Negative*
%FSLAX46Y46*%
G04 Gerber Fmt 4.6, Leading zero omitted, Abs format (unit mm)*
G04 Created by KiCad (PCBNEW (5.0.1-3-g963ef8bb5)) date Friday, May 10, 2019 at 05:55:58 PM*
%MOMM*%
%LPD*%
G01*
G04 APERTURE LIST*
%ADD10C,0.100000*%
G04 APERTURE END LIST*
D10*
G36*
X87301000Y-87001000D02*
X85499000Y-87001000D01*
X85499000Y-85199000D01*
X87301000Y-85199000D01*
X87301000Y-87001000D01*
X87301000Y-87001000D01*
G37*
G36*
X82810442Y-85145518D02*
X82876627Y-85152037D01*
X82986109Y-85185248D01*
X83046467Y-85203557D01*
X83177082Y-85273373D01*
X83202991Y-85287222D01*
X83238729Y-85316552D01*
X83340186Y-85399814D01*
X83423448Y-85501271D01*
X83452778Y-85537009D01*
X83452779Y-85537011D01*
X83536443Y-85693533D01*
X83536443Y-85693534D01*
X83587963Y-85863373D01*
X83605359Y-86040000D01*
X83587963Y-86216627D01*
X83553616Y-86329853D01*
X83536443Y-86386467D01*
X83462348Y-86525087D01*
X83452778Y-86542991D01*
X83423448Y-86578729D01*
X83340186Y-86680186D01*
X83238729Y-86763448D01*
X83202991Y-86792778D01*
X83202989Y-86792779D01*
X83046467Y-86876443D01*
X82989853Y-86893616D01*
X82876627Y-86927963D01*
X82810442Y-86934482D01*
X82744260Y-86941000D01*
X82655740Y-86941000D01*
X82589558Y-86934482D01*
X82523373Y-86927963D01*
X82410147Y-86893616D01*
X82353533Y-86876443D01*
X82197011Y-86792779D01*
X82197009Y-86792778D01*
X82161271Y-86763448D01*
X82059814Y-86680186D01*
X81976552Y-86578729D01*
X81947222Y-86542991D01*
X81937652Y-86525087D01*
X81863557Y-86386467D01*
X81846384Y-86329853D01*
X81812037Y-86216627D01*
X81794641Y-86040000D01*
X81812037Y-85863373D01*
X81863557Y-85693534D01*
X81863557Y-85693533D01*
X81947221Y-85537011D01*
X81947222Y-85537009D01*
X81976552Y-85501271D01*
X82059814Y-85399814D01*
X82161271Y-85316552D01*
X82197009Y-85287222D01*
X82222918Y-85273373D01*
X82353533Y-85203557D01*
X82413891Y-85185248D01*
X82523373Y-85152037D01*
X82589558Y-85145518D01*
X82655740Y-85139000D01*
X82744260Y-85139000D01*
X82810442Y-85145518D01*
X82810442Y-85145518D01*
G37*
G36*
X139531000Y-86351000D02*
X137729000Y-86351000D01*
X137729000Y-84549000D01*
X139531000Y-84549000D01*
X139531000Y-86351000D01*
X139531000Y-86351000D01*
G37*
G36*
X136200442Y-84555518D02*
X136266627Y-84562037D01*
X136379853Y-84596384D01*
X136436467Y-84613557D01*
X136575087Y-84687652D01*
X136592991Y-84697222D01*
X136628729Y-84726552D01*
X136730186Y-84809814D01*
X136813448Y-84911271D01*
X136842778Y-84947009D01*
X136842779Y-84947011D01*
X136926443Y-85103533D01*
X136941156Y-85152037D01*
X136977963Y-85273373D01*
X136995359Y-85450000D01*
X136977963Y-85626627D01*
X136957667Y-85693533D01*
X136926443Y-85796467D01*
X136890680Y-85863373D01*
X136842778Y-85952991D01*
X136813448Y-85988729D01*
X136730186Y-86090186D01*
X136628729Y-86173448D01*
X136592991Y-86202778D01*
X136592989Y-86202779D01*
X136436467Y-86286443D01*
X136379853Y-86303616D01*
X136266627Y-86337963D01*
X136200443Y-86344481D01*
X136134260Y-86351000D01*
X136045740Y-86351000D01*
X135979557Y-86344481D01*
X135913373Y-86337963D01*
X135800147Y-86303616D01*
X135743533Y-86286443D01*
X135587011Y-86202779D01*
X135587009Y-86202778D01*
X135551271Y-86173448D01*
X135449814Y-86090186D01*
X135366552Y-85988729D01*
X135337222Y-85952991D01*
X135289320Y-85863373D01*
X135253557Y-85796467D01*
X135222333Y-85693533D01*
X135202037Y-85626627D01*
X135184641Y-85450000D01*
X135202037Y-85273373D01*
X135238844Y-85152037D01*
X135253557Y-85103533D01*
X135337221Y-84947011D01*
X135337222Y-84947009D01*
X135366552Y-84911271D01*
X135449814Y-84809814D01*
X135551271Y-84726552D01*
X135587009Y-84697222D01*
X135604913Y-84687652D01*
X135743533Y-84613557D01*
X135800147Y-84596384D01*
X135913373Y-84562037D01*
X135979558Y-84555518D01*
X136045740Y-84549000D01*
X136134260Y-84549000D01*
X136200442Y-84555518D01*
X136200442Y-84555518D01*
G37*
G36*
X133660442Y-84555518D02*
X133726627Y-84562037D01*
X133839853Y-84596384D01*
X133896467Y-84613557D01*
X134035087Y-84687652D01*
X134052991Y-84697222D01*
X134088729Y-84726552D01*
X134190186Y-84809814D01*
X134273448Y-84911271D01*
X134302778Y-84947009D01*
X134302779Y-84947011D01*
X134386443Y-85103533D01*
X134401156Y-85152037D01*
X134437963Y-85273373D01*
X134455359Y-85450000D01*
X134437963Y-85626627D01*
X134417667Y-85693533D01*
X134386443Y-85796467D01*
X134350680Y-85863373D01*
X134302778Y-85952991D01*
X134273448Y-85988729D01*
X134190186Y-86090186D01*
X134088729Y-86173448D01*
X134052991Y-86202778D01*
X134052989Y-86202779D01*
X133896467Y-86286443D01*
X133839853Y-86303616D01*
X133726627Y-86337963D01*
X133660443Y-86344481D01*
X133594260Y-86351000D01*
X133505740Y-86351000D01*
X133439557Y-86344481D01*
X133373373Y-86337963D01*
X133260147Y-86303616D01*
X133203533Y-86286443D01*
X133047011Y-86202779D01*
X133047009Y-86202778D01*
X133011271Y-86173448D01*
X132909814Y-86090186D01*
X132826552Y-85988729D01*
X132797222Y-85952991D01*
X132749320Y-85863373D01*
X132713557Y-85796467D01*
X132682333Y-85693533D01*
X132662037Y-85626627D01*
X132644641Y-85450000D01*
X132662037Y-85273373D01*
X132698844Y-85152037D01*
X132713557Y-85103533D01*
X132797221Y-84947011D01*
X132797222Y-84947009D01*
X132826552Y-84911271D01*
X132909814Y-84809814D01*
X133011271Y-84726552D01*
X133047009Y-84697222D01*
X133064913Y-84687652D01*
X133203533Y-84613557D01*
X133260147Y-84596384D01*
X133373373Y-84562037D01*
X133439558Y-84555518D01*
X133505740Y-84549000D01*
X133594260Y-84549000D01*
X133660442Y-84555518D01*
X133660442Y-84555518D01*
G37*
G36*
X131120442Y-84555518D02*
X131186627Y-84562037D01*
X131299853Y-84596384D01*
X131356467Y-84613557D01*
X131495087Y-84687652D01*
X131512991Y-84697222D01*
X131548729Y-84726552D01*
X131650186Y-84809814D01*
X131733448Y-84911271D01*
X131762778Y-84947009D01*
X131762779Y-84947011D01*
X131846443Y-85103533D01*
X131861156Y-85152037D01*
X131897963Y-85273373D01*
X131915359Y-85450000D01*
X131897963Y-85626627D01*
X131877667Y-85693533D01*
X131846443Y-85796467D01*
X131810680Y-85863373D01*
X131762778Y-85952991D01*
X131733448Y-85988729D01*
X131650186Y-86090186D01*
X131548729Y-86173448D01*
X131512991Y-86202778D01*
X131512989Y-86202779D01*
X131356467Y-86286443D01*
X131299853Y-86303616D01*
X131186627Y-86337963D01*
X131120443Y-86344481D01*
X131054260Y-86351000D01*
X130965740Y-86351000D01*
X130899557Y-86344481D01*
X130833373Y-86337963D01*
X130720147Y-86303616D01*
X130663533Y-86286443D01*
X130507011Y-86202779D01*
X130507009Y-86202778D01*
X130471271Y-86173448D01*
X130369814Y-86090186D01*
X130286552Y-85988729D01*
X130257222Y-85952991D01*
X130209320Y-85863373D01*
X130173557Y-85796467D01*
X130142333Y-85693533D01*
X130122037Y-85626627D01*
X130104641Y-85450000D01*
X130122037Y-85273373D01*
X130158844Y-85152037D01*
X130173557Y-85103533D01*
X130257221Y-84947011D01*
X130257222Y-84947009D01*
X130286552Y-84911271D01*
X130369814Y-84809814D01*
X130471271Y-84726552D01*
X130507009Y-84697222D01*
X130524913Y-84687652D01*
X130663533Y-84613557D01*
X130720147Y-84596384D01*
X130833373Y-84562037D01*
X130899558Y-84555518D01*
X130965740Y-84549000D01*
X131054260Y-84549000D01*
X131120442Y-84555518D01*
X131120442Y-84555518D01*
G37*
G36*
X128580442Y-84555518D02*
X128646627Y-84562037D01*
X128759853Y-84596384D01*
X128816467Y-84613557D01*
X128955087Y-84687652D01*
X128972991Y-84697222D01*
X129008729Y-84726552D01*
X129110186Y-84809814D01*
X129193448Y-84911271D01*
X129222778Y-84947009D01*
X129222779Y-84947011D01*
X129306443Y-85103533D01*
X129321156Y-85152037D01*
X129357963Y-85273373D01*
X129375359Y-85450000D01*
X129357963Y-85626627D01*
X129337667Y-85693533D01*
X129306443Y-85796467D01*
X129270680Y-85863373D01*
X129222778Y-85952991D01*
X129193448Y-85988729D01*
X129110186Y-86090186D01*
X129008729Y-86173448D01*
X128972991Y-86202778D01*
X128972989Y-86202779D01*
X128816467Y-86286443D01*
X128759853Y-86303616D01*
X128646627Y-86337963D01*
X128580443Y-86344481D01*
X128514260Y-86351000D01*
X128425740Y-86351000D01*
X128359557Y-86344481D01*
X128293373Y-86337963D01*
X128180147Y-86303616D01*
X128123533Y-86286443D01*
X127967011Y-86202779D01*
X127967009Y-86202778D01*
X127931271Y-86173448D01*
X127829814Y-86090186D01*
X127746552Y-85988729D01*
X127717222Y-85952991D01*
X127669320Y-85863373D01*
X127633557Y-85796467D01*
X127602333Y-85693533D01*
X127582037Y-85626627D01*
X127564641Y-85450000D01*
X127582037Y-85273373D01*
X127618844Y-85152037D01*
X127633557Y-85103533D01*
X127717221Y-84947011D01*
X127717222Y-84947009D01*
X127746552Y-84911271D01*
X127829814Y-84809814D01*
X127931271Y-84726552D01*
X127967009Y-84697222D01*
X127984913Y-84687652D01*
X128123533Y-84613557D01*
X128180147Y-84596384D01*
X128293373Y-84562037D01*
X128359558Y-84555518D01*
X128425740Y-84549000D01*
X128514260Y-84549000D01*
X128580442Y-84555518D01*
X128580442Y-84555518D01*
G37*
G36*
X126040442Y-84555518D02*
X126106627Y-84562037D01*
X126219853Y-84596384D01*
X126276467Y-84613557D01*
X126415087Y-84687652D01*
X126432991Y-84697222D01*
X126468729Y-84726552D01*
X126570186Y-84809814D01*
X126653448Y-84911271D01*
X126682778Y-84947009D01*
X126682779Y-84947011D01*
X126766443Y-85103533D01*
X126781156Y-85152037D01*
X126817963Y-85273373D01*
X126835359Y-85450000D01*
X126817963Y-85626627D01*
X126797667Y-85693533D01*
X126766443Y-85796467D01*
X126730680Y-85863373D01*
X126682778Y-85952991D01*
X126653448Y-85988729D01*
X126570186Y-86090186D01*
X126468729Y-86173448D01*
X126432991Y-86202778D01*
X126432989Y-86202779D01*
X126276467Y-86286443D01*
X126219853Y-86303616D01*
X126106627Y-86337963D01*
X126040443Y-86344481D01*
X125974260Y-86351000D01*
X125885740Y-86351000D01*
X125819557Y-86344481D01*
X125753373Y-86337963D01*
X125640147Y-86303616D01*
X125583533Y-86286443D01*
X125427011Y-86202779D01*
X125427009Y-86202778D01*
X125391271Y-86173448D01*
X125289814Y-86090186D01*
X125206552Y-85988729D01*
X125177222Y-85952991D01*
X125129320Y-85863373D01*
X125093557Y-85796467D01*
X125062333Y-85693533D01*
X125042037Y-85626627D01*
X125024641Y-85450000D01*
X125042037Y-85273373D01*
X125078844Y-85152037D01*
X125093557Y-85103533D01*
X125177221Y-84947011D01*
X125177222Y-84947009D01*
X125206552Y-84911271D01*
X125289814Y-84809814D01*
X125391271Y-84726552D01*
X125427009Y-84697222D01*
X125444913Y-84687652D01*
X125583533Y-84613557D01*
X125640147Y-84596384D01*
X125753373Y-84562037D01*
X125819558Y-84555518D01*
X125885740Y-84549000D01*
X125974260Y-84549000D01*
X126040442Y-84555518D01*
X126040442Y-84555518D01*
G37*
G36*
X123500442Y-84555518D02*
X123566627Y-84562037D01*
X123679853Y-84596384D01*
X123736467Y-84613557D01*
X123875087Y-84687652D01*
X123892991Y-84697222D01*
X123928729Y-84726552D01*
X124030186Y-84809814D01*
X124113448Y-84911271D01*
X124142778Y-84947009D01*
X124142779Y-84947011D01*
X124226443Y-85103533D01*
X124241156Y-85152037D01*
X124277963Y-85273373D01*
X124295359Y-85450000D01*
X124277963Y-85626627D01*
X124257667Y-85693533D01*
X124226443Y-85796467D01*
X124190680Y-85863373D01*
X124142778Y-85952991D01*
X124113448Y-85988729D01*
X124030186Y-86090186D01*
X123928729Y-86173448D01*
X123892991Y-86202778D01*
X123892989Y-86202779D01*
X123736467Y-86286443D01*
X123679853Y-86303616D01*
X123566627Y-86337963D01*
X123500443Y-86344481D01*
X123434260Y-86351000D01*
X123345740Y-86351000D01*
X123279557Y-86344481D01*
X123213373Y-86337963D01*
X123100147Y-86303616D01*
X123043533Y-86286443D01*
X122887011Y-86202779D01*
X122887009Y-86202778D01*
X122851271Y-86173448D01*
X122749814Y-86090186D01*
X122666552Y-85988729D01*
X122637222Y-85952991D01*
X122589320Y-85863373D01*
X122553557Y-85796467D01*
X122522333Y-85693533D01*
X122502037Y-85626627D01*
X122484641Y-85450000D01*
X122502037Y-85273373D01*
X122538844Y-85152037D01*
X122553557Y-85103533D01*
X122637221Y-84947011D01*
X122637222Y-84947009D01*
X122666552Y-84911271D01*
X122749814Y-84809814D01*
X122851271Y-84726552D01*
X122887009Y-84697222D01*
X122904913Y-84687652D01*
X123043533Y-84613557D01*
X123100147Y-84596384D01*
X123213373Y-84562037D01*
X123279558Y-84555518D01*
X123345740Y-84549000D01*
X123434260Y-84549000D01*
X123500442Y-84555518D01*
X123500442Y-84555518D01*
G37*
G36*
X101351000Y-86351000D02*
X99549000Y-86351000D01*
X99549000Y-84549000D01*
X101351000Y-84549000D01*
X101351000Y-86351000D01*
X101351000Y-86351000D01*
G37*
G36*
X98020442Y-84555518D02*
X98086627Y-84562037D01*
X98199853Y-84596384D01*
X98256467Y-84613557D01*
X98395087Y-84687652D01*
X98412991Y-84697222D01*
X98448729Y-84726552D01*
X98550186Y-84809814D01*
X98633448Y-84911271D01*
X98662778Y-84947009D01*
X98662779Y-84947011D01*
X98746443Y-85103533D01*
X98761156Y-85152037D01*
X98797963Y-85273373D01*
X98815359Y-85450000D01*
X98797963Y-85626627D01*
X98777667Y-85693533D01*
X98746443Y-85796467D01*
X98710680Y-85863373D01*
X98662778Y-85952991D01*
X98633448Y-85988729D01*
X98550186Y-86090186D01*
X98448729Y-86173448D01*
X98412991Y-86202778D01*
X98412989Y-86202779D01*
X98256467Y-86286443D01*
X98199853Y-86303616D01*
X98086627Y-86337963D01*
X98020443Y-86344481D01*
X97954260Y-86351000D01*
X97865740Y-86351000D01*
X97799557Y-86344481D01*
X97733373Y-86337963D01*
X97620147Y-86303616D01*
X97563533Y-86286443D01*
X97407011Y-86202779D01*
X97407009Y-86202778D01*
X97371271Y-86173448D01*
X97269814Y-86090186D01*
X97186552Y-85988729D01*
X97157222Y-85952991D01*
X97109320Y-85863373D01*
X97073557Y-85796467D01*
X97042333Y-85693533D01*
X97022037Y-85626627D01*
X97004641Y-85450000D01*
X97022037Y-85273373D01*
X97058844Y-85152037D01*
X97073557Y-85103533D01*
X97157221Y-84947011D01*
X97157222Y-84947009D01*
X97186552Y-84911271D01*
X97269814Y-84809814D01*
X97371271Y-84726552D01*
X97407009Y-84697222D01*
X97424913Y-84687652D01*
X97563533Y-84613557D01*
X97620147Y-84596384D01*
X97733373Y-84562037D01*
X97799558Y-84555518D01*
X97865740Y-84549000D01*
X97954260Y-84549000D01*
X98020442Y-84555518D01*
X98020442Y-84555518D01*
G37*
G36*
X95480442Y-84555518D02*
X95546627Y-84562037D01*
X95659853Y-84596384D01*
X95716467Y-84613557D01*
X95855087Y-84687652D01*
X95872991Y-84697222D01*
X95908729Y-84726552D01*
X96010186Y-84809814D01*
X96093448Y-84911271D01*
X96122778Y-84947009D01*
X96122779Y-84947011D01*
X96206443Y-85103533D01*
X96221156Y-85152037D01*
X96257963Y-85273373D01*
X96275359Y-85450000D01*
X96257963Y-85626627D01*
X96237667Y-85693533D01*
X96206443Y-85796467D01*
X96170680Y-85863373D01*
X96122778Y-85952991D01*
X96093448Y-85988729D01*
X96010186Y-86090186D01*
X95908729Y-86173448D01*
X95872991Y-86202778D01*
X95872989Y-86202779D01*
X95716467Y-86286443D01*
X95659853Y-86303616D01*
X95546627Y-86337963D01*
X95480443Y-86344481D01*
X95414260Y-86351000D01*
X95325740Y-86351000D01*
X95259557Y-86344481D01*
X95193373Y-86337963D01*
X95080147Y-86303616D01*
X95023533Y-86286443D01*
X94867011Y-86202779D01*
X94867009Y-86202778D01*
X94831271Y-86173448D01*
X94729814Y-86090186D01*
X94646552Y-85988729D01*
X94617222Y-85952991D01*
X94569320Y-85863373D01*
X94533557Y-85796467D01*
X94502333Y-85693533D01*
X94482037Y-85626627D01*
X94464641Y-85450000D01*
X94482037Y-85273373D01*
X94518844Y-85152037D01*
X94533557Y-85103533D01*
X94617221Y-84947011D01*
X94617222Y-84947009D01*
X94646552Y-84911271D01*
X94729814Y-84809814D01*
X94831271Y-84726552D01*
X94867009Y-84697222D01*
X94884913Y-84687652D01*
X95023533Y-84613557D01*
X95080147Y-84596384D01*
X95193373Y-84562037D01*
X95259558Y-84555518D01*
X95325740Y-84549000D01*
X95414260Y-84549000D01*
X95480442Y-84555518D01*
X95480442Y-84555518D01*
G37*
G36*
X92940442Y-84555518D02*
X93006627Y-84562037D01*
X93119853Y-84596384D01*
X93176467Y-84613557D01*
X93315087Y-84687652D01*
X93332991Y-84697222D01*
X93368729Y-84726552D01*
X93470186Y-84809814D01*
X93553448Y-84911271D01*
X93582778Y-84947009D01*
X93582779Y-84947011D01*
X93666443Y-85103533D01*
X93681156Y-85152037D01*
X93717963Y-85273373D01*
X93735359Y-85450000D01*
X93717963Y-85626627D01*
X93697667Y-85693533D01*
X93666443Y-85796467D01*
X93630680Y-85863373D01*
X93582778Y-85952991D01*
X93553448Y-85988729D01*
X93470186Y-86090186D01*
X93368729Y-86173448D01*
X93332991Y-86202778D01*
X93332989Y-86202779D01*
X93176467Y-86286443D01*
X93119853Y-86303616D01*
X93006627Y-86337963D01*
X92940443Y-86344481D01*
X92874260Y-86351000D01*
X92785740Y-86351000D01*
X92719557Y-86344481D01*
X92653373Y-86337963D01*
X92540147Y-86303616D01*
X92483533Y-86286443D01*
X92327011Y-86202779D01*
X92327009Y-86202778D01*
X92291271Y-86173448D01*
X92189814Y-86090186D01*
X92106552Y-85988729D01*
X92077222Y-85952991D01*
X92029320Y-85863373D01*
X91993557Y-85796467D01*
X91962333Y-85693533D01*
X91942037Y-85626627D01*
X91924641Y-85450000D01*
X91942037Y-85273373D01*
X91978844Y-85152037D01*
X91993557Y-85103533D01*
X92077221Y-84947011D01*
X92077222Y-84947009D01*
X92106552Y-84911271D01*
X92189814Y-84809814D01*
X92291271Y-84726552D01*
X92327009Y-84697222D01*
X92344913Y-84687652D01*
X92483533Y-84613557D01*
X92540147Y-84596384D01*
X92653373Y-84562037D01*
X92719558Y-84555518D01*
X92785740Y-84549000D01*
X92874260Y-84549000D01*
X92940442Y-84555518D01*
X92940442Y-84555518D01*
G37*
G36*
X90400442Y-84555518D02*
X90466627Y-84562037D01*
X90579853Y-84596384D01*
X90636467Y-84613557D01*
X90775087Y-84687652D01*
X90792991Y-84697222D01*
X90828729Y-84726552D01*
X90930186Y-84809814D01*
X91013448Y-84911271D01*
X91042778Y-84947009D01*
X91042779Y-84947011D01*
X91126443Y-85103533D01*
X91141156Y-85152037D01*
X91177963Y-85273373D01*
X91195359Y-85450000D01*
X91177963Y-85626627D01*
X91157667Y-85693533D01*
X91126443Y-85796467D01*
X91090680Y-85863373D01*
X91042778Y-85952991D01*
X91013448Y-85988729D01*
X90930186Y-86090186D01*
X90828729Y-86173448D01*
X90792991Y-86202778D01*
X90792989Y-86202779D01*
X90636467Y-86286443D01*
X90579853Y-86303616D01*
X90466627Y-86337963D01*
X90400443Y-86344481D01*
X90334260Y-86351000D01*
X90245740Y-86351000D01*
X90179557Y-86344481D01*
X90113373Y-86337963D01*
X90000147Y-86303616D01*
X89943533Y-86286443D01*
X89787011Y-86202779D01*
X89787009Y-86202778D01*
X89751271Y-86173448D01*
X89649814Y-86090186D01*
X89566552Y-85988729D01*
X89537222Y-85952991D01*
X89489320Y-85863373D01*
X89453557Y-85796467D01*
X89422333Y-85693533D01*
X89402037Y-85626627D01*
X89384641Y-85450000D01*
X89402037Y-85273373D01*
X89438844Y-85152037D01*
X89453557Y-85103533D01*
X89537221Y-84947011D01*
X89537222Y-84947009D01*
X89566552Y-84911271D01*
X89649814Y-84809814D01*
X89751271Y-84726552D01*
X89787009Y-84697222D01*
X89804913Y-84687652D01*
X89943533Y-84613557D01*
X90000147Y-84596384D01*
X90113373Y-84562037D01*
X90179558Y-84555518D01*
X90245740Y-84549000D01*
X90334260Y-84549000D01*
X90400442Y-84555518D01*
X90400442Y-84555518D01*
G37*
G36*
X144511214Y-81814751D02*
X144830166Y-81946865D01*
X145117220Y-82138669D01*
X145361331Y-82382780D01*
X145553135Y-82669834D01*
X145685249Y-82988786D01*
X145752600Y-83327383D01*
X145752600Y-83672617D01*
X145685249Y-84011214D01*
X145553135Y-84330166D01*
X145361331Y-84617220D01*
X145117220Y-84861331D01*
X144830166Y-85053135D01*
X144511214Y-85185249D01*
X144172617Y-85252600D01*
X143827383Y-85252600D01*
X143488786Y-85185249D01*
X143169834Y-85053135D01*
X142882780Y-84861331D01*
X142638669Y-84617220D01*
X142446865Y-84330166D01*
X142314751Y-84011214D01*
X142247400Y-83672617D01*
X142247400Y-83327383D01*
X142314751Y-82988786D01*
X142446865Y-82669834D01*
X142638669Y-82382780D01*
X142882780Y-82138669D01*
X143169834Y-81946865D01*
X143488786Y-81814751D01*
X143827383Y-81747400D01*
X144172617Y-81747400D01*
X144511214Y-81814751D01*
X144511214Y-81814751D01*
G37*
G36*
X78211214Y-81814751D02*
X78530166Y-81946865D01*
X78817220Y-82138669D01*
X79061331Y-82382780D01*
X79253135Y-82669834D01*
X79385249Y-82988786D01*
X79452600Y-83327383D01*
X79452600Y-83672617D01*
X79385249Y-84011214D01*
X79253135Y-84330166D01*
X79061331Y-84617220D01*
X78817220Y-84861331D01*
X78530166Y-85053135D01*
X78211214Y-85185249D01*
X77872617Y-85252600D01*
X77527383Y-85252600D01*
X77188786Y-85185249D01*
X76869834Y-85053135D01*
X76582780Y-84861331D01*
X76338669Y-84617220D01*
X76146865Y-84330166D01*
X76014751Y-84011214D01*
X75947400Y-83672617D01*
X75947400Y-83327383D01*
X76014751Y-82988786D01*
X76146865Y-82669834D01*
X76338669Y-82382780D01*
X76582780Y-82138669D01*
X76869834Y-81946865D01*
X77188786Y-81814751D01*
X77527383Y-81747400D01*
X77872617Y-81747400D01*
X78211214Y-81814751D01*
X78211214Y-81814751D01*
G37*
G36*
X86510442Y-82665518D02*
X86576627Y-82672037D01*
X86689853Y-82706384D01*
X86746467Y-82723557D01*
X86885087Y-82797652D01*
X86902991Y-82807222D01*
X86938729Y-82836552D01*
X87040186Y-82919814D01*
X87123448Y-83021271D01*
X87152778Y-83057009D01*
X87152779Y-83057011D01*
X87236443Y-83213533D01*
X87236443Y-83213534D01*
X87287963Y-83383373D01*
X87305359Y-83560000D01*
X87287963Y-83736627D01*
X87253616Y-83849853D01*
X87236443Y-83906467D01*
X87180454Y-84011214D01*
X87152778Y-84062991D01*
X87123448Y-84098729D01*
X87040186Y-84200186D01*
X86938729Y-84283448D01*
X86902991Y-84312778D01*
X86902989Y-84312779D01*
X86746467Y-84396443D01*
X86731444Y-84401000D01*
X86576627Y-84447963D01*
X86510442Y-84454482D01*
X86444260Y-84461000D01*
X86355740Y-84461000D01*
X86289558Y-84454482D01*
X86223373Y-84447963D01*
X86068556Y-84401000D01*
X86053533Y-84396443D01*
X85897011Y-84312779D01*
X85897009Y-84312778D01*
X85861271Y-84283448D01*
X85759814Y-84200186D01*
X85676552Y-84098729D01*
X85647222Y-84062991D01*
X85619546Y-84011214D01*
X85563557Y-83906467D01*
X85546384Y-83849853D01*
X85512037Y-83736627D01*
X85494641Y-83560000D01*
X85512037Y-83383373D01*
X85563557Y-83213534D01*
X85563557Y-83213533D01*
X85647221Y-83057011D01*
X85647222Y-83057009D01*
X85676552Y-83021271D01*
X85759814Y-82919814D01*
X85861271Y-82836552D01*
X85897009Y-82807222D01*
X85914913Y-82797652D01*
X86053533Y-82723557D01*
X86110147Y-82706384D01*
X86223373Y-82672037D01*
X86289558Y-82665518D01*
X86355740Y-82659000D01*
X86444260Y-82659000D01*
X86510442Y-82665518D01*
X86510442Y-82665518D01*
G37*
G36*
X83601000Y-84401000D02*
X81799000Y-84401000D01*
X81799000Y-82599000D01*
X83601000Y-82599000D01*
X83601000Y-84401000D01*
X83601000Y-84401000D01*
G37*
G36*
X99901000Y-78681000D02*
X98099000Y-78681000D01*
X98099000Y-76879000D01*
X99901000Y-76879000D01*
X99901000Y-78681000D01*
X99901000Y-78681000D01*
G37*
G36*
X78580599Y-77732376D02*
X76778599Y-77732376D01*
X76778599Y-75930376D01*
X78580599Y-75930376D01*
X78580599Y-77732376D01*
X78580599Y-77732376D01*
G37*
G36*
X99110443Y-74345519D02*
X99176627Y-74352037D01*
X99289853Y-74386384D01*
X99346467Y-74403557D01*
X99467031Y-74468001D01*
X99502991Y-74487222D01*
X99538729Y-74516552D01*
X99640186Y-74599814D01*
X99723448Y-74701271D01*
X99752778Y-74737009D01*
X99752779Y-74737011D01*
X99836443Y-74893533D01*
X99836443Y-74893534D01*
X99887963Y-75063373D01*
X99905359Y-75240000D01*
X99887963Y-75416627D01*
X99853616Y-75529853D01*
X99836443Y-75586467D01*
X99762348Y-75725087D01*
X99752778Y-75742991D01*
X99723448Y-75778729D01*
X99640186Y-75880186D01*
X99579028Y-75930376D01*
X99502991Y-75992778D01*
X99502989Y-75992779D01*
X99346467Y-76076443D01*
X99289853Y-76093616D01*
X99176627Y-76127963D01*
X99110443Y-76134481D01*
X99044260Y-76141000D01*
X98955740Y-76141000D01*
X98889557Y-76134481D01*
X98823373Y-76127963D01*
X98710147Y-76093616D01*
X98653533Y-76076443D01*
X98497011Y-75992779D01*
X98497009Y-75992778D01*
X98420972Y-75930376D01*
X98359814Y-75880186D01*
X98276552Y-75778729D01*
X98247222Y-75742991D01*
X98237652Y-75725087D01*
X98163557Y-75586467D01*
X98146384Y-75529853D01*
X98112037Y-75416627D01*
X98094641Y-75240000D01*
X98112037Y-75063373D01*
X98163557Y-74893534D01*
X98163557Y-74893533D01*
X98247221Y-74737011D01*
X98247222Y-74737009D01*
X98276552Y-74701271D01*
X98359814Y-74599814D01*
X98461271Y-74516552D01*
X98497009Y-74487222D01*
X98532969Y-74468001D01*
X98653533Y-74403557D01*
X98710147Y-74386384D01*
X98823373Y-74352037D01*
X98889557Y-74345519D01*
X98955740Y-74339000D01*
X99044260Y-74339000D01*
X99110443Y-74345519D01*
X99110443Y-74345519D01*
G37*
G36*
X77790042Y-73396895D02*
X77856226Y-73403413D01*
X77969452Y-73437760D01*
X78026066Y-73454933D01*
X78164686Y-73529028D01*
X78182590Y-73538598D01*
X78218328Y-73567928D01*
X78319785Y-73651190D01*
X78403047Y-73752647D01*
X78432377Y-73788385D01*
X78432378Y-73788387D01*
X78516042Y-73944909D01*
X78516042Y-73944910D01*
X78567562Y-74114749D01*
X78584958Y-74291376D01*
X78567562Y-74468003D01*
X78533215Y-74581229D01*
X78516042Y-74637843D01*
X78463036Y-74737009D01*
X78432377Y-74794367D01*
X78403047Y-74830105D01*
X78319785Y-74931562D01*
X78218328Y-75014824D01*
X78182590Y-75044154D01*
X78182588Y-75044155D01*
X78026066Y-75127819D01*
X77969452Y-75144992D01*
X77856226Y-75179339D01*
X77790041Y-75185858D01*
X77723859Y-75192376D01*
X77635339Y-75192376D01*
X77569157Y-75185858D01*
X77502972Y-75179339D01*
X77389746Y-75144992D01*
X77333132Y-75127819D01*
X77176610Y-75044155D01*
X77176608Y-75044154D01*
X77140870Y-75014824D01*
X77039413Y-74931562D01*
X76956151Y-74830105D01*
X76926821Y-74794367D01*
X76896162Y-74737009D01*
X76843156Y-74637843D01*
X76825983Y-74581229D01*
X76791636Y-74468003D01*
X76774240Y-74291376D01*
X76791636Y-74114749D01*
X76843156Y-73944910D01*
X76843156Y-73944909D01*
X76926820Y-73788387D01*
X76926821Y-73788385D01*
X76956151Y-73752647D01*
X77039413Y-73651190D01*
X77140870Y-73567928D01*
X77176608Y-73538598D01*
X77194512Y-73529028D01*
X77333132Y-73454933D01*
X77389746Y-73437760D01*
X77502972Y-73403413D01*
X77569156Y-73396895D01*
X77635339Y-73390376D01*
X77723859Y-73390376D01*
X77790042Y-73396895D01*
X77790042Y-73396895D01*
G37*
G36*
X99110442Y-71805518D02*
X99176627Y-71812037D01*
X99289853Y-71846384D01*
X99346467Y-71863557D01*
X99485087Y-71937652D01*
X99502991Y-71947222D01*
X99538729Y-71976552D01*
X99640186Y-72059814D01*
X99723448Y-72161271D01*
X99752778Y-72197009D01*
X99752779Y-72197011D01*
X99836443Y-72353533D01*
X99836443Y-72353534D01*
X99887963Y-72523373D01*
X99905359Y-72700000D01*
X99887963Y-72876627D01*
X99853616Y-72989853D01*
X99836443Y-73046467D01*
X99762348Y-73185087D01*
X99752778Y-73202991D01*
X99723448Y-73238729D01*
X99640186Y-73340186D01*
X99538729Y-73423448D01*
X99502991Y-73452778D01*
X99502989Y-73452779D01*
X99346467Y-73536443D01*
X99289853Y-73553616D01*
X99176627Y-73587963D01*
X99110443Y-73594481D01*
X99044260Y-73601000D01*
X98955740Y-73601000D01*
X98889557Y-73594481D01*
X98823373Y-73587963D01*
X98710147Y-73553616D01*
X98653533Y-73536443D01*
X98497011Y-73452779D01*
X98497009Y-73452778D01*
X98461271Y-73423448D01*
X98359814Y-73340186D01*
X98276552Y-73238729D01*
X98247222Y-73202991D01*
X98237652Y-73185087D01*
X98163557Y-73046467D01*
X98146384Y-72989853D01*
X98112037Y-72876627D01*
X98094641Y-72700000D01*
X98112037Y-72523373D01*
X98163557Y-72353534D01*
X98163557Y-72353533D01*
X98247221Y-72197011D01*
X98247222Y-72197009D01*
X98276552Y-72161271D01*
X98359814Y-72059814D01*
X98461271Y-71976552D01*
X98497009Y-71947222D01*
X98514913Y-71937652D01*
X98653533Y-71863557D01*
X98710147Y-71846384D01*
X98823373Y-71812037D01*
X98889558Y-71805518D01*
X98955740Y-71799000D01*
X99044260Y-71799000D01*
X99110442Y-71805518D01*
X99110442Y-71805518D01*
G37*
G36*
X125101000Y-72201000D02*
X123299000Y-72201000D01*
X123299000Y-70399000D01*
X125101000Y-70399000D01*
X125101000Y-72201000D01*
X125101000Y-72201000D01*
G37*
G36*
X78580599Y-69482376D02*
X76778599Y-69482376D01*
X76778599Y-67680376D01*
X78580599Y-67680376D01*
X78580599Y-69482376D01*
X78580599Y-69482376D01*
G37*
G36*
X85491146Y-68128485D02*
X85529545Y-68144391D01*
X85564105Y-68167483D01*
X85593493Y-68196871D01*
X85616585Y-68231431D01*
X85632491Y-68269830D01*
X85640599Y-68310594D01*
X85640599Y-68352160D01*
X85632491Y-68392924D01*
X85616585Y-68431323D01*
X85593493Y-68465883D01*
X85564105Y-68495271D01*
X85529545Y-68518363D01*
X85491146Y-68534269D01*
X85450382Y-68542377D01*
X85408816Y-68542377D01*
X85368052Y-68534269D01*
X85329653Y-68518363D01*
X85295093Y-68495271D01*
X85265705Y-68465883D01*
X85242613Y-68431323D01*
X85226707Y-68392924D01*
X85218599Y-68352160D01*
X85218599Y-68310594D01*
X85226707Y-68269830D01*
X85242613Y-68231431D01*
X85265705Y-68196871D01*
X85295093Y-68167483D01*
X85329653Y-68144391D01*
X85368052Y-68128485D01*
X85408816Y-68120377D01*
X85450382Y-68120377D01*
X85491146Y-68128485D01*
X85491146Y-68128485D01*
G37*
G36*
X85491146Y-67378485D02*
X85529545Y-67394391D01*
X85564105Y-67417483D01*
X85593493Y-67446871D01*
X85616585Y-67481431D01*
X85632491Y-67519830D01*
X85640599Y-67560594D01*
X85640599Y-67602160D01*
X85632491Y-67642924D01*
X85616585Y-67681323D01*
X85593493Y-67715883D01*
X85564105Y-67745271D01*
X85529545Y-67768363D01*
X85491146Y-67784269D01*
X85450382Y-67792377D01*
X85408816Y-67792377D01*
X85368052Y-67784269D01*
X85329653Y-67768363D01*
X85295093Y-67745271D01*
X85265705Y-67715883D01*
X85242613Y-67681323D01*
X85226707Y-67642924D01*
X85218599Y-67602160D01*
X85218599Y-67560594D01*
X85226707Y-67519830D01*
X85242613Y-67481431D01*
X85265705Y-67446871D01*
X85295093Y-67417483D01*
X85329653Y-67394391D01*
X85368052Y-67378485D01*
X85408816Y-67370377D01*
X85450382Y-67370377D01*
X85491146Y-67378485D01*
X85491146Y-67378485D01*
G37*
G36*
X85491146Y-66628485D02*
X85529545Y-66644391D01*
X85564105Y-66667483D01*
X85593493Y-66696871D01*
X85616585Y-66731431D01*
X85632491Y-66769830D01*
X85640599Y-66810594D01*
X85640599Y-66852160D01*
X85632491Y-66892924D01*
X85616585Y-66931323D01*
X85593493Y-66965883D01*
X85564105Y-66995271D01*
X85529545Y-67018363D01*
X85491146Y-67034269D01*
X85450382Y-67042377D01*
X85408816Y-67042377D01*
X85368052Y-67034269D01*
X85329653Y-67018363D01*
X85295093Y-66995271D01*
X85265705Y-66965883D01*
X85242613Y-66931323D01*
X85226707Y-66892924D01*
X85218599Y-66852160D01*
X85218599Y-66810594D01*
X85226707Y-66769830D01*
X85242613Y-66731431D01*
X85265705Y-66696871D01*
X85295093Y-66667483D01*
X85329653Y-66644391D01*
X85368052Y-66628485D01*
X85408816Y-66620377D01*
X85450382Y-66620377D01*
X85491146Y-66628485D01*
X85491146Y-66628485D01*
G37*
G36*
X77790042Y-65146895D02*
X77856226Y-65153413D01*
X77969452Y-65187760D01*
X78026066Y-65204933D01*
X78164686Y-65279028D01*
X78182590Y-65288598D01*
X78218328Y-65317928D01*
X78319785Y-65401190D01*
X78403047Y-65502647D01*
X78432377Y-65538385D01*
X78432378Y-65538387D01*
X78516042Y-65694909D01*
X78516042Y-65694910D01*
X78567562Y-65864749D01*
X78584958Y-66041376D01*
X78567562Y-66218003D01*
X78533215Y-66331229D01*
X78516042Y-66387843D01*
X78441947Y-66526463D01*
X78432377Y-66544367D01*
X78403047Y-66580105D01*
X78319785Y-66681562D01*
X78218328Y-66764824D01*
X78182590Y-66794154D01*
X78182588Y-66794155D01*
X78026066Y-66877819D01*
X77969452Y-66894992D01*
X77856226Y-66929339D01*
X77790041Y-66935858D01*
X77723859Y-66942376D01*
X77635339Y-66942376D01*
X77569157Y-66935858D01*
X77502972Y-66929339D01*
X77389746Y-66894992D01*
X77333132Y-66877819D01*
X77176610Y-66794155D01*
X77176608Y-66794154D01*
X77140870Y-66764824D01*
X77039413Y-66681562D01*
X76956151Y-66580105D01*
X76926821Y-66544367D01*
X76917251Y-66526463D01*
X76843156Y-66387843D01*
X76825983Y-66331229D01*
X76791636Y-66218003D01*
X76774240Y-66041376D01*
X76791636Y-65864749D01*
X76843156Y-65694910D01*
X76843156Y-65694909D01*
X76926820Y-65538387D01*
X76926821Y-65538385D01*
X76956151Y-65502647D01*
X77039413Y-65401190D01*
X77140870Y-65317928D01*
X77176608Y-65288598D01*
X77194512Y-65279028D01*
X77333132Y-65204933D01*
X77389746Y-65187760D01*
X77502972Y-65153413D01*
X77569156Y-65146895D01*
X77635339Y-65140376D01*
X77723859Y-65140376D01*
X77790042Y-65146895D01*
X77790042Y-65146895D01*
G37*
G36*
X125301000Y-66101000D02*
X123499000Y-66101000D01*
X123499000Y-64299000D01*
X125301000Y-64299000D01*
X125301000Y-66101000D01*
X125301000Y-66101000D01*
G37*
G36*
X78580599Y-60982376D02*
X76778599Y-60982376D01*
X76778599Y-59180376D01*
X78580599Y-59180376D01*
X78580599Y-60982376D01*
X78580599Y-60982376D01*
G37*
G36*
X77790041Y-56646894D02*
X77856226Y-56653413D01*
X77969452Y-56687760D01*
X78026066Y-56704933D01*
X78164686Y-56779028D01*
X78182590Y-56788598D01*
X78218328Y-56817928D01*
X78319785Y-56901190D01*
X78403047Y-57002647D01*
X78432377Y-57038385D01*
X78432378Y-57038387D01*
X78516042Y-57194909D01*
X78516042Y-57194910D01*
X78567562Y-57364749D01*
X78584958Y-57541376D01*
X78567562Y-57718003D01*
X78533215Y-57831229D01*
X78516042Y-57887843D01*
X78441947Y-58026463D01*
X78432377Y-58044367D01*
X78403047Y-58080105D01*
X78319785Y-58181562D01*
X78218328Y-58264824D01*
X78182590Y-58294154D01*
X78182588Y-58294155D01*
X78026066Y-58377819D01*
X77969452Y-58394992D01*
X77856226Y-58429339D01*
X77790042Y-58435857D01*
X77723859Y-58442376D01*
X77635339Y-58442376D01*
X77569156Y-58435857D01*
X77502972Y-58429339D01*
X77389746Y-58394992D01*
X77333132Y-58377819D01*
X77176610Y-58294155D01*
X77176608Y-58294154D01*
X77140870Y-58264824D01*
X77039413Y-58181562D01*
X76956151Y-58080105D01*
X76926821Y-58044367D01*
X76917251Y-58026463D01*
X76843156Y-57887843D01*
X76825983Y-57831229D01*
X76791636Y-57718003D01*
X76774240Y-57541376D01*
X76791636Y-57364749D01*
X76843156Y-57194910D01*
X76843156Y-57194909D01*
X76926820Y-57038387D01*
X76926821Y-57038385D01*
X76956151Y-57002647D01*
X77039413Y-56901190D01*
X77140870Y-56817928D01*
X77176608Y-56788598D01*
X77194512Y-56779028D01*
X77333132Y-56704933D01*
X77389746Y-56687760D01*
X77502972Y-56653413D01*
X77569157Y-56646894D01*
X77635339Y-56640376D01*
X77723859Y-56640376D01*
X77790041Y-56646894D01*
X77790041Y-56646894D01*
G37*
G36*
X120051220Y-57901040D02*
X119050460Y-57901040D01*
X119050460Y-56498960D01*
X120051220Y-56498960D01*
X120051220Y-57901040D01*
X120051220Y-57901040D01*
G37*
G36*
X121849540Y-57901040D02*
X120848780Y-57901040D01*
X120848780Y-56498960D01*
X121849540Y-56498960D01*
X121849540Y-57901040D01*
X121849540Y-57901040D01*
G37*
G36*
X120051220Y-56101040D02*
X119050460Y-56101040D01*
X119050460Y-54698960D01*
X120051220Y-54698960D01*
X120051220Y-56101040D01*
X120051220Y-56101040D01*
G37*
G36*
X121849540Y-56101040D02*
X120848780Y-56101040D01*
X120848780Y-54698960D01*
X121849540Y-54698960D01*
X121849540Y-56101040D01*
X121849540Y-56101040D01*
G37*
G36*
X77790042Y-54106895D02*
X77856226Y-54113413D01*
X77969452Y-54147760D01*
X78026066Y-54164933D01*
X78164686Y-54239028D01*
X78182590Y-54248598D01*
X78218328Y-54277928D01*
X78319785Y-54361190D01*
X78403047Y-54462647D01*
X78432377Y-54498385D01*
X78432378Y-54498387D01*
X78516042Y-54654909D01*
X78516042Y-54654910D01*
X78567562Y-54824749D01*
X78584958Y-55001376D01*
X78567562Y-55178003D01*
X78533215Y-55291229D01*
X78516042Y-55347843D01*
X78441947Y-55486463D01*
X78432377Y-55504367D01*
X78403047Y-55540105D01*
X78319785Y-55641562D01*
X78218328Y-55724824D01*
X78182590Y-55754154D01*
X78182588Y-55754155D01*
X78026066Y-55837819D01*
X77969452Y-55854992D01*
X77856226Y-55889339D01*
X77790042Y-55895857D01*
X77723859Y-55902376D01*
X77635339Y-55902376D01*
X77569156Y-55895857D01*
X77502972Y-55889339D01*
X77389746Y-55854992D01*
X77333132Y-55837819D01*
X77176610Y-55754155D01*
X77176608Y-55754154D01*
X77140870Y-55724824D01*
X77039413Y-55641562D01*
X76956151Y-55540105D01*
X76926821Y-55504367D01*
X76917251Y-55486463D01*
X76843156Y-55347843D01*
X76825983Y-55291229D01*
X76791636Y-55178003D01*
X76774240Y-55001376D01*
X76791636Y-54824749D01*
X76843156Y-54654910D01*
X76843156Y-54654909D01*
X76926820Y-54498387D01*
X76926821Y-54498385D01*
X76956151Y-54462647D01*
X77039413Y-54361190D01*
X77140870Y-54277928D01*
X77176608Y-54248598D01*
X77194512Y-54239028D01*
X77333132Y-54164933D01*
X77389746Y-54147760D01*
X77502972Y-54113413D01*
X77569156Y-54106895D01*
X77635339Y-54100376D01*
X77723859Y-54100376D01*
X77790042Y-54106895D01*
X77790042Y-54106895D01*
G37*
G36*
X121849540Y-54301040D02*
X120848780Y-54301040D01*
X120848780Y-52898960D01*
X121849540Y-52898960D01*
X121849540Y-54301040D01*
X121849540Y-54301040D01*
G37*
G36*
X120051220Y-54301040D02*
X119050460Y-54301040D01*
X119050460Y-52898960D01*
X120051220Y-52898960D01*
X120051220Y-54301040D01*
X120051220Y-54301040D01*
G37*
G36*
X77790041Y-51566894D02*
X77856226Y-51573413D01*
X77969452Y-51607760D01*
X78026066Y-51624933D01*
X78164686Y-51699028D01*
X78182590Y-51708598D01*
X78218328Y-51737928D01*
X78319785Y-51821190D01*
X78403047Y-51922647D01*
X78432377Y-51958385D01*
X78432378Y-51958387D01*
X78516042Y-52114909D01*
X78516042Y-52114910D01*
X78567562Y-52284749D01*
X78584958Y-52461376D01*
X78567562Y-52638003D01*
X78533215Y-52751229D01*
X78516042Y-52807843D01*
X78467338Y-52898960D01*
X78432377Y-52964367D01*
X78403047Y-53000105D01*
X78319785Y-53101562D01*
X78218328Y-53184824D01*
X78182590Y-53214154D01*
X78182588Y-53214155D01*
X78026066Y-53297819D01*
X77969452Y-53314992D01*
X77856226Y-53349339D01*
X77790041Y-53355858D01*
X77723859Y-53362376D01*
X77635339Y-53362376D01*
X77569157Y-53355858D01*
X77502972Y-53349339D01*
X77389746Y-53314992D01*
X77333132Y-53297819D01*
X77176610Y-53214155D01*
X77176608Y-53214154D01*
X77140870Y-53184824D01*
X77039413Y-53101562D01*
X76956151Y-53000105D01*
X76926821Y-52964367D01*
X76891860Y-52898960D01*
X76843156Y-52807843D01*
X76825983Y-52751229D01*
X76791636Y-52638003D01*
X76774240Y-52461376D01*
X76791636Y-52284749D01*
X76843156Y-52114910D01*
X76843156Y-52114909D01*
X76926820Y-51958387D01*
X76926821Y-51958385D01*
X76956151Y-51922647D01*
X77039413Y-51821190D01*
X77140870Y-51737928D01*
X77176608Y-51708598D01*
X77194512Y-51699028D01*
X77333132Y-51624933D01*
X77389746Y-51607760D01*
X77502972Y-51573413D01*
X77569157Y-51566894D01*
X77635339Y-51560376D01*
X77723859Y-51560376D01*
X77790041Y-51566894D01*
X77790041Y-51566894D01*
G37*
G36*
X121849540Y-52501040D02*
X120848780Y-52501040D01*
X120848780Y-51098960D01*
X121849540Y-51098960D01*
X121849540Y-52501040D01*
X121849540Y-52501040D01*
G37*
G36*
X120051220Y-52501040D02*
X119050460Y-52501040D01*
X119050460Y-51098960D01*
X120051220Y-51098960D01*
X120051220Y-52501040D01*
X120051220Y-52501040D01*
G37*
G36*
X77790041Y-49026894D02*
X77856226Y-49033413D01*
X77969452Y-49067760D01*
X78026066Y-49084933D01*
X78164686Y-49159028D01*
X78182590Y-49168598D01*
X78218328Y-49197928D01*
X78319785Y-49281190D01*
X78403047Y-49382647D01*
X78432377Y-49418385D01*
X78432378Y-49418387D01*
X78516042Y-49574909D01*
X78516042Y-49574910D01*
X78567562Y-49744749D01*
X78584958Y-49921376D01*
X78567562Y-50098003D01*
X78533215Y-50211229D01*
X78516042Y-50267843D01*
X78441947Y-50406463D01*
X78432377Y-50424367D01*
X78403047Y-50460105D01*
X78319785Y-50561562D01*
X78218328Y-50644824D01*
X78182590Y-50674154D01*
X78182588Y-50674155D01*
X78026066Y-50757819D01*
X77969452Y-50774992D01*
X77856226Y-50809339D01*
X77790042Y-50815857D01*
X77723859Y-50822376D01*
X77635339Y-50822376D01*
X77569157Y-50815858D01*
X77502972Y-50809339D01*
X77389746Y-50774992D01*
X77333132Y-50757819D01*
X77176610Y-50674155D01*
X77176608Y-50674154D01*
X77140870Y-50644824D01*
X77039413Y-50561562D01*
X76956151Y-50460105D01*
X76926821Y-50424367D01*
X76917251Y-50406463D01*
X76843156Y-50267843D01*
X76825983Y-50211229D01*
X76791636Y-50098003D01*
X76774240Y-49921376D01*
X76791636Y-49744749D01*
X76843156Y-49574910D01*
X76843156Y-49574909D01*
X76926820Y-49418387D01*
X76926821Y-49418385D01*
X76956151Y-49382647D01*
X77039413Y-49281190D01*
X77140870Y-49197928D01*
X77176608Y-49168598D01*
X77194512Y-49159028D01*
X77333132Y-49084933D01*
X77389746Y-49067760D01*
X77502972Y-49033413D01*
X77569157Y-49026894D01*
X77635339Y-49020376D01*
X77723859Y-49020376D01*
X77790041Y-49026894D01*
X77790041Y-49026894D01*
G37*
G36*
X121849540Y-50701040D02*
X120848780Y-50701040D01*
X120848780Y-49298960D01*
X121849540Y-49298960D01*
X121849540Y-50701040D01*
X121849540Y-50701040D01*
G37*
G36*
X120051220Y-50701040D02*
X119050460Y-50701040D01*
X119050460Y-49298960D01*
X120051220Y-49298960D01*
X120051220Y-50701040D01*
X120051220Y-50701040D01*
G37*
G36*
X121849540Y-48901040D02*
X120848780Y-48901040D01*
X120848780Y-47498960D01*
X121849540Y-47498960D01*
X121849540Y-48901040D01*
X121849540Y-48901040D01*
G37*
G36*
X120051220Y-48901040D02*
X119050460Y-48901040D01*
X119050460Y-47498960D01*
X120051220Y-47498960D01*
X120051220Y-48901040D01*
X120051220Y-48901040D01*
G37*
G36*
X98304533Y-40708506D02*
X99077543Y-40942995D01*
X99789953Y-41323786D01*
X100414385Y-41836245D01*
X100926844Y-42460677D01*
X101307635Y-43173087D01*
X101542124Y-43946097D01*
X101621302Y-44750000D01*
X101542124Y-45553903D01*
X101307635Y-46326913D01*
X100926844Y-47039323D01*
X100414385Y-47663755D01*
X99789953Y-48176214D01*
X99077543Y-48557005D01*
X98304533Y-48791494D01*
X97702088Y-48850830D01*
X92297912Y-48850830D01*
X91695467Y-48791494D01*
X90922457Y-48557005D01*
X90210047Y-48176214D01*
X89585615Y-47663755D01*
X89073156Y-47039323D01*
X88692365Y-46326913D01*
X88457876Y-45553903D01*
X88378698Y-44750000D01*
X88457876Y-43946097D01*
X88692365Y-43173087D01*
X89073156Y-42460677D01*
X89585615Y-41836245D01*
X90210047Y-41323786D01*
X90922457Y-40942995D01*
X91695467Y-40708506D01*
X92297912Y-40649170D01*
X97702088Y-40649170D01*
X98304533Y-40708506D01*
X98304533Y-40708506D01*
G37*
G36*
X77790041Y-46486894D02*
X77856226Y-46493413D01*
X77969452Y-46527760D01*
X78026066Y-46544933D01*
X78164686Y-46619028D01*
X78182590Y-46628598D01*
X78218328Y-46657928D01*
X78319785Y-46741190D01*
X78403047Y-46842647D01*
X78432377Y-46878385D01*
X78432378Y-46878387D01*
X78516042Y-47034909D01*
X78525045Y-47064588D01*
X78567562Y-47204749D01*
X78584958Y-47381376D01*
X78567562Y-47558003D01*
X78555911Y-47596410D01*
X78516042Y-47727843D01*
X78441947Y-47866463D01*
X78432377Y-47884367D01*
X78414421Y-47906246D01*
X78319785Y-48021562D01*
X78229681Y-48095507D01*
X78182590Y-48134154D01*
X78182588Y-48134155D01*
X78026066Y-48217819D01*
X77969452Y-48234992D01*
X77856226Y-48269339D01*
X77790041Y-48275858D01*
X77723859Y-48282376D01*
X77635339Y-48282376D01*
X77569157Y-48275858D01*
X77502972Y-48269339D01*
X77389746Y-48234992D01*
X77333132Y-48217819D01*
X77176610Y-48134155D01*
X77176608Y-48134154D01*
X77129517Y-48095507D01*
X77039413Y-48021562D01*
X76944777Y-47906246D01*
X76926821Y-47884367D01*
X76917251Y-47866463D01*
X76843156Y-47727843D01*
X76803287Y-47596410D01*
X76791636Y-47558003D01*
X76774240Y-47381376D01*
X76791636Y-47204749D01*
X76834153Y-47064588D01*
X76843156Y-47034909D01*
X76926820Y-46878387D01*
X76926821Y-46878385D01*
X76956151Y-46842647D01*
X77039413Y-46741190D01*
X77140870Y-46657928D01*
X77176608Y-46628598D01*
X77194512Y-46619028D01*
X77333132Y-46544933D01*
X77389746Y-46527760D01*
X77502972Y-46493413D01*
X77569157Y-46486894D01*
X77635339Y-46480376D01*
X77723859Y-46480376D01*
X77790041Y-46486894D01*
X77790041Y-46486894D01*
G37*
G36*
X84043087Y-41553071D02*
X84198939Y-41600349D01*
X84253759Y-41616978D01*
X84447909Y-41720753D01*
X84618086Y-41860414D01*
X84757747Y-42030590D01*
X84861522Y-42224740D01*
X84878151Y-42279560D01*
X84925429Y-42435412D01*
X84941600Y-42599601D01*
X84941600Y-43852399D01*
X84925429Y-44016588D01*
X84900048Y-44100256D01*
X84861522Y-44227260D01*
X84757747Y-44421410D01*
X84618086Y-44591586D01*
X84465423Y-44716874D01*
X84448096Y-44734201D01*
X84434482Y-44754576D01*
X84425104Y-44777215D01*
X84420324Y-44801248D01*
X84420324Y-44825752D01*
X84425104Y-44849786D01*
X84434482Y-44872425D01*
X84448096Y-44892799D01*
X84465423Y-44910126D01*
X84618086Y-45035414D01*
X84757747Y-45205590D01*
X84861522Y-45399740D01*
X84861523Y-45399744D01*
X84925429Y-45610412D01*
X84941600Y-45774601D01*
X84941600Y-47027399D01*
X84925429Y-47191588D01*
X84900048Y-47275256D01*
X84861522Y-47402260D01*
X84757747Y-47596410D01*
X84618086Y-47766586D01*
X84447909Y-47906247D01*
X84253759Y-48010022D01*
X84198939Y-48026651D01*
X84043087Y-48073929D01*
X83824000Y-48095507D01*
X83604912Y-48073929D01*
X83449060Y-48026651D01*
X83394240Y-48010022D01*
X83200090Y-47906247D01*
X83029914Y-47766586D01*
X82890253Y-47596409D01*
X82786478Y-47402259D01*
X82747952Y-47275255D01*
X82722571Y-47191587D01*
X82706400Y-47027398D01*
X82706400Y-45774601D01*
X82722571Y-45610412D01*
X82761096Y-45483414D01*
X82786477Y-45399743D01*
X82890255Y-45205589D01*
X83029915Y-45035414D01*
X83182578Y-44910126D01*
X83199905Y-44892799D01*
X83213519Y-44872424D01*
X83222897Y-44849785D01*
X83227677Y-44825752D01*
X83227677Y-44801248D01*
X83222897Y-44777214D01*
X83213519Y-44754575D01*
X83199905Y-44734201D01*
X83182578Y-44716874D01*
X83029915Y-44591586D01*
X82890255Y-44421411D01*
X82786477Y-44227257D01*
X82742870Y-44083503D01*
X82722571Y-44016588D01*
X82706400Y-43852399D01*
X82706400Y-42599602D01*
X82722571Y-42435413D01*
X82786477Y-42224745D01*
X82786478Y-42224741D01*
X82890253Y-42030591D01*
X83029914Y-41860414D01*
X83200090Y-41720753D01*
X83394240Y-41616978D01*
X83449060Y-41600349D01*
X83604912Y-41553071D01*
X83824000Y-41531493D01*
X84043087Y-41553071D01*
X84043087Y-41553071D01*
G37*
G36*
X106395087Y-41426071D02*
X106550939Y-41473349D01*
X106605759Y-41489978D01*
X106799909Y-41593753D01*
X106970086Y-41733414D01*
X107109747Y-41903590D01*
X107213522Y-42097740D01*
X107230151Y-42152560D01*
X107277429Y-42308412D01*
X107293600Y-42472601D01*
X107293600Y-43725399D01*
X107277429Y-43889588D01*
X107238904Y-44016586D01*
X107213522Y-44100260D01*
X107109747Y-44294410D01*
X106970086Y-44464586D01*
X106817423Y-44589874D01*
X106800096Y-44607201D01*
X106786482Y-44627576D01*
X106777104Y-44650215D01*
X106772324Y-44674248D01*
X106772324Y-44698752D01*
X106777104Y-44722786D01*
X106786482Y-44745425D01*
X106800096Y-44765799D01*
X106817423Y-44783126D01*
X106970086Y-44908414D01*
X107109747Y-45078590D01*
X107213522Y-45272740D01*
X107213523Y-45272744D01*
X107277429Y-45483412D01*
X107293600Y-45647601D01*
X107293600Y-46900399D01*
X107277429Y-47064588D01*
X107238904Y-47191586D01*
X107213522Y-47275260D01*
X107109747Y-47469410D01*
X106970086Y-47639586D01*
X106799909Y-47779247D01*
X106605759Y-47883022D01*
X106550939Y-47899651D01*
X106395087Y-47946929D01*
X106176000Y-47968507D01*
X105956912Y-47946929D01*
X105801060Y-47899651D01*
X105746240Y-47883022D01*
X105552090Y-47779247D01*
X105381914Y-47639586D01*
X105242253Y-47469409D01*
X105138478Y-47275259D01*
X105113096Y-47191585D01*
X105074571Y-47064587D01*
X105058400Y-46900398D01*
X105058400Y-45647601D01*
X105074571Y-45483412D01*
X105099953Y-45399740D01*
X105138477Y-45272743D01*
X105242255Y-45078589D01*
X105381915Y-44908414D01*
X105534578Y-44783126D01*
X105551905Y-44765799D01*
X105565519Y-44745424D01*
X105574897Y-44722785D01*
X105579677Y-44698752D01*
X105579677Y-44674248D01*
X105574897Y-44650214D01*
X105565519Y-44627575D01*
X105551905Y-44607201D01*
X105534578Y-44589874D01*
X105381915Y-44464586D01*
X105242255Y-44294411D01*
X105138477Y-44100257D01*
X105094870Y-43956503D01*
X105074571Y-43889588D01*
X105058400Y-43725399D01*
X105058400Y-42472602D01*
X105074571Y-42308413D01*
X105138477Y-42097745D01*
X105138478Y-42097741D01*
X105242253Y-41903591D01*
X105381914Y-41733414D01*
X105552090Y-41593753D01*
X105746240Y-41489978D01*
X105801060Y-41473349D01*
X105956912Y-41426071D01*
X106176000Y-41404493D01*
X106395087Y-41426071D01*
X106395087Y-41426071D01*
G37*
G36*
X128740443Y-39145519D02*
X128806627Y-39152037D01*
X128919853Y-39186384D01*
X128976467Y-39203557D01*
X129115087Y-39277652D01*
X129132991Y-39287222D01*
X129168729Y-39316552D01*
X129270186Y-39399814D01*
X129353448Y-39501271D01*
X129382778Y-39537009D01*
X129382779Y-39537011D01*
X129466443Y-39693533D01*
X129466443Y-39693534D01*
X129517963Y-39863373D01*
X129535359Y-40040000D01*
X129517963Y-40216627D01*
X129483616Y-40329853D01*
X129466443Y-40386467D01*
X129392348Y-40525087D01*
X129382778Y-40542991D01*
X129374453Y-40553135D01*
X129270186Y-40680186D01*
X129181948Y-40752600D01*
X129132991Y-40792778D01*
X129132989Y-40792779D01*
X128976467Y-40876443D01*
X128919853Y-40893616D01*
X128806627Y-40927963D01*
X128740443Y-40934481D01*
X128674260Y-40941000D01*
X128585740Y-40941000D01*
X128519557Y-40934481D01*
X128453373Y-40927963D01*
X128340147Y-40893616D01*
X128283533Y-40876443D01*
X128127011Y-40792779D01*
X128127009Y-40792778D01*
X128078052Y-40752600D01*
X127989814Y-40680186D01*
X127885547Y-40553135D01*
X127877222Y-40542991D01*
X127867652Y-40525087D01*
X127793557Y-40386467D01*
X127776384Y-40329853D01*
X127742037Y-40216627D01*
X127724641Y-40040000D01*
X127742037Y-39863373D01*
X127793557Y-39693534D01*
X127793557Y-39693533D01*
X127877221Y-39537011D01*
X127877222Y-39537009D01*
X127906552Y-39501271D01*
X127989814Y-39399814D01*
X128091271Y-39316552D01*
X128127009Y-39287222D01*
X128144913Y-39277652D01*
X128283533Y-39203557D01*
X128340147Y-39186384D01*
X128453373Y-39152037D01*
X128519557Y-39145519D01*
X128585740Y-39139000D01*
X128674260Y-39139000D01*
X128740443Y-39145519D01*
X128740443Y-39145519D01*
G37*
G36*
X136360443Y-39145519D02*
X136426627Y-39152037D01*
X136539853Y-39186384D01*
X136596467Y-39203557D01*
X136735087Y-39277652D01*
X136752991Y-39287222D01*
X136788729Y-39316552D01*
X136890186Y-39399814D01*
X136973448Y-39501271D01*
X137002778Y-39537009D01*
X137002779Y-39537011D01*
X137086443Y-39693533D01*
X137086443Y-39693534D01*
X137137963Y-39863373D01*
X137155359Y-40040000D01*
X137137963Y-40216627D01*
X137103616Y-40329853D01*
X137086443Y-40386467D01*
X137012348Y-40525087D01*
X137002778Y-40542991D01*
X136994453Y-40553135D01*
X136890186Y-40680186D01*
X136801948Y-40752600D01*
X136752991Y-40792778D01*
X136752989Y-40792779D01*
X136596467Y-40876443D01*
X136539853Y-40893616D01*
X136426627Y-40927963D01*
X136360443Y-40934481D01*
X136294260Y-40941000D01*
X136205740Y-40941000D01*
X136139557Y-40934481D01*
X136073373Y-40927963D01*
X135960147Y-40893616D01*
X135903533Y-40876443D01*
X135747011Y-40792779D01*
X135747009Y-40792778D01*
X135698052Y-40752600D01*
X135609814Y-40680186D01*
X135505547Y-40553135D01*
X135497222Y-40542991D01*
X135487652Y-40525087D01*
X135413557Y-40386467D01*
X135396384Y-40329853D01*
X135362037Y-40216627D01*
X135344641Y-40040000D01*
X135362037Y-39863373D01*
X135413557Y-39693534D01*
X135413557Y-39693533D01*
X135497221Y-39537011D01*
X135497222Y-39537009D01*
X135526552Y-39501271D01*
X135609814Y-39399814D01*
X135711271Y-39316552D01*
X135747009Y-39287222D01*
X135764913Y-39277652D01*
X135903533Y-39203557D01*
X135960147Y-39186384D01*
X136073373Y-39152037D01*
X136139557Y-39145519D01*
X136205740Y-39139000D01*
X136294260Y-39139000D01*
X136360443Y-39145519D01*
X136360443Y-39145519D01*
G37*
G36*
X133820443Y-39145519D02*
X133886627Y-39152037D01*
X133999853Y-39186384D01*
X134056467Y-39203557D01*
X134195087Y-39277652D01*
X134212991Y-39287222D01*
X134248729Y-39316552D01*
X134350186Y-39399814D01*
X134433448Y-39501271D01*
X134462778Y-39537009D01*
X134462779Y-39537011D01*
X134546443Y-39693533D01*
X134546443Y-39693534D01*
X134597963Y-39863373D01*
X134615359Y-40040000D01*
X134597963Y-40216627D01*
X134563616Y-40329853D01*
X134546443Y-40386467D01*
X134472348Y-40525087D01*
X134462778Y-40542991D01*
X134454453Y-40553135D01*
X134350186Y-40680186D01*
X134261948Y-40752600D01*
X134212991Y-40792778D01*
X134212989Y-40792779D01*
X134056467Y-40876443D01*
X133999853Y-40893616D01*
X133886627Y-40927963D01*
X133820443Y-40934481D01*
X133754260Y-40941000D01*
X133665740Y-40941000D01*
X133599557Y-40934481D01*
X133533373Y-40927963D01*
X133420147Y-40893616D01*
X133363533Y-40876443D01*
X133207011Y-40792779D01*
X133207009Y-40792778D01*
X133158052Y-40752600D01*
X133069814Y-40680186D01*
X132965547Y-40553135D01*
X132957222Y-40542991D01*
X132947652Y-40525087D01*
X132873557Y-40386467D01*
X132856384Y-40329853D01*
X132822037Y-40216627D01*
X132804641Y-40040000D01*
X132822037Y-39863373D01*
X132873557Y-39693534D01*
X132873557Y-39693533D01*
X132957221Y-39537011D01*
X132957222Y-39537009D01*
X132986552Y-39501271D01*
X133069814Y-39399814D01*
X133171271Y-39316552D01*
X133207009Y-39287222D01*
X133224913Y-39277652D01*
X133363533Y-39203557D01*
X133420147Y-39186384D01*
X133533373Y-39152037D01*
X133599557Y-39145519D01*
X133665740Y-39139000D01*
X133754260Y-39139000D01*
X133820443Y-39145519D01*
X133820443Y-39145519D01*
G37*
G36*
X123660443Y-39145519D02*
X123726627Y-39152037D01*
X123839853Y-39186384D01*
X123896467Y-39203557D01*
X124035087Y-39277652D01*
X124052991Y-39287222D01*
X124088729Y-39316552D01*
X124190186Y-39399814D01*
X124273448Y-39501271D01*
X124302778Y-39537009D01*
X124302779Y-39537011D01*
X124386443Y-39693533D01*
X124386443Y-39693534D01*
X124437963Y-39863373D01*
X124455359Y-40040000D01*
X124437963Y-40216627D01*
X124403616Y-40329853D01*
X124386443Y-40386467D01*
X124312348Y-40525087D01*
X124302778Y-40542991D01*
X124294453Y-40553135D01*
X124190186Y-40680186D01*
X124101948Y-40752600D01*
X124052991Y-40792778D01*
X124052989Y-40792779D01*
X123896467Y-40876443D01*
X123839853Y-40893616D01*
X123726627Y-40927963D01*
X123660443Y-40934481D01*
X123594260Y-40941000D01*
X123505740Y-40941000D01*
X123439557Y-40934481D01*
X123373373Y-40927963D01*
X123260147Y-40893616D01*
X123203533Y-40876443D01*
X123047011Y-40792779D01*
X123047009Y-40792778D01*
X122998052Y-40752600D01*
X122909814Y-40680186D01*
X122805547Y-40553135D01*
X122797222Y-40542991D01*
X122787652Y-40525087D01*
X122713557Y-40386467D01*
X122696384Y-40329853D01*
X122662037Y-40216627D01*
X122644641Y-40040000D01*
X122662037Y-39863373D01*
X122713557Y-39693534D01*
X122713557Y-39693533D01*
X122797221Y-39537011D01*
X122797222Y-39537009D01*
X122826552Y-39501271D01*
X122909814Y-39399814D01*
X123011271Y-39316552D01*
X123047009Y-39287222D01*
X123064913Y-39277652D01*
X123203533Y-39203557D01*
X123260147Y-39186384D01*
X123373373Y-39152037D01*
X123439557Y-39145519D01*
X123505740Y-39139000D01*
X123594260Y-39139000D01*
X123660443Y-39145519D01*
X123660443Y-39145519D01*
G37*
G36*
X126200443Y-39145519D02*
X126266627Y-39152037D01*
X126379853Y-39186384D01*
X126436467Y-39203557D01*
X126575087Y-39277652D01*
X126592991Y-39287222D01*
X126628729Y-39316552D01*
X126730186Y-39399814D01*
X126813448Y-39501271D01*
X126842778Y-39537009D01*
X126842779Y-39537011D01*
X126926443Y-39693533D01*
X126926443Y-39693534D01*
X126977963Y-39863373D01*
X126995359Y-40040000D01*
X126977963Y-40216627D01*
X126943616Y-40329853D01*
X126926443Y-40386467D01*
X126852348Y-40525087D01*
X126842778Y-40542991D01*
X126834453Y-40553135D01*
X126730186Y-40680186D01*
X126641948Y-40752600D01*
X126592991Y-40792778D01*
X126592989Y-40792779D01*
X126436467Y-40876443D01*
X126379853Y-40893616D01*
X126266627Y-40927963D01*
X126200443Y-40934481D01*
X126134260Y-40941000D01*
X126045740Y-40941000D01*
X125979557Y-40934481D01*
X125913373Y-40927963D01*
X125800147Y-40893616D01*
X125743533Y-40876443D01*
X125587011Y-40792779D01*
X125587009Y-40792778D01*
X125538052Y-40752600D01*
X125449814Y-40680186D01*
X125345547Y-40553135D01*
X125337222Y-40542991D01*
X125327652Y-40525087D01*
X125253557Y-40386467D01*
X125236384Y-40329853D01*
X125202037Y-40216627D01*
X125184641Y-40040000D01*
X125202037Y-39863373D01*
X125253557Y-39693534D01*
X125253557Y-39693533D01*
X125337221Y-39537011D01*
X125337222Y-39537009D01*
X125366552Y-39501271D01*
X125449814Y-39399814D01*
X125551271Y-39316552D01*
X125587009Y-39287222D01*
X125604913Y-39277652D01*
X125743533Y-39203557D01*
X125800147Y-39186384D01*
X125913373Y-39152037D01*
X125979557Y-39145519D01*
X126045740Y-39139000D01*
X126134260Y-39139000D01*
X126200443Y-39145519D01*
X126200443Y-39145519D01*
G37*
G36*
X131280443Y-39145519D02*
X131346627Y-39152037D01*
X131459853Y-39186384D01*
X131516467Y-39203557D01*
X131655087Y-39277652D01*
X131672991Y-39287222D01*
X131708729Y-39316552D01*
X131810186Y-39399814D01*
X131893448Y-39501271D01*
X131922778Y-39537009D01*
X131922779Y-39537011D01*
X132006443Y-39693533D01*
X132006443Y-39693534D01*
X132057963Y-39863373D01*
X132075359Y-40040000D01*
X132057963Y-40216627D01*
X132023616Y-40329853D01*
X132006443Y-40386467D01*
X131932348Y-40525087D01*
X131922778Y-40542991D01*
X131914453Y-40553135D01*
X131810186Y-40680186D01*
X131721948Y-40752600D01*
X131672991Y-40792778D01*
X131672989Y-40792779D01*
X131516467Y-40876443D01*
X131459853Y-40893616D01*
X131346627Y-40927963D01*
X131280443Y-40934481D01*
X131214260Y-40941000D01*
X131125740Y-40941000D01*
X131059557Y-40934481D01*
X130993373Y-40927963D01*
X130880147Y-40893616D01*
X130823533Y-40876443D01*
X130667011Y-40792779D01*
X130667009Y-40792778D01*
X130618052Y-40752600D01*
X130529814Y-40680186D01*
X130425547Y-40553135D01*
X130417222Y-40542991D01*
X130407652Y-40525087D01*
X130333557Y-40386467D01*
X130316384Y-40329853D01*
X130282037Y-40216627D01*
X130264641Y-40040000D01*
X130282037Y-39863373D01*
X130333557Y-39693534D01*
X130333557Y-39693533D01*
X130417221Y-39537011D01*
X130417222Y-39537009D01*
X130446552Y-39501271D01*
X130529814Y-39399814D01*
X130631271Y-39316552D01*
X130667009Y-39287222D01*
X130684913Y-39277652D01*
X130823533Y-39203557D01*
X130880147Y-39186384D01*
X130993373Y-39152037D01*
X131059557Y-39145519D01*
X131125740Y-39139000D01*
X131214260Y-39139000D01*
X131280443Y-39145519D01*
X131280443Y-39145519D01*
G37*
G36*
X78261214Y-37314751D02*
X78580166Y-37446865D01*
X78867220Y-37638669D01*
X79111331Y-37882780D01*
X79303135Y-38169834D01*
X79435249Y-38488786D01*
X79502600Y-38827383D01*
X79502600Y-39172617D01*
X79435249Y-39511214D01*
X79303135Y-39830166D01*
X79111331Y-40117220D01*
X78867220Y-40361331D01*
X78580166Y-40553135D01*
X78261214Y-40685249D01*
X77922617Y-40752600D01*
X77577383Y-40752600D01*
X77238786Y-40685249D01*
X76919834Y-40553135D01*
X76632780Y-40361331D01*
X76388669Y-40117220D01*
X76196865Y-39830166D01*
X76064751Y-39511214D01*
X75997400Y-39172617D01*
X75997400Y-38827383D01*
X76064751Y-38488786D01*
X76196865Y-38169834D01*
X76388669Y-37882780D01*
X76632780Y-37638669D01*
X76919834Y-37446865D01*
X77238786Y-37314751D01*
X77577383Y-37247400D01*
X77922617Y-37247400D01*
X78261214Y-37314751D01*
X78261214Y-37314751D01*
G37*
G36*
X144511214Y-37314751D02*
X144830166Y-37446865D01*
X145117220Y-37638669D01*
X145361331Y-37882780D01*
X145553135Y-38169834D01*
X145685249Y-38488786D01*
X145752600Y-38827383D01*
X145752600Y-39172617D01*
X145685249Y-39511214D01*
X145553135Y-39830166D01*
X145361331Y-40117220D01*
X145117220Y-40361331D01*
X144830166Y-40553135D01*
X144511214Y-40685249D01*
X144172617Y-40752600D01*
X143827383Y-40752600D01*
X143488786Y-40685249D01*
X143169834Y-40553135D01*
X142882780Y-40361331D01*
X142638669Y-40117220D01*
X142446865Y-39830166D01*
X142314751Y-39511214D01*
X142247400Y-39172617D01*
X142247400Y-38827383D01*
X142314751Y-38488786D01*
X142446865Y-38169834D01*
X142638669Y-37882780D01*
X142882780Y-37638669D01*
X143169834Y-37446865D01*
X143488786Y-37314751D01*
X143827383Y-37247400D01*
X144172617Y-37247400D01*
X144511214Y-37314751D01*
X144511214Y-37314751D01*
G37*
G36*
X112850443Y-36755519D02*
X112916627Y-36762037D01*
X113029853Y-36796384D01*
X113086467Y-36813557D01*
X113173006Y-36859814D01*
X113242991Y-36897222D01*
X113278729Y-36926552D01*
X113380186Y-37009814D01*
X113463448Y-37111271D01*
X113492778Y-37147009D01*
X113492779Y-37147011D01*
X113576443Y-37303533D01*
X113576443Y-37303534D01*
X113627963Y-37473373D01*
X113645359Y-37650000D01*
X113627963Y-37826627D01*
X113610929Y-37882780D01*
X113576443Y-37996467D01*
X113519505Y-38102989D01*
X113492778Y-38152991D01*
X113478956Y-38169833D01*
X113380186Y-38290186D01*
X113303916Y-38352778D01*
X113242991Y-38402778D01*
X113242989Y-38402779D01*
X113086467Y-38486443D01*
X113038478Y-38501000D01*
X112916627Y-38537963D01*
X112850443Y-38544481D01*
X112784260Y-38551000D01*
X112695740Y-38551000D01*
X112629557Y-38544481D01*
X112563373Y-38537963D01*
X112441522Y-38501000D01*
X112393533Y-38486443D01*
X112237011Y-38402779D01*
X112237009Y-38402778D01*
X112176084Y-38352778D01*
X112099814Y-38290186D01*
X112001044Y-38169833D01*
X111987222Y-38152991D01*
X111960495Y-38102989D01*
X111903557Y-37996467D01*
X111869071Y-37882780D01*
X111852037Y-37826627D01*
X111834641Y-37650000D01*
X111852037Y-37473373D01*
X111903557Y-37303534D01*
X111903557Y-37303533D01*
X111987221Y-37147011D01*
X111987222Y-37147009D01*
X112016552Y-37111271D01*
X112099814Y-37009814D01*
X112201271Y-36926552D01*
X112237009Y-36897222D01*
X112306994Y-36859814D01*
X112393533Y-36813557D01*
X112450147Y-36796384D01*
X112563373Y-36762037D01*
X112629557Y-36755519D01*
X112695740Y-36749000D01*
X112784260Y-36749000D01*
X112850443Y-36755519D01*
X112850443Y-36755519D01*
G37*
G36*
X111101000Y-38551000D02*
X109299000Y-38551000D01*
X109299000Y-36749000D01*
X111101000Y-36749000D01*
X111101000Y-38551000D01*
X111101000Y-38551000D01*
G37*
G36*
X116470443Y-36705519D02*
X116536627Y-36712037D01*
X116649853Y-36746384D01*
X116706467Y-36763557D01*
X116800009Y-36813557D01*
X116862991Y-36847222D01*
X116898729Y-36876552D01*
X117000186Y-36959814D01*
X117083448Y-37061271D01*
X117112778Y-37097009D01*
X117112779Y-37097011D01*
X117196443Y-37253533D01*
X117196443Y-37253534D01*
X117247963Y-37423373D01*
X117265359Y-37600000D01*
X117247963Y-37776627D01*
X117226777Y-37846467D01*
X117196443Y-37946467D01*
X117169717Y-37996467D01*
X117112778Y-38102991D01*
X117083448Y-38138729D01*
X117000186Y-38240186D01*
X116898729Y-38323448D01*
X116862991Y-38352778D01*
X116862989Y-38352779D01*
X116706467Y-38436443D01*
X116649853Y-38453616D01*
X116536627Y-38487963D01*
X116470442Y-38494482D01*
X116404260Y-38501000D01*
X116315740Y-38501000D01*
X116249558Y-38494482D01*
X116183373Y-38487963D01*
X116070147Y-38453616D01*
X116013533Y-38436443D01*
X115857011Y-38352779D01*
X115857009Y-38352778D01*
X115821271Y-38323448D01*
X115719814Y-38240186D01*
X115636552Y-38138729D01*
X115607222Y-38102991D01*
X115550283Y-37996467D01*
X115523557Y-37946467D01*
X115493223Y-37846467D01*
X115472037Y-37776627D01*
X115454641Y-37600000D01*
X115472037Y-37423373D01*
X115523557Y-37253534D01*
X115523557Y-37253533D01*
X115607221Y-37097011D01*
X115607222Y-37097009D01*
X115636552Y-37061271D01*
X115719814Y-36959814D01*
X115821271Y-36876552D01*
X115857009Y-36847222D01*
X115919991Y-36813557D01*
X116013533Y-36763557D01*
X116070147Y-36746384D01*
X116183373Y-36712037D01*
X116249557Y-36705519D01*
X116315740Y-36699000D01*
X116404260Y-36699000D01*
X116470443Y-36705519D01*
X116470443Y-36705519D01*
G37*
G36*
X119801000Y-38501000D02*
X117999000Y-38501000D01*
X117999000Y-36699000D01*
X119801000Y-36699000D01*
X119801000Y-38501000D01*
X119801000Y-38501000D01*
G37*
G36*
X124451000Y-38401000D02*
X122649000Y-38401000D01*
X122649000Y-36599000D01*
X124451000Y-36599000D01*
X124451000Y-38401000D01*
X124451000Y-38401000D01*
G37*
G36*
X126200442Y-36605518D02*
X126266627Y-36612037D01*
X126379853Y-36646384D01*
X126436467Y-36663557D01*
X126502775Y-36699000D01*
X126592991Y-36747222D01*
X126595157Y-36749000D01*
X126730186Y-36859814D01*
X126812253Y-36959814D01*
X126842778Y-36997009D01*
X126842779Y-36997011D01*
X126926443Y-37153533D01*
X126926443Y-37153534D01*
X126977963Y-37323373D01*
X126995359Y-37500000D01*
X126977963Y-37676627D01*
X126947629Y-37776625D01*
X126926443Y-37846467D01*
X126872991Y-37946467D01*
X126842778Y-38002991D01*
X126813448Y-38038729D01*
X126730186Y-38140186D01*
X126628729Y-38223448D01*
X126592991Y-38252778D01*
X126592989Y-38252779D01*
X126436467Y-38336443D01*
X126382617Y-38352778D01*
X126266627Y-38387963D01*
X126200443Y-38394481D01*
X126134260Y-38401000D01*
X126045740Y-38401000D01*
X125979557Y-38394481D01*
X125913373Y-38387963D01*
X125797383Y-38352778D01*
X125743533Y-38336443D01*
X125587011Y-38252779D01*
X125587009Y-38252778D01*
X125551271Y-38223448D01*
X125449814Y-38140186D01*
X125366552Y-38038729D01*
X125337222Y-38002991D01*
X125307009Y-37946467D01*
X125253557Y-37846467D01*
X125232371Y-37776625D01*
X125202037Y-37676627D01*
X125184641Y-37500000D01*
X125202037Y-37323373D01*
X125253557Y-37153534D01*
X125253557Y-37153533D01*
X125337221Y-36997011D01*
X125337222Y-36997009D01*
X125367747Y-36959814D01*
X125449814Y-36859814D01*
X125584843Y-36749000D01*
X125587009Y-36747222D01*
X125677225Y-36699000D01*
X125743533Y-36663557D01*
X125800147Y-36646384D01*
X125913373Y-36612037D01*
X125979558Y-36605518D01*
X126045740Y-36599000D01*
X126134260Y-36599000D01*
X126200442Y-36605518D01*
X126200442Y-36605518D01*
G37*
G36*
X128740442Y-36605518D02*
X128806627Y-36612037D01*
X128919853Y-36646384D01*
X128976467Y-36663557D01*
X129042775Y-36699000D01*
X129132991Y-36747222D01*
X129135157Y-36749000D01*
X129270186Y-36859814D01*
X129352253Y-36959814D01*
X129382778Y-36997009D01*
X129382779Y-36997011D01*
X129466443Y-37153533D01*
X129466443Y-37153534D01*
X129517963Y-37323373D01*
X129535359Y-37500000D01*
X129517963Y-37676627D01*
X129487629Y-37776625D01*
X129466443Y-37846467D01*
X129412991Y-37946467D01*
X129382778Y-38002991D01*
X129353448Y-38038729D01*
X129270186Y-38140186D01*
X129168729Y-38223448D01*
X129132991Y-38252778D01*
X129132989Y-38252779D01*
X128976467Y-38336443D01*
X128922617Y-38352778D01*
X128806627Y-38387963D01*
X128740443Y-38394481D01*
X128674260Y-38401000D01*
X128585740Y-38401000D01*
X128519557Y-38394481D01*
X128453373Y-38387963D01*
X128337383Y-38352778D01*
X128283533Y-38336443D01*
X128127011Y-38252779D01*
X128127009Y-38252778D01*
X128091271Y-38223448D01*
X127989814Y-38140186D01*
X127906552Y-38038729D01*
X127877222Y-38002991D01*
X127847009Y-37946467D01*
X127793557Y-37846467D01*
X127772371Y-37776625D01*
X127742037Y-37676627D01*
X127724641Y-37500000D01*
X127742037Y-37323373D01*
X127793557Y-37153534D01*
X127793557Y-37153533D01*
X127877221Y-36997011D01*
X127877222Y-36997009D01*
X127907747Y-36959814D01*
X127989814Y-36859814D01*
X128124843Y-36749000D01*
X128127009Y-36747222D01*
X128217225Y-36699000D01*
X128283533Y-36663557D01*
X128340147Y-36646384D01*
X128453373Y-36612037D01*
X128519558Y-36605518D01*
X128585740Y-36599000D01*
X128674260Y-36599000D01*
X128740442Y-36605518D01*
X128740442Y-36605518D01*
G37*
G36*
X131280442Y-36605518D02*
X131346627Y-36612037D01*
X131459853Y-36646384D01*
X131516467Y-36663557D01*
X131582775Y-36699000D01*
X131672991Y-36747222D01*
X131675157Y-36749000D01*
X131810186Y-36859814D01*
X131892253Y-36959814D01*
X131922778Y-36997009D01*
X131922779Y-36997011D01*
X132006443Y-37153533D01*
X132006443Y-37153534D01*
X132057963Y-37323373D01*
X132075359Y-37500000D01*
X132057963Y-37676627D01*
X132027629Y-37776625D01*
X132006443Y-37846467D01*
X131952991Y-37946467D01*
X131922778Y-38002991D01*
X131893448Y-38038729D01*
X131810186Y-38140186D01*
X131708729Y-38223448D01*
X131672991Y-38252778D01*
X131672989Y-38252779D01*
X131516467Y-38336443D01*
X131462617Y-38352778D01*
X131346627Y-38387963D01*
X131280443Y-38394481D01*
X131214260Y-38401000D01*
X131125740Y-38401000D01*
X131059557Y-38394481D01*
X130993373Y-38387963D01*
X130877383Y-38352778D01*
X130823533Y-38336443D01*
X130667011Y-38252779D01*
X130667009Y-38252778D01*
X130631271Y-38223448D01*
X130529814Y-38140186D01*
X130446552Y-38038729D01*
X130417222Y-38002991D01*
X130387009Y-37946467D01*
X130333557Y-37846467D01*
X130312371Y-37776625D01*
X130282037Y-37676627D01*
X130264641Y-37500000D01*
X130282037Y-37323373D01*
X130333557Y-37153534D01*
X130333557Y-37153533D01*
X130417221Y-36997011D01*
X130417222Y-36997009D01*
X130447747Y-36959814D01*
X130529814Y-36859814D01*
X130664843Y-36749000D01*
X130667009Y-36747222D01*
X130757225Y-36699000D01*
X130823533Y-36663557D01*
X130880147Y-36646384D01*
X130993373Y-36612037D01*
X131059558Y-36605518D01*
X131125740Y-36599000D01*
X131214260Y-36599000D01*
X131280442Y-36605518D01*
X131280442Y-36605518D01*
G37*
G36*
X133820442Y-36605518D02*
X133886627Y-36612037D01*
X133999853Y-36646384D01*
X134056467Y-36663557D01*
X134122775Y-36699000D01*
X134212991Y-36747222D01*
X134215157Y-36749000D01*
X134350186Y-36859814D01*
X134432253Y-36959814D01*
X134462778Y-36997009D01*
X134462779Y-36997011D01*
X134546443Y-37153533D01*
X134546443Y-37153534D01*
X134597963Y-37323373D01*
X134615359Y-37500000D01*
X134597963Y-37676627D01*
X134567629Y-37776625D01*
X134546443Y-37846467D01*
X134492991Y-37946467D01*
X134462778Y-38002991D01*
X134433448Y-38038729D01*
X134350186Y-38140186D01*
X134248729Y-38223448D01*
X134212991Y-38252778D01*
X134212989Y-38252779D01*
X134056467Y-38336443D01*
X134002617Y-38352778D01*
X133886627Y-38387963D01*
X133820443Y-38394481D01*
X133754260Y-38401000D01*
X133665740Y-38401000D01*
X133599557Y-38394481D01*
X133533373Y-38387963D01*
X133417383Y-38352778D01*
X133363533Y-38336443D01*
X133207011Y-38252779D01*
X133207009Y-38252778D01*
X133171271Y-38223448D01*
X133069814Y-38140186D01*
X132986552Y-38038729D01*
X132957222Y-38002991D01*
X132927009Y-37946467D01*
X132873557Y-37846467D01*
X132852371Y-37776625D01*
X132822037Y-37676627D01*
X132804641Y-37500000D01*
X132822037Y-37323373D01*
X132873557Y-37153534D01*
X132873557Y-37153533D01*
X132957221Y-36997011D01*
X132957222Y-36997009D01*
X132987747Y-36959814D01*
X133069814Y-36859814D01*
X133204843Y-36749000D01*
X133207009Y-36747222D01*
X133297225Y-36699000D01*
X133363533Y-36663557D01*
X133420147Y-36646384D01*
X133533373Y-36612037D01*
X133599558Y-36605518D01*
X133665740Y-36599000D01*
X133754260Y-36599000D01*
X133820442Y-36605518D01*
X133820442Y-36605518D01*
G37*
G36*
X136360442Y-36605518D02*
X136426627Y-36612037D01*
X136539853Y-36646384D01*
X136596467Y-36663557D01*
X136662775Y-36699000D01*
X136752991Y-36747222D01*
X136755157Y-36749000D01*
X136890186Y-36859814D01*
X136972253Y-36959814D01*
X137002778Y-36997009D01*
X137002779Y-36997011D01*
X137086443Y-37153533D01*
X137086443Y-37153534D01*
X137137963Y-37323373D01*
X137155359Y-37500000D01*
X137137963Y-37676627D01*
X137107629Y-37776625D01*
X137086443Y-37846467D01*
X137032991Y-37946467D01*
X137002778Y-38002991D01*
X136973448Y-38038729D01*
X136890186Y-38140186D01*
X136788729Y-38223448D01*
X136752991Y-38252778D01*
X136752989Y-38252779D01*
X136596467Y-38336443D01*
X136542617Y-38352778D01*
X136426627Y-38387963D01*
X136360443Y-38394481D01*
X136294260Y-38401000D01*
X136205740Y-38401000D01*
X136139557Y-38394481D01*
X136073373Y-38387963D01*
X135957383Y-38352778D01*
X135903533Y-38336443D01*
X135747011Y-38252779D01*
X135747009Y-38252778D01*
X135711271Y-38223448D01*
X135609814Y-38140186D01*
X135526552Y-38038729D01*
X135497222Y-38002991D01*
X135467009Y-37946467D01*
X135413557Y-37846467D01*
X135392371Y-37776625D01*
X135362037Y-37676627D01*
X135344641Y-37500000D01*
X135362037Y-37323373D01*
X135413557Y-37153534D01*
X135413557Y-37153533D01*
X135497221Y-36997011D01*
X135497222Y-36997009D01*
X135527747Y-36959814D01*
X135609814Y-36859814D01*
X135744843Y-36749000D01*
X135747009Y-36747222D01*
X135837225Y-36699000D01*
X135903533Y-36663557D01*
X135960147Y-36646384D01*
X136073373Y-36612037D01*
X136139558Y-36605518D01*
X136205740Y-36599000D01*
X136294260Y-36599000D01*
X136360442Y-36605518D01*
X136360442Y-36605518D01*
G37*
M02*
