M48
;DRILL file {KiCad (5.0.1-3-g963ef8bb5)} date Friday, May 10, 2019 at 05:55:47 PM
;FORMAT={-:-/ absolute / inch / decimal}
FMAT,2
INCH,TZ
T1C0.0079
T2C0.0130
T3C0.0157
T4C0.0394
%
G90
G05
M72
T1
X3.3634Y-2.6312
X3.3634Y-2.6607
X3.3634Y-2.6902
T2
X4.9559Y-2.3451
X4.9559Y-2.3751
X4.9609Y-2.3151
X4.9809Y-2.4351
X5.0635Y-2.276
X5.0802Y-1.8534
X5.1735Y-1.9675
X5.2585Y-1.901
X5.2835Y-1.901
X5.3135Y-1.901
X5.3258Y-2.176
X5.3435Y-1.901
X5.3635Y-1.961
X5.3935Y-2.276
X5.3935Y-2.836
X5.4035Y-1.851
X5.4185Y-2.836
X5.4435Y-2.841
X5.5835Y-1.921
X5.5885Y-1.961
X5.5885Y-1.996
T3
X3.1646Y-2.1637
X3.1862Y-2.7886
X3.2067Y-3.1793
X3.2404Y-2.4368
X3.2453Y-2.7886
X3.2677Y-2.3386
X3.269Y-2.1181
X3.2846Y-2.7788
X3.2846Y-2.8182
X3.3022Y-1.9321
X3.315Y-2.3386
X3.3268Y-2.437
X3.3397Y-2.1181
X3.4421Y-2.2756
X3.4449Y-2.8799
X3.4557Y-1.5797
X3.4557Y-1.7795
X3.4815Y-2.4885
X3.5Y-2.3661
X3.5374Y-2.5787
X3.5468Y-3.1087
X3.5492Y-3.0591
X3.5512Y-3.0087
X3.5512Y-3.1614
X3.6024Y-3.2717
X3.603Y-3.2353
X3.6122Y-2.3543
X3.6122Y-2.5787
X3.6142Y-2.8799
X3.6339Y-2.4646
X3.6457Y-2.9252
X3.6614Y-2.3701
X3.7205Y-3.1417
X3.7283Y-2.1693
X3.7303Y-2.128
X3.7323Y-2.0886
X3.7402Y-2.2754
X3.7402Y-2.6577
X3.7441Y-3.1772
X3.8012Y-2.6201
X3.8169Y-1.5659
X3.8884Y-2.3583
X3.8884Y-2.5787
X3.9685Y-2.7555
X3.9685Y-2.8055
X3.9697Y-2.7055
X3.9803Y-2.9055
X3.997Y-1.5797
X3.997Y-1.7785
X4.0039Y-2.1339
X4.0157Y-2.4606
X4.0315Y-3.2382
X4.0551Y-3.2057
X4.0591Y-3.2677
X4.0807Y-2.4035
X4.0945Y-2.0709
X4.1063Y-2.2795
X4.126Y-2.103
X4.137Y-2.5898
X4.137Y-3.0047
X4.137Y-3.1055
X4.1594Y-2.252
X4.1639Y-2.1806
X4.1752Y-2.6122
X4.2323Y-1.5335
X4.2421Y-1.6516
X4.248Y-3.1594
X4.2579Y-2.5906
X4.2756Y-1.7913
X4.2854Y-2.0039
X4.3091Y-1.939
X4.315Y-2.7047
X4.3228Y-3.002
X4.4291Y-1.5886
X4.4325Y-1.9331
X4.5098Y-2.0039
X4.5138Y-2.7087
X4.5197Y-2.998
X4.5315Y-2.2598
X4.561Y-1.9331
X4.5768Y-2.0039
X4.5844Y-2.376
X4.5945Y-1.5866
X4.6319Y-3.0807
X4.685Y-2.4488
X4.7224Y-1.8346
X4.7283Y-1.6555
X4.7343Y-1.5866
X4.7382Y-2.3169
X4.7825Y-2.4337
X4.7835Y-1.7185
X4.813Y-2.3976
X4.8642Y-2.6555
X4.865Y-2.7055
X4.9321Y-3.1752
X4.9559Y-2.4101
X5.3248Y-1.689
X5.4204Y-1.7401
T4
X3.0583Y-2.6001
X3.0583Y-2.7001
X3.0583Y-2.9249
X3.0583Y-3.0249
X3.8976Y-2.8622
X3.8976Y-2.9622
X3.8976Y-3.0622
X4.8642Y-1.4764
X4.8642Y-1.5764
X4.9642Y-1.4764
X4.9642Y-1.5764
X5.0642Y-1.4764
X5.0642Y-1.5764
X5.1642Y-1.4764
X5.1642Y-1.5764
X5.2642Y-1.4764
X5.2642Y-1.5764
X5.3642Y-1.4764
X5.3642Y-1.5764
X4.8976Y-2.5669
X4.8579Y-3.3642
X4.9579Y-3.3642
X5.0579Y-3.3642
X5.1579Y-3.3642
X5.2579Y-3.3642
X5.3579Y-3.3642
X5.4579Y-3.3642
X3.2559Y-3.2874
X3.2559Y-3.3874
X4.5811Y-1.4803
X4.6811Y-1.4803
X4.8898Y-2.8071
X4.3386Y-1.4823
X4.4386Y-1.4823
X3.0583Y-1.8654
X3.0583Y-1.9654
X3.0583Y-2.0654
X3.0583Y-2.1654
X3.0583Y-2.2654
X3.0583Y-2.3654
X3.5547Y-3.3642
X3.6547Y-3.3642
X3.7547Y-3.3642
X3.8547Y-3.3642
X3.9547Y-3.3642
X3.4016Y-3.2898
X3.4016Y-3.3898
T0
M30
