G04 #@! TF.GenerationSoftware,KiCad,Pcbnew,(5.0.1-3-g963ef8bb5)*
G04 #@! TF.CreationDate,2019-05-10T17:55:58-07:00*
G04 #@! TF.ProjectId,ME203_Project,4D453230335F50726F6A6563742E6B69,rev?*
G04 #@! TF.SameCoordinates,Original*
G04 #@! TF.FileFunction,Legend,Top*
G04 #@! TF.FilePolarity,Positive*
%FSLAX46Y46*%
G04 Gerber Fmt 4.6, Leading zero omitted, Abs format (unit mm)*
G04 Created by KiCad (PCBNEW (5.0.1-3-g963ef8bb5)) date Friday, May 10, 2019 at 05:55:58 PM*
%MOMM*%
%LPD*%
G01*
G04 APERTURE LIST*
%ADD10C,0.200000*%
%ADD11C,0.187500*%
%ADD12C,0.120000*%
%ADD13C,0.066040*%
%ADD14C,0.150000*%
%ADD15C,0.500000*%
%ADD16C,0.152400*%
%ADD17C,0.203200*%
%ADD18C,0.100000*%
%ADD19C,0.127000*%
%ADD20C,0.180000*%
%ADD21C,0.254000*%
G04 APERTURE END LIST*
D10*
X125938809Y-78702380D02*
X126063809Y-77702380D01*
X126307857Y-78416666D01*
X126730476Y-77702380D01*
X126605476Y-78702380D01*
X127147142Y-78178571D02*
X127480476Y-78178571D01*
X127557857Y-78702380D02*
X127081666Y-78702380D01*
X127206666Y-77702380D01*
X127682857Y-77702380D01*
X128051904Y-77797619D02*
X128105476Y-77750000D01*
X128206666Y-77702380D01*
X128444761Y-77702380D01*
X128534047Y-77750000D01*
X128575714Y-77797619D01*
X128611428Y-77892857D01*
X128599523Y-77988095D01*
X128534047Y-78130952D01*
X127891190Y-78702380D01*
X128510238Y-78702380D01*
X129254285Y-77702380D02*
X129349523Y-77702380D01*
X129438809Y-77750000D01*
X129480476Y-77797619D01*
X129516190Y-77892857D01*
X129540000Y-78083333D01*
X129510238Y-78321428D01*
X129438809Y-78511904D01*
X129379285Y-78607142D01*
X129325714Y-78654761D01*
X129224523Y-78702380D01*
X129129285Y-78702380D01*
X129040000Y-78654761D01*
X128998333Y-78607142D01*
X128962619Y-78511904D01*
X128938809Y-78321428D01*
X128968571Y-78083333D01*
X129040000Y-77892857D01*
X129099523Y-77797619D01*
X129153095Y-77750000D01*
X129254285Y-77702380D01*
X129920952Y-77702380D02*
X130540000Y-77702380D01*
X130159047Y-78083333D01*
X130301904Y-78083333D01*
X130391190Y-78130952D01*
X130432857Y-78178571D01*
X130468571Y-78273809D01*
X130438809Y-78511904D01*
X130379285Y-78607142D01*
X130325714Y-78654761D01*
X130224523Y-78702380D01*
X129938809Y-78702380D01*
X129849523Y-78654761D01*
X129807857Y-78607142D01*
X131605476Y-78702380D02*
X131730476Y-77702380D01*
X132176904Y-78702380D01*
X132301904Y-77702380D01*
X132653095Y-78702380D02*
X132736428Y-78035714D01*
X132778095Y-77702380D02*
X132724523Y-77750000D01*
X132766190Y-77797619D01*
X132819761Y-77750000D01*
X132778095Y-77702380D01*
X132766190Y-77797619D01*
X133034047Y-78702380D02*
X133641190Y-78035714D01*
X133117380Y-78035714D02*
X133557857Y-78702380D01*
X133938809Y-78702380D02*
X134022142Y-78035714D01*
X134063809Y-77702380D02*
X134010238Y-77750000D01*
X134051904Y-77797619D01*
X134105476Y-77750000D01*
X134063809Y-77702380D01*
X134051904Y-77797619D01*
X134801904Y-78654761D02*
X134700714Y-78702380D01*
X134510238Y-78702380D01*
X134420952Y-78654761D01*
X134385238Y-78559523D01*
X134432857Y-78178571D01*
X134492380Y-78083333D01*
X134593571Y-78035714D01*
X134784047Y-78035714D01*
X134873333Y-78083333D01*
X134909047Y-78178571D01*
X134897142Y-78273809D01*
X134409047Y-78369047D01*
X136617380Y-78607142D02*
X136563809Y-78654761D01*
X136415000Y-78702380D01*
X136319761Y-78702380D01*
X136182857Y-78654761D01*
X136099523Y-78559523D01*
X136063809Y-78464285D01*
X136040000Y-78273809D01*
X136057857Y-78130952D01*
X136129285Y-77940476D01*
X136188809Y-77845238D01*
X136295952Y-77750000D01*
X136444761Y-77702380D01*
X136540000Y-77702380D01*
X136676904Y-77750000D01*
X136718571Y-77797619D01*
X137176904Y-78702380D02*
X137087619Y-78654761D01*
X137051904Y-78559523D01*
X137159047Y-77702380D01*
X137700714Y-78702380D02*
X137611428Y-78654761D01*
X137569761Y-78607142D01*
X137534047Y-78511904D01*
X137569761Y-78226190D01*
X137629285Y-78130952D01*
X137682857Y-78083333D01*
X137784047Y-78035714D01*
X137926904Y-78035714D01*
X138016190Y-78083333D01*
X138057857Y-78130952D01*
X138093571Y-78226190D01*
X138057857Y-78511904D01*
X137998333Y-78607142D01*
X137944761Y-78654761D01*
X137843571Y-78702380D01*
X137700714Y-78702380D01*
X138897142Y-78654761D02*
X138795952Y-78702380D01*
X138605476Y-78702380D01*
X138516190Y-78654761D01*
X138474523Y-78607142D01*
X138438809Y-78511904D01*
X138474523Y-78226190D01*
X138534047Y-78130952D01*
X138587619Y-78083333D01*
X138688809Y-78035714D01*
X138879285Y-78035714D01*
X138968571Y-78083333D01*
X139319761Y-78702380D02*
X139444761Y-77702380D01*
X139462619Y-78321428D02*
X139700714Y-78702380D01*
X139784047Y-78035714D02*
X139355476Y-78416666D01*
X140873333Y-77702380D02*
X141081666Y-78702380D01*
X141540000Y-77702380D01*
X142272142Y-78702380D02*
X141700714Y-78702380D01*
X141986428Y-78702380D02*
X142111428Y-77702380D01*
X141998333Y-77845238D01*
X141891190Y-77940476D01*
X141790000Y-77988095D01*
X142712619Y-78607142D02*
X142754285Y-78654761D01*
X142700714Y-78702380D01*
X142659047Y-78654761D01*
X142712619Y-78607142D01*
X142700714Y-78702380D01*
X143492380Y-77702380D02*
X143587619Y-77702380D01*
X143676904Y-77750000D01*
X143718571Y-77797619D01*
X143754285Y-77892857D01*
X143778095Y-78083333D01*
X143748333Y-78321428D01*
X143676904Y-78511904D01*
X143617380Y-78607142D01*
X143563809Y-78654761D01*
X143462619Y-78702380D01*
X143367380Y-78702380D01*
X143278095Y-78654761D01*
X143236428Y-78607142D01*
X143200714Y-78511904D01*
X143176904Y-78321428D01*
X143206666Y-78083333D01*
X143278095Y-77892857D01*
X143337619Y-77797619D01*
X143391190Y-77750000D01*
X143492380Y-77702380D01*
X127361428Y-79878571D02*
X127498333Y-79926190D01*
X127540000Y-79973809D01*
X127575714Y-80069047D01*
X127557857Y-80211904D01*
X127498333Y-80307142D01*
X127444761Y-80354761D01*
X127343571Y-80402380D01*
X126962619Y-80402380D01*
X127087619Y-79402380D01*
X127420952Y-79402380D01*
X127510238Y-79450000D01*
X127551904Y-79497619D01*
X127587619Y-79592857D01*
X127575714Y-79688095D01*
X127516190Y-79783333D01*
X127462619Y-79830952D01*
X127361428Y-79878571D01*
X127028095Y-79878571D01*
X127950714Y-79735714D02*
X128105476Y-80402380D01*
X128426904Y-79735714D02*
X128105476Y-80402380D01*
X127980476Y-80640476D01*
X127926904Y-80688095D01*
X127825714Y-80735714D01*
X129551904Y-79878571D02*
X129885238Y-79878571D01*
X129962619Y-80402380D02*
X129486428Y-80402380D01*
X129611428Y-79402380D01*
X130087619Y-79402380D01*
X130391190Y-80402380D02*
X130474523Y-79735714D01*
X130450714Y-79926190D02*
X130510238Y-79830952D01*
X130563809Y-79783333D01*
X130665000Y-79735714D01*
X130760238Y-79735714D01*
X131010238Y-80402380D02*
X131093571Y-79735714D01*
X131135238Y-79402380D02*
X131081666Y-79450000D01*
X131123333Y-79497619D01*
X131176904Y-79450000D01*
X131135238Y-79402380D01*
X131123333Y-79497619D01*
X131920952Y-80354761D02*
X131819761Y-80402380D01*
X131629285Y-80402380D01*
X131540000Y-80354761D01*
X131498333Y-80307142D01*
X131462619Y-80211904D01*
X131498333Y-79926190D01*
X131557857Y-79830952D01*
X131611428Y-79783333D01*
X131712619Y-79735714D01*
X131903095Y-79735714D01*
X131992380Y-79783333D01*
X132343571Y-80402380D02*
X132468571Y-79402380D01*
X132486428Y-80021428D02*
X132724523Y-80402380D01*
X132807857Y-79735714D02*
X132379285Y-80116666D01*
X134313809Y-79878571D02*
X134450714Y-79926190D01*
X134492380Y-79973809D01*
X134528095Y-80069047D01*
X134510238Y-80211904D01*
X134450714Y-80307142D01*
X134397142Y-80354761D01*
X134295952Y-80402380D01*
X133915000Y-80402380D01*
X134040000Y-79402380D01*
X134373333Y-79402380D01*
X134462619Y-79450000D01*
X134504285Y-79497619D01*
X134540000Y-79592857D01*
X134528095Y-79688095D01*
X134468571Y-79783333D01*
X134415000Y-79830952D01*
X134313809Y-79878571D01*
X133980476Y-79878571D01*
X135057857Y-80402380D02*
X134968571Y-80354761D01*
X134932857Y-80259523D01*
X135040000Y-79402380D01*
X135867380Y-80402380D02*
X135932857Y-79878571D01*
X135897142Y-79783333D01*
X135807857Y-79735714D01*
X135617380Y-79735714D01*
X135516190Y-79783333D01*
X135873333Y-80354761D02*
X135772142Y-80402380D01*
X135534047Y-80402380D01*
X135444761Y-80354761D01*
X135409047Y-80259523D01*
X135420952Y-80164285D01*
X135480476Y-80069047D01*
X135581666Y-80021428D01*
X135819761Y-80021428D01*
X135920952Y-79973809D01*
X136426904Y-79735714D02*
X136343571Y-80402380D01*
X136415000Y-79830952D02*
X136468571Y-79783333D01*
X136569761Y-79735714D01*
X136712619Y-79735714D01*
X136801904Y-79783333D01*
X136837619Y-79878571D01*
X136772142Y-80402380D01*
X137248333Y-80402380D02*
X137373333Y-79402380D01*
X137391190Y-80021428D02*
X137629285Y-80402380D01*
X137712619Y-79735714D02*
X137284047Y-80116666D01*
X138444761Y-80354761D02*
X138343571Y-80402380D01*
X138153095Y-80402380D01*
X138063809Y-80354761D01*
X138028095Y-80259523D01*
X138075714Y-79878571D01*
X138135238Y-79783333D01*
X138236428Y-79735714D01*
X138426904Y-79735714D01*
X138516190Y-79783333D01*
X138551904Y-79878571D01*
X138540000Y-79973809D01*
X138051904Y-80069047D01*
X138998333Y-79735714D02*
X138915000Y-80402380D01*
X138986428Y-79830952D02*
X139040000Y-79783333D01*
X139141190Y-79735714D01*
X139284047Y-79735714D01*
X139373333Y-79783333D01*
X139409047Y-79878571D01*
X139343571Y-80402380D01*
X139819761Y-80402380D02*
X139944761Y-79402380D01*
X139897142Y-79783333D02*
X139998333Y-79735714D01*
X140188809Y-79735714D01*
X140278095Y-79783333D01*
X140319761Y-79830952D01*
X140355476Y-79926190D01*
X140319761Y-80211904D01*
X140260238Y-80307142D01*
X140206666Y-80354761D01*
X140105476Y-80402380D01*
X139915000Y-80402380D01*
X139825714Y-80354761D01*
X141111428Y-80354761D02*
X141010238Y-80402380D01*
X140819761Y-80402380D01*
X140730476Y-80354761D01*
X140694761Y-80259523D01*
X140742380Y-79878571D01*
X140801904Y-79783333D01*
X140903095Y-79735714D01*
X141093571Y-79735714D01*
X141182857Y-79783333D01*
X141218571Y-79878571D01*
X141206666Y-79973809D01*
X140718571Y-80069047D01*
X141581666Y-80402380D02*
X141665000Y-79735714D01*
X141641190Y-79926190D02*
X141700714Y-79830952D01*
X141754285Y-79783333D01*
X141855476Y-79735714D01*
X141950714Y-79735714D01*
X142712619Y-79735714D02*
X142611428Y-80545238D01*
X142551904Y-80640476D01*
X142498333Y-80688095D01*
X142397142Y-80735714D01*
X142254285Y-80735714D01*
X142165000Y-80688095D01*
X142635238Y-80354761D02*
X142534047Y-80402380D01*
X142343571Y-80402380D01*
X142254285Y-80354761D01*
X142212619Y-80307142D01*
X142176904Y-80211904D01*
X142212619Y-79926190D01*
X142272142Y-79830952D01*
X142325714Y-79783333D01*
X142426904Y-79735714D01*
X142617380Y-79735714D01*
X142706666Y-79783333D01*
D11*
X78928571Y-86825000D02*
X78857142Y-86789285D01*
X78750000Y-86789285D01*
X78642857Y-86825000D01*
X78571428Y-86896428D01*
X78535714Y-86967857D01*
X78500000Y-87110714D01*
X78500000Y-87217857D01*
X78535714Y-87360714D01*
X78571428Y-87432142D01*
X78642857Y-87503571D01*
X78750000Y-87539285D01*
X78821428Y-87539285D01*
X78928571Y-87503571D01*
X78964285Y-87467857D01*
X78964285Y-87217857D01*
X78821428Y-87217857D01*
X79285714Y-87539285D02*
X79285714Y-86789285D01*
X79714285Y-87539285D01*
X79714285Y-86789285D01*
X80071428Y-87539285D02*
X80071428Y-86789285D01*
X80250000Y-86789285D01*
X80357142Y-86825000D01*
X80428571Y-86896428D01*
X80464285Y-86967857D01*
X80500000Y-87110714D01*
X80500000Y-87217857D01*
X80464285Y-87360714D01*
X80428571Y-87432142D01*
X80357142Y-87503571D01*
X80250000Y-87539285D01*
X80071428Y-87539285D01*
X88771428Y-82189285D02*
X89235714Y-82189285D01*
X88985714Y-82475000D01*
X89092857Y-82475000D01*
X89164285Y-82510714D01*
X89200000Y-82546428D01*
X89235714Y-82617857D01*
X89235714Y-82796428D01*
X89200000Y-82867857D01*
X89164285Y-82903571D01*
X89092857Y-82939285D01*
X88878571Y-82939285D01*
X88807142Y-82903571D01*
X88771428Y-82867857D01*
X89450000Y-82189285D02*
X89700000Y-82939285D01*
X89950000Y-82189285D01*
X90128571Y-82189285D02*
X90592857Y-82189285D01*
X90342857Y-82475000D01*
X90450000Y-82475000D01*
X90521428Y-82510714D01*
X90557142Y-82546428D01*
X90592857Y-82617857D01*
X90592857Y-82796428D01*
X90557142Y-82867857D01*
X90521428Y-82903571D01*
X90450000Y-82939285D01*
X90235714Y-82939285D01*
X90164285Y-82903571D01*
X90128571Y-82867857D01*
D10*
X106657142Y-59152380D02*
X106180952Y-59152380D01*
X106180952Y-58152380D01*
X106990476Y-58628571D02*
X107323809Y-58628571D01*
X107466666Y-59152380D02*
X106990476Y-59152380D01*
X106990476Y-58152380D01*
X107466666Y-58152380D01*
X107895238Y-59152380D02*
X107895238Y-58152380D01*
X108133333Y-58152380D01*
X108276190Y-58200000D01*
X108371428Y-58295238D01*
X108419047Y-58390476D01*
X108466666Y-58580952D01*
X108466666Y-58723809D01*
X108419047Y-58914285D01*
X108371428Y-59009523D01*
X108276190Y-59104761D01*
X108133333Y-59152380D01*
X107895238Y-59152380D01*
X105966666Y-54252380D02*
X105966666Y-53252380D01*
X106347619Y-53252380D01*
X106442857Y-53300000D01*
X106490476Y-53347619D01*
X106538095Y-53442857D01*
X106538095Y-53585714D01*
X106490476Y-53680952D01*
X106442857Y-53728571D01*
X106347619Y-53776190D01*
X105966666Y-53776190D01*
X106871428Y-53252380D02*
X107109523Y-54252380D01*
X107300000Y-53538095D01*
X107490476Y-54252380D01*
X107728571Y-53252380D01*
X108680952Y-54252380D02*
X108347619Y-53776190D01*
X108109523Y-54252380D02*
X108109523Y-53252380D01*
X108490476Y-53252380D01*
X108585714Y-53300000D01*
X108633333Y-53347619D01*
X108680952Y-53442857D01*
X108680952Y-53585714D01*
X108633333Y-53680952D01*
X108585714Y-53728571D01*
X108490476Y-53776190D01*
X108109523Y-53776190D01*
D11*
X126007142Y-65325000D02*
X126364285Y-65325000D01*
X125935714Y-65539285D02*
X126185714Y-64789285D01*
X126435714Y-65539285D01*
X127078571Y-65539285D02*
X126650000Y-65539285D01*
X126864285Y-65539285D02*
X126864285Y-64789285D01*
X126792857Y-64896428D01*
X126721428Y-64967857D01*
X126650000Y-65003571D01*
X127792857Y-65539285D02*
X127364285Y-65539285D01*
X127578571Y-65539285D02*
X127578571Y-64789285D01*
X127507142Y-64896428D01*
X127435714Y-64967857D01*
X127364285Y-65003571D01*
X126564285Y-71525000D02*
X126921428Y-71525000D01*
X126492857Y-71739285D02*
X126742857Y-70989285D01*
X126992857Y-71739285D01*
X127171428Y-70989285D02*
X127671428Y-70989285D01*
X127350000Y-71739285D01*
D10*
X111121428Y-35707142D02*
X111073809Y-35754761D01*
X110930952Y-35802380D01*
X110835714Y-35802380D01*
X110692857Y-35754761D01*
X110597619Y-35659523D01*
X110550000Y-35564285D01*
X110502380Y-35373809D01*
X110502380Y-35230952D01*
X110550000Y-35040476D01*
X110597619Y-34945238D01*
X110692857Y-34850000D01*
X110835714Y-34802380D01*
X110930952Y-34802380D01*
X111073809Y-34850000D01*
X111121428Y-34897619D01*
X111550000Y-35802380D02*
X111550000Y-34802380D01*
X111550000Y-35278571D02*
X112121428Y-35278571D01*
X112121428Y-35802380D02*
X112121428Y-34802380D01*
X113883333Y-35802380D02*
X113311904Y-35802380D01*
X113597619Y-35802380D02*
X113597619Y-34802380D01*
X113502380Y-34945238D01*
X113407142Y-35040476D01*
X113311904Y-35088095D01*
X114550000Y-36135714D02*
X114550000Y-34707142D01*
X115835714Y-35707142D02*
X115788095Y-35754761D01*
X115645238Y-35802380D01*
X115550000Y-35802380D01*
X115407142Y-35754761D01*
X115311904Y-35659523D01*
X115264285Y-35564285D01*
X115216666Y-35373809D01*
X115216666Y-35230952D01*
X115264285Y-35040476D01*
X115311904Y-34945238D01*
X115407142Y-34850000D01*
X115550000Y-34802380D01*
X115645238Y-34802380D01*
X115788095Y-34850000D01*
X115835714Y-34897619D01*
X116264285Y-35802380D02*
X116264285Y-34802380D01*
X116264285Y-35278571D02*
X116835714Y-35278571D01*
X116835714Y-35802380D02*
X116835714Y-34802380D01*
X118026190Y-34897619D02*
X118073809Y-34850000D01*
X118169047Y-34802380D01*
X118407142Y-34802380D01*
X118502380Y-34850000D01*
X118550000Y-34897619D01*
X118597619Y-34992857D01*
X118597619Y-35088095D01*
X118550000Y-35230952D01*
X117978571Y-35802380D01*
X118597619Y-35802380D01*
D11*
X89132142Y-87939285D02*
X88882142Y-87582142D01*
X88703571Y-87939285D02*
X88703571Y-87189285D01*
X88989285Y-87189285D01*
X89060714Y-87225000D01*
X89096428Y-87260714D01*
X89132142Y-87332142D01*
X89132142Y-87439285D01*
X89096428Y-87510714D01*
X89060714Y-87546428D01*
X88989285Y-87582142D01*
X88703571Y-87582142D01*
X89382142Y-87189285D02*
X89882142Y-87939285D01*
X89882142Y-87189285D02*
X89382142Y-87939285D01*
X90346428Y-88189285D02*
X90346428Y-87117857D01*
X90775000Y-87189285D02*
X91203571Y-87189285D01*
X90989285Y-87939285D02*
X90989285Y-87189285D01*
X91382142Y-87189285D02*
X91882142Y-87939285D01*
X91882142Y-87189285D02*
X91382142Y-87939285D01*
X92346428Y-88189285D02*
X92346428Y-87117857D01*
X92846428Y-87903571D02*
X92953571Y-87939285D01*
X93132142Y-87939285D01*
X93203571Y-87903571D01*
X93239285Y-87867857D01*
X93275000Y-87796428D01*
X93275000Y-87725000D01*
X93239285Y-87653571D01*
X93203571Y-87617857D01*
X93132142Y-87582142D01*
X92989285Y-87546428D01*
X92917857Y-87510714D01*
X92882142Y-87475000D01*
X92846428Y-87403571D01*
X92846428Y-87332142D01*
X92882142Y-87260714D01*
X92917857Y-87225000D01*
X92989285Y-87189285D01*
X93167857Y-87189285D01*
X93275000Y-87225000D01*
X94025000Y-87867857D02*
X93989285Y-87903571D01*
X93882142Y-87939285D01*
X93810714Y-87939285D01*
X93703571Y-87903571D01*
X93632142Y-87832142D01*
X93596428Y-87760714D01*
X93560714Y-87617857D01*
X93560714Y-87510714D01*
X93596428Y-87367857D01*
X93632142Y-87296428D01*
X93703571Y-87225000D01*
X93810714Y-87189285D01*
X93882142Y-87189285D01*
X93989285Y-87225000D01*
X94025000Y-87260714D01*
X94346428Y-87939285D02*
X94346428Y-87189285D01*
X94775000Y-87939285D02*
X94453571Y-87510714D01*
X94775000Y-87189285D02*
X94346428Y-87617857D01*
X95275000Y-88189285D02*
X95275000Y-87117857D01*
X95810714Y-87939285D02*
X95810714Y-87189285D01*
X96060714Y-87725000D01*
X96310714Y-87189285D01*
X96310714Y-87939285D01*
X96810714Y-87189285D02*
X96953571Y-87189285D01*
X97025000Y-87225000D01*
X97096428Y-87296428D01*
X97132142Y-87439285D01*
X97132142Y-87689285D01*
X97096428Y-87832142D01*
X97025000Y-87903571D01*
X96953571Y-87939285D01*
X96810714Y-87939285D01*
X96739285Y-87903571D01*
X96667857Y-87832142D01*
X96632142Y-87689285D01*
X96632142Y-87439285D01*
X96667857Y-87296428D01*
X96739285Y-87225000D01*
X96810714Y-87189285D01*
X97417857Y-87903571D02*
X97525000Y-87939285D01*
X97703571Y-87939285D01*
X97775000Y-87903571D01*
X97810714Y-87867857D01*
X97846428Y-87796428D01*
X97846428Y-87725000D01*
X97810714Y-87653571D01*
X97775000Y-87617857D01*
X97703571Y-87582142D01*
X97560714Y-87546428D01*
X97489285Y-87510714D01*
X97453571Y-87475000D01*
X97417857Y-87403571D01*
X97417857Y-87332142D01*
X97453571Y-87260714D01*
X97489285Y-87225000D01*
X97560714Y-87189285D01*
X97739285Y-87189285D01*
X97846428Y-87225000D01*
X98167857Y-87939285D02*
X98167857Y-87189285D01*
X98703571Y-88189285D02*
X98703571Y-87117857D01*
X99239285Y-87939285D02*
X99239285Y-87189285D01*
X99489285Y-87725000D01*
X99739285Y-87189285D01*
X99739285Y-87939285D01*
X100096428Y-87939285D02*
X100096428Y-87189285D01*
X100417857Y-87903571D02*
X100525000Y-87939285D01*
X100703571Y-87939285D01*
X100775000Y-87903571D01*
X100810714Y-87867857D01*
X100846428Y-87796428D01*
X100846428Y-87725000D01*
X100810714Y-87653571D01*
X100775000Y-87617857D01*
X100703571Y-87582142D01*
X100560714Y-87546428D01*
X100489285Y-87510714D01*
X100453571Y-87475000D01*
X100417857Y-87403571D01*
X100417857Y-87332142D01*
X100453571Y-87260714D01*
X100489285Y-87225000D01*
X100560714Y-87189285D01*
X100739285Y-87189285D01*
X100846428Y-87225000D01*
X101310714Y-87189285D02*
X101453571Y-87189285D01*
X101525000Y-87225000D01*
X101596428Y-87296428D01*
X101632142Y-87439285D01*
X101632142Y-87689285D01*
X101596428Y-87832142D01*
X101525000Y-87903571D01*
X101453571Y-87939285D01*
X101310714Y-87939285D01*
X101239285Y-87903571D01*
X101167857Y-87832142D01*
X101132142Y-87689285D01*
X101132142Y-87439285D01*
X101167857Y-87296428D01*
X101239285Y-87225000D01*
X101310714Y-87189285D01*
X124121428Y-87725000D02*
X124478571Y-87725000D01*
X124050000Y-87939285D02*
X124300000Y-87189285D01*
X124550000Y-87939285D01*
X125121428Y-87439285D02*
X125121428Y-87939285D01*
X124942857Y-87153571D02*
X124764285Y-87689285D01*
X125228571Y-87689285D01*
X125692857Y-88189285D02*
X125692857Y-87117857D01*
X126192857Y-87725000D02*
X126550000Y-87725000D01*
X126121428Y-87939285D02*
X126371428Y-87189285D01*
X126621428Y-87939285D01*
X126800000Y-87189285D02*
X127264285Y-87189285D01*
X127014285Y-87475000D01*
X127121428Y-87475000D01*
X127192857Y-87510714D01*
X127228571Y-87546428D01*
X127264285Y-87617857D01*
X127264285Y-87796428D01*
X127228571Y-87867857D01*
X127192857Y-87903571D01*
X127121428Y-87939285D01*
X126907142Y-87939285D01*
X126835714Y-87903571D01*
X126800000Y-87867857D01*
X127764285Y-88189285D02*
X127764285Y-87117857D01*
X128264285Y-87725000D02*
X128621428Y-87725000D01*
X128192857Y-87939285D02*
X128442857Y-87189285D01*
X128692857Y-87939285D01*
X128907142Y-87260714D02*
X128942857Y-87225000D01*
X129014285Y-87189285D01*
X129192857Y-87189285D01*
X129264285Y-87225000D01*
X129300000Y-87260714D01*
X129335714Y-87332142D01*
X129335714Y-87403571D01*
X129300000Y-87510714D01*
X128871428Y-87939285D01*
X129335714Y-87939285D01*
X129835714Y-88189285D02*
X129835714Y-87117857D01*
X130300000Y-87189285D02*
X130764285Y-87189285D01*
X130514285Y-87475000D01*
X130621428Y-87475000D01*
X130692857Y-87510714D01*
X130728571Y-87546428D01*
X130764285Y-87617857D01*
X130764285Y-87796428D01*
X130728571Y-87867857D01*
X130692857Y-87903571D01*
X130621428Y-87939285D01*
X130407142Y-87939285D01*
X130335714Y-87903571D01*
X130300000Y-87867857D01*
X131442857Y-87189285D02*
X131085714Y-87189285D01*
X131050000Y-87546428D01*
X131085714Y-87510714D01*
X131157142Y-87475000D01*
X131335714Y-87475000D01*
X131407142Y-87510714D01*
X131442857Y-87546428D01*
X131478571Y-87617857D01*
X131478571Y-87796428D01*
X131442857Y-87867857D01*
X131407142Y-87903571D01*
X131335714Y-87939285D01*
X131157142Y-87939285D01*
X131085714Y-87903571D01*
X131050000Y-87867857D01*
X131978571Y-88189285D02*
X131978571Y-87117857D01*
X132442857Y-87189285D02*
X132907142Y-87189285D01*
X132657142Y-87475000D01*
X132764285Y-87475000D01*
X132835714Y-87510714D01*
X132871428Y-87546428D01*
X132907142Y-87617857D01*
X132907142Y-87796428D01*
X132871428Y-87867857D01*
X132835714Y-87903571D01*
X132764285Y-87939285D01*
X132550000Y-87939285D01*
X132478571Y-87903571D01*
X132442857Y-87867857D01*
X133157142Y-87189285D02*
X133621428Y-87189285D01*
X133371428Y-87475000D01*
X133478571Y-87475000D01*
X133550000Y-87510714D01*
X133585714Y-87546428D01*
X133621428Y-87617857D01*
X133621428Y-87796428D01*
X133585714Y-87867857D01*
X133550000Y-87903571D01*
X133478571Y-87939285D01*
X133264285Y-87939285D01*
X133192857Y-87903571D01*
X133157142Y-87867857D01*
X134121428Y-88189285D02*
X134121428Y-87117857D01*
X134657142Y-87939285D02*
X134657142Y-87189285D01*
X134835714Y-87189285D01*
X134942857Y-87225000D01*
X135014285Y-87296428D01*
X135050000Y-87367857D01*
X135085714Y-87510714D01*
X135085714Y-87617857D01*
X135050000Y-87760714D01*
X135014285Y-87832142D01*
X134942857Y-87903571D01*
X134835714Y-87939285D01*
X134657142Y-87939285D01*
X135800000Y-87939285D02*
X135371428Y-87939285D01*
X135585714Y-87939285D02*
X135585714Y-87189285D01*
X135514285Y-87296428D01*
X135442857Y-87367857D01*
X135371428Y-87403571D01*
X136300000Y-88189285D02*
X136300000Y-87117857D01*
X136835714Y-87939285D02*
X136835714Y-87189285D01*
X137014285Y-87189285D01*
X137121428Y-87225000D01*
X137192857Y-87296428D01*
X137228571Y-87367857D01*
X137264285Y-87510714D01*
X137264285Y-87617857D01*
X137228571Y-87760714D01*
X137192857Y-87832142D01*
X137121428Y-87903571D01*
X137014285Y-87939285D01*
X136835714Y-87939285D01*
X137550000Y-87260714D02*
X137585714Y-87225000D01*
X137657142Y-87189285D01*
X137835714Y-87189285D01*
X137907142Y-87225000D01*
X137942857Y-87260714D01*
X137978571Y-87332142D01*
X137978571Y-87403571D01*
X137942857Y-87510714D01*
X137514285Y-87939285D01*
X137978571Y-87939285D01*
D10*
X93366666Y-69652380D02*
X93366666Y-68652380D01*
X93747619Y-68652380D01*
X93842857Y-68700000D01*
X93890476Y-68747619D01*
X93938095Y-68842857D01*
X93938095Y-68985714D01*
X93890476Y-69080952D01*
X93842857Y-69128571D01*
X93747619Y-69176190D01*
X93366666Y-69176190D01*
X94938095Y-69652380D02*
X94604761Y-69176190D01*
X94366666Y-69652380D02*
X94366666Y-68652380D01*
X94747619Y-68652380D01*
X94842857Y-68700000D01*
X94890476Y-68747619D01*
X94938095Y-68842857D01*
X94938095Y-68985714D01*
X94890476Y-69080952D01*
X94842857Y-69128571D01*
X94747619Y-69176190D01*
X94366666Y-69176190D01*
X95890476Y-68700000D02*
X95795238Y-68652380D01*
X95652380Y-68652380D01*
X95509523Y-68700000D01*
X95414285Y-68795238D01*
X95366666Y-68890476D01*
X95319047Y-69080952D01*
X95319047Y-69223809D01*
X95366666Y-69414285D01*
X95414285Y-69509523D01*
X95509523Y-69604761D01*
X95652380Y-69652380D01*
X95747619Y-69652380D01*
X95890476Y-69604761D01*
X95938095Y-69557142D01*
X95938095Y-69223809D01*
X95747619Y-69223809D01*
X96366666Y-69652380D02*
X96366666Y-68652380D01*
X96700000Y-69366666D01*
X97033333Y-68652380D01*
X97033333Y-69652380D01*
X94452380Y-56852380D02*
X94119047Y-56376190D01*
X93880952Y-56852380D02*
X93880952Y-55852380D01*
X94261904Y-55852380D01*
X94357142Y-55900000D01*
X94404761Y-55947619D01*
X94452380Y-56042857D01*
X94452380Y-56185714D01*
X94404761Y-56280952D01*
X94357142Y-56328571D01*
X94261904Y-56376190D01*
X93880952Y-56376190D01*
X94833333Y-56804761D02*
X94976190Y-56852380D01*
X95214285Y-56852380D01*
X95309523Y-56804761D01*
X95357142Y-56757142D01*
X95404761Y-56661904D01*
X95404761Y-56566666D01*
X95357142Y-56471428D01*
X95309523Y-56423809D01*
X95214285Y-56376190D01*
X95023809Y-56328571D01*
X94928571Y-56280952D01*
X94880952Y-56233333D01*
X94833333Y-56138095D01*
X94833333Y-56042857D01*
X94880952Y-55947619D01*
X94928571Y-55900000D01*
X95023809Y-55852380D01*
X95261904Y-55852380D01*
X95404761Y-55900000D01*
X95690476Y-55852380D02*
X96261904Y-55852380D01*
X95976190Y-56852380D02*
X95976190Y-55852380D01*
X97116666Y-73102380D02*
X97116666Y-72102380D01*
X97497619Y-72102380D01*
X97592857Y-72150000D01*
X97640476Y-72197619D01*
X97688095Y-72292857D01*
X97688095Y-72435714D01*
X97640476Y-72530952D01*
X97592857Y-72578571D01*
X97497619Y-72626190D01*
X97116666Y-72626190D01*
X98688095Y-73102380D02*
X98354761Y-72626190D01*
X98116666Y-73102380D02*
X98116666Y-72102380D01*
X98497619Y-72102380D01*
X98592857Y-72150000D01*
X98640476Y-72197619D01*
X98688095Y-72292857D01*
X98688095Y-72435714D01*
X98640476Y-72530952D01*
X98592857Y-72578571D01*
X98497619Y-72626190D01*
X98116666Y-72626190D01*
X99640476Y-72150000D02*
X99545238Y-72102380D01*
X99402380Y-72102380D01*
X99259523Y-72150000D01*
X99164285Y-72245238D01*
X99116666Y-72340476D01*
X99069047Y-72530952D01*
X99069047Y-72673809D01*
X99116666Y-72864285D01*
X99164285Y-72959523D01*
X99259523Y-73054761D01*
X99402380Y-73102380D01*
X99497619Y-73102380D01*
X99640476Y-73054761D01*
X99688095Y-73007142D01*
X99688095Y-72673809D01*
X99497619Y-72673809D01*
X100116666Y-73102380D02*
X100116666Y-72102380D01*
X100450000Y-72816666D01*
X100783333Y-72102380D01*
X100783333Y-73102380D01*
X120866666Y-34702380D02*
X121200000Y-35702380D01*
X121533333Y-34702380D01*
X121866666Y-35321428D02*
X122628571Y-35321428D01*
X123438095Y-35178571D02*
X123580952Y-35226190D01*
X123628571Y-35273809D01*
X123676190Y-35369047D01*
X123676190Y-35511904D01*
X123628571Y-35607142D01*
X123580952Y-35654761D01*
X123485714Y-35702380D01*
X123104761Y-35702380D01*
X123104761Y-34702380D01*
X123438095Y-34702380D01*
X123533333Y-34750000D01*
X123580952Y-34797619D01*
X123628571Y-34892857D01*
X123628571Y-34988095D01*
X123580952Y-35083333D01*
X123533333Y-35130952D01*
X123438095Y-35178571D01*
X123104761Y-35178571D01*
X124533333Y-35035714D02*
X124533333Y-35702380D01*
X124104761Y-35035714D02*
X124104761Y-35559523D01*
X124152380Y-35654761D01*
X124247619Y-35702380D01*
X124390476Y-35702380D01*
X124485714Y-35654761D01*
X124533333Y-35607142D01*
X125152380Y-35702380D02*
X125057142Y-35654761D01*
X125009523Y-35559523D01*
X125009523Y-34702380D01*
X125533333Y-35702380D02*
X125533333Y-34702380D01*
X125533333Y-35083333D02*
X125628571Y-35035714D01*
X125819047Y-35035714D01*
X125914285Y-35083333D01*
X125961904Y-35130952D01*
X126009523Y-35226190D01*
X126009523Y-35511904D01*
X125961904Y-35607142D01*
X125914285Y-35654761D01*
X125819047Y-35702380D01*
X125628571Y-35702380D01*
X125533333Y-35654761D01*
X127771428Y-35607142D02*
X127723809Y-35654761D01*
X127580952Y-35702380D01*
X127485714Y-35702380D01*
X127342857Y-35654761D01*
X127247619Y-35559523D01*
X127200000Y-35464285D01*
X127152380Y-35273809D01*
X127152380Y-35130952D01*
X127200000Y-34940476D01*
X127247619Y-34845238D01*
X127342857Y-34750000D01*
X127485714Y-34702380D01*
X127580952Y-34702380D01*
X127723809Y-34750000D01*
X127771428Y-34797619D01*
X128628571Y-35035714D02*
X128628571Y-35702380D01*
X128200000Y-35035714D02*
X128200000Y-35559523D01*
X128247619Y-35654761D01*
X128342857Y-35702380D01*
X128485714Y-35702380D01*
X128580952Y-35654761D01*
X128628571Y-35607142D01*
X129104761Y-35702380D02*
X129104761Y-35035714D01*
X129104761Y-35226190D02*
X129152380Y-35130952D01*
X129200000Y-35083333D01*
X129295238Y-35035714D01*
X129390476Y-35035714D01*
X129723809Y-35702380D02*
X129723809Y-35035714D01*
X129723809Y-35226190D02*
X129771428Y-35130952D01*
X129819047Y-35083333D01*
X129914285Y-35035714D01*
X130009523Y-35035714D01*
X130723809Y-35654761D02*
X130628571Y-35702380D01*
X130438095Y-35702380D01*
X130342857Y-35654761D01*
X130295238Y-35559523D01*
X130295238Y-35178571D01*
X130342857Y-35083333D01*
X130438095Y-35035714D01*
X130628571Y-35035714D01*
X130723809Y-35083333D01*
X130771428Y-35178571D01*
X130771428Y-35273809D01*
X130295238Y-35369047D01*
X131200000Y-35035714D02*
X131200000Y-35702380D01*
X131200000Y-35130952D02*
X131247619Y-35083333D01*
X131342857Y-35035714D01*
X131485714Y-35035714D01*
X131580952Y-35083333D01*
X131628571Y-35178571D01*
X131628571Y-35702380D01*
X131961904Y-35035714D02*
X132342857Y-35035714D01*
X132104761Y-34702380D02*
X132104761Y-35559523D01*
X132152380Y-35654761D01*
X132247619Y-35702380D01*
X132342857Y-35702380D01*
X133914285Y-35702380D02*
X133438095Y-35702380D01*
X133438095Y-34702380D01*
X134247619Y-35702380D02*
X134247619Y-35035714D01*
X134247619Y-34702380D02*
X134200000Y-34750000D01*
X134247619Y-34797619D01*
X134295238Y-34750000D01*
X134247619Y-34702380D01*
X134247619Y-34797619D01*
X134723809Y-35702380D02*
X134723809Y-35035714D01*
X134723809Y-35130952D02*
X134771428Y-35083333D01*
X134866666Y-35035714D01*
X135009523Y-35035714D01*
X135104761Y-35083333D01*
X135152380Y-35178571D01*
X135152380Y-35702380D01*
X135152380Y-35178571D02*
X135200000Y-35083333D01*
X135295238Y-35035714D01*
X135438095Y-35035714D01*
X135533333Y-35083333D01*
X135580952Y-35178571D01*
X135580952Y-35702380D01*
X136057142Y-35702380D02*
X136057142Y-35035714D01*
X136057142Y-34702380D02*
X136009523Y-34750000D01*
X136057142Y-34797619D01*
X136104761Y-34750000D01*
X136057142Y-34702380D01*
X136057142Y-34797619D01*
X136390476Y-35035714D02*
X136771428Y-35035714D01*
X136533333Y-34702380D02*
X136533333Y-35559523D01*
X136580952Y-35654761D01*
X136676190Y-35702380D01*
X136771428Y-35702380D01*
X137485714Y-35654761D02*
X137390476Y-35702380D01*
X137200000Y-35702380D01*
X137104761Y-35654761D01*
X137057142Y-35559523D01*
X137057142Y-35178571D01*
X137104761Y-35083333D01*
X137200000Y-35035714D01*
X137390476Y-35035714D01*
X137485714Y-35083333D01*
X137533333Y-35178571D01*
X137533333Y-35273809D01*
X137057142Y-35369047D01*
X138390476Y-35702380D02*
X138390476Y-34702380D01*
X138390476Y-35654761D02*
X138295238Y-35702380D01*
X138104761Y-35702380D01*
X138009523Y-35654761D01*
X137961904Y-35607142D01*
X137914285Y-35511904D01*
X137914285Y-35226190D01*
X137961904Y-35130952D01*
X138009523Y-35083333D01*
X138104761Y-35035714D01*
X138295238Y-35035714D01*
X138390476Y-35083333D01*
X75030866Y-45371100D02*
X75078485Y-45275862D01*
X75078485Y-45133005D01*
X75030866Y-44990148D01*
X74935627Y-44894910D01*
X74840389Y-44847291D01*
X74649913Y-44799672D01*
X74507056Y-44799672D01*
X74316580Y-44847291D01*
X74221342Y-44894910D01*
X74126104Y-44990148D01*
X74078485Y-45133005D01*
X74078485Y-45228243D01*
X74126104Y-45371100D01*
X74173723Y-45418719D01*
X74507056Y-45418719D01*
X74507056Y-45228243D01*
X74078485Y-45847291D02*
X75078485Y-45847291D01*
X74078485Y-46418719D01*
X75078485Y-46418719D01*
X74078485Y-46894910D02*
X75078485Y-46894910D01*
X75078485Y-47133005D01*
X75030866Y-47275862D01*
X74935627Y-47371100D01*
X74840389Y-47418719D01*
X74649913Y-47466338D01*
X74507056Y-47466338D01*
X74316580Y-47418719D01*
X74221342Y-47371100D01*
X74126104Y-47275862D01*
X74078485Y-47133005D01*
X74078485Y-46894910D01*
X73745151Y-48133005D02*
X75173723Y-48133005D01*
X74078485Y-48847291D02*
X75078485Y-48847291D01*
X75078485Y-49085386D01*
X75030866Y-49228243D01*
X74935627Y-49323481D01*
X74840389Y-49371100D01*
X74649913Y-49418719D01*
X74507056Y-49418719D01*
X74316580Y-49371100D01*
X74221342Y-49323481D01*
X74126104Y-49228243D01*
X74078485Y-49085386D01*
X74078485Y-48847291D01*
X73745151Y-50085386D02*
X75173723Y-50085386D01*
X75510866Y-50561577D02*
X75510866Y-51371100D01*
X74078485Y-51275862D02*
X74078485Y-50799672D01*
X75078485Y-50799672D01*
X75510866Y-51371100D02*
X75510866Y-52275862D01*
X74602294Y-51609196D02*
X74602294Y-51942529D01*
X74078485Y-52085386D02*
X74078485Y-51609196D01*
X75078485Y-51609196D01*
X75078485Y-52085386D01*
X75510866Y-52275862D02*
X75510866Y-53228243D01*
X73745151Y-52752053D02*
X75173723Y-52752053D01*
X74602294Y-53799672D02*
X74554675Y-53942529D01*
X74507056Y-53990148D01*
X74411818Y-54037767D01*
X74268961Y-54037767D01*
X74173723Y-53990148D01*
X74126104Y-53942529D01*
X74078485Y-53847291D01*
X74078485Y-53466338D01*
X75078485Y-53466338D01*
X75078485Y-53799672D01*
X75030866Y-53894910D01*
X74983246Y-53942529D01*
X74888008Y-53990148D01*
X74792770Y-53990148D01*
X74697532Y-53942529D01*
X74649913Y-53894910D01*
X74602294Y-53799672D01*
X74602294Y-53466338D01*
X74078485Y-54942529D02*
X74078485Y-54466338D01*
X75078485Y-54466338D01*
X73745151Y-55513957D02*
X75173723Y-55513957D01*
X74173723Y-56799672D02*
X74126104Y-56752053D01*
X74078485Y-56609196D01*
X74078485Y-56513957D01*
X74126104Y-56371100D01*
X74221342Y-56275862D01*
X74316580Y-56228243D01*
X74507056Y-56180624D01*
X74649913Y-56180624D01*
X74840389Y-56228243D01*
X74935627Y-56275862D01*
X75030866Y-56371100D01*
X75078485Y-56513957D01*
X75078485Y-56609196D01*
X75030866Y-56752053D01*
X74983246Y-56799672D01*
X74078485Y-57704434D02*
X74078485Y-57228243D01*
X75078485Y-57228243D01*
X74078485Y-58037767D02*
X75078485Y-58037767D01*
X74078485Y-58609196D02*
X74649913Y-58180624D01*
X75078485Y-58609196D02*
X74507056Y-58037767D01*
X73745151Y-59275862D02*
X75173723Y-59275862D01*
X74078485Y-60513957D02*
X74078485Y-59942529D01*
X74078485Y-60228243D02*
X75078485Y-60228243D01*
X74935627Y-60133005D01*
X74840389Y-60037767D01*
X74792770Y-59942529D01*
X74983246Y-60894910D02*
X75030866Y-60942529D01*
X75078485Y-61037767D01*
X75078485Y-61275862D01*
X75030866Y-61371100D01*
X74983246Y-61418719D01*
X74888008Y-61466338D01*
X74792770Y-61466338D01*
X74649913Y-61418719D01*
X74078485Y-60847291D01*
X74078485Y-61466338D01*
X75078485Y-61752053D02*
X74078485Y-62085386D01*
X75078485Y-62418719D01*
X75328486Y-65144910D02*
X75328486Y-65335386D01*
X75280867Y-65430624D01*
X75185628Y-65525862D01*
X74995152Y-65573481D01*
X74661819Y-65573481D01*
X74471343Y-65525862D01*
X74376105Y-65430624D01*
X74328486Y-65335386D01*
X74328486Y-65144910D01*
X74376105Y-65049672D01*
X74471343Y-64954434D01*
X74661819Y-64906815D01*
X74995152Y-64906815D01*
X75185628Y-64954434D01*
X75280867Y-65049672D01*
X75328486Y-65144910D01*
X74995152Y-66002053D02*
X74328486Y-66002053D01*
X74899914Y-66002053D02*
X74947533Y-66049672D01*
X74995152Y-66144910D01*
X74995152Y-66287767D01*
X74947533Y-66383005D01*
X74852295Y-66430624D01*
X74328486Y-66430624D01*
X75376105Y-67621100D02*
X74090390Y-66763957D01*
X75328486Y-68144910D02*
X75328486Y-68335386D01*
X75280867Y-68430624D01*
X75185628Y-68525862D01*
X74995152Y-68573481D01*
X74661819Y-68573481D01*
X74471343Y-68525862D01*
X74376105Y-68430624D01*
X74328486Y-68335386D01*
X74328486Y-68144910D01*
X74376105Y-68049672D01*
X74471343Y-67954434D01*
X74661819Y-67906815D01*
X74995152Y-67906815D01*
X75185628Y-67954434D01*
X75280867Y-68049672D01*
X75328486Y-68144910D01*
X74995152Y-68859196D02*
X74995152Y-69240148D01*
X74328486Y-69002053D02*
X75185628Y-69002053D01*
X75280867Y-69049672D01*
X75328486Y-69144910D01*
X75328486Y-69240148D01*
X74995152Y-69430624D02*
X74995152Y-69811577D01*
X74328486Y-69573481D02*
X75185628Y-69573481D01*
X75280867Y-69621100D01*
X75328486Y-69716338D01*
X75328486Y-69811577D01*
X75280866Y-72942529D02*
X75328485Y-72847291D01*
X75328485Y-72704434D01*
X75280866Y-72561577D01*
X75185627Y-72466338D01*
X75090389Y-72418719D01*
X74899913Y-72371100D01*
X74757056Y-72371100D01*
X74566580Y-72418719D01*
X74471342Y-72466338D01*
X74376104Y-72561577D01*
X74328485Y-72704434D01*
X74328485Y-72799672D01*
X74376104Y-72942529D01*
X74423723Y-72990148D01*
X74757056Y-72990148D01*
X74757056Y-72799672D01*
X74328485Y-73418719D02*
X75328485Y-73418719D01*
X74328485Y-73990148D01*
X75328485Y-73990148D01*
X74328485Y-74466338D02*
X75328485Y-74466338D01*
X75328485Y-74704434D01*
X75280866Y-74847291D01*
X75185627Y-74942529D01*
X75090389Y-74990148D01*
X74899913Y-75037767D01*
X74757056Y-75037767D01*
X74566580Y-74990148D01*
X74471342Y-74942529D01*
X74376104Y-74847291D01*
X74328485Y-74704434D01*
X74328485Y-74466338D01*
X73995151Y-75704434D02*
X75423723Y-75704434D01*
X74328485Y-76942529D02*
X74328485Y-76371100D01*
X74328485Y-76656815D02*
X75328485Y-76656815D01*
X75185627Y-76561577D01*
X75090389Y-76466338D01*
X75042770Y-76371100D01*
X75233246Y-77323481D02*
X75280866Y-77371100D01*
X75328485Y-77466338D01*
X75328485Y-77704434D01*
X75280866Y-77799672D01*
X75233246Y-77847291D01*
X75138008Y-77894910D01*
X75042770Y-77894910D01*
X74899913Y-77847291D01*
X74328485Y-77275862D01*
X74328485Y-77894910D01*
X75328485Y-78180624D02*
X74328485Y-78513957D01*
X75328485Y-78847291D01*
D12*
G04 #@! TO.C,J11*
X87730000Y-87430000D02*
X86400000Y-87430000D01*
X87730000Y-86100000D02*
X87730000Y-87430000D01*
X87730000Y-84830000D02*
X85070000Y-84830000D01*
X85070000Y-84830000D02*
X85070000Y-82230000D01*
X87730000Y-84830000D02*
X87730000Y-82230000D01*
X87730000Y-82230000D02*
X85070000Y-82230000D01*
G04 #@! TO.C,J13*
X81370000Y-87370000D02*
X84030000Y-87370000D01*
X81370000Y-84770000D02*
X81370000Y-87370000D01*
X84030000Y-84770000D02*
X84030000Y-87370000D01*
X81370000Y-84770000D02*
X84030000Y-84770000D01*
X81370000Y-83500000D02*
X81370000Y-82170000D01*
X81370000Y-82170000D02*
X82700000Y-82170000D01*
G04 #@! TO.C,J14*
X100330000Y-79110000D02*
X99000000Y-79110000D01*
X100330000Y-77780000D02*
X100330000Y-79110000D01*
X100330000Y-76510000D02*
X97670000Y-76510000D01*
X97670000Y-76510000D02*
X97670000Y-71370000D01*
X100330000Y-76510000D02*
X100330000Y-71370000D01*
X100330000Y-71370000D02*
X97670000Y-71370000D01*
G04 #@! TO.C,J12*
X123070000Y-66530000D02*
X125730000Y-66530000D01*
X123070000Y-66470000D02*
X123070000Y-66530000D01*
X125730000Y-66470000D02*
X125730000Y-66530000D01*
X123070000Y-66470000D02*
X125730000Y-66470000D01*
X123070000Y-65200000D02*
X123070000Y-63870000D01*
X123070000Y-63870000D02*
X124400000Y-63870000D01*
G04 #@! TO.C,J10*
X122870000Y-69970000D02*
X124200000Y-69970000D01*
X122870000Y-71300000D02*
X122870000Y-69970000D01*
X122870000Y-72570000D02*
X125530000Y-72570000D01*
X125530000Y-72570000D02*
X125530000Y-72630000D01*
X122870000Y-72570000D02*
X122870000Y-72630000D01*
X122870000Y-72630000D02*
X125530000Y-72630000D01*
D13*
G04 #@! TO.C,C7*
X81280819Y-67383257D02*
X81280819Y-67779497D01*
X81280819Y-67779497D02*
X82078379Y-67779497D01*
X82078379Y-67383257D02*
X82078379Y-67779497D01*
X81280819Y-67383257D02*
X82078379Y-67383257D01*
D14*
G04 #@! TO.C,U4*
X103000000Y-87650000D02*
X121000000Y-87650000D01*
X103000000Y-62150000D02*
X121000000Y-62150000D01*
X103000000Y-87650000D02*
X103000000Y-62150000D01*
X121000000Y-87650000D02*
X121000000Y-62150000D01*
X103000000Y-81650000D02*
X121000000Y-81650000D01*
D15*
X122189981Y-81504000D02*
G75*
G03X122189981Y-81504000I-283981J0D01*
G01*
D16*
G04 #@! TO.C,U6*
X112467200Y-45073200D02*
X112467200Y-45682800D01*
X113076800Y-41517200D02*
X112467200Y-41517200D01*
X116023200Y-45682800D02*
X116632800Y-45682800D01*
X116632800Y-41517200D02*
X116023200Y-41517200D01*
X112467200Y-41517200D02*
X112467200Y-42126800D01*
X112467200Y-45682800D02*
X113076800Y-45682800D01*
X116632800Y-45682800D02*
X116632800Y-45073200D01*
X116632800Y-42126800D02*
X116632800Y-41517200D01*
D12*
G04 #@! TO.C,J8*
X120230000Y-36270000D02*
X120230000Y-37600000D01*
X118900000Y-36270000D02*
X120230000Y-36270000D01*
X117630000Y-36270000D02*
X117630000Y-38930000D01*
X117630000Y-38930000D02*
X115030000Y-38930000D01*
X117630000Y-36270000D02*
X115030000Y-36270000D01*
X115030000Y-36270000D02*
X115030000Y-38930000D01*
G04 #@! TO.C,J9*
X114070000Y-38980000D02*
X114070000Y-36320000D01*
X111470000Y-38980000D02*
X114070000Y-38980000D01*
X111470000Y-36320000D02*
X114070000Y-36320000D01*
X111470000Y-38980000D02*
X111470000Y-36320000D01*
X110200000Y-38980000D02*
X108870000Y-38980000D01*
X108870000Y-38980000D02*
X108870000Y-37650000D01*
G04 #@! TO.C,J1*
X122220000Y-41370000D02*
X122220000Y-38770000D01*
X122220000Y-41370000D02*
X137580000Y-41370000D01*
X137580000Y-41370000D02*
X137580000Y-36170000D01*
X124820000Y-36170000D02*
X137580000Y-36170000D01*
X124820000Y-38770000D02*
X124820000Y-36170000D01*
X122220000Y-38770000D02*
X124820000Y-38770000D01*
X122220000Y-36170000D02*
X123550000Y-36170000D01*
X122220000Y-37500000D02*
X122220000Y-36170000D01*
G04 #@! TO.C,J7*
X99650000Y-36040000D02*
X100150000Y-35940000D01*
X98350000Y-36340000D02*
X99650000Y-36040000D01*
X96850000Y-36540000D02*
X98350000Y-36340000D01*
X95550000Y-36640000D02*
X96850000Y-36540000D01*
X93750000Y-36640000D02*
X95550000Y-36640000D01*
X92450000Y-36540000D02*
X93750000Y-36640000D01*
X91650000Y-36440000D02*
X92450000Y-36540000D01*
X89950000Y-36140000D02*
X91650000Y-36440000D01*
X89150000Y-35940000D02*
X89950000Y-36140000D01*
X89650000Y-35340000D02*
X99650000Y-35340000D01*
X89150000Y-36840000D02*
X89150000Y-35840000D01*
X100150000Y-36840000D02*
X100150000Y-35840000D01*
X87740000Y-36840000D02*
X101560000Y-36840000D01*
X101560000Y-50760000D02*
X87740000Y-50760000D01*
X101560000Y-48060000D02*
X101560000Y-50760000D01*
X101560000Y-36840000D02*
X101560000Y-37240000D01*
X101560000Y-39760000D02*
X101560000Y-45540000D01*
X87740000Y-48060000D02*
X87740000Y-50760000D01*
X87740000Y-39760000D02*
X87740000Y-45540000D01*
X87740000Y-36840000D02*
X87740000Y-37240000D01*
X100150000Y-35840000D02*
G75*
G03X99650000Y-35340000I-500000J0D01*
G01*
X89650000Y-35340000D02*
G75*
G03X89150000Y-35840000I0J-500000D01*
G01*
D17*
G04 #@! TO.C,H3*
X77750000Y-40854200D02*
G75*
G03X77750000Y-37145800I0J1854200D01*
G01*
X77750000Y-37145800D02*
G75*
G03X77750000Y-40854200I0J-1854200D01*
G01*
X77750000Y-40854200D02*
G75*
G03X77750000Y-37145800I0J1854200D01*
G01*
X77750000Y-37145800D02*
G75*
G03X77750000Y-40854200I0J-1854200D01*
G01*
D18*
G04 #@! TO.C,U5*
X93350000Y-78950000D02*
X93350000Y-78470000D01*
X93350000Y-76730000D02*
X93350000Y-76250000D01*
X93350000Y-76250000D02*
X92710000Y-76250000D01*
X93350000Y-78950000D02*
X92710000Y-78950000D01*
X91790000Y-76250000D02*
X91150000Y-76250000D01*
X91150000Y-76730000D02*
X91150000Y-76250000D01*
X91790000Y-78950000D02*
X91150000Y-78950000D01*
D17*
G04 #@! TO.C,SW2*
X92460000Y-66839520D02*
X92460000Y-64330000D01*
X93460760Y-63060000D02*
X96539240Y-63060000D01*
X97540000Y-64360480D02*
X97540000Y-66839520D01*
X96539240Y-68140000D02*
X93460760Y-68140000D01*
X96270000Y-65600000D02*
G75*
G03X96270000Y-65600000I-1270000J0D01*
G01*
G04 #@! TO.C,SW1*
X96270000Y-59700000D02*
G75*
G03X96270000Y-59700000I-1270000J0D01*
G01*
X96539240Y-62240000D02*
X93460760Y-62240000D01*
X97540000Y-58460480D02*
X97540000Y-60939520D01*
X93460760Y-57160000D02*
X96539240Y-57160000D01*
X92460000Y-60939520D02*
X92460000Y-58430000D01*
D19*
G04 #@! TO.C,D3*
X106212500Y-57674980D02*
X106212500Y-56725020D01*
G04 #@! TO.C,D2*
X106212500Y-55824980D02*
X106212500Y-54875020D01*
D12*
G04 #@! TO.C,J6*
X122060000Y-84120000D02*
X122060000Y-86780000D01*
X137360000Y-84120000D02*
X122060000Y-84120000D01*
X137360000Y-86780000D02*
X122060000Y-86780000D01*
X137360000Y-84120000D02*
X137360000Y-86780000D01*
X138630000Y-84120000D02*
X139960000Y-84120000D01*
X139960000Y-84120000D02*
X139960000Y-85450000D01*
G04 #@! TO.C,J2*
X88960000Y-84120000D02*
X88960000Y-86780000D01*
X99180000Y-84120000D02*
X88960000Y-84120000D01*
X99180000Y-86780000D02*
X88960000Y-86780000D01*
X99180000Y-84120000D02*
X99180000Y-86780000D01*
X100450000Y-84120000D02*
X101780000Y-84120000D01*
X101780000Y-84120000D02*
X101780000Y-85450000D01*
D17*
G04 #@! TO.C,H4*
X144000000Y-40854200D02*
G75*
G03X144000000Y-37145800I0J1854200D01*
G01*
X144000000Y-37145800D02*
G75*
G03X144000000Y-40854200I0J-1854200D01*
G01*
X144000000Y-40854200D02*
G75*
G03X144000000Y-37145800I0J1854200D01*
G01*
X144000000Y-37145800D02*
G75*
G03X144000000Y-40854200I0J-1854200D01*
G01*
G04 #@! TO.C,H2*
X144000000Y-81645800D02*
G75*
G03X144000000Y-85354200I0J-1854200D01*
G01*
X144000000Y-85354200D02*
G75*
G03X144000000Y-81645800I0J1854200D01*
G01*
X144000000Y-81645800D02*
G75*
G03X144000000Y-85354200I0J-1854200D01*
G01*
X144000000Y-85354200D02*
G75*
G03X144000000Y-81645800I0J1854200D01*
G01*
G04 #@! TO.C,H1*
X77700000Y-85354200D02*
G75*
G03X77700000Y-81645800I0J1854200D01*
G01*
X77700000Y-81645800D02*
G75*
G03X77700000Y-85354200I0J-1854200D01*
G01*
X77700000Y-85354200D02*
G75*
G03X77700000Y-81645800I0J1854200D01*
G01*
X77700000Y-81645800D02*
G75*
G03X77700000Y-85354200I0J-1854200D01*
G01*
D13*
G04 #@! TO.C,C8*
X85627720Y-64031655D02*
X85627721Y-64631096D01*
X85627721Y-64631096D02*
X85231480Y-64631097D01*
X85231479Y-64031656D02*
X85231480Y-64631097D01*
X85627720Y-64031655D02*
X85231479Y-64031656D01*
G04 #@! TO.C,R1*
X145198120Y-45450280D02*
X145198120Y-46049720D01*
X145198120Y-46049720D02*
X144801880Y-46049720D01*
X144801880Y-45450280D02*
X144801880Y-46049720D01*
X145198120Y-45450280D02*
X144801880Y-45450280D01*
G04 #@! TO.C,R2*
X141798120Y-45450280D02*
X141401880Y-45450280D01*
X141401880Y-45450280D02*
X141401880Y-46049720D01*
X141798120Y-46049720D02*
X141401880Y-46049720D01*
X141798120Y-45450280D02*
X141798120Y-46049720D01*
G04 #@! TO.C,R3*
X139998120Y-43900280D02*
X139998120Y-44499720D01*
X139998120Y-44499720D02*
X139601880Y-44499720D01*
X139601880Y-43900280D02*
X139601880Y-44499720D01*
X139998120Y-43900280D02*
X139601880Y-43900280D01*
D19*
G04 #@! TO.C,U3*
X84029599Y-66081377D02*
X86829599Y-66081377D01*
X84029599Y-69081377D02*
X86829599Y-69081377D01*
D20*
X83719599Y-66581377D02*
G75*
G03X83719599Y-66581377I-90000J0D01*
G01*
D21*
G04 #@! TO.C,RTC1*
X83863000Y-75152000D02*
G75*
G03X83863000Y-75152000I-254000J0D01*
G01*
X83736000Y-75152000D02*
G75*
G03X83736000Y-75152000I-127000J0D01*
G01*
D17*
X87967640Y-80663800D02*
X87967640Y-75990200D01*
X84076360Y-75990200D02*
X84076360Y-80762860D01*
X84457360Y-81044800D02*
X87586640Y-81044800D01*
X87472340Y-75609200D02*
X86631600Y-75609200D01*
X84358300Y-75609200D02*
X85361600Y-75609200D01*
X84076360Y-80760320D02*
G75*
G03X84457360Y-81044800I332740J48260D01*
G01*
X87967640Y-75990200D02*
G75*
G03X87485040Y-75609200I-431800J-50800D01*
G01*
X87586640Y-81044800D02*
G75*
G03X87967640Y-80663800I0J381000D01*
G01*
X84358300Y-75611740D02*
G75*
G03X84076360Y-75990200I48260J-330200D01*
G01*
X85361600Y-75660000D02*
G75*
G03X86631600Y-75660000I635000J0D01*
G01*
D19*
G04 #@! TO.C,D1*
X146852500Y-54775200D02*
X146852500Y-57924800D01*
X146852500Y-57924800D02*
X144947500Y-57924800D01*
X144947500Y-57924800D02*
X144947500Y-54775200D01*
X144947500Y-54775200D02*
X146852500Y-54775200D01*
X146852500Y-53937000D02*
X144947500Y-53937000D01*
D13*
G04 #@! TO.C,Q1*
X139701780Y-53551780D02*
X139701780Y-55548220D01*
X139701780Y-55548220D02*
X141698220Y-55548220D01*
X141698220Y-53551780D02*
X141698220Y-55548220D01*
X139701780Y-53551780D02*
X141698220Y-53551780D01*
D17*
G04 #@! TO.C,U1*
X134699920Y-58347760D02*
X131400460Y-58347760D01*
X131400460Y-58347760D02*
X130900080Y-58347760D01*
X130900080Y-58347760D02*
X130900080Y-53552240D01*
X130900080Y-53552240D02*
X131400460Y-53552240D01*
X131400460Y-53552240D02*
X134699920Y-53552240D01*
X134699920Y-53552240D02*
X134699920Y-58347760D01*
X131400460Y-58347760D02*
X131400460Y-53552240D01*
D19*
X132319940Y-54045000D02*
G75*
G03X132319940Y-54045000I-281940J0D01*
G01*
G04 #@! TO.C,T1*
X146363220Y-65210000D02*
X145728220Y-64575000D01*
X145728220Y-64575000D02*
X146363220Y-63940000D01*
X146363220Y-63940000D02*
X146363220Y-65210000D01*
X147097280Y-74249860D02*
X147097280Y-61250140D01*
X134199160Y-61250140D02*
X134199160Y-74249860D01*
X146998220Y-72349940D02*
X134298220Y-72349940D01*
X146998220Y-63150060D02*
X134298220Y-63150060D01*
D18*
G04 #@! TO.C,U2*
X86065740Y-56256576D02*
G75*
G03X86065740Y-56256576I-213360J0D01*
G01*
D17*
X86327360Y-55685076D02*
X81531840Y-55685076D01*
X86327360Y-59977676D02*
X86327360Y-55685076D01*
X81531840Y-59977676D02*
X86327360Y-59977676D01*
X81531840Y-55685076D02*
X81531840Y-59977676D01*
D12*
G04 #@! TO.C,J5*
X77679599Y-78161376D02*
X76349599Y-78161376D01*
X76349599Y-78161376D02*
X76349599Y-76831376D01*
X76349599Y-75561376D02*
X76349599Y-72961376D01*
X79009599Y-72961377D02*
X76349599Y-72961376D01*
X79009599Y-75561376D02*
X79009599Y-72961377D01*
X79009599Y-75561376D02*
X76349599Y-75561376D01*
G04 #@! TO.C,J4*
X77679599Y-69911376D02*
X76349599Y-69911376D01*
X76349599Y-69911376D02*
X76349599Y-68581376D01*
X76349599Y-67311376D02*
X76349599Y-64711376D01*
X79009599Y-64711377D02*
X76349599Y-64711376D01*
X79009599Y-67311376D02*
X79009599Y-64711377D01*
X79009599Y-67311376D02*
X76349599Y-67311376D01*
G04 #@! TO.C,J3*
X77679599Y-61411376D02*
X76349599Y-61411376D01*
X76349599Y-61411376D02*
X76349599Y-60081376D01*
X76349599Y-58811376D02*
X76349599Y-46051376D01*
X79009599Y-46051376D02*
X76349599Y-46051376D01*
X79009599Y-58811376D02*
X79009599Y-46051376D01*
X79009599Y-58811376D02*
X76349599Y-58811376D01*
G04 #@! TO.C,CS1*
X138149721Y-59560000D02*
X138475279Y-59560000D01*
X138149721Y-58540000D02*
X138475279Y-58540000D01*
G04 #@! TO.C,CC1*
X130737221Y-49460000D02*
X131062779Y-49460000D01*
X130737221Y-48440000D02*
X131062779Y-48440000D01*
G04 #@! TO.C,C2*
X131910000Y-51612779D02*
X131910000Y-51287221D01*
X130890000Y-51612779D02*
X130890000Y-51287221D01*
G04 #@! TO.C,C3*
X145002064Y-48290000D02*
X143797936Y-48290000D01*
X145002064Y-51010000D02*
X143797936Y-51010000D01*
G04 #@! TO.C,C1*
X128802064Y-58690000D02*
X127597936Y-58690000D01*
X128802064Y-61410000D02*
X127597936Y-61410000D01*
G04 #@! TO.C,RC1*
X131052779Y-46500000D02*
X130727221Y-46500000D01*
X131052779Y-47520000D02*
X130727221Y-47520000D01*
G04 #@! TO.C,RF1*
X136790000Y-48491422D02*
X136790000Y-49008578D01*
X138210000Y-48491422D02*
X138210000Y-49008578D01*
G04 #@! TO.C,RS1*
X141597936Y-59760000D02*
X142802064Y-59760000D01*
X141597936Y-57940000D02*
X142802064Y-57940000D01*
G04 #@! TO.C,Rsen1*
X135960000Y-50752064D02*
X135960000Y-47947936D01*
X133240000Y-50752064D02*
X133240000Y-47947936D01*
G04 #@! TO.C,J14*
D14*
X98190476Y-79562380D02*
X98190476Y-80276666D01*
X98142857Y-80419523D01*
X98047619Y-80514761D01*
X97904761Y-80562380D01*
X97809523Y-80562380D01*
X99190476Y-80562380D02*
X98619047Y-80562380D01*
X98904761Y-80562380D02*
X98904761Y-79562380D01*
X98809523Y-79705238D01*
X98714285Y-79800476D01*
X98619047Y-79848095D01*
X100047619Y-79895714D02*
X100047619Y-80562380D01*
X99809523Y-79514761D02*
X99571428Y-80229047D01*
X100190476Y-80229047D01*
G04 #@! TO.C,R23*
D19*
X87435370Y-65723261D02*
X87145084Y-65926461D01*
X87435370Y-66071604D02*
X86825770Y-66071604D01*
X86825770Y-65839376D01*
X86854799Y-65781318D01*
X86883827Y-65752290D01*
X86941884Y-65723261D01*
X87028970Y-65723261D01*
X87087027Y-65752290D01*
X87116056Y-65781318D01*
X87145084Y-65839376D01*
X87145084Y-66071604D01*
X86883827Y-65491033D02*
X86854799Y-65462004D01*
X86825770Y-65403947D01*
X86825770Y-65258804D01*
X86854799Y-65200747D01*
X86883827Y-65171718D01*
X86941884Y-65142690D01*
X86999941Y-65142690D01*
X87087027Y-65171718D01*
X87435370Y-65520061D01*
X87435370Y-65142690D01*
X86825770Y-64939490D02*
X86825770Y-64562118D01*
X87057999Y-64765318D01*
X87057999Y-64678233D01*
X87087027Y-64620176D01*
X87116056Y-64591147D01*
X87174113Y-64562118D01*
X87319256Y-64562118D01*
X87377313Y-64591147D01*
X87406341Y-64620176D01*
X87435370Y-64678233D01*
X87435370Y-64852404D01*
X87406341Y-64910461D01*
X87377313Y-64939490D01*
X89975370Y-66390918D02*
X89975370Y-66739261D01*
X89975370Y-66565090D02*
X89365770Y-66565090D01*
X89452856Y-66623147D01*
X89510913Y-66681204D01*
X89539941Y-66739261D01*
X89365770Y-66013547D02*
X89365770Y-65955490D01*
X89394799Y-65897433D01*
X89423827Y-65868404D01*
X89481884Y-65839376D01*
X89597999Y-65810347D01*
X89743141Y-65810347D01*
X89859256Y-65839376D01*
X89917313Y-65868404D01*
X89946341Y-65897433D01*
X89975370Y-65955490D01*
X89975370Y-66013547D01*
X89946341Y-66071604D01*
X89917313Y-66100633D01*
X89859256Y-66129661D01*
X89743141Y-66158690D01*
X89597999Y-66158690D01*
X89481884Y-66129661D01*
X89423827Y-66100633D01*
X89394799Y-66071604D01*
X89365770Y-66013547D01*
X89365770Y-65432976D02*
X89365770Y-65374918D01*
X89394799Y-65316861D01*
X89423827Y-65287833D01*
X89481884Y-65258804D01*
X89597999Y-65229776D01*
X89743141Y-65229776D01*
X89859256Y-65258804D01*
X89917313Y-65287833D01*
X89946341Y-65316861D01*
X89975370Y-65374918D01*
X89975370Y-65432976D01*
X89946341Y-65491033D01*
X89917313Y-65520061D01*
X89859256Y-65549090D01*
X89743141Y-65578118D01*
X89597999Y-65578118D01*
X89481884Y-65549090D01*
X89423827Y-65520061D01*
X89394799Y-65491033D01*
X89365770Y-65432976D01*
X89975370Y-64968518D02*
X89365770Y-64968518D01*
X89975370Y-64620176D02*
X89627027Y-64881433D01*
X89365770Y-64620176D02*
X89714113Y-64968518D01*
X89975370Y-64387947D02*
X89975370Y-64242804D01*
X89859256Y-64242804D01*
X89830227Y-64300861D01*
X89772170Y-64358918D01*
X89685084Y-64387947D01*
X89539941Y-64387947D01*
X89452856Y-64358918D01*
X89394799Y-64300861D01*
X89365770Y-64213776D01*
X89365770Y-64097661D01*
X89394799Y-64010576D01*
X89452856Y-63952518D01*
X89539941Y-63923490D01*
X89685084Y-63923490D01*
X89772170Y-63952518D01*
X89830227Y-64010576D01*
X89859256Y-64068633D01*
X89975370Y-64068633D01*
X89975370Y-63923490D01*
G04 #@! TO.C,R22*
X87435370Y-69223261D02*
X87145084Y-69426461D01*
X87435370Y-69571604D02*
X86825770Y-69571604D01*
X86825770Y-69339376D01*
X86854799Y-69281318D01*
X86883827Y-69252290D01*
X86941884Y-69223261D01*
X87028970Y-69223261D01*
X87087027Y-69252290D01*
X87116056Y-69281318D01*
X87145084Y-69339376D01*
X87145084Y-69571604D01*
X86883827Y-68991033D02*
X86854799Y-68962004D01*
X86825770Y-68903947D01*
X86825770Y-68758804D01*
X86854799Y-68700747D01*
X86883827Y-68671718D01*
X86941884Y-68642690D01*
X86999941Y-68642690D01*
X87087027Y-68671718D01*
X87435370Y-69020061D01*
X87435370Y-68642690D01*
X86883827Y-68410461D02*
X86854799Y-68381433D01*
X86825770Y-68323376D01*
X86825770Y-68178233D01*
X86854799Y-68120176D01*
X86883827Y-68091147D01*
X86941884Y-68062118D01*
X86999941Y-68062118D01*
X87087027Y-68091147D01*
X87435370Y-68439490D01*
X87435370Y-68062118D01*
X89365770Y-70210233D02*
X89365770Y-69832861D01*
X89597999Y-70036061D01*
X89597999Y-69948976D01*
X89627027Y-69890918D01*
X89656056Y-69861890D01*
X89714113Y-69832861D01*
X89859256Y-69832861D01*
X89917313Y-69861890D01*
X89946341Y-69890918D01*
X89975370Y-69948976D01*
X89975370Y-70123147D01*
X89946341Y-70181204D01*
X89917313Y-70210233D01*
X89365770Y-69455490D02*
X89365770Y-69397433D01*
X89394799Y-69339376D01*
X89423827Y-69310347D01*
X89481884Y-69281318D01*
X89597999Y-69252290D01*
X89743141Y-69252290D01*
X89859256Y-69281318D01*
X89917313Y-69310347D01*
X89946341Y-69339376D01*
X89975370Y-69397433D01*
X89975370Y-69455490D01*
X89946341Y-69513547D01*
X89917313Y-69542576D01*
X89859256Y-69571604D01*
X89743141Y-69600633D01*
X89597999Y-69600633D01*
X89481884Y-69571604D01*
X89423827Y-69542576D01*
X89394799Y-69513547D01*
X89365770Y-69455490D01*
X89365770Y-68874918D02*
X89365770Y-68816861D01*
X89394799Y-68758804D01*
X89423827Y-68729776D01*
X89481884Y-68700747D01*
X89597999Y-68671718D01*
X89743141Y-68671718D01*
X89859256Y-68700747D01*
X89917313Y-68729776D01*
X89946341Y-68758804D01*
X89975370Y-68816861D01*
X89975370Y-68874918D01*
X89946341Y-68932976D01*
X89917313Y-68962004D01*
X89859256Y-68991033D01*
X89743141Y-69020061D01*
X89597999Y-69020061D01*
X89481884Y-68991033D01*
X89423827Y-68962004D01*
X89394799Y-68932976D01*
X89365770Y-68874918D01*
X89975370Y-68410461D02*
X89365770Y-68410461D01*
X89743141Y-68352404D02*
X89975370Y-68178233D01*
X89568970Y-68178233D02*
X89801199Y-68410461D01*
X89975370Y-67946004D02*
X89975370Y-67800861D01*
X89859256Y-67800861D01*
X89830227Y-67858918D01*
X89772170Y-67916976D01*
X89685084Y-67946004D01*
X89539941Y-67946004D01*
X89452856Y-67916976D01*
X89394799Y-67858918D01*
X89365770Y-67771833D01*
X89365770Y-67655718D01*
X89394799Y-67568633D01*
X89452856Y-67510576D01*
X89539941Y-67481547D01*
X89685084Y-67481547D01*
X89772170Y-67510576D01*
X89830227Y-67568633D01*
X89859256Y-67626690D01*
X89975370Y-67626690D01*
X89975370Y-67481547D01*
G04 #@! TO.C,C7*
X83421313Y-67682977D02*
X83450341Y-67712005D01*
X83479370Y-67799091D01*
X83479370Y-67857148D01*
X83450341Y-67944234D01*
X83392284Y-68002291D01*
X83334227Y-68031319D01*
X83218113Y-68060348D01*
X83131027Y-68060348D01*
X83014913Y-68031319D01*
X82956856Y-68002291D01*
X82898799Y-67944234D01*
X82869770Y-67857148D01*
X82869770Y-67799091D01*
X82898799Y-67712005D01*
X82927827Y-67682977D01*
X82869770Y-67479777D02*
X82869770Y-67073377D01*
X83479370Y-67334634D01*
X80431370Y-68278062D02*
X80431370Y-68626405D01*
X80431370Y-68452234D02*
X79821770Y-68452234D01*
X79908856Y-68510291D01*
X79966913Y-68568348D01*
X79995941Y-68626405D01*
X79821770Y-67900691D02*
X79821770Y-67842634D01*
X79850799Y-67784577D01*
X79879827Y-67755548D01*
X79937884Y-67726519D01*
X80053999Y-67697491D01*
X80199141Y-67697491D01*
X80315256Y-67726519D01*
X80373313Y-67755548D01*
X80402341Y-67784577D01*
X80431370Y-67842634D01*
X80431370Y-67900691D01*
X80402341Y-67958748D01*
X80373313Y-67987777D01*
X80315256Y-68016805D01*
X80199141Y-68045834D01*
X80053999Y-68045834D01*
X79937884Y-68016805D01*
X79879827Y-67987777D01*
X79850799Y-67958748D01*
X79821770Y-67900691D01*
X80024970Y-67436234D02*
X80634570Y-67436234D01*
X80344284Y-67145948D02*
X80402341Y-67116919D01*
X80431370Y-67058862D01*
X80344284Y-67436234D02*
X80402341Y-67407205D01*
X80431370Y-67349148D01*
X80431370Y-67233034D01*
X80402341Y-67174977D01*
X80344284Y-67145948D01*
X80024970Y-67145948D01*
X80112056Y-66594405D02*
X80112056Y-66797605D01*
X80431370Y-66797605D02*
X79821770Y-66797605D01*
X79821770Y-66507319D01*
G04 #@! TO.C,C19*
X109717714Y-45991885D02*
X109746742Y-46020914D01*
X109775771Y-46108000D01*
X109775771Y-46166057D01*
X109746742Y-46253142D01*
X109688685Y-46311200D01*
X109630628Y-46340228D01*
X109514514Y-46369257D01*
X109427428Y-46369257D01*
X109311314Y-46340228D01*
X109253257Y-46311200D01*
X109195200Y-46253142D01*
X109166171Y-46166057D01*
X109166171Y-46108000D01*
X109195200Y-46020914D01*
X109224228Y-45991885D01*
X109775771Y-45411314D02*
X109775771Y-45759657D01*
X109775771Y-45585485D02*
X109166171Y-45585485D01*
X109253257Y-45643542D01*
X109311314Y-45701600D01*
X109340342Y-45759657D01*
X109775771Y-45121028D02*
X109775771Y-45004914D01*
X109746742Y-44946857D01*
X109717714Y-44917828D01*
X109630628Y-44859771D01*
X109514514Y-44830742D01*
X109282285Y-44830742D01*
X109224228Y-44859771D01*
X109195200Y-44888800D01*
X109166171Y-44946857D01*
X109166171Y-45062971D01*
X109195200Y-45121028D01*
X109224228Y-45150057D01*
X109282285Y-45179085D01*
X109427428Y-45179085D01*
X109485485Y-45150057D01*
X109514514Y-45121028D01*
X109543542Y-45062971D01*
X109543542Y-44946857D01*
X109514514Y-44888800D01*
X109485485Y-44859771D01*
X109427428Y-44830742D01*
G04 #@! TO.C,U4*
D14*
X107952380Y-80161904D02*
X108761904Y-80161904D01*
X108857142Y-80114285D01*
X108904761Y-80066666D01*
X108952380Y-79971428D01*
X108952380Y-79780952D01*
X108904761Y-79685714D01*
X108857142Y-79638095D01*
X108761904Y-79590476D01*
X107952380Y-79590476D01*
X108285714Y-78685714D02*
X108952380Y-78685714D01*
X107904761Y-78923809D02*
X108619047Y-79161904D01*
X108619047Y-78542857D01*
X106721571Y-80606380D02*
X106721571Y-80273047D01*
X107245380Y-80130190D02*
X107245380Y-80606380D01*
X106245380Y-80606380D01*
X106245380Y-80130190D01*
X107197761Y-79749238D02*
X107245380Y-79606380D01*
X107245380Y-79368285D01*
X107197761Y-79273047D01*
X107150142Y-79225428D01*
X107054904Y-79177809D01*
X106959666Y-79177809D01*
X106864428Y-79225428D01*
X106816809Y-79273047D01*
X106769190Y-79368285D01*
X106721571Y-79558761D01*
X106673952Y-79654000D01*
X106626333Y-79701619D01*
X106531095Y-79749238D01*
X106435857Y-79749238D01*
X106340619Y-79701619D01*
X106293000Y-79654000D01*
X106245380Y-79558761D01*
X106245380Y-79320666D01*
X106293000Y-79177809D01*
X107245380Y-78749238D02*
X106245380Y-78749238D01*
X106245380Y-78368285D01*
X106293000Y-78273047D01*
X106340619Y-78225428D01*
X106435857Y-78177809D01*
X106578714Y-78177809D01*
X106673952Y-78225428D01*
X106721571Y-78273047D01*
X106769190Y-78368285D01*
X106769190Y-78749238D01*
X106245380Y-77844476D02*
X106245380Y-77225428D01*
X106626333Y-77558761D01*
X106626333Y-77415904D01*
X106673952Y-77320666D01*
X106721571Y-77273047D01*
X106816809Y-77225428D01*
X107054904Y-77225428D01*
X107150142Y-77273047D01*
X107197761Y-77320666D01*
X107245380Y-77415904D01*
X107245380Y-77701619D01*
X107197761Y-77796857D01*
X107150142Y-77844476D01*
X106340619Y-76844476D02*
X106293000Y-76796857D01*
X106245380Y-76701619D01*
X106245380Y-76463523D01*
X106293000Y-76368285D01*
X106340619Y-76320666D01*
X106435857Y-76273047D01*
X106531095Y-76273047D01*
X106673952Y-76320666D01*
X107245380Y-76892095D01*
X107245380Y-76273047D01*
X106864428Y-75844476D02*
X106864428Y-75082571D01*
X106245380Y-74701619D02*
X107245380Y-74463523D01*
X106531095Y-74273047D01*
X107245380Y-74082571D01*
X106245380Y-73844476D01*
X107245380Y-72892095D02*
X106769190Y-73225428D01*
X107245380Y-73463523D02*
X106245380Y-73463523D01*
X106245380Y-73082571D01*
X106293000Y-72987333D01*
X106340619Y-72939714D01*
X106435857Y-72892095D01*
X106578714Y-72892095D01*
X106673952Y-72939714D01*
X106721571Y-72987333D01*
X106769190Y-73082571D01*
X106769190Y-73463523D01*
X106245380Y-72273047D02*
X106245380Y-72082571D01*
X106293000Y-71987333D01*
X106388238Y-71892095D01*
X106578714Y-71844476D01*
X106912047Y-71844476D01*
X107102523Y-71892095D01*
X107197761Y-71987333D01*
X107245380Y-72082571D01*
X107245380Y-72273047D01*
X107197761Y-72368285D01*
X107102523Y-72463523D01*
X106912047Y-72511142D01*
X106578714Y-72511142D01*
X106388238Y-72463523D01*
X106293000Y-72368285D01*
X106245380Y-72273047D01*
X106245380Y-71225428D02*
X106245380Y-71034952D01*
X106293000Y-70939714D01*
X106388238Y-70844476D01*
X106578714Y-70796857D01*
X106912047Y-70796857D01*
X107102523Y-70844476D01*
X107197761Y-70939714D01*
X107245380Y-71034952D01*
X107245380Y-71225428D01*
X107197761Y-71320666D01*
X107102523Y-71415904D01*
X106912047Y-71463523D01*
X106578714Y-71463523D01*
X106388238Y-71415904D01*
X106293000Y-71320666D01*
X106245380Y-71225428D01*
X107245380Y-70368285D02*
X106245380Y-70368285D01*
X106959666Y-70034952D01*
X106245380Y-69701619D01*
X107245380Y-69701619D01*
X105070571Y-80582428D02*
X105070571Y-80249095D01*
X105594380Y-80106238D02*
X105594380Y-80582428D01*
X104594380Y-80582428D01*
X104594380Y-80106238D01*
X105546761Y-79725285D02*
X105594380Y-79630047D01*
X105594380Y-79439571D01*
X105546761Y-79344333D01*
X105451523Y-79296714D01*
X105403904Y-79296714D01*
X105308666Y-79344333D01*
X105261047Y-79439571D01*
X105261047Y-79582428D01*
X105213428Y-79677666D01*
X105118190Y-79725285D01*
X105070571Y-79725285D01*
X104975333Y-79677666D01*
X104927714Y-79582428D01*
X104927714Y-79439571D01*
X104975333Y-79344333D01*
X104927714Y-78868142D02*
X105927714Y-78868142D01*
X104975333Y-78868142D02*
X104927714Y-78772904D01*
X104927714Y-78582428D01*
X104975333Y-78487190D01*
X105022952Y-78439571D01*
X105118190Y-78391952D01*
X105403904Y-78391952D01*
X105499142Y-78439571D01*
X105546761Y-78487190D01*
X105594380Y-78582428D01*
X105594380Y-78772904D01*
X105546761Y-78868142D01*
X105594380Y-77963380D02*
X104927714Y-77963380D01*
X105118190Y-77963380D02*
X105022952Y-77915761D01*
X104975333Y-77868142D01*
X104927714Y-77772904D01*
X104927714Y-77677666D01*
X105546761Y-76963380D02*
X105594380Y-77058619D01*
X105594380Y-77249095D01*
X105546761Y-77344333D01*
X105451523Y-77391952D01*
X105070571Y-77391952D01*
X104975333Y-77344333D01*
X104927714Y-77249095D01*
X104927714Y-77058619D01*
X104975333Y-76963380D01*
X105070571Y-76915761D01*
X105165809Y-76915761D01*
X105261047Y-77391952D01*
X105546761Y-76534809D02*
X105594380Y-76439571D01*
X105594380Y-76249095D01*
X105546761Y-76153857D01*
X105451523Y-76106238D01*
X105403904Y-76106238D01*
X105308666Y-76153857D01*
X105261047Y-76249095D01*
X105261047Y-76391952D01*
X105213428Y-76487190D01*
X105118190Y-76534809D01*
X105070571Y-76534809D01*
X104975333Y-76487190D01*
X104927714Y-76391952D01*
X104927714Y-76249095D01*
X104975333Y-76153857D01*
X105546761Y-75725285D02*
X105594380Y-75630047D01*
X105594380Y-75439571D01*
X105546761Y-75344333D01*
X105451523Y-75296714D01*
X105403904Y-75296714D01*
X105308666Y-75344333D01*
X105261047Y-75439571D01*
X105261047Y-75582428D01*
X105213428Y-75677666D01*
X105118190Y-75725285D01*
X105070571Y-75725285D01*
X104975333Y-75677666D01*
X104927714Y-75582428D01*
X104927714Y-75439571D01*
X104975333Y-75344333D01*
X105594380Y-74868142D02*
X104927714Y-74868142D01*
X104594380Y-74868142D02*
X104642000Y-74915761D01*
X104689619Y-74868142D01*
X104642000Y-74820523D01*
X104594380Y-74868142D01*
X104689619Y-74868142D01*
X104927714Y-74534809D02*
X104927714Y-74153857D01*
X105594380Y-74391952D02*
X104737238Y-74391952D01*
X104642000Y-74344333D01*
X104594380Y-74249095D01*
X104594380Y-74153857D01*
X105546761Y-73106238D02*
X105594380Y-72963380D01*
X105594380Y-72725285D01*
X105546761Y-72630047D01*
X105499142Y-72582428D01*
X105403904Y-72534809D01*
X105308666Y-72534809D01*
X105213428Y-72582428D01*
X105165809Y-72630047D01*
X105118190Y-72725285D01*
X105070571Y-72915761D01*
X105022952Y-73011000D01*
X104975333Y-73058619D01*
X104880095Y-73106238D01*
X104784857Y-73106238D01*
X104689619Y-73058619D01*
X104642000Y-73011000D01*
X104594380Y-72915761D01*
X104594380Y-72677666D01*
X104642000Y-72534809D01*
X104927714Y-72201476D02*
X105594380Y-71963380D01*
X104927714Y-71725285D02*
X105594380Y-71963380D01*
X105832476Y-72058619D01*
X105880095Y-72106238D01*
X105927714Y-72201476D01*
X105546761Y-71391952D02*
X105594380Y-71296714D01*
X105594380Y-71106238D01*
X105546761Y-71011000D01*
X105451523Y-70963380D01*
X105403904Y-70963380D01*
X105308666Y-71011000D01*
X105261047Y-71106238D01*
X105261047Y-71249095D01*
X105213428Y-71344333D01*
X105118190Y-71391952D01*
X105070571Y-71391952D01*
X104975333Y-71344333D01*
X104927714Y-71249095D01*
X104927714Y-71106238D01*
X104975333Y-71011000D01*
X104927714Y-70677666D02*
X104927714Y-70296714D01*
X104594380Y-70534809D02*
X105451523Y-70534809D01*
X105546761Y-70487190D01*
X105594380Y-70391952D01*
X105594380Y-70296714D01*
X105546761Y-69582428D02*
X105594380Y-69677666D01*
X105594380Y-69868142D01*
X105546761Y-69963380D01*
X105451523Y-70011000D01*
X105070571Y-70011000D01*
X104975333Y-69963380D01*
X104927714Y-69868142D01*
X104927714Y-69677666D01*
X104975333Y-69582428D01*
X105070571Y-69534809D01*
X105165809Y-69534809D01*
X105261047Y-70011000D01*
X105594380Y-69106238D02*
X104927714Y-69106238D01*
X105022952Y-69106238D02*
X104975333Y-69058619D01*
X104927714Y-68963380D01*
X104927714Y-68820523D01*
X104975333Y-68725285D01*
X105070571Y-68677666D01*
X105594380Y-68677666D01*
X105070571Y-68677666D02*
X104975333Y-68630047D01*
X104927714Y-68534809D01*
X104927714Y-68391952D01*
X104975333Y-68296714D01*
X105070571Y-68249095D01*
X105594380Y-68249095D01*
X105546761Y-67820523D02*
X105594380Y-67725285D01*
X105594380Y-67534809D01*
X105546761Y-67439571D01*
X105451523Y-67391952D01*
X105403904Y-67391952D01*
X105308666Y-67439571D01*
X105261047Y-67534809D01*
X105261047Y-67677666D01*
X105213428Y-67772904D01*
X105118190Y-67820523D01*
X105070571Y-67820523D01*
X104975333Y-67772904D01*
X104927714Y-67677666D01*
X104927714Y-67534809D01*
X104975333Y-67439571D01*
G04 #@! TO.C,C17*
D19*
X116759316Y-48257222D02*
X116788344Y-48286251D01*
X116817373Y-48373337D01*
X116817373Y-48431394D01*
X116788344Y-48518479D01*
X116730287Y-48576537D01*
X116672230Y-48605565D01*
X116556116Y-48634594D01*
X116469030Y-48634594D01*
X116352916Y-48605565D01*
X116294859Y-48576537D01*
X116236802Y-48518479D01*
X116207773Y-48431394D01*
X116207773Y-48373337D01*
X116236802Y-48286251D01*
X116265830Y-48257222D01*
X116817373Y-47676651D02*
X116817373Y-48024994D01*
X116817373Y-47850822D02*
X116207773Y-47850822D01*
X116294859Y-47908879D01*
X116352916Y-47966937D01*
X116381944Y-48024994D01*
X116207773Y-47473451D02*
X116207773Y-47067051D01*
X116817373Y-47328308D01*
G04 #@! TO.C,C12*
X94667714Y-80441885D02*
X94696742Y-80470914D01*
X94725771Y-80558000D01*
X94725771Y-80616057D01*
X94696742Y-80703142D01*
X94638685Y-80761200D01*
X94580628Y-80790228D01*
X94464514Y-80819257D01*
X94377428Y-80819257D01*
X94261314Y-80790228D01*
X94203257Y-80761200D01*
X94145200Y-80703142D01*
X94116171Y-80616057D01*
X94116171Y-80558000D01*
X94145200Y-80470914D01*
X94174228Y-80441885D01*
X94725771Y-79861314D02*
X94725771Y-80209657D01*
X94725771Y-80035485D02*
X94116171Y-80035485D01*
X94203257Y-80093542D01*
X94261314Y-80151600D01*
X94290342Y-80209657D01*
X94174228Y-79629085D02*
X94145200Y-79600057D01*
X94116171Y-79542000D01*
X94116171Y-79396857D01*
X94145200Y-79338800D01*
X94174228Y-79309771D01*
X94232285Y-79280742D01*
X94290342Y-79280742D01*
X94377428Y-79309771D01*
X94725771Y-79658114D01*
X94725771Y-79280742D01*
G04 #@! TO.C,C14*
X121717714Y-45591885D02*
X121746742Y-45620914D01*
X121775771Y-45708000D01*
X121775771Y-45766057D01*
X121746742Y-45853142D01*
X121688685Y-45911200D01*
X121630628Y-45940228D01*
X121514514Y-45969257D01*
X121427428Y-45969257D01*
X121311314Y-45940228D01*
X121253257Y-45911200D01*
X121195200Y-45853142D01*
X121166171Y-45766057D01*
X121166171Y-45708000D01*
X121195200Y-45620914D01*
X121224228Y-45591885D01*
X121775771Y-45011314D02*
X121775771Y-45359657D01*
X121775771Y-45185485D02*
X121166171Y-45185485D01*
X121253257Y-45243542D01*
X121311314Y-45301600D01*
X121340342Y-45359657D01*
X121369371Y-44488800D02*
X121775771Y-44488800D01*
X121137142Y-44633942D02*
X121572571Y-44779085D01*
X121572571Y-44401714D01*
G04 #@! TO.C,C15*
X119817714Y-40841885D02*
X119846742Y-40870914D01*
X119875771Y-40958000D01*
X119875771Y-41016057D01*
X119846742Y-41103142D01*
X119788685Y-41161200D01*
X119730628Y-41190228D01*
X119614514Y-41219257D01*
X119527428Y-41219257D01*
X119411314Y-41190228D01*
X119353257Y-41161200D01*
X119295200Y-41103142D01*
X119266171Y-41016057D01*
X119266171Y-40958000D01*
X119295200Y-40870914D01*
X119324228Y-40841885D01*
X119875771Y-40261314D02*
X119875771Y-40609657D01*
X119875771Y-40435485D02*
X119266171Y-40435485D01*
X119353257Y-40493542D01*
X119411314Y-40551600D01*
X119440342Y-40609657D01*
X119266171Y-39709771D02*
X119266171Y-40000057D01*
X119556457Y-40029085D01*
X119527428Y-40000057D01*
X119498400Y-39942000D01*
X119498400Y-39796857D01*
X119527428Y-39738800D01*
X119556457Y-39709771D01*
X119614514Y-39680742D01*
X119759657Y-39680742D01*
X119817714Y-39709771D01*
X119846742Y-39738800D01*
X119875771Y-39796857D01*
X119875771Y-39942000D01*
X119846742Y-40000057D01*
X119817714Y-40029085D01*
G04 #@! TO.C,C18*
X110117714Y-48291885D02*
X110146742Y-48320914D01*
X110175771Y-48408000D01*
X110175771Y-48466057D01*
X110146742Y-48553142D01*
X110088685Y-48611200D01*
X110030628Y-48640228D01*
X109914514Y-48669257D01*
X109827428Y-48669257D01*
X109711314Y-48640228D01*
X109653257Y-48611200D01*
X109595200Y-48553142D01*
X109566171Y-48466057D01*
X109566171Y-48408000D01*
X109595200Y-48320914D01*
X109624228Y-48291885D01*
X110175771Y-47711314D02*
X110175771Y-48059657D01*
X110175771Y-47885485D02*
X109566171Y-47885485D01*
X109653257Y-47943542D01*
X109711314Y-48001600D01*
X109740342Y-48059657D01*
X109827428Y-47362971D02*
X109798400Y-47421028D01*
X109769371Y-47450057D01*
X109711314Y-47479085D01*
X109682285Y-47479085D01*
X109624228Y-47450057D01*
X109595200Y-47421028D01*
X109566171Y-47362971D01*
X109566171Y-47246857D01*
X109595200Y-47188800D01*
X109624228Y-47159771D01*
X109682285Y-47130742D01*
X109711314Y-47130742D01*
X109769371Y-47159771D01*
X109798400Y-47188800D01*
X109827428Y-47246857D01*
X109827428Y-47362971D01*
X109856457Y-47421028D01*
X109885485Y-47450057D01*
X109943542Y-47479085D01*
X110059657Y-47479085D01*
X110117714Y-47450057D01*
X110146742Y-47421028D01*
X110175771Y-47362971D01*
X110175771Y-47246857D01*
X110146742Y-47188800D01*
X110117714Y-47159771D01*
X110059657Y-47130742D01*
X109943542Y-47130742D01*
X109885485Y-47159771D01*
X109856457Y-47188800D01*
X109827428Y-47246857D01*
G04 #@! TO.C,R21*
X113525771Y-48241885D02*
X113235485Y-48445085D01*
X113525771Y-48590228D02*
X112916171Y-48590228D01*
X112916171Y-48358000D01*
X112945200Y-48299942D01*
X112974228Y-48270914D01*
X113032285Y-48241885D01*
X113119371Y-48241885D01*
X113177428Y-48270914D01*
X113206457Y-48299942D01*
X113235485Y-48358000D01*
X113235485Y-48590228D01*
X112974228Y-48009657D02*
X112945200Y-47980628D01*
X112916171Y-47922571D01*
X112916171Y-47777428D01*
X112945200Y-47719371D01*
X112974228Y-47690342D01*
X113032285Y-47661314D01*
X113090342Y-47661314D01*
X113177428Y-47690342D01*
X113525771Y-48038685D01*
X113525771Y-47661314D01*
X113525771Y-47080742D02*
X113525771Y-47429085D01*
X113525771Y-47254914D02*
X112916171Y-47254914D01*
X113003257Y-47312971D01*
X113061314Y-47371028D01*
X113090342Y-47429085D01*
G04 #@! TO.C,R20*
X101308114Y-57720771D02*
X101104914Y-57430485D01*
X100959771Y-57720771D02*
X100959771Y-57111171D01*
X101192000Y-57111171D01*
X101250057Y-57140200D01*
X101279085Y-57169228D01*
X101308114Y-57227285D01*
X101308114Y-57314371D01*
X101279085Y-57372428D01*
X101250057Y-57401457D01*
X101192000Y-57430485D01*
X100959771Y-57430485D01*
X101540342Y-57169228D02*
X101569371Y-57140200D01*
X101627428Y-57111171D01*
X101772571Y-57111171D01*
X101830628Y-57140200D01*
X101859657Y-57169228D01*
X101888685Y-57227285D01*
X101888685Y-57285342D01*
X101859657Y-57372428D01*
X101511314Y-57720771D01*
X101888685Y-57720771D01*
X102266057Y-57111171D02*
X102324114Y-57111171D01*
X102382171Y-57140200D01*
X102411200Y-57169228D01*
X102440228Y-57227285D01*
X102469257Y-57343400D01*
X102469257Y-57488542D01*
X102440228Y-57604657D01*
X102411200Y-57662714D01*
X102382171Y-57691742D01*
X102324114Y-57720771D01*
X102266057Y-57720771D01*
X102208000Y-57691742D01*
X102178971Y-57662714D01*
X102149942Y-57604657D01*
X102120914Y-57488542D01*
X102120914Y-57343400D01*
X102149942Y-57227285D01*
X102178971Y-57169228D01*
X102208000Y-57140200D01*
X102266057Y-57111171D01*
G04 #@! TO.C,FB1*
X107936457Y-43658000D02*
X107936457Y-43861200D01*
X108255771Y-43861200D02*
X107646171Y-43861200D01*
X107646171Y-43570914D01*
X107936457Y-43135485D02*
X107965485Y-43048400D01*
X107994514Y-43019371D01*
X108052571Y-42990342D01*
X108139657Y-42990342D01*
X108197714Y-43019371D01*
X108226742Y-43048400D01*
X108255771Y-43106457D01*
X108255771Y-43338685D01*
X107646171Y-43338685D01*
X107646171Y-43135485D01*
X107675200Y-43077428D01*
X107704228Y-43048400D01*
X107762285Y-43019371D01*
X107820342Y-43019371D01*
X107878400Y-43048400D01*
X107907428Y-43077428D01*
X107936457Y-43135485D01*
X107936457Y-43338685D01*
X108255771Y-42409771D02*
X108255771Y-42758114D01*
X108255771Y-42583942D02*
X107646171Y-42583942D01*
X107733257Y-42642000D01*
X107791314Y-42700057D01*
X107820342Y-42758114D01*
G04 #@! TO.C,FB2*
X122356457Y-45708000D02*
X122356457Y-45911200D01*
X122675771Y-45911200D02*
X122066171Y-45911200D01*
X122066171Y-45620914D01*
X122356457Y-45185485D02*
X122385485Y-45098400D01*
X122414514Y-45069371D01*
X122472571Y-45040342D01*
X122559657Y-45040342D01*
X122617714Y-45069371D01*
X122646742Y-45098400D01*
X122675771Y-45156457D01*
X122675771Y-45388685D01*
X122066171Y-45388685D01*
X122066171Y-45185485D01*
X122095200Y-45127428D01*
X122124228Y-45098400D01*
X122182285Y-45069371D01*
X122240342Y-45069371D01*
X122298400Y-45098400D01*
X122327428Y-45127428D01*
X122356457Y-45185485D01*
X122356457Y-45388685D01*
X122124228Y-44808114D02*
X122095200Y-44779085D01*
X122066171Y-44721028D01*
X122066171Y-44575885D01*
X122095200Y-44517828D01*
X122124228Y-44488800D01*
X122182285Y-44459771D01*
X122240342Y-44459771D01*
X122327428Y-44488800D01*
X122675771Y-44837142D01*
X122675771Y-44459771D01*
G04 #@! TO.C,C16*
X105708114Y-39317714D02*
X105679085Y-39346742D01*
X105592000Y-39375771D01*
X105533942Y-39375771D01*
X105446857Y-39346742D01*
X105388800Y-39288685D01*
X105359771Y-39230628D01*
X105330742Y-39114514D01*
X105330742Y-39027428D01*
X105359771Y-38911314D01*
X105388800Y-38853257D01*
X105446857Y-38795200D01*
X105533942Y-38766171D01*
X105592000Y-38766171D01*
X105679085Y-38795200D01*
X105708114Y-38824228D01*
X106288685Y-39375771D02*
X105940342Y-39375771D01*
X106114514Y-39375771D02*
X106114514Y-38766171D01*
X106056457Y-38853257D01*
X105998400Y-38911314D01*
X105940342Y-38940342D01*
X106811200Y-38766171D02*
X106695085Y-38766171D01*
X106637028Y-38795200D01*
X106608000Y-38824228D01*
X106549942Y-38911314D01*
X106520914Y-39027428D01*
X106520914Y-39259657D01*
X106549942Y-39317714D01*
X106578971Y-39346742D01*
X106637028Y-39375771D01*
X106753142Y-39375771D01*
X106811200Y-39346742D01*
X106840228Y-39317714D01*
X106869257Y-39259657D01*
X106869257Y-39114514D01*
X106840228Y-39056457D01*
X106811200Y-39027428D01*
X106753142Y-38998400D01*
X106637028Y-38998400D01*
X106578971Y-39027428D01*
X106549942Y-39056457D01*
X106520914Y-39114514D01*
G04 #@! TO.C,U6*
X114085542Y-40266171D02*
X114085542Y-40759657D01*
X114114571Y-40817714D01*
X114143600Y-40846742D01*
X114201657Y-40875771D01*
X114317771Y-40875771D01*
X114375828Y-40846742D01*
X114404857Y-40817714D01*
X114433885Y-40759657D01*
X114433885Y-40266171D01*
X114985428Y-40266171D02*
X114869314Y-40266171D01*
X114811257Y-40295200D01*
X114782228Y-40324228D01*
X114724171Y-40411314D01*
X114695142Y-40527428D01*
X114695142Y-40759657D01*
X114724171Y-40817714D01*
X114753200Y-40846742D01*
X114811257Y-40875771D01*
X114927371Y-40875771D01*
X114985428Y-40846742D01*
X115014457Y-40817714D01*
X115043485Y-40759657D01*
X115043485Y-40614514D01*
X115014457Y-40556457D01*
X114985428Y-40527428D01*
X114927371Y-40498400D01*
X114811257Y-40498400D01*
X114753200Y-40527428D01*
X114724171Y-40556457D01*
X114695142Y-40614514D01*
G04 #@! TO.C,J7*
D14*
X94316666Y-34112380D02*
X94316666Y-34826666D01*
X94269047Y-34969523D01*
X94173809Y-35064761D01*
X94030952Y-35112380D01*
X93935714Y-35112380D01*
X94697619Y-34112380D02*
X95364285Y-34112380D01*
X94935714Y-35112380D01*
G04 #@! TO.C,C5*
D19*
X89017714Y-59901600D02*
X89046742Y-59930628D01*
X89075771Y-60017714D01*
X89075771Y-60075771D01*
X89046742Y-60162857D01*
X88988685Y-60220914D01*
X88930628Y-60249942D01*
X88814514Y-60278971D01*
X88727428Y-60278971D01*
X88611314Y-60249942D01*
X88553257Y-60220914D01*
X88495200Y-60162857D01*
X88466171Y-60075771D01*
X88466171Y-60017714D01*
X88495200Y-59930628D01*
X88524228Y-59901600D01*
X88466171Y-59350057D02*
X88466171Y-59640342D01*
X88756457Y-59669371D01*
X88727428Y-59640342D01*
X88698400Y-59582285D01*
X88698400Y-59437142D01*
X88727428Y-59379085D01*
X88756457Y-59350057D01*
X88814514Y-59321028D01*
X88959657Y-59321028D01*
X89017714Y-59350057D01*
X89046742Y-59379085D01*
X89075771Y-59437142D01*
X89075771Y-59582285D01*
X89046742Y-59640342D01*
X89017714Y-59669371D01*
G04 #@! TO.C,C4*
X89017714Y-55932976D02*
X89046742Y-55962004D01*
X89075771Y-56049090D01*
X89075771Y-56107147D01*
X89046742Y-56194233D01*
X88988685Y-56252290D01*
X88930628Y-56281318D01*
X88814514Y-56310347D01*
X88727428Y-56310347D01*
X88611314Y-56281318D01*
X88553257Y-56252290D01*
X88495200Y-56194233D01*
X88466171Y-56107147D01*
X88466171Y-56049090D01*
X88495200Y-55962004D01*
X88524228Y-55932976D01*
X88669371Y-55410461D02*
X89075771Y-55410461D01*
X88437142Y-55555604D02*
X88872571Y-55700747D01*
X88872571Y-55323376D01*
G04 #@! TO.C,C6*
X81717714Y-76401600D02*
X81746742Y-76430628D01*
X81775771Y-76517714D01*
X81775771Y-76575771D01*
X81746742Y-76662857D01*
X81688685Y-76720914D01*
X81630628Y-76749942D01*
X81514514Y-76778971D01*
X81427428Y-76778971D01*
X81311314Y-76749942D01*
X81253257Y-76720914D01*
X81195200Y-76662857D01*
X81166171Y-76575771D01*
X81166171Y-76517714D01*
X81195200Y-76430628D01*
X81224228Y-76401600D01*
X81166171Y-75879085D02*
X81166171Y-75995200D01*
X81195200Y-76053257D01*
X81224228Y-76082285D01*
X81311314Y-76140342D01*
X81427428Y-76169371D01*
X81659657Y-76169371D01*
X81717714Y-76140342D01*
X81746742Y-76111314D01*
X81775771Y-76053257D01*
X81775771Y-75937142D01*
X81746742Y-75879085D01*
X81717714Y-75850057D01*
X81659657Y-75821028D01*
X81514514Y-75821028D01*
X81456457Y-75850057D01*
X81427428Y-75879085D01*
X81398400Y-75937142D01*
X81398400Y-76053257D01*
X81427428Y-76111314D01*
X81456457Y-76140342D01*
X81514514Y-76169371D01*
G04 #@! TO.C,C10*
X125487714Y-80141885D02*
X125516742Y-80170914D01*
X125545771Y-80258000D01*
X125545771Y-80316057D01*
X125516742Y-80403142D01*
X125458685Y-80461200D01*
X125400628Y-80490228D01*
X125284514Y-80519257D01*
X125197428Y-80519257D01*
X125081314Y-80490228D01*
X125023257Y-80461200D01*
X124965200Y-80403142D01*
X124936171Y-80316057D01*
X124936171Y-80258000D01*
X124965200Y-80170914D01*
X124994228Y-80141885D01*
X125545771Y-79561314D02*
X125545771Y-79909657D01*
X125545771Y-79735485D02*
X124936171Y-79735485D01*
X125023257Y-79793542D01*
X125081314Y-79851600D01*
X125110342Y-79909657D01*
X124936171Y-79183942D02*
X124936171Y-79125885D01*
X124965200Y-79067828D01*
X124994228Y-79038800D01*
X125052285Y-79009771D01*
X125168400Y-78980742D01*
X125313542Y-78980742D01*
X125429657Y-79009771D01*
X125487714Y-79038800D01*
X125516742Y-79067828D01*
X125545771Y-79125885D01*
X125545771Y-79183942D01*
X125516742Y-79242000D01*
X125487714Y-79271028D01*
X125429657Y-79300057D01*
X125313542Y-79329085D01*
X125168400Y-79329085D01*
X125052285Y-79300057D01*
X124994228Y-79271028D01*
X124965200Y-79242000D01*
X124936171Y-79183942D01*
G04 #@! TO.C,C11*
X91858114Y-81587714D02*
X91829085Y-81616742D01*
X91742000Y-81645771D01*
X91683942Y-81645771D01*
X91596857Y-81616742D01*
X91538800Y-81558685D01*
X91509771Y-81500628D01*
X91480742Y-81384514D01*
X91480742Y-81297428D01*
X91509771Y-81181314D01*
X91538800Y-81123257D01*
X91596857Y-81065200D01*
X91683942Y-81036171D01*
X91742000Y-81036171D01*
X91829085Y-81065200D01*
X91858114Y-81094228D01*
X92438685Y-81645771D02*
X92090342Y-81645771D01*
X92264514Y-81645771D02*
X92264514Y-81036171D01*
X92206457Y-81123257D01*
X92148400Y-81181314D01*
X92090342Y-81210342D01*
X93019257Y-81645771D02*
X92670914Y-81645771D01*
X92845085Y-81645771D02*
X92845085Y-81036171D01*
X92787028Y-81123257D01*
X92728971Y-81181314D01*
X92670914Y-81210342D01*
G04 #@! TO.C,R25*
X100375771Y-67591885D02*
X100085485Y-67795085D01*
X100375771Y-67940228D02*
X99766171Y-67940228D01*
X99766171Y-67708000D01*
X99795200Y-67649942D01*
X99824228Y-67620914D01*
X99882285Y-67591885D01*
X99969371Y-67591885D01*
X100027428Y-67620914D01*
X100056457Y-67649942D01*
X100085485Y-67708000D01*
X100085485Y-67940228D01*
X99824228Y-67359657D02*
X99795200Y-67330628D01*
X99766171Y-67272571D01*
X99766171Y-67127428D01*
X99795200Y-67069371D01*
X99824228Y-67040342D01*
X99882285Y-67011314D01*
X99940342Y-67011314D01*
X100027428Y-67040342D01*
X100375771Y-67388685D01*
X100375771Y-67011314D01*
X99766171Y-66459771D02*
X99766171Y-66750057D01*
X100056457Y-66779085D01*
X100027428Y-66750057D01*
X99998400Y-66692000D01*
X99998400Y-66546857D01*
X100027428Y-66488800D01*
X100056457Y-66459771D01*
X100114514Y-66430742D01*
X100259657Y-66430742D01*
X100317714Y-66459771D01*
X100346742Y-66488800D01*
X100375771Y-66546857D01*
X100375771Y-66692000D01*
X100346742Y-66750057D01*
X100317714Y-66779085D01*
G04 #@! TO.C,R24*
X100375771Y-58591885D02*
X100085485Y-58795085D01*
X100375771Y-58940228D02*
X99766171Y-58940228D01*
X99766171Y-58708000D01*
X99795200Y-58649942D01*
X99824228Y-58620914D01*
X99882285Y-58591885D01*
X99969371Y-58591885D01*
X100027428Y-58620914D01*
X100056457Y-58649942D01*
X100085485Y-58708000D01*
X100085485Y-58940228D01*
X99824228Y-58359657D02*
X99795200Y-58330628D01*
X99766171Y-58272571D01*
X99766171Y-58127428D01*
X99795200Y-58069371D01*
X99824228Y-58040342D01*
X99882285Y-58011314D01*
X99940342Y-58011314D01*
X100027428Y-58040342D01*
X100375771Y-58388685D01*
X100375771Y-58011314D01*
X99969371Y-57488800D02*
X100375771Y-57488800D01*
X99737142Y-57633942D02*
X100172571Y-57779085D01*
X100172571Y-57401714D01*
G04 #@! TO.C,R19*
X90775771Y-71891885D02*
X90485485Y-72095085D01*
X90775771Y-72240228D02*
X90166171Y-72240228D01*
X90166171Y-72008000D01*
X90195200Y-71949942D01*
X90224228Y-71920914D01*
X90282285Y-71891885D01*
X90369371Y-71891885D01*
X90427428Y-71920914D01*
X90456457Y-71949942D01*
X90485485Y-72008000D01*
X90485485Y-72240228D01*
X90775771Y-71311314D02*
X90775771Y-71659657D01*
X90775771Y-71485485D02*
X90166171Y-71485485D01*
X90253257Y-71543542D01*
X90311314Y-71601600D01*
X90340342Y-71659657D01*
X90775771Y-71021028D02*
X90775771Y-70904914D01*
X90746742Y-70846857D01*
X90717714Y-70817828D01*
X90630628Y-70759771D01*
X90514514Y-70730742D01*
X90282285Y-70730742D01*
X90224228Y-70759771D01*
X90195200Y-70788800D01*
X90166171Y-70846857D01*
X90166171Y-70962971D01*
X90195200Y-71021028D01*
X90224228Y-71050057D01*
X90282285Y-71079085D01*
X90427428Y-71079085D01*
X90485485Y-71050057D01*
X90514514Y-71021028D01*
X90543542Y-70962971D01*
X90543542Y-70846857D01*
X90514514Y-70788800D01*
X90485485Y-70759771D01*
X90427428Y-70730742D01*
G04 #@! TO.C,R18*
X89075771Y-71891885D02*
X88785485Y-72095085D01*
X89075771Y-72240228D02*
X88466171Y-72240228D01*
X88466171Y-72008000D01*
X88495200Y-71949942D01*
X88524228Y-71920914D01*
X88582285Y-71891885D01*
X88669371Y-71891885D01*
X88727428Y-71920914D01*
X88756457Y-71949942D01*
X88785485Y-72008000D01*
X88785485Y-72240228D01*
X89075771Y-71311314D02*
X89075771Y-71659657D01*
X89075771Y-71485485D02*
X88466171Y-71485485D01*
X88553257Y-71543542D01*
X88611314Y-71601600D01*
X88640342Y-71659657D01*
X88727428Y-70962971D02*
X88698400Y-71021028D01*
X88669371Y-71050057D01*
X88611314Y-71079085D01*
X88582285Y-71079085D01*
X88524228Y-71050057D01*
X88495200Y-71021028D01*
X88466171Y-70962971D01*
X88466171Y-70846857D01*
X88495200Y-70788800D01*
X88524228Y-70759771D01*
X88582285Y-70730742D01*
X88611314Y-70730742D01*
X88669371Y-70759771D01*
X88698400Y-70788800D01*
X88727428Y-70846857D01*
X88727428Y-70962971D01*
X88756457Y-71021028D01*
X88785485Y-71050057D01*
X88843542Y-71079085D01*
X88959657Y-71079085D01*
X89017714Y-71050057D01*
X89046742Y-71021028D01*
X89075771Y-70962971D01*
X89075771Y-70846857D01*
X89046742Y-70788800D01*
X89017714Y-70759771D01*
X88959657Y-70730742D01*
X88843542Y-70730742D01*
X88785485Y-70759771D01*
X88756457Y-70788800D01*
X88727428Y-70846857D01*
G04 #@! TO.C,R17*
X113408114Y-57475771D02*
X113204914Y-57185485D01*
X113059771Y-57475771D02*
X113059771Y-56866171D01*
X113292000Y-56866171D01*
X113350057Y-56895200D01*
X113379085Y-56924228D01*
X113408114Y-56982285D01*
X113408114Y-57069371D01*
X113379085Y-57127428D01*
X113350057Y-57156457D01*
X113292000Y-57185485D01*
X113059771Y-57185485D01*
X113988685Y-57475771D02*
X113640342Y-57475771D01*
X113814514Y-57475771D02*
X113814514Y-56866171D01*
X113756457Y-56953257D01*
X113698400Y-57011314D01*
X113640342Y-57040342D01*
X114191885Y-56866171D02*
X114598285Y-56866171D01*
X114337028Y-57475771D01*
G04 #@! TO.C,R16*
X113408114Y-55675771D02*
X113204914Y-55385485D01*
X113059771Y-55675771D02*
X113059771Y-55066171D01*
X113292000Y-55066171D01*
X113350057Y-55095200D01*
X113379085Y-55124228D01*
X113408114Y-55182285D01*
X113408114Y-55269371D01*
X113379085Y-55327428D01*
X113350057Y-55356457D01*
X113292000Y-55385485D01*
X113059771Y-55385485D01*
X113988685Y-55675771D02*
X113640342Y-55675771D01*
X113814514Y-55675771D02*
X113814514Y-55066171D01*
X113756457Y-55153257D01*
X113698400Y-55211314D01*
X113640342Y-55240342D01*
X114511200Y-55066171D02*
X114395085Y-55066171D01*
X114337028Y-55095200D01*
X114308000Y-55124228D01*
X114249942Y-55211314D01*
X114220914Y-55327428D01*
X114220914Y-55559657D01*
X114249942Y-55617714D01*
X114278971Y-55646742D01*
X114337028Y-55675771D01*
X114453142Y-55675771D01*
X114511200Y-55646742D01*
X114540228Y-55617714D01*
X114569257Y-55559657D01*
X114569257Y-55414514D01*
X114540228Y-55356457D01*
X114511200Y-55327428D01*
X114453142Y-55298400D01*
X114337028Y-55298400D01*
X114278971Y-55327428D01*
X114249942Y-55356457D01*
X114220914Y-55414514D01*
G04 #@! TO.C,R15*
X122558114Y-57425771D02*
X122354914Y-57135485D01*
X122209771Y-57425771D02*
X122209771Y-56816171D01*
X122442000Y-56816171D01*
X122500057Y-56845200D01*
X122529085Y-56874228D01*
X122558114Y-56932285D01*
X122558114Y-57019371D01*
X122529085Y-57077428D01*
X122500057Y-57106457D01*
X122442000Y-57135485D01*
X122209771Y-57135485D01*
X123138685Y-57425771D02*
X122790342Y-57425771D01*
X122964514Y-57425771D02*
X122964514Y-56816171D01*
X122906457Y-56903257D01*
X122848400Y-56961314D01*
X122790342Y-56990342D01*
X123690228Y-56816171D02*
X123399942Y-56816171D01*
X123370914Y-57106457D01*
X123399942Y-57077428D01*
X123458000Y-57048400D01*
X123603142Y-57048400D01*
X123661200Y-57077428D01*
X123690228Y-57106457D01*
X123719257Y-57164514D01*
X123719257Y-57309657D01*
X123690228Y-57367714D01*
X123661200Y-57396742D01*
X123603142Y-57425771D01*
X123458000Y-57425771D01*
X123399942Y-57396742D01*
X123370914Y-57367714D01*
G04 #@! TO.C,R14*
X122508114Y-55675771D02*
X122304914Y-55385485D01*
X122159771Y-55675771D02*
X122159771Y-55066171D01*
X122392000Y-55066171D01*
X122450057Y-55095200D01*
X122479085Y-55124228D01*
X122508114Y-55182285D01*
X122508114Y-55269371D01*
X122479085Y-55327428D01*
X122450057Y-55356457D01*
X122392000Y-55385485D01*
X122159771Y-55385485D01*
X123088685Y-55675771D02*
X122740342Y-55675771D01*
X122914514Y-55675771D02*
X122914514Y-55066171D01*
X122856457Y-55153257D01*
X122798400Y-55211314D01*
X122740342Y-55240342D01*
X123611200Y-55269371D02*
X123611200Y-55675771D01*
X123466057Y-55037142D02*
X123320914Y-55472571D01*
X123698285Y-55472571D01*
G04 #@! TO.C,R13*
X122508114Y-53875771D02*
X122304914Y-53585485D01*
X122159771Y-53875771D02*
X122159771Y-53266171D01*
X122392000Y-53266171D01*
X122450057Y-53295200D01*
X122479085Y-53324228D01*
X122508114Y-53382285D01*
X122508114Y-53469371D01*
X122479085Y-53527428D01*
X122450057Y-53556457D01*
X122392000Y-53585485D01*
X122159771Y-53585485D01*
X123088685Y-53875771D02*
X122740342Y-53875771D01*
X122914514Y-53875771D02*
X122914514Y-53266171D01*
X122856457Y-53353257D01*
X122798400Y-53411314D01*
X122740342Y-53440342D01*
X123291885Y-53266171D02*
X123669257Y-53266171D01*
X123466057Y-53498400D01*
X123553142Y-53498400D01*
X123611200Y-53527428D01*
X123640228Y-53556457D01*
X123669257Y-53614514D01*
X123669257Y-53759657D01*
X123640228Y-53817714D01*
X123611200Y-53846742D01*
X123553142Y-53875771D01*
X123378971Y-53875771D01*
X123320914Y-53846742D01*
X123291885Y-53817714D01*
G04 #@! TO.C,R12*
X122508114Y-52075771D02*
X122304914Y-51785485D01*
X122159771Y-52075771D02*
X122159771Y-51466171D01*
X122392000Y-51466171D01*
X122450057Y-51495200D01*
X122479085Y-51524228D01*
X122508114Y-51582285D01*
X122508114Y-51669371D01*
X122479085Y-51727428D01*
X122450057Y-51756457D01*
X122392000Y-51785485D01*
X122159771Y-51785485D01*
X123088685Y-52075771D02*
X122740342Y-52075771D01*
X122914514Y-52075771D02*
X122914514Y-51466171D01*
X122856457Y-51553257D01*
X122798400Y-51611314D01*
X122740342Y-51640342D01*
X123320914Y-51524228D02*
X123349942Y-51495200D01*
X123408000Y-51466171D01*
X123553142Y-51466171D01*
X123611200Y-51495200D01*
X123640228Y-51524228D01*
X123669257Y-51582285D01*
X123669257Y-51640342D01*
X123640228Y-51727428D01*
X123291885Y-52075771D01*
X123669257Y-52075771D01*
G04 #@! TO.C,R11*
X122508114Y-50325771D02*
X122304914Y-50035485D01*
X122159771Y-50325771D02*
X122159771Y-49716171D01*
X122392000Y-49716171D01*
X122450057Y-49745200D01*
X122479085Y-49774228D01*
X122508114Y-49832285D01*
X122508114Y-49919371D01*
X122479085Y-49977428D01*
X122450057Y-50006457D01*
X122392000Y-50035485D01*
X122159771Y-50035485D01*
X123088685Y-50325771D02*
X122740342Y-50325771D01*
X122914514Y-50325771D02*
X122914514Y-49716171D01*
X122856457Y-49803257D01*
X122798400Y-49861314D01*
X122740342Y-49890342D01*
X123669257Y-50325771D02*
X123320914Y-50325771D01*
X123495085Y-50325771D02*
X123495085Y-49716171D01*
X123437028Y-49803257D01*
X123378971Y-49861314D01*
X123320914Y-49890342D01*
G04 #@! TO.C,R10*
X122508114Y-48475771D02*
X122304914Y-48185485D01*
X122159771Y-48475771D02*
X122159771Y-47866171D01*
X122392000Y-47866171D01*
X122450057Y-47895200D01*
X122479085Y-47924228D01*
X122508114Y-47982285D01*
X122508114Y-48069371D01*
X122479085Y-48127428D01*
X122450057Y-48156457D01*
X122392000Y-48185485D01*
X122159771Y-48185485D01*
X123088685Y-48475771D02*
X122740342Y-48475771D01*
X122914514Y-48475771D02*
X122914514Y-47866171D01*
X122856457Y-47953257D01*
X122798400Y-48011314D01*
X122740342Y-48040342D01*
X123466057Y-47866171D02*
X123524114Y-47866171D01*
X123582171Y-47895200D01*
X123611200Y-47924228D01*
X123640228Y-47982285D01*
X123669257Y-48098400D01*
X123669257Y-48243542D01*
X123640228Y-48359657D01*
X123611200Y-48417714D01*
X123582171Y-48446742D01*
X123524114Y-48475771D01*
X123466057Y-48475771D01*
X123408000Y-48446742D01*
X123378971Y-48417714D01*
X123349942Y-48359657D01*
X123320914Y-48243542D01*
X123320914Y-48098400D01*
X123349942Y-47982285D01*
X123378971Y-47924228D01*
X123408000Y-47895200D01*
X123466057Y-47866171D01*
G04 #@! TO.C,U5*
X91785542Y-75266171D02*
X91785542Y-75759657D01*
X91814571Y-75817714D01*
X91843600Y-75846742D01*
X91901657Y-75875771D01*
X92017771Y-75875771D01*
X92075828Y-75846742D01*
X92104857Y-75817714D01*
X92133885Y-75759657D01*
X92133885Y-75266171D01*
X92714457Y-75266171D02*
X92424171Y-75266171D01*
X92395142Y-75556457D01*
X92424171Y-75527428D01*
X92482228Y-75498400D01*
X92627371Y-75498400D01*
X92685428Y-75527428D01*
X92714457Y-75556457D01*
X92743485Y-75614514D01*
X92743485Y-75759657D01*
X92714457Y-75817714D01*
X92685428Y-75846742D01*
X92627371Y-75875771D01*
X92482228Y-75875771D01*
X92424171Y-75846742D01*
X92395142Y-75817714D01*
G04 #@! TO.C,SW2*
X94037200Y-63996742D02*
X94124285Y-64025771D01*
X94269428Y-64025771D01*
X94327485Y-63996742D01*
X94356514Y-63967714D01*
X94385542Y-63909657D01*
X94385542Y-63851600D01*
X94356514Y-63793542D01*
X94327485Y-63764514D01*
X94269428Y-63735485D01*
X94153314Y-63706457D01*
X94095257Y-63677428D01*
X94066228Y-63648400D01*
X94037200Y-63590342D01*
X94037200Y-63532285D01*
X94066228Y-63474228D01*
X94095257Y-63445200D01*
X94153314Y-63416171D01*
X94298457Y-63416171D01*
X94385542Y-63445200D01*
X94588742Y-63416171D02*
X94733885Y-64025771D01*
X94850000Y-63590342D01*
X94966114Y-64025771D01*
X95111257Y-63416171D01*
X95314457Y-63474228D02*
X95343485Y-63445200D01*
X95401542Y-63416171D01*
X95546685Y-63416171D01*
X95604742Y-63445200D01*
X95633771Y-63474228D01*
X95662800Y-63532285D01*
X95662800Y-63590342D01*
X95633771Y-63677428D01*
X95285428Y-64025771D01*
X95662800Y-64025771D01*
G04 #@! TO.C,SW1*
X94187200Y-58046742D02*
X94274285Y-58075771D01*
X94419428Y-58075771D01*
X94477485Y-58046742D01*
X94506514Y-58017714D01*
X94535542Y-57959657D01*
X94535542Y-57901600D01*
X94506514Y-57843542D01*
X94477485Y-57814514D01*
X94419428Y-57785485D01*
X94303314Y-57756457D01*
X94245257Y-57727428D01*
X94216228Y-57698400D01*
X94187200Y-57640342D01*
X94187200Y-57582285D01*
X94216228Y-57524228D01*
X94245257Y-57495200D01*
X94303314Y-57466171D01*
X94448457Y-57466171D01*
X94535542Y-57495200D01*
X94738742Y-57466171D02*
X94883885Y-58075771D01*
X95000000Y-57640342D01*
X95116114Y-58075771D01*
X95261257Y-57466171D01*
X95812800Y-58075771D02*
X95464457Y-58075771D01*
X95638628Y-58075771D02*
X95638628Y-57466171D01*
X95580571Y-57553257D01*
X95522514Y-57611314D01*
X95464457Y-57640342D01*
G04 #@! TO.C,D3*
X104950057Y-57475771D02*
X104950057Y-56866171D01*
X105095200Y-56866171D01*
X105182285Y-56895200D01*
X105240342Y-56953257D01*
X105269371Y-57011314D01*
X105298400Y-57127428D01*
X105298400Y-57214514D01*
X105269371Y-57330628D01*
X105240342Y-57388685D01*
X105182285Y-57446742D01*
X105095200Y-57475771D01*
X104950057Y-57475771D01*
X105501600Y-56866171D02*
X105878971Y-56866171D01*
X105675771Y-57098400D01*
X105762857Y-57098400D01*
X105820914Y-57127428D01*
X105849942Y-57156457D01*
X105878971Y-57214514D01*
X105878971Y-57359657D01*
X105849942Y-57417714D01*
X105820914Y-57446742D01*
X105762857Y-57475771D01*
X105588685Y-57475771D01*
X105530628Y-57446742D01*
X105501600Y-57417714D01*
G04 #@! TO.C,D2*
X104950057Y-55675771D02*
X104950057Y-55066171D01*
X105095200Y-55066171D01*
X105182285Y-55095200D01*
X105240342Y-55153257D01*
X105269371Y-55211314D01*
X105298400Y-55327428D01*
X105298400Y-55414514D01*
X105269371Y-55530628D01*
X105240342Y-55588685D01*
X105182285Y-55646742D01*
X105095200Y-55675771D01*
X104950057Y-55675771D01*
X105530628Y-55124228D02*
X105559657Y-55095200D01*
X105617714Y-55066171D01*
X105762857Y-55066171D01*
X105820914Y-55095200D01*
X105849942Y-55124228D01*
X105878971Y-55182285D01*
X105878971Y-55240342D01*
X105849942Y-55327428D01*
X105501600Y-55675771D01*
X105878971Y-55675771D01*
G04 #@! TO.C,C8*
X85334611Y-63373423D02*
X85305582Y-63402451D01*
X85218496Y-63431480D01*
X85160439Y-63431480D01*
X85073353Y-63402451D01*
X85015296Y-63344394D01*
X84986268Y-63286337D01*
X84957239Y-63170223D01*
X84957239Y-63083137D01*
X84986268Y-62967023D01*
X85015296Y-62908966D01*
X85073353Y-62850909D01*
X85160439Y-62821880D01*
X85218496Y-62821880D01*
X85305582Y-62850909D01*
X85334611Y-62879937D01*
X85682953Y-63083137D02*
X85624896Y-63054109D01*
X85595868Y-63025080D01*
X85566839Y-62967023D01*
X85566839Y-62937994D01*
X85595868Y-62879937D01*
X85624896Y-62850909D01*
X85682953Y-62821880D01*
X85799068Y-62821880D01*
X85857125Y-62850909D01*
X85886153Y-62879937D01*
X85915182Y-62937994D01*
X85915182Y-62967023D01*
X85886153Y-63025080D01*
X85857125Y-63054109D01*
X85799068Y-63083137D01*
X85682953Y-63083137D01*
X85624896Y-63112166D01*
X85595868Y-63141194D01*
X85566839Y-63199251D01*
X85566839Y-63315366D01*
X85595868Y-63373423D01*
X85624896Y-63402451D01*
X85682953Y-63431480D01*
X85799068Y-63431480D01*
X85857125Y-63402451D01*
X85886153Y-63373423D01*
X85915182Y-63315366D01*
X85915182Y-63199251D01*
X85886153Y-63141194D01*
X85857125Y-63112166D01*
X85799068Y-63083137D01*
G04 #@! TO.C,R1*
X144948400Y-44825771D02*
X144745200Y-44535485D01*
X144600057Y-44825771D02*
X144600057Y-44216171D01*
X144832285Y-44216171D01*
X144890342Y-44245200D01*
X144919371Y-44274228D01*
X144948400Y-44332285D01*
X144948400Y-44419371D01*
X144919371Y-44477428D01*
X144890342Y-44506457D01*
X144832285Y-44535485D01*
X144600057Y-44535485D01*
X145528971Y-44825771D02*
X145180628Y-44825771D01*
X145354800Y-44825771D02*
X145354800Y-44216171D01*
X145296742Y-44303257D01*
X145238685Y-44361314D01*
X145180628Y-44390342D01*
G04 #@! TO.C,R2*
X139098400Y-45975771D02*
X138895200Y-45685485D01*
X138750057Y-45975771D02*
X138750057Y-45366171D01*
X138982285Y-45366171D01*
X139040342Y-45395200D01*
X139069371Y-45424228D01*
X139098400Y-45482285D01*
X139098400Y-45569371D01*
X139069371Y-45627428D01*
X139040342Y-45656457D01*
X138982285Y-45685485D01*
X138750057Y-45685485D01*
X139330628Y-45424228D02*
X139359657Y-45395200D01*
X139417714Y-45366171D01*
X139562857Y-45366171D01*
X139620914Y-45395200D01*
X139649942Y-45424228D01*
X139678971Y-45482285D01*
X139678971Y-45540342D01*
X139649942Y-45627428D01*
X139301600Y-45975771D01*
X139678971Y-45975771D01*
G04 #@! TO.C,R3*
X142048400Y-44525771D02*
X141845200Y-44235485D01*
X141700057Y-44525771D02*
X141700057Y-43916171D01*
X141932285Y-43916171D01*
X141990342Y-43945200D01*
X142019371Y-43974228D01*
X142048400Y-44032285D01*
X142048400Y-44119371D01*
X142019371Y-44177428D01*
X141990342Y-44206457D01*
X141932285Y-44235485D01*
X141700057Y-44235485D01*
X142251600Y-43916171D02*
X142628971Y-43916171D01*
X142425771Y-44148400D01*
X142512857Y-44148400D01*
X142570914Y-44177428D01*
X142599942Y-44206457D01*
X142628971Y-44264514D01*
X142628971Y-44409657D01*
X142599942Y-44467714D01*
X142570914Y-44496742D01*
X142512857Y-44525771D01*
X142338685Y-44525771D01*
X142280628Y-44496742D01*
X142251600Y-44467714D01*
G04 #@! TO.C,C9*
X85298400Y-72617714D02*
X85269371Y-72646742D01*
X85182285Y-72675771D01*
X85124228Y-72675771D01*
X85037142Y-72646742D01*
X84979085Y-72588685D01*
X84950057Y-72530628D01*
X84921028Y-72414514D01*
X84921028Y-72327428D01*
X84950057Y-72211314D01*
X84979085Y-72153257D01*
X85037142Y-72095200D01*
X85124228Y-72066171D01*
X85182285Y-72066171D01*
X85269371Y-72095200D01*
X85298400Y-72124228D01*
X85588685Y-72675771D02*
X85704800Y-72675771D01*
X85762857Y-72646742D01*
X85791885Y-72617714D01*
X85849942Y-72530628D01*
X85878971Y-72414514D01*
X85878971Y-72182285D01*
X85849942Y-72124228D01*
X85820914Y-72095200D01*
X85762857Y-72066171D01*
X85646742Y-72066171D01*
X85588685Y-72095200D01*
X85559657Y-72124228D01*
X85530628Y-72182285D01*
X85530628Y-72327428D01*
X85559657Y-72385485D01*
X85588685Y-72414514D01*
X85646742Y-72443542D01*
X85762857Y-72443542D01*
X85820914Y-72414514D01*
X85849942Y-72385485D01*
X85878971Y-72327428D01*
G04 #@! TO.C,U3*
X84959800Y-65172382D02*
X84959800Y-65665868D01*
X84988829Y-65723925D01*
X85017858Y-65752953D01*
X85075915Y-65781982D01*
X85192029Y-65781982D01*
X85250086Y-65752953D01*
X85279115Y-65723925D01*
X85308143Y-65665868D01*
X85308143Y-65172382D01*
X85540372Y-65172382D02*
X85917743Y-65172382D01*
X85714543Y-65404611D01*
X85801629Y-65404611D01*
X85859686Y-65433639D01*
X85888715Y-65462668D01*
X85917743Y-65520725D01*
X85917743Y-65665868D01*
X85888715Y-65723925D01*
X85859686Y-65752953D01*
X85801629Y-65781982D01*
X85627458Y-65781982D01*
X85569400Y-65752953D01*
X85540372Y-65723925D01*
G04 #@! TO.C,RTC1*
X85383371Y-75173771D02*
X85180171Y-74883485D01*
X85035028Y-75173771D02*
X85035028Y-74564171D01*
X85267257Y-74564171D01*
X85325314Y-74593200D01*
X85354342Y-74622228D01*
X85383371Y-74680285D01*
X85383371Y-74767371D01*
X85354342Y-74825428D01*
X85325314Y-74854457D01*
X85267257Y-74883485D01*
X85035028Y-74883485D01*
X85557542Y-74564171D02*
X85905885Y-74564171D01*
X85731714Y-75173771D02*
X85731714Y-74564171D01*
X86457428Y-75115714D02*
X86428400Y-75144742D01*
X86341314Y-75173771D01*
X86283257Y-75173771D01*
X86196171Y-75144742D01*
X86138114Y-75086685D01*
X86109085Y-75028628D01*
X86080057Y-74912514D01*
X86080057Y-74825428D01*
X86109085Y-74709314D01*
X86138114Y-74651257D01*
X86196171Y-74593200D01*
X86283257Y-74564171D01*
X86341314Y-74564171D01*
X86428400Y-74593200D01*
X86457428Y-74622228D01*
X87038000Y-75173771D02*
X86689657Y-75173771D01*
X86863828Y-75173771D02*
X86863828Y-74564171D01*
X86805771Y-74651257D01*
X86747714Y-74709314D01*
X86689657Y-74738342D01*
G04 #@! TO.C,D1*
X147699771Y-56799942D02*
X147090171Y-56799942D01*
X147090171Y-56654800D01*
X147119200Y-56567714D01*
X147177257Y-56509657D01*
X147235314Y-56480628D01*
X147351428Y-56451600D01*
X147438514Y-56451600D01*
X147554628Y-56480628D01*
X147612685Y-56509657D01*
X147670742Y-56567714D01*
X147699771Y-56654800D01*
X147699771Y-56799942D01*
X147699771Y-55871028D02*
X147699771Y-56219371D01*
X147699771Y-56045200D02*
X147090171Y-56045200D01*
X147177257Y-56103257D01*
X147235314Y-56161314D01*
X147264342Y-56219371D01*
G04 #@! TO.C,Q1*
X140591942Y-51383828D02*
X140533885Y-51354800D01*
X140475828Y-51296742D01*
X140388742Y-51209657D01*
X140330685Y-51180628D01*
X140272628Y-51180628D01*
X140301657Y-51325771D02*
X140243600Y-51296742D01*
X140185542Y-51238685D01*
X140156514Y-51122571D01*
X140156514Y-50919371D01*
X140185542Y-50803257D01*
X140243600Y-50745200D01*
X140301657Y-50716171D01*
X140417771Y-50716171D01*
X140475828Y-50745200D01*
X140533885Y-50803257D01*
X140562914Y-50919371D01*
X140562914Y-51122571D01*
X140533885Y-51238685D01*
X140475828Y-51296742D01*
X140417771Y-51325771D01*
X140301657Y-51325771D01*
X141143485Y-51325771D02*
X140795142Y-51325771D01*
X140969314Y-51325771D02*
X140969314Y-50716171D01*
X140911257Y-50803257D01*
X140853200Y-50861314D01*
X140795142Y-50890342D01*
G04 #@! TO.C,U1*
X132435542Y-52666171D02*
X132435542Y-53159657D01*
X132464571Y-53217714D01*
X132493600Y-53246742D01*
X132551657Y-53275771D01*
X132667771Y-53275771D01*
X132725828Y-53246742D01*
X132754857Y-53217714D01*
X132783885Y-53159657D01*
X132783885Y-52666171D01*
X133393485Y-53275771D02*
X133045142Y-53275771D01*
X133219314Y-53275771D02*
X133219314Y-52666171D01*
X133161257Y-52753257D01*
X133103200Y-52811314D01*
X133045142Y-52840342D01*
G04 #@! TO.C,T1*
X134135542Y-59266171D02*
X134483885Y-59266171D01*
X134309714Y-59875771D02*
X134309714Y-59266171D01*
X135006400Y-59875771D02*
X134658057Y-59875771D01*
X134832228Y-59875771D02*
X134832228Y-59266171D01*
X134774171Y-59353257D01*
X134716114Y-59411314D01*
X134658057Y-59440342D01*
G04 #@! TO.C,U2*
X80610190Y-59950767D02*
X81103676Y-59950767D01*
X81161733Y-59921738D01*
X81190761Y-59892710D01*
X81219790Y-59834652D01*
X81219790Y-59718538D01*
X81190761Y-59660481D01*
X81161733Y-59631452D01*
X81103676Y-59602424D01*
X80610190Y-59602424D01*
X80668247Y-59341167D02*
X80639219Y-59312138D01*
X80610190Y-59254081D01*
X80610190Y-59108938D01*
X80639219Y-59050881D01*
X80668247Y-59021852D01*
X80726304Y-58992824D01*
X80784361Y-58992824D01*
X80871447Y-59021852D01*
X81219790Y-59370195D01*
X81219790Y-58992824D01*
G04 #@! TO.C,CS1*
X137908114Y-58117714D02*
X137879085Y-58146742D01*
X137792000Y-58175771D01*
X137733942Y-58175771D01*
X137646857Y-58146742D01*
X137588800Y-58088685D01*
X137559771Y-58030628D01*
X137530742Y-57914514D01*
X137530742Y-57827428D01*
X137559771Y-57711314D01*
X137588800Y-57653257D01*
X137646857Y-57595200D01*
X137733942Y-57566171D01*
X137792000Y-57566171D01*
X137879085Y-57595200D01*
X137908114Y-57624228D01*
X138140342Y-58146742D02*
X138227428Y-58175771D01*
X138372571Y-58175771D01*
X138430628Y-58146742D01*
X138459657Y-58117714D01*
X138488685Y-58059657D01*
X138488685Y-58001600D01*
X138459657Y-57943542D01*
X138430628Y-57914514D01*
X138372571Y-57885485D01*
X138256457Y-57856457D01*
X138198400Y-57827428D01*
X138169371Y-57798400D01*
X138140342Y-57740342D01*
X138140342Y-57682285D01*
X138169371Y-57624228D01*
X138198400Y-57595200D01*
X138256457Y-57566171D01*
X138401600Y-57566171D01*
X138488685Y-57595200D01*
X139069257Y-58175771D02*
X138720914Y-58175771D01*
X138895085Y-58175771D02*
X138895085Y-57566171D01*
X138837028Y-57653257D01*
X138778971Y-57711314D01*
X138720914Y-57740342D01*
G04 #@! TO.C,CC1*
X127313600Y-49167714D02*
X127284571Y-49196742D01*
X127197485Y-49225771D01*
X127139428Y-49225771D01*
X127052342Y-49196742D01*
X126994285Y-49138685D01*
X126965257Y-49080628D01*
X126936228Y-48964514D01*
X126936228Y-48877428D01*
X126965257Y-48761314D01*
X126994285Y-48703257D01*
X127052342Y-48645200D01*
X127139428Y-48616171D01*
X127197485Y-48616171D01*
X127284571Y-48645200D01*
X127313600Y-48674228D01*
X127923200Y-49167714D02*
X127894171Y-49196742D01*
X127807085Y-49225771D01*
X127749028Y-49225771D01*
X127661942Y-49196742D01*
X127603885Y-49138685D01*
X127574857Y-49080628D01*
X127545828Y-48964514D01*
X127545828Y-48877428D01*
X127574857Y-48761314D01*
X127603885Y-48703257D01*
X127661942Y-48645200D01*
X127749028Y-48616171D01*
X127807085Y-48616171D01*
X127894171Y-48645200D01*
X127923200Y-48674228D01*
X128503771Y-49225771D02*
X128155428Y-49225771D01*
X128329600Y-49225771D02*
X128329600Y-48616171D01*
X128271542Y-48703257D01*
X128213485Y-48761314D01*
X128155428Y-48790342D01*
G04 #@! TO.C,C2*
X130467714Y-51551600D02*
X130496742Y-51580628D01*
X130525771Y-51667714D01*
X130525771Y-51725771D01*
X130496742Y-51812857D01*
X130438685Y-51870914D01*
X130380628Y-51899942D01*
X130264514Y-51928971D01*
X130177428Y-51928971D01*
X130061314Y-51899942D01*
X130003257Y-51870914D01*
X129945200Y-51812857D01*
X129916171Y-51725771D01*
X129916171Y-51667714D01*
X129945200Y-51580628D01*
X129974228Y-51551600D01*
X129974228Y-51319371D02*
X129945200Y-51290342D01*
X129916171Y-51232285D01*
X129916171Y-51087142D01*
X129945200Y-51029085D01*
X129974228Y-51000057D01*
X130032285Y-50971028D01*
X130090342Y-50971028D01*
X130177428Y-51000057D01*
X130525771Y-51348400D01*
X130525771Y-50971028D01*
G04 #@! TO.C,C3*
X144298400Y-47817714D02*
X144269371Y-47846742D01*
X144182285Y-47875771D01*
X144124228Y-47875771D01*
X144037142Y-47846742D01*
X143979085Y-47788685D01*
X143950057Y-47730628D01*
X143921028Y-47614514D01*
X143921028Y-47527428D01*
X143950057Y-47411314D01*
X143979085Y-47353257D01*
X144037142Y-47295200D01*
X144124228Y-47266171D01*
X144182285Y-47266171D01*
X144269371Y-47295200D01*
X144298400Y-47324228D01*
X144501600Y-47266171D02*
X144878971Y-47266171D01*
X144675771Y-47498400D01*
X144762857Y-47498400D01*
X144820914Y-47527428D01*
X144849942Y-47556457D01*
X144878971Y-47614514D01*
X144878971Y-47759657D01*
X144849942Y-47817714D01*
X144820914Y-47846742D01*
X144762857Y-47875771D01*
X144588685Y-47875771D01*
X144530628Y-47846742D01*
X144501600Y-47817714D01*
G04 #@! TO.C,C1*
X128098400Y-62547714D02*
X128069371Y-62576742D01*
X127982285Y-62605771D01*
X127924228Y-62605771D01*
X127837142Y-62576742D01*
X127779085Y-62518685D01*
X127750057Y-62460628D01*
X127721028Y-62344514D01*
X127721028Y-62257428D01*
X127750057Y-62141314D01*
X127779085Y-62083257D01*
X127837142Y-62025200D01*
X127924228Y-61996171D01*
X127982285Y-61996171D01*
X128069371Y-62025200D01*
X128098400Y-62054228D01*
X128678971Y-62605771D02*
X128330628Y-62605771D01*
X128504800Y-62605771D02*
X128504800Y-61996171D01*
X128446742Y-62083257D01*
X128388685Y-62141314D01*
X128330628Y-62170342D01*
G04 #@! TO.C,RC1*
X127253600Y-47395771D02*
X127050400Y-47105485D01*
X126905257Y-47395771D02*
X126905257Y-46786171D01*
X127137485Y-46786171D01*
X127195542Y-46815200D01*
X127224571Y-46844228D01*
X127253600Y-46902285D01*
X127253600Y-46989371D01*
X127224571Y-47047428D01*
X127195542Y-47076457D01*
X127137485Y-47105485D01*
X126905257Y-47105485D01*
X127863200Y-47337714D02*
X127834171Y-47366742D01*
X127747085Y-47395771D01*
X127689028Y-47395771D01*
X127601942Y-47366742D01*
X127543885Y-47308685D01*
X127514857Y-47250628D01*
X127485828Y-47134514D01*
X127485828Y-47047428D01*
X127514857Y-46931314D01*
X127543885Y-46873257D01*
X127601942Y-46815200D01*
X127689028Y-46786171D01*
X127747085Y-46786171D01*
X127834171Y-46815200D01*
X127863200Y-46844228D01*
X128443771Y-47395771D02*
X128095428Y-47395771D01*
X128269600Y-47395771D02*
X128269600Y-46786171D01*
X128211542Y-46873257D01*
X128153485Y-46931314D01*
X128095428Y-46960342D01*
G04 #@! TO.C,RF1*
X139275771Y-49112857D02*
X138985485Y-49316057D01*
X139275771Y-49461200D02*
X138666171Y-49461200D01*
X138666171Y-49228971D01*
X138695200Y-49170914D01*
X138724228Y-49141885D01*
X138782285Y-49112857D01*
X138869371Y-49112857D01*
X138927428Y-49141885D01*
X138956457Y-49170914D01*
X138985485Y-49228971D01*
X138985485Y-49461200D01*
X138956457Y-48648400D02*
X138956457Y-48851600D01*
X139275771Y-48851600D02*
X138666171Y-48851600D01*
X138666171Y-48561314D01*
X139275771Y-48009771D02*
X139275771Y-48358114D01*
X139275771Y-48183942D02*
X138666171Y-48183942D01*
X138753257Y-48242000D01*
X138811314Y-48300057D01*
X138840342Y-48358114D01*
G04 #@! TO.C,RS1*
X145108114Y-59825771D02*
X144904914Y-59535485D01*
X144759771Y-59825771D02*
X144759771Y-59216171D01*
X144992000Y-59216171D01*
X145050057Y-59245200D01*
X145079085Y-59274228D01*
X145108114Y-59332285D01*
X145108114Y-59419371D01*
X145079085Y-59477428D01*
X145050057Y-59506457D01*
X144992000Y-59535485D01*
X144759771Y-59535485D01*
X145340342Y-59796742D02*
X145427428Y-59825771D01*
X145572571Y-59825771D01*
X145630628Y-59796742D01*
X145659657Y-59767714D01*
X145688685Y-59709657D01*
X145688685Y-59651600D01*
X145659657Y-59593542D01*
X145630628Y-59564514D01*
X145572571Y-59535485D01*
X145456457Y-59506457D01*
X145398400Y-59477428D01*
X145369371Y-59448400D01*
X145340342Y-59390342D01*
X145340342Y-59332285D01*
X145369371Y-59274228D01*
X145398400Y-59245200D01*
X145456457Y-59216171D01*
X145601600Y-59216171D01*
X145688685Y-59245200D01*
X146269257Y-59825771D02*
X145920914Y-59825771D01*
X146095085Y-59825771D02*
X146095085Y-59216171D01*
X146037028Y-59303257D01*
X145978971Y-59361314D01*
X145920914Y-59390342D01*
G04 #@! TO.C,Rsen1*
X132875771Y-51985371D02*
X132585485Y-52188571D01*
X132875771Y-52333714D02*
X132266171Y-52333714D01*
X132266171Y-52101485D01*
X132295200Y-52043428D01*
X132324228Y-52014400D01*
X132382285Y-51985371D01*
X132469371Y-51985371D01*
X132527428Y-52014400D01*
X132556457Y-52043428D01*
X132585485Y-52101485D01*
X132585485Y-52333714D01*
X132846742Y-51753142D02*
X132875771Y-51695085D01*
X132875771Y-51578971D01*
X132846742Y-51520914D01*
X132788685Y-51491885D01*
X132759657Y-51491885D01*
X132701600Y-51520914D01*
X132672571Y-51578971D01*
X132672571Y-51666057D01*
X132643542Y-51724114D01*
X132585485Y-51753142D01*
X132556457Y-51753142D01*
X132498400Y-51724114D01*
X132469371Y-51666057D01*
X132469371Y-51578971D01*
X132498400Y-51520914D01*
X132846742Y-50998400D02*
X132875771Y-51056457D01*
X132875771Y-51172571D01*
X132846742Y-51230628D01*
X132788685Y-51259657D01*
X132556457Y-51259657D01*
X132498400Y-51230628D01*
X132469371Y-51172571D01*
X132469371Y-51056457D01*
X132498400Y-50998400D01*
X132556457Y-50969371D01*
X132614514Y-50969371D01*
X132672571Y-51259657D01*
X132469371Y-50708114D02*
X132875771Y-50708114D01*
X132527428Y-50708114D02*
X132498400Y-50679085D01*
X132469371Y-50621028D01*
X132469371Y-50533942D01*
X132498400Y-50475885D01*
X132556457Y-50446857D01*
X132875771Y-50446857D01*
X132875771Y-49837257D02*
X132875771Y-50185600D01*
X132875771Y-50011428D02*
X132266171Y-50011428D01*
X132353257Y-50069485D01*
X132411314Y-50127542D01*
X132440342Y-50185600D01*
G04 #@! TD*
M02*
