G04 #@! TF.GenerationSoftware,KiCad,Pcbnew,(5.0.1-3-g963ef8bb5)*
G04 #@! TF.CreationDate,2019-05-10T17:55:58-07:00*
G04 #@! TF.ProjectId,ME203_Project,4D453230335F50726F6A6563742E6B69,rev?*
G04 #@! TF.SameCoordinates,Original*
G04 #@! TF.FileFunction,Copper,L2,Bot,Signal*
G04 #@! TF.FilePolarity,Positive*
%FSLAX46Y46*%
G04 Gerber Fmt 4.6, Leading zero omitted, Abs format (unit mm)*
G04 Created by KiCad (PCBNEW (5.0.1-3-g963ef8bb5)) date Friday, May 10, 2019 at 05:55:58 PM*
%MOMM*%
%LPD*%
G01*
G04 APERTURE LIST*
G04 #@! TA.AperFunction,ComponentPad*
%ADD10O,1.700000X1.700000*%
G04 #@! TD*
G04 #@! TA.AperFunction,ComponentPad*
%ADD11R,1.700000X1.700000*%
G04 #@! TD*
G04 #@! TA.AperFunction,SMDPad,CuDef*
%ADD12R,0.797560X1.198880*%
G04 #@! TD*
G04 #@! TA.AperFunction,SMDPad,CuDef*
%ADD13O,12.999720X7.998460*%
G04 #@! TD*
G04 #@! TA.AperFunction,SMDPad,CuDef*
%ADD14O,2.032000X3.175000*%
G04 #@! TD*
G04 #@! TA.AperFunction,ComponentPad*
%ADD15C,0.320000*%
G04 #@! TD*
G04 #@! TA.AperFunction,ViaPad*
%ADD16C,0.800000*%
G04 #@! TD*
G04 #@! TA.AperFunction,ViaPad*
%ADD17C,0.685800*%
G04 #@! TD*
G04 #@! TA.AperFunction,Conductor*
%ADD18C,0.800000*%
G04 #@! TD*
G04 #@! TA.AperFunction,Conductor*
%ADD19C,0.500000*%
G04 #@! TD*
G04 #@! TA.AperFunction,Conductor*
%ADD20C,0.250000*%
G04 #@! TD*
G04 #@! TA.AperFunction,Conductor*
%ADD21C,0.254000*%
G04 #@! TD*
G04 APERTURE END LIST*
D10*
G04 #@! TO.P,J11,2*
G04 #@! TO.N,+3V3*
X86400000Y-83560000D03*
D11*
G04 #@! TO.P,J11,1*
X86400000Y-86100000D03*
G04 #@! TD*
G04 #@! TO.P,J13,1*
G04 #@! TO.N,GND*
X82700000Y-83500000D03*
D10*
G04 #@! TO.P,J13,2*
X82700000Y-86040000D03*
G04 #@! TD*
G04 #@! TO.P,J14,3*
G04 #@! TO.N,GND*
X99000000Y-72700000D03*
G04 #@! TO.P,J14,2*
G04 #@! TO.N,/ESP32/RXD0*
X99000000Y-75240000D03*
D11*
G04 #@! TO.P,J14,1*
G04 #@! TO.N,/ESP32/TXD0*
X99000000Y-77780000D03*
G04 #@! TD*
G04 #@! TO.P,J12,1*
G04 #@! TO.N,/ESP32/A11-T5-D12*
X124400000Y-65200000D03*
G04 #@! TD*
G04 #@! TO.P,J10,1*
G04 #@! TO.N,/ESP32/A7-T9-D32*
X124200000Y-71300000D03*
G04 #@! TD*
D10*
G04 #@! TO.P,J8,2*
G04 #@! TO.N,Net-(J8-Pad2)*
X116360000Y-37600000D03*
D11*
G04 #@! TO.P,J8,1*
G04 #@! TO.N,Net-(J8-Pad1)*
X118900000Y-37600000D03*
G04 #@! TD*
G04 #@! TO.P,J9,1*
G04 #@! TO.N,Net-(J9-Pad1)*
X110200000Y-37650000D03*
D10*
G04 #@! TO.P,J9,2*
G04 #@! TO.N,Net-(J9-Pad2)*
X112740000Y-37650000D03*
G04 #@! TD*
D11*
G04 #@! TO.P,J1,1*
G04 #@! TO.N,Net-(J1-Pad1)*
X123550000Y-37500000D03*
D10*
G04 #@! TO.P,J1,2*
G04 #@! TO.N,Net-(J1-Pad2)*
X123550000Y-40040000D03*
G04 #@! TO.P,J1,3*
G04 #@! TO.N,Net-(J1-Pad3)*
X126090000Y-37500000D03*
G04 #@! TO.P,J1,4*
G04 #@! TO.N,Net-(J1-Pad4)*
X126090000Y-40040000D03*
G04 #@! TO.P,J1,5*
G04 #@! TO.N,Net-(J1-Pad5)*
X128630000Y-37500000D03*
G04 #@! TO.P,J1,6*
G04 #@! TO.N,Net-(J1-Pad6)*
X128630000Y-40040000D03*
G04 #@! TO.P,J1,7*
G04 #@! TO.N,Net-(J1-Pad7)*
X131170000Y-37500000D03*
G04 #@! TO.P,J1,8*
G04 #@! TO.N,Net-(J1-Pad8)*
X131170000Y-40040000D03*
G04 #@! TO.P,J1,9*
G04 #@! TO.N,Net-(J1-Pad9)*
X133710000Y-37500000D03*
G04 #@! TO.P,J1,10*
G04 #@! TO.N,Net-(J1-Pad10)*
X133710000Y-40040000D03*
G04 #@! TO.P,J1,11*
G04 #@! TO.N,Net-(J1-Pad11)*
X136250000Y-37500000D03*
G04 #@! TO.P,J1,12*
G04 #@! TO.N,Net-(J1-Pad12)*
X136250000Y-40040000D03*
G04 #@! TD*
D12*
G04 #@! TO.P,R6,2*
G04 #@! TO.N,/Nixie_PSU/180V*
X119550840Y-51800000D03*
G04 #@! TO.P,R6,1*
G04 #@! TO.N,Net-(J1-Pad3)*
X121349160Y-51800000D03*
G04 #@! TD*
G04 #@! TO.P,R5,1*
G04 #@! TO.N,Net-(J1-Pad2)*
X121349160Y-50000000D03*
G04 #@! TO.P,R5,2*
G04 #@! TO.N,/Nixie_PSU/180V*
X119550840Y-50000000D03*
G04 #@! TD*
G04 #@! TO.P,R4,2*
G04 #@! TO.N,/Nixie_PSU/180V*
X119550840Y-48200000D03*
G04 #@! TO.P,R4,1*
G04 #@! TO.N,Net-(J1-Pad1)*
X121349160Y-48200000D03*
G04 #@! TD*
G04 #@! TO.P,R9,1*
G04 #@! TO.N,Net-(J1-Pad6)*
X121349160Y-57200000D03*
G04 #@! TO.P,R9,2*
G04 #@! TO.N,/Nixie_PSU/180V*
X119550840Y-57200000D03*
G04 #@! TD*
G04 #@! TO.P,R8,2*
G04 #@! TO.N,/Nixie_PSU/180V*
X119550840Y-55400000D03*
G04 #@! TO.P,R8,1*
G04 #@! TO.N,Net-(J1-Pad5)*
X121349160Y-55400000D03*
G04 #@! TD*
G04 #@! TO.P,R7,1*
G04 #@! TO.N,Net-(J1-Pad4)*
X121349160Y-53600000D03*
G04 #@! TO.P,R7,2*
G04 #@! TO.N,/Nixie_PSU/180V*
X119550840Y-53600000D03*
G04 #@! TD*
D13*
G04 #@! TO.P,BT1,NEGA*
G04 #@! TO.N,GND*
X95000000Y-44750000D03*
D14*
G04 #@! TO.P,BT1,POSI*
G04 #@! TO.N,+*
X83824000Y-46401000D03*
X83824000Y-43226000D03*
X106176000Y-46274000D03*
X106176000Y-43099000D03*
G04 #@! TD*
D11*
G04 #@! TO.P,J6,1*
G04 #@! TO.N,/DAC2*
X138630000Y-85450000D03*
D10*
G04 #@! TO.P,J6,2*
G04 #@! TO.N,/DAC1*
X136090000Y-85450000D03*
G04 #@! TO.P,J6,3*
G04 #@! TO.N,/ESP32/A9-T8-D33*
X133550000Y-85450000D03*
G04 #@! TO.P,J6,4*
G04 #@! TO.N,/ESP32/A13-D35*
X131010000Y-85450000D03*
G04 #@! TO.P,J6,5*
G04 #@! TO.N,/ESP32/A2-D34*
X128470000Y-85450000D03*
G04 #@! TO.P,J6,6*
G04 #@! TO.N,/ESP32/A3-D39*
X125930000Y-85450000D03*
G04 #@! TO.P,J6,7*
G04 #@! TO.N,/ESP32/A4-D36*
X123390000Y-85450000D03*
G04 #@! TD*
D11*
G04 #@! TO.P,J2,1*
G04 #@! TO.N,/ESP32/MISO-D19*
X100450000Y-85450000D03*
D10*
G04 #@! TO.P,J2,2*
G04 #@! TO.N,/ESP32/MOSI-D18*
X97910000Y-85450000D03*
G04 #@! TO.P,J2,3*
G04 #@! TO.N,/ESP32/SCK-D5*
X95370000Y-85450000D03*
G04 #@! TO.P,J2,4*
G04 #@! TO.N,/ESP32/TX*
X92830000Y-85450000D03*
G04 #@! TO.P,J2,5*
G04 #@! TO.N,/ESP32/RX*
X90290000Y-85450000D03*
G04 #@! TD*
D15*
G04 #@! TO.P,U3,V3*
G04 #@! TO.N,GND*
X85429599Y-68331377D03*
G04 #@! TO.P,U3,V2*
X85429599Y-67581377D03*
G04 #@! TO.P,U3,V1*
X85429599Y-66831377D03*
G04 #@! TD*
D10*
G04 #@! TO.P,J5,2*
G04 #@! TO.N,Net-(J4-Pad1)*
X77679599Y-74291376D03*
D11*
G04 #@! TO.P,J5,1*
G04 #@! TO.N,GND*
X77679599Y-76831376D03*
G04 #@! TD*
D10*
G04 #@! TO.P,J4,2*
G04 #@! TO.N,+12V*
X77679599Y-66041376D03*
D11*
G04 #@! TO.P,J4,1*
G04 #@! TO.N,Net-(J4-Pad1)*
X77679599Y-68581376D03*
G04 #@! TD*
D10*
G04 #@! TO.P,J3,6*
G04 #@! TO.N,GND*
X77679599Y-47381376D03*
G04 #@! TO.P,J3,5*
G04 #@! TO.N,/Nixie_Interface/HDIN*
X77679599Y-49921376D03*
G04 #@! TO.P,J3,4*
G04 #@! TO.N,/Nixie_Interface/~HLE*
X77679599Y-52461376D03*
G04 #@! TO.P,J3,3*
G04 #@! TO.N,/Nixie_Interface/~HBL*
X77679599Y-55001376D03*
G04 #@! TO.P,J3,2*
G04 #@! TO.N,/Nixie_Interface/HCLK*
X77679599Y-57541376D03*
D11*
G04 #@! TO.P,J3,1*
G04 #@! TO.N,+12V*
X77679599Y-60081376D03*
G04 #@! TD*
D16*
G04 #@! TO.N,GND*
X94500000Y-79800000D03*
X137677421Y-44198360D03*
X101525000Y-40125000D03*
X101525000Y-45175000D03*
X81450000Y-80754379D03*
X80382081Y-54958636D03*
X105649481Y-57200000D03*
X105761948Y-55387489D03*
X103000000Y-81424219D03*
X125274219Y-80649160D03*
D17*
X141820000Y-48794000D03*
X141947000Y-50699000D03*
X141947000Y-49810000D03*
X136994000Y-57811000D03*
X137629000Y-72035000D03*
X138264000Y-72162000D03*
X125880000Y-60327000D03*
X125880000Y-59565000D03*
X126515000Y-61851000D03*
X126007000Y-58803000D03*
D16*
X80929599Y-70831376D03*
X82429599Y-70831376D03*
X83429599Y-70581377D03*
X83429599Y-71581376D03*
X125880000Y-61216000D03*
X109800000Y-76250000D03*
X114800000Y-76150000D03*
X114650000Y-68800000D03*
X109600000Y-68700000D03*
X117650000Y-78250000D03*
X88429599Y-63208797D03*
X87429599Y-57800000D03*
X95000000Y-57795000D03*
X95000000Y-67505000D03*
X90200000Y-80300000D03*
X119000000Y-62200000D03*
D17*
X135724000Y-48286000D03*
X134962000Y-48286000D03*
X131406000Y-49975009D03*
X133565000Y-48286000D03*
X134200000Y-48286000D03*
X128612000Y-57811000D03*
X136994000Y-72035000D03*
D16*
X96950000Y-39774992D03*
X87775000Y-45200000D03*
X87775000Y-40125000D03*
X112500000Y-40350000D03*
X116700000Y-40300000D03*
X107750000Y-41950000D03*
X119950000Y-46600000D03*
X120250000Y-40300000D03*
D17*
X129037000Y-47076000D03*
X137248000Y-47016000D03*
G04 #@! TO.N,Net-(RF1-Pad2)*
X135274420Y-55271000D03*
X136232000Y-49810000D03*
D16*
G04 #@! TO.N,+12V*
X91750010Y-59800000D03*
X88900000Y-60100000D03*
G04 #@! TO.N,/Nixie_PSU/180V*
X135250000Y-42900000D03*
X120350000Y-58850000D03*
G04 #@! TO.N,+3V3*
X107500000Y-38950000D03*
X91750010Y-65499160D03*
X89849990Y-65500000D03*
X101699997Y-54200003D03*
X98765010Y-59900000D03*
X98765010Y-65499160D03*
X107900000Y-80250000D03*
X114550000Y-50899826D03*
X108850000Y-50900000D03*
X120100000Y-42050000D03*
X95100000Y-80700000D03*
G04 #@! TO.N,/Nixie_Interface/~HLE*
X83000000Y-59400000D03*
G04 #@! TO.N,/Nixie_Interface/HDIN*
X84200000Y-59400000D03*
G04 #@! TO.N,/ESP32/MISO-D19*
X100800000Y-71260000D03*
X94800000Y-53050000D03*
G04 #@! TO.N,/ESP32/MOSI-D18*
X100800000Y-69990000D03*
X94700000Y-55100000D03*
G04 #@! TO.N,/ESP32/SCK-D5*
X100830000Y-68720000D03*
X94750000Y-54049998D03*
G04 #@! TO.N,/ESP32/A8-D15*
X82306540Y-61893460D03*
X93000000Y-60200000D03*
G04 #@! TO.N,/ESP32/A12-D13*
X115100000Y-57400000D03*
X116445000Y-60349992D03*
G04 #@! TO.N,/Nixie_Interface/CLK*
X84827650Y-53800000D03*
X101100000Y-73800000D03*
G04 #@! TO.N,+*
X90088000Y-78962000D03*
X92600000Y-74300000D03*
X83875000Y-49075000D03*
G04 #@! TO.N,/MCU_Audio/SCL*
X90200000Y-76422000D03*
X91800000Y-73150000D03*
X103100000Y-83000000D03*
X106050000Y-66350000D03*
X104800000Y-53415010D03*
X91500000Y-83100002D03*
G04 #@! TO.N,/MCU_Audio/SDA*
X90150000Y-77700000D03*
X87500000Y-73150000D03*
X102400000Y-82250000D03*
X105080000Y-78880000D03*
X105080000Y-76320008D03*
X105080000Y-65780000D03*
X104000000Y-52600000D03*
X112584990Y-49100000D03*
X115850001Y-49100000D03*
X91517309Y-82175768D03*
G04 #@! TO.N,/DAC1*
X123570000Y-68720000D03*
X109450000Y-49250000D03*
X121476079Y-61815808D03*
X116250000Y-50900000D03*
G04 #@! TO.N,/DAC2*
X123550000Y-67450000D03*
X122250000Y-60900000D03*
G04 #@! TO.N,/ESP32/SD-Select*
X104299996Y-57900000D03*
X108150000Y-65800000D03*
G04 #@! TO.N,AGND*
X121500000Y-43650001D03*
X108600000Y-45500000D03*
G04 #@! TO.N,/ESP32/A6-T6-D14*
X84500000Y-61900000D03*
X102000000Y-62500000D03*
X92300000Y-62599994D03*
X103650000Y-61050000D03*
G04 #@! TO.N,/ESP32/A5-T0-D4*
X83031550Y-53800000D03*
X96550000Y-66550000D03*
G04 #@! TD*
D18*
G04 #@! TO.N,Net-(RF1-Pad2)*
X136232000Y-54313420D02*
X135274420Y-55271000D01*
X136232000Y-49810000D02*
X136232000Y-54313420D01*
D19*
G04 #@! TO.N,+12V*
X89200000Y-59800000D02*
X88900000Y-60100000D01*
X91750010Y-59800000D02*
X89200000Y-59800000D01*
G04 #@! TO.N,/Nixie_PSU/180V*
X119550840Y-57200000D02*
X119550840Y-48200000D01*
X119550840Y-58050840D02*
X119550840Y-57200000D01*
X120350000Y-58850000D02*
X120350000Y-58850000D01*
X125250000Y-45250000D02*
X125250000Y-56100000D01*
X122500000Y-58850000D02*
X120350000Y-58850000D01*
X125250000Y-56100000D02*
X122500000Y-58850000D01*
X127600000Y-42900000D02*
X125250000Y-45250000D01*
X135250000Y-42900000D02*
X127600000Y-42900000D01*
X120350000Y-58850000D02*
X119550840Y-58050840D01*
G04 #@! TO.N,+3V3*
X91750010Y-65499160D02*
X89850830Y-65499160D01*
X89850830Y-65499160D02*
X89849990Y-65500000D01*
X101699997Y-56965013D02*
X99165009Y-59500001D01*
X101699997Y-54200003D02*
X101699997Y-56965013D01*
X99165009Y-59500001D02*
X98765010Y-59900000D01*
X98765010Y-59900000D02*
X98765010Y-60465685D01*
X98765010Y-60465685D02*
X98765010Y-65499160D01*
X108850174Y-50899826D02*
X108850000Y-50900000D01*
X114550000Y-50899826D02*
X108850174Y-50899826D01*
X119700001Y-41650001D02*
X120100000Y-42050000D01*
X117000000Y-38950000D02*
X119700001Y-41650001D01*
X107500000Y-38950000D02*
X117000000Y-38950000D01*
X95499999Y-80300001D02*
X95100000Y-80700000D01*
X107900000Y-80250000D02*
X95550000Y-80250000D01*
X95550000Y-80250000D02*
X95499999Y-80300001D01*
D20*
G04 #@! TO.N,Net-(J1-Pad1)*
X122450000Y-38600000D02*
X122450000Y-47850000D01*
X123550000Y-37500000D02*
X122450000Y-38600000D01*
X122100000Y-48200000D02*
X121349160Y-48200000D01*
X122450000Y-47850000D02*
X122100000Y-48200000D01*
G04 #@! TO.N,Net-(J1-Pad2)*
X121997940Y-50000000D02*
X121349160Y-50000000D01*
X122790010Y-42359990D02*
X122790010Y-49207930D01*
X123550000Y-41600000D02*
X122790010Y-42359990D01*
X122790010Y-49207930D02*
X121997940Y-50000000D01*
X123550000Y-40040000D02*
X123550000Y-41600000D01*
G04 #@! TO.N,Net-(J1-Pad4)*
X123470031Y-52179969D02*
X122050000Y-53600000D01*
X123470031Y-42660817D02*
X123470031Y-52179969D01*
X125240001Y-40890847D02*
X123470031Y-42660817D01*
X125240001Y-40889999D02*
X125240001Y-40890847D01*
X122050000Y-53600000D02*
X121349160Y-53600000D01*
X126090000Y-40040000D02*
X125240001Y-40889999D01*
G04 #@! TO.N,Net-(J1-Pad5)*
X123810039Y-53489961D02*
X121900000Y-55400000D01*
X123810039Y-42809113D02*
X123810039Y-53489961D01*
X126690011Y-41309989D02*
X125309162Y-41309990D01*
X127400000Y-40600000D02*
X126690011Y-41309989D01*
X121900000Y-55400000D02*
X121349160Y-55400000D01*
X127400000Y-38730000D02*
X127400000Y-40600000D01*
X125309162Y-41309990D02*
X123810039Y-42809113D01*
X128630000Y-37500000D02*
X127400000Y-38730000D01*
G04 #@! TO.N,Net-(J1-Pad6)*
X122050000Y-57200000D02*
X121349160Y-57200000D01*
X124150050Y-55099950D02*
X122050000Y-57200000D01*
X125450000Y-41650000D02*
X124150050Y-42949950D01*
X124150050Y-42949950D02*
X124150050Y-55099950D01*
X127020000Y-41650000D02*
X125450000Y-41650000D01*
X128630000Y-40040000D02*
X127020000Y-41650000D01*
G04 #@! TO.N,Net-(J1-Pad3)*
X121349160Y-51800000D02*
X121997940Y-51800000D01*
X124850000Y-40800000D02*
X124850000Y-38740000D01*
X124850000Y-38740000D02*
X126090000Y-37500000D01*
X123130020Y-42519980D02*
X124850000Y-40800000D01*
X123130020Y-50667920D02*
X123130020Y-42519980D01*
X121997940Y-51800000D02*
X123130020Y-50667920D01*
G04 #@! TO.N,/Nixie_Interface/~HLE*
X83000000Y-59400000D02*
X83000000Y-56436410D01*
X83000000Y-56436410D02*
X79024966Y-52461376D01*
X79024966Y-52461376D02*
X78881680Y-52461376D01*
X78881680Y-52461376D02*
X77679599Y-52461376D01*
G04 #@! TO.N,/Nixie_Interface/HDIN*
X84200000Y-57000000D02*
X84200000Y-58834315D01*
X84200000Y-58834315D02*
X84200000Y-59400000D01*
X77679599Y-50479599D02*
X84200000Y-57000000D01*
X77679599Y-49921376D02*
X77679599Y-50479599D01*
G04 #@! TO.N,/ESP32/MISO-D19*
X94800000Y-53050000D02*
X93900000Y-53950000D01*
X93900000Y-53950000D02*
X93900000Y-55350000D01*
X93900000Y-55350000D02*
X97450000Y-58900000D01*
X97450000Y-67910000D02*
X100800000Y-71260000D01*
X97450000Y-58900000D02*
X97450000Y-67910000D01*
G04 #@! TO.N,/ESP32/MOSI-D18*
X100400001Y-69590001D02*
X100800000Y-69990000D01*
X97800000Y-66990000D02*
X100400001Y-69590001D01*
X97800000Y-58200000D02*
X97800000Y-66990000D01*
X94700000Y-55100000D02*
X97800000Y-58200000D01*
G04 #@! TO.N,/ESP32/SCK-D5*
X98150000Y-66040000D02*
X100830000Y-68720000D01*
X98150000Y-57449998D02*
X98150000Y-66040000D01*
X94750000Y-54049998D02*
X98150000Y-57449998D01*
G04 #@! TO.N,/ESP32/A8-D15*
X93000000Y-60200000D02*
X92600000Y-60600000D01*
X92600000Y-60600000D02*
X90600000Y-60600000D01*
X90600000Y-60600000D02*
X90253528Y-60600000D01*
X82306540Y-61893460D02*
X83025001Y-61174999D01*
X89678529Y-61174999D02*
X89900000Y-60953528D01*
X85700000Y-61174999D02*
X89678529Y-61174999D01*
X89900000Y-60953528D02*
X89800000Y-61053528D01*
X90253528Y-60600000D02*
X89900000Y-60953528D01*
X83025001Y-61174999D02*
X85700000Y-61174999D01*
X85700000Y-61174999D02*
X85874999Y-61174999D01*
G04 #@! TO.N,/ESP32/A12-D13*
X115100000Y-57400000D02*
X115100000Y-57400000D01*
X115100000Y-57400000D02*
X116445000Y-58745000D01*
X116445000Y-58745000D02*
X116445000Y-59784307D01*
X116445000Y-59784307D02*
X116445000Y-60349992D01*
G04 #@! TO.N,/Nixie_Interface/CLK*
X100700001Y-72500001D02*
X100700001Y-73400001D01*
X100700001Y-73400001D02*
X101100000Y-73800000D01*
X95749989Y-67549989D02*
X100700001Y-72500001D01*
X95749989Y-60249989D02*
X95749989Y-67549989D01*
X89300000Y-53800000D02*
X95749989Y-60249989D01*
X84827650Y-53800000D02*
X89300000Y-53800000D01*
G04 #@! TO.N,+*
X90088000Y-78962000D02*
X91100000Y-77950000D01*
X91100000Y-77950000D02*
X91100000Y-75050000D01*
X91100000Y-75050000D02*
X91850000Y-74300000D01*
X91850000Y-74300000D02*
X92600000Y-74300000D01*
X92600000Y-74300000D02*
X92600000Y-74300000D01*
D19*
X83824000Y-41388500D02*
X83824000Y-43226000D01*
X106176000Y-46274000D02*
X106176000Y-41401000D01*
X106176000Y-41401000D02*
X103250000Y-38475000D01*
X103250000Y-38475000D02*
X86737500Y-38475000D01*
X86737500Y-38475000D02*
X83824000Y-41388500D01*
X83875000Y-48509315D02*
X83875000Y-49075000D01*
X83824000Y-43099000D02*
X83875000Y-43150000D01*
X83875000Y-43150000D02*
X83875000Y-48509315D01*
D20*
G04 #@! TO.N,/MCU_Audio/SCL*
X90200000Y-75856315D02*
X90200000Y-76422000D01*
X91234315Y-73150000D02*
X90200000Y-74184315D01*
X90200000Y-74184315D02*
X90200000Y-75856315D01*
X91800000Y-73150000D02*
X91234315Y-73150000D01*
X103600000Y-57650000D02*
X104800000Y-56450000D01*
X103600000Y-58250000D02*
X103600000Y-57650000D01*
X106050000Y-66350000D02*
X107650000Y-64750000D01*
X107650000Y-62300000D02*
X103600000Y-58250000D01*
X104800000Y-56450000D02*
X104800000Y-53980695D01*
X104800000Y-53980695D02*
X104800000Y-53415010D01*
X107650000Y-64750000D02*
X107650000Y-62300000D01*
X91600002Y-83000000D02*
X91500000Y-83100002D01*
X103100000Y-83000000D02*
X91600002Y-83000000D01*
G04 #@! TO.N,/MCU_Audio/SDA*
X87500000Y-73150000D02*
X89250000Y-74900000D01*
X89250000Y-76800000D02*
X90150000Y-77700000D01*
X89250000Y-74900000D02*
X89250000Y-76800000D01*
X105080000Y-76320000D02*
X105080000Y-76320000D01*
X105080000Y-78880000D02*
X105080000Y-76320008D01*
X104000000Y-52600000D02*
X104000000Y-52600000D01*
X104000000Y-53150000D02*
X104000000Y-52600000D01*
X107300000Y-62450000D02*
X103259991Y-58409991D01*
X104000000Y-56769154D02*
X104000000Y-53150000D01*
X105610000Y-65250000D02*
X106600000Y-65250000D01*
X103259991Y-58409991D02*
X103259990Y-57509164D01*
X107300000Y-64550000D02*
X107300000Y-62450000D01*
X106600000Y-65250000D02*
X107300000Y-64550000D01*
X103259990Y-57509164D02*
X104000000Y-56769154D01*
X105080000Y-65780000D02*
X105610000Y-65250000D01*
X112584990Y-49100000D02*
X115850001Y-49100000D01*
X91591541Y-82250000D02*
X91517309Y-82175768D01*
X102400000Y-82250000D02*
X91591541Y-82250000D01*
G04 #@! TO.N,/DAC1*
X123570000Y-68720000D02*
X121476079Y-66626079D01*
X121476079Y-62381493D02*
X121476079Y-61815808D01*
X121476079Y-66626079D02*
X121476079Y-62381493D01*
X109450000Y-49250000D02*
X110800000Y-47900000D01*
X110800000Y-47900000D02*
X115595929Y-47900000D01*
X115595929Y-47900000D02*
X116649999Y-48954070D01*
X116649999Y-50500001D02*
X116250000Y-50900000D01*
X116649999Y-48954070D02*
X116649999Y-50500001D01*
G04 #@! TO.N,/DAC2*
X123550000Y-67450000D02*
X122250000Y-66150000D01*
X122250000Y-66150000D02*
X122250000Y-61465685D01*
X122250000Y-61465685D02*
X122250000Y-60900000D01*
G04 #@! TO.N,/ESP32/SD-Select*
X108150000Y-62300000D02*
X108150000Y-65800000D01*
X104299996Y-58449996D02*
X108150000Y-62300000D01*
X104299996Y-57900000D02*
X104299996Y-58449996D01*
D19*
G04 #@! TO.N,AGND*
X119650001Y-45500000D02*
X109165685Y-45500000D01*
X109165685Y-45500000D02*
X108600000Y-45500000D01*
X121500000Y-43650001D02*
X119650001Y-45500000D01*
D20*
G04 #@! TO.N,/ESP32/A6-T6-D14*
X102000000Y-62500000D02*
X102000000Y-62500000D01*
X84500000Y-61900000D02*
X91600006Y-61900000D01*
X91600006Y-61900000D02*
X91900001Y-62199995D01*
X91900001Y-62199995D02*
X92300000Y-62599994D01*
X103450000Y-61050000D02*
X103650000Y-61050000D01*
X102000000Y-62500000D02*
X103450000Y-61050000D01*
G04 #@! TO.N,/ESP32/A5-T0-D4*
X83031550Y-53800000D02*
X83756551Y-53074999D01*
X96550000Y-65984315D02*
X96550000Y-66550000D01*
X83756551Y-53074999D02*
X89211409Y-53074999D01*
X96550000Y-60413590D02*
X96550000Y-65984315D01*
X89211409Y-53074999D02*
X96550000Y-60413590D01*
G04 #@! TD*
D21*
G04 #@! TO.N,GND*
G36*
X86634649Y-34533507D02*
X86833574Y-34666424D01*
X86966493Y-34865352D01*
X87027890Y-35174017D01*
X87104010Y-35556700D01*
X87160660Y-35693466D01*
X87377433Y-36017890D01*
X87482110Y-36122567D01*
X87806531Y-36339337D01*
X87806534Y-36339340D01*
X87903242Y-36379397D01*
X87943299Y-36395990D01*
X87943300Y-36395990D01*
X88325983Y-36472110D01*
X88325988Y-36472110D01*
X88362637Y-36479400D01*
X101437363Y-36479400D01*
X101474012Y-36472110D01*
X101474017Y-36472110D01*
X101856700Y-36395990D01*
X101993466Y-36339340D01*
X102317890Y-36122567D01*
X102422567Y-36017890D01*
X102639337Y-35693469D01*
X102639340Y-35693466D01*
X102695990Y-35556700D01*
X102772110Y-35174017D01*
X102833507Y-34865351D01*
X102966424Y-34666426D01*
X103165352Y-34533507D01*
X103437368Y-34479400D01*
X143983103Y-34479400D01*
X144817972Y-34553910D01*
X145610085Y-34770608D01*
X146351310Y-35124154D01*
X147018211Y-35603371D01*
X147589710Y-36193113D01*
X148047742Y-36874737D01*
X148377829Y-37626696D01*
X148570241Y-38428149D01*
X148620601Y-39113924D01*
X148620600Y-83483104D01*
X148546090Y-84317972D01*
X148329393Y-85110084D01*
X147975846Y-85851309D01*
X147496629Y-86518211D01*
X146906890Y-87089708D01*
X146225264Y-87547741D01*
X145473304Y-87877829D01*
X144671852Y-88070241D01*
X143986090Y-88120600D01*
X123122038Y-88120600D01*
X122497722Y-88047812D01*
X121927757Y-87840925D01*
X121420666Y-87508461D01*
X121003660Y-87068260D01*
X120699110Y-86543939D01*
X120521841Y-85958642D01*
X120479400Y-85483104D01*
X120479400Y-85450000D01*
X122238474Y-85450000D01*
X122326129Y-85890670D01*
X122575748Y-86264252D01*
X122949330Y-86513871D01*
X123278765Y-86579400D01*
X123501235Y-86579400D01*
X123830670Y-86513871D01*
X124204252Y-86264252D01*
X124453871Y-85890670D01*
X124541526Y-85450000D01*
X124778474Y-85450000D01*
X124866129Y-85890670D01*
X125115748Y-86264252D01*
X125489330Y-86513871D01*
X125818765Y-86579400D01*
X126041235Y-86579400D01*
X126370670Y-86513871D01*
X126744252Y-86264252D01*
X126993871Y-85890670D01*
X127081526Y-85450000D01*
X127318474Y-85450000D01*
X127406129Y-85890670D01*
X127655748Y-86264252D01*
X128029330Y-86513871D01*
X128358765Y-86579400D01*
X128581235Y-86579400D01*
X128910670Y-86513871D01*
X129284252Y-86264252D01*
X129533871Y-85890670D01*
X129621526Y-85450000D01*
X129858474Y-85450000D01*
X129946129Y-85890670D01*
X130195748Y-86264252D01*
X130569330Y-86513871D01*
X130898765Y-86579400D01*
X131121235Y-86579400D01*
X131450670Y-86513871D01*
X131824252Y-86264252D01*
X132073871Y-85890670D01*
X132161526Y-85450000D01*
X132398474Y-85450000D01*
X132486129Y-85890670D01*
X132735748Y-86264252D01*
X133109330Y-86513871D01*
X133438765Y-86579400D01*
X133661235Y-86579400D01*
X133990670Y-86513871D01*
X134364252Y-86264252D01*
X134613871Y-85890670D01*
X134701526Y-85450000D01*
X134938474Y-85450000D01*
X135026129Y-85890670D01*
X135275748Y-86264252D01*
X135649330Y-86513871D01*
X135978765Y-86579400D01*
X136201235Y-86579400D01*
X136530670Y-86513871D01*
X136904252Y-86264252D01*
X137153871Y-85890670D01*
X137241526Y-85450000D01*
X137153871Y-85009330D01*
X136904252Y-84635748D01*
X136850752Y-84600000D01*
X137495127Y-84600000D01*
X137495127Y-86300000D01*
X137516812Y-86409016D01*
X137578564Y-86501436D01*
X137670984Y-86563188D01*
X137780000Y-86584873D01*
X139480000Y-86584873D01*
X139589016Y-86563188D01*
X139681436Y-86501436D01*
X139743188Y-86409016D01*
X139764873Y-86300000D01*
X139764873Y-84600000D01*
X139743188Y-84490984D01*
X139681436Y-84398564D01*
X139589016Y-84336812D01*
X139480000Y-84315127D01*
X137780000Y-84315127D01*
X137670984Y-84336812D01*
X137578564Y-84398564D01*
X137516812Y-84490984D01*
X137495127Y-84600000D01*
X136850752Y-84600000D01*
X136530670Y-84386129D01*
X136201235Y-84320600D01*
X135978765Y-84320600D01*
X135649330Y-84386129D01*
X135275748Y-84635748D01*
X135026129Y-85009330D01*
X134938474Y-85450000D01*
X134701526Y-85450000D01*
X134613871Y-85009330D01*
X134364252Y-84635748D01*
X133990670Y-84386129D01*
X133661235Y-84320600D01*
X133438765Y-84320600D01*
X133109330Y-84386129D01*
X132735748Y-84635748D01*
X132486129Y-85009330D01*
X132398474Y-85450000D01*
X132161526Y-85450000D01*
X132073871Y-85009330D01*
X131824252Y-84635748D01*
X131450670Y-84386129D01*
X131121235Y-84320600D01*
X130898765Y-84320600D01*
X130569330Y-84386129D01*
X130195748Y-84635748D01*
X129946129Y-85009330D01*
X129858474Y-85450000D01*
X129621526Y-85450000D01*
X129533871Y-85009330D01*
X129284252Y-84635748D01*
X128910670Y-84386129D01*
X128581235Y-84320600D01*
X128358765Y-84320600D01*
X128029330Y-84386129D01*
X127655748Y-84635748D01*
X127406129Y-85009330D01*
X127318474Y-85450000D01*
X127081526Y-85450000D01*
X126993871Y-85009330D01*
X126744252Y-84635748D01*
X126370670Y-84386129D01*
X126041235Y-84320600D01*
X125818765Y-84320600D01*
X125489330Y-84386129D01*
X125115748Y-84635748D01*
X124866129Y-85009330D01*
X124778474Y-85450000D01*
X124541526Y-85450000D01*
X124453871Y-85009330D01*
X124204252Y-84635748D01*
X123830670Y-84386129D01*
X123501235Y-84320600D01*
X123278765Y-84320600D01*
X122949330Y-84386129D01*
X122575748Y-84635748D01*
X122326129Y-85009330D01*
X122238474Y-85450000D01*
X120479400Y-85450000D01*
X120479400Y-84162637D01*
X120476087Y-84145981D01*
X120430485Y-83635020D01*
X120427342Y-83619908D01*
X120426507Y-83604494D01*
X120415698Y-83558770D01*
X120281602Y-83116020D01*
X142069600Y-83116020D01*
X142069600Y-83883980D01*
X142363486Y-84593484D01*
X142906516Y-85136514D01*
X143616020Y-85430400D01*
X144383980Y-85430400D01*
X145093484Y-85136514D01*
X145636514Y-84593484D01*
X145930400Y-83883980D01*
X145930400Y-83116020D01*
X145636514Y-82406516D01*
X145093484Y-81863486D01*
X144383980Y-81569600D01*
X143616020Y-81569600D01*
X142906516Y-81863486D01*
X142363486Y-82406516D01*
X142069600Y-83116020D01*
X120281602Y-83116020D01*
X120214291Y-82893777D01*
X120206095Y-82874927D01*
X120200290Y-82855204D01*
X120179252Y-82813193D01*
X119830266Y-82212370D01*
X119817955Y-82195914D01*
X119807767Y-82178052D01*
X119777629Y-82142007D01*
X119299784Y-81637583D01*
X119284012Y-81624396D01*
X119269994Y-81609363D01*
X119232372Y-81581218D01*
X118651300Y-81200250D01*
X118632920Y-81191046D01*
X118615816Y-81179639D01*
X118572728Y-81160905D01*
X117919600Y-80923831D01*
X117899598Y-80919103D01*
X117880327Y-80911936D01*
X117834085Y-80903616D01*
X117159065Y-80824917D01*
X117137363Y-80820600D01*
X108290216Y-80820600D01*
X108475967Y-80634849D01*
X108579400Y-80385141D01*
X108579400Y-80114859D01*
X108475967Y-79865151D01*
X108284849Y-79674033D01*
X108035141Y-79570600D01*
X107764859Y-79570600D01*
X107515151Y-79674033D01*
X107468584Y-79720600D01*
X95602136Y-79720600D01*
X95549999Y-79710229D01*
X95497863Y-79720600D01*
X95497862Y-79720600D01*
X95343439Y-79751317D01*
X95168324Y-79868324D01*
X95138790Y-79912525D01*
X95030715Y-80020600D01*
X94964859Y-80020600D01*
X94715151Y-80124033D01*
X94524033Y-80315151D01*
X94420600Y-80564859D01*
X94420600Y-80835141D01*
X94524033Y-81084849D01*
X94715151Y-81275967D01*
X94964859Y-81379400D01*
X95235141Y-81379400D01*
X95484849Y-81275967D01*
X95675967Y-81084849D01*
X95779400Y-80835141D01*
X95779400Y-80779400D01*
X107468584Y-80779400D01*
X107509784Y-80820600D01*
X106862637Y-80820600D01*
X106845981Y-80823913D01*
X106335020Y-80869515D01*
X106319908Y-80872658D01*
X106304494Y-80873493D01*
X106258770Y-80884302D01*
X105593777Y-81085709D01*
X105574927Y-81093905D01*
X105555204Y-81099710D01*
X105513193Y-81120748D01*
X104912370Y-81469734D01*
X104895914Y-81482045D01*
X104878052Y-81492233D01*
X104842007Y-81522371D01*
X104337583Y-82000216D01*
X104324396Y-82015988D01*
X104309363Y-82030006D01*
X104281218Y-82067628D01*
X103900250Y-82648700D01*
X103891046Y-82667080D01*
X103879639Y-82684184D01*
X103860905Y-82727272D01*
X103779400Y-82951815D01*
X103779400Y-82864859D01*
X103675967Y-82615151D01*
X103484849Y-82424033D01*
X103235141Y-82320600D01*
X103079400Y-82320600D01*
X103079400Y-82114859D01*
X102975967Y-81865151D01*
X102784849Y-81674033D01*
X102535141Y-81570600D01*
X102264859Y-81570600D01*
X102015151Y-81674033D01*
X101843584Y-81845600D01*
X92115926Y-81845600D01*
X92093276Y-81790919D01*
X91902158Y-81599801D01*
X91652450Y-81496368D01*
X91382168Y-81496368D01*
X91132460Y-81599801D01*
X90941342Y-81790919D01*
X90837909Y-82040627D01*
X90837909Y-82310909D01*
X90941342Y-82560617D01*
X91009956Y-82629231D01*
X90924033Y-82715153D01*
X90820600Y-82964861D01*
X90820600Y-83235143D01*
X90924033Y-83484851D01*
X91115151Y-83675969D01*
X91364859Y-83779402D01*
X91635141Y-83779402D01*
X91884849Y-83675969D01*
X92075967Y-83484851D01*
X92109291Y-83404400D01*
X102543584Y-83404400D01*
X102715151Y-83575967D01*
X102964859Y-83679400D01*
X103235141Y-83679400D01*
X103484849Y-83575967D01*
X103605528Y-83455288D01*
X103603616Y-83465915D01*
X103524915Y-84140947D01*
X103520601Y-84162637D01*
X103520600Y-85477961D01*
X103447812Y-86102278D01*
X103240925Y-86672243D01*
X102908461Y-87179334D01*
X102468260Y-87596340D01*
X101943939Y-87900890D01*
X101358642Y-88078159D01*
X100883104Y-88120600D01*
X77716896Y-88120600D01*
X76882028Y-88046090D01*
X76089916Y-87829393D01*
X75348691Y-87475846D01*
X74681789Y-86996629D01*
X74110292Y-86406890D01*
X73652259Y-85725264D01*
X73322171Y-84973304D01*
X73129759Y-84171852D01*
X73079400Y-83486090D01*
X73079400Y-83116020D01*
X75769600Y-83116020D01*
X75769600Y-83883980D01*
X76063486Y-84593484D01*
X76606516Y-85136514D01*
X77316020Y-85430400D01*
X78083980Y-85430400D01*
X78519504Y-85250000D01*
X85265127Y-85250000D01*
X85265127Y-86950000D01*
X85286812Y-87059016D01*
X85348564Y-87151436D01*
X85440984Y-87213188D01*
X85550000Y-87234873D01*
X87250000Y-87234873D01*
X87359016Y-87213188D01*
X87451436Y-87151436D01*
X87513188Y-87059016D01*
X87534873Y-86950000D01*
X87534873Y-85450000D01*
X89138474Y-85450000D01*
X89226129Y-85890670D01*
X89475748Y-86264252D01*
X89849330Y-86513871D01*
X90178765Y-86579400D01*
X90401235Y-86579400D01*
X90730670Y-86513871D01*
X91104252Y-86264252D01*
X91353871Y-85890670D01*
X91441526Y-85450000D01*
X91678474Y-85450000D01*
X91766129Y-85890670D01*
X92015748Y-86264252D01*
X92389330Y-86513871D01*
X92718765Y-86579400D01*
X92941235Y-86579400D01*
X93270670Y-86513871D01*
X93644252Y-86264252D01*
X93893871Y-85890670D01*
X93981526Y-85450000D01*
X94218474Y-85450000D01*
X94306129Y-85890670D01*
X94555748Y-86264252D01*
X94929330Y-86513871D01*
X95258765Y-86579400D01*
X95481235Y-86579400D01*
X95810670Y-86513871D01*
X96184252Y-86264252D01*
X96433871Y-85890670D01*
X96521526Y-85450000D01*
X96758474Y-85450000D01*
X96846129Y-85890670D01*
X97095748Y-86264252D01*
X97469330Y-86513871D01*
X97798765Y-86579400D01*
X98021235Y-86579400D01*
X98350670Y-86513871D01*
X98724252Y-86264252D01*
X98973871Y-85890670D01*
X99061526Y-85450000D01*
X98973871Y-85009330D01*
X98724252Y-84635748D01*
X98670752Y-84600000D01*
X99315127Y-84600000D01*
X99315127Y-86300000D01*
X99336812Y-86409016D01*
X99398564Y-86501436D01*
X99490984Y-86563188D01*
X99600000Y-86584873D01*
X101300000Y-86584873D01*
X101409016Y-86563188D01*
X101501436Y-86501436D01*
X101563188Y-86409016D01*
X101584873Y-86300000D01*
X101584873Y-84600000D01*
X101563188Y-84490984D01*
X101501436Y-84398564D01*
X101409016Y-84336812D01*
X101300000Y-84315127D01*
X99600000Y-84315127D01*
X99490984Y-84336812D01*
X99398564Y-84398564D01*
X99336812Y-84490984D01*
X99315127Y-84600000D01*
X98670752Y-84600000D01*
X98350670Y-84386129D01*
X98021235Y-84320600D01*
X97798765Y-84320600D01*
X97469330Y-84386129D01*
X97095748Y-84635748D01*
X96846129Y-85009330D01*
X96758474Y-85450000D01*
X96521526Y-85450000D01*
X96433871Y-85009330D01*
X96184252Y-84635748D01*
X95810670Y-84386129D01*
X95481235Y-84320600D01*
X95258765Y-84320600D01*
X94929330Y-84386129D01*
X94555748Y-84635748D01*
X94306129Y-85009330D01*
X94218474Y-85450000D01*
X93981526Y-85450000D01*
X93893871Y-85009330D01*
X93644252Y-84635748D01*
X93270670Y-84386129D01*
X92941235Y-84320600D01*
X92718765Y-84320600D01*
X92389330Y-84386129D01*
X92015748Y-84635748D01*
X91766129Y-85009330D01*
X91678474Y-85450000D01*
X91441526Y-85450000D01*
X91353871Y-85009330D01*
X91104252Y-84635748D01*
X90730670Y-84386129D01*
X90401235Y-84320600D01*
X90178765Y-84320600D01*
X89849330Y-84386129D01*
X89475748Y-84635748D01*
X89226129Y-85009330D01*
X89138474Y-85450000D01*
X87534873Y-85450000D01*
X87534873Y-85250000D01*
X87513188Y-85140984D01*
X87451436Y-85048564D01*
X87359016Y-84986812D01*
X87250000Y-84965127D01*
X85550000Y-84965127D01*
X85440984Y-84986812D01*
X85348564Y-85048564D01*
X85286812Y-85140984D01*
X85265127Y-85250000D01*
X78519504Y-85250000D01*
X78793484Y-85136514D01*
X79336514Y-84593484D01*
X79630400Y-83883980D01*
X79630400Y-83560000D01*
X85248474Y-83560000D01*
X85336129Y-84000670D01*
X85585748Y-84374252D01*
X85959330Y-84623871D01*
X86288765Y-84689400D01*
X86511235Y-84689400D01*
X86840670Y-84623871D01*
X87214252Y-84374252D01*
X87463871Y-84000670D01*
X87551526Y-83560000D01*
X87463871Y-83119330D01*
X87214252Y-82745748D01*
X86840670Y-82496129D01*
X86511235Y-82430600D01*
X86288765Y-82430600D01*
X85959330Y-82496129D01*
X85585748Y-82745748D01*
X85336129Y-83119330D01*
X85248474Y-83560000D01*
X79630400Y-83560000D01*
X79630400Y-83116020D01*
X79336514Y-82406516D01*
X78793484Y-81863486D01*
X78083980Y-81569600D01*
X77316020Y-81569600D01*
X76606516Y-81863486D01*
X76063486Y-82406516D01*
X75769600Y-83116020D01*
X73079400Y-83116020D01*
X73079400Y-74291376D01*
X76528073Y-74291376D01*
X76615728Y-74732046D01*
X76865347Y-75105628D01*
X77238929Y-75355247D01*
X77568364Y-75420776D01*
X77790834Y-75420776D01*
X78120269Y-75355247D01*
X78493851Y-75105628D01*
X78743470Y-74732046D01*
X78831125Y-74291376D01*
X78743470Y-73850706D01*
X78493851Y-73477124D01*
X78120269Y-73227505D01*
X77790834Y-73161976D01*
X77568364Y-73161976D01*
X77238929Y-73227505D01*
X76865347Y-73477124D01*
X76615728Y-73850706D01*
X76528073Y-74291376D01*
X73079400Y-74291376D01*
X73079400Y-73014859D01*
X86820600Y-73014859D01*
X86820600Y-73285141D01*
X86924033Y-73534849D01*
X87115151Y-73725967D01*
X87364859Y-73829400D01*
X87607493Y-73829400D01*
X88845600Y-75067508D01*
X88845601Y-76760169D01*
X88837678Y-76800000D01*
X88869064Y-76957788D01*
X88869065Y-76957789D01*
X88958445Y-77091556D01*
X88992210Y-77114117D01*
X89470600Y-77592508D01*
X89470600Y-77835141D01*
X89574033Y-78084849D01*
X89765151Y-78275967D01*
X89867012Y-78318159D01*
X89703151Y-78386033D01*
X89512033Y-78577151D01*
X89408600Y-78826859D01*
X89408600Y-79097141D01*
X89512033Y-79346849D01*
X89703151Y-79537967D01*
X89952859Y-79641400D01*
X90223141Y-79641400D01*
X90472849Y-79537967D01*
X90663967Y-79346849D01*
X90767400Y-79097141D01*
X90767400Y-78854507D01*
X91357791Y-78264117D01*
X91391556Y-78241556D01*
X91480936Y-78107789D01*
X91504400Y-77989827D01*
X91504400Y-77989826D01*
X91512322Y-77950001D01*
X91504400Y-77910174D01*
X91504400Y-76930000D01*
X97865127Y-76930000D01*
X97865127Y-78630000D01*
X97886812Y-78739016D01*
X97948564Y-78831436D01*
X98040984Y-78893188D01*
X98150000Y-78914873D01*
X99850000Y-78914873D01*
X99959016Y-78893188D01*
X100051436Y-78831436D01*
X100113188Y-78739016D01*
X100134873Y-78630000D01*
X100134873Y-76930000D01*
X100113188Y-76820984D01*
X100051436Y-76728564D01*
X99959016Y-76666812D01*
X99850000Y-76645127D01*
X98150000Y-76645127D01*
X98040984Y-76666812D01*
X97948564Y-76728564D01*
X97886812Y-76820984D01*
X97865127Y-76930000D01*
X91504400Y-76930000D01*
X91504400Y-75240000D01*
X97848474Y-75240000D01*
X97936129Y-75680670D01*
X98185748Y-76054252D01*
X98559330Y-76303871D01*
X98888765Y-76369400D01*
X99111235Y-76369400D01*
X99440670Y-76303871D01*
X99618772Y-76184867D01*
X104400600Y-76184867D01*
X104400600Y-76455149D01*
X104504033Y-76704857D01*
X104675601Y-76876425D01*
X104675600Y-78323584D01*
X104504033Y-78495151D01*
X104400600Y-78744859D01*
X104400600Y-79015141D01*
X104504033Y-79264849D01*
X104695151Y-79455967D01*
X104944859Y-79559400D01*
X105215141Y-79559400D01*
X105464849Y-79455967D01*
X105655967Y-79264849D01*
X105759400Y-79015141D01*
X105759400Y-78744859D01*
X105655967Y-78495151D01*
X105484400Y-78323584D01*
X105484400Y-76876424D01*
X105655967Y-76704857D01*
X105759400Y-76455149D01*
X105759400Y-76184867D01*
X105655967Y-75935159D01*
X105464849Y-75744041D01*
X105215141Y-75640608D01*
X104944859Y-75640608D01*
X104695151Y-75744041D01*
X104504033Y-75935159D01*
X104400600Y-76184867D01*
X99618772Y-76184867D01*
X99814252Y-76054252D01*
X100063871Y-75680670D01*
X100151526Y-75240000D01*
X100063871Y-74799330D01*
X99814252Y-74425748D01*
X99440670Y-74176129D01*
X99111235Y-74110600D01*
X98888765Y-74110600D01*
X98559330Y-74176129D01*
X98185748Y-74425748D01*
X97936129Y-74799330D01*
X97848474Y-75240000D01*
X91504400Y-75240000D01*
X91504400Y-75217507D01*
X92017508Y-74704400D01*
X92043584Y-74704400D01*
X92215151Y-74875967D01*
X92464859Y-74979400D01*
X92735141Y-74979400D01*
X92984849Y-74875967D01*
X93175967Y-74684849D01*
X93279400Y-74435141D01*
X93279400Y-74164859D01*
X93175967Y-73915151D01*
X92984849Y-73724033D01*
X92735141Y-73620600D01*
X92464859Y-73620600D01*
X92215151Y-73724033D01*
X92043584Y-73895600D01*
X91889825Y-73895600D01*
X91849999Y-73887678D01*
X91810174Y-73895600D01*
X91810173Y-73895600D01*
X91692211Y-73919064D01*
X91558444Y-74008444D01*
X91535883Y-74042209D01*
X90842210Y-74735883D01*
X90808445Y-74758444D01*
X90785885Y-74792208D01*
X90719064Y-74892212D01*
X90687678Y-75050000D01*
X90695601Y-75089831D01*
X90695601Y-75956785D01*
X90604400Y-75865584D01*
X90604400Y-74351822D01*
X91322703Y-73633519D01*
X91415151Y-73725967D01*
X91664859Y-73829400D01*
X91935141Y-73829400D01*
X92184849Y-73725967D01*
X92375967Y-73534849D01*
X92479400Y-73285141D01*
X92479400Y-73014859D01*
X92375967Y-72765151D01*
X92184849Y-72574033D01*
X91935141Y-72470600D01*
X91664859Y-72470600D01*
X91415151Y-72574033D01*
X91248654Y-72740530D01*
X91234314Y-72737678D01*
X91194489Y-72745600D01*
X91194488Y-72745600D01*
X91076526Y-72769064D01*
X90942759Y-72858444D01*
X90920198Y-72892209D01*
X89942212Y-73870196D01*
X89908444Y-73892759D01*
X89846220Y-73985885D01*
X89819064Y-74026527D01*
X89787678Y-74184315D01*
X89795600Y-74224142D01*
X89795601Y-75816484D01*
X89795600Y-75816489D01*
X89795600Y-75865584D01*
X89654400Y-76006784D01*
X89654400Y-74939827D01*
X89662322Y-74900000D01*
X89630936Y-74742211D01*
X89624144Y-74732046D01*
X89541556Y-74608444D01*
X89507791Y-74585883D01*
X88179400Y-73257493D01*
X88179400Y-73014859D01*
X88075967Y-72765151D01*
X87884849Y-72574033D01*
X87635141Y-72470600D01*
X87364859Y-72470600D01*
X87115151Y-72574033D01*
X86924033Y-72765151D01*
X86820600Y-73014859D01*
X73079400Y-73014859D01*
X73079400Y-67731376D01*
X76544726Y-67731376D01*
X76544726Y-69431376D01*
X76566411Y-69540392D01*
X76628163Y-69632812D01*
X76720583Y-69694564D01*
X76829599Y-69716249D01*
X78529599Y-69716249D01*
X78638615Y-69694564D01*
X78731035Y-69632812D01*
X78792787Y-69540392D01*
X78814472Y-69431376D01*
X78814472Y-67731376D01*
X78792787Y-67622360D01*
X78731035Y-67529940D01*
X78638615Y-67468188D01*
X78529599Y-67446503D01*
X76829599Y-67446503D01*
X76720583Y-67468188D01*
X76628163Y-67529940D01*
X76566411Y-67622360D01*
X76544726Y-67731376D01*
X73079400Y-67731376D01*
X73079400Y-66041376D01*
X76528073Y-66041376D01*
X76615728Y-66482046D01*
X76865347Y-66855628D01*
X77238929Y-67105247D01*
X77568364Y-67170776D01*
X77790834Y-67170776D01*
X78120269Y-67105247D01*
X78493851Y-66855628D01*
X78743470Y-66482046D01*
X78831125Y-66041376D01*
X78743470Y-65600706D01*
X78585883Y-65364859D01*
X89170590Y-65364859D01*
X89170590Y-65635141D01*
X89274023Y-65884849D01*
X89465141Y-66075967D01*
X89714849Y-66179400D01*
X89985131Y-66179400D01*
X90234839Y-66075967D01*
X90282246Y-66028560D01*
X91318594Y-66028560D01*
X91365161Y-66075127D01*
X91614869Y-66178560D01*
X91885151Y-66178560D01*
X92134859Y-66075127D01*
X92325977Y-65884009D01*
X92429410Y-65634301D01*
X92429410Y-65364019D01*
X92325977Y-65114311D01*
X92134859Y-64923193D01*
X91885151Y-64819760D01*
X91614869Y-64819760D01*
X91365161Y-64923193D01*
X91318594Y-64969760D01*
X90280566Y-64969760D01*
X90234839Y-64924033D01*
X89985131Y-64820600D01*
X89714849Y-64820600D01*
X89465141Y-64924033D01*
X89274023Y-65115151D01*
X89170590Y-65364859D01*
X78585883Y-65364859D01*
X78493851Y-65227124D01*
X78120269Y-64977505D01*
X77790834Y-64911976D01*
X77568364Y-64911976D01*
X77238929Y-64977505D01*
X76865347Y-65227124D01*
X76615728Y-65600706D01*
X76528073Y-66041376D01*
X73079400Y-66041376D01*
X73079400Y-61758319D01*
X81627140Y-61758319D01*
X81627140Y-62028601D01*
X81730573Y-62278309D01*
X81921691Y-62469427D01*
X82171399Y-62572860D01*
X82441681Y-62572860D01*
X82691389Y-62469427D01*
X82882507Y-62278309D01*
X82985940Y-62028601D01*
X82985940Y-61785968D01*
X83192509Y-61579399D01*
X83897420Y-61579399D01*
X83820600Y-61764859D01*
X83820600Y-62035141D01*
X83924033Y-62284849D01*
X84115151Y-62475967D01*
X84364859Y-62579400D01*
X84635141Y-62579400D01*
X84884849Y-62475967D01*
X85056416Y-62304400D01*
X91432499Y-62304400D01*
X91620600Y-62492502D01*
X91620600Y-62735135D01*
X91724033Y-62984843D01*
X91915151Y-63175961D01*
X92164859Y-63279394D01*
X92435141Y-63279394D01*
X92684849Y-63175961D01*
X92875967Y-62984843D01*
X92979400Y-62735135D01*
X92979400Y-62464853D01*
X92875967Y-62215145D01*
X92684849Y-62024027D01*
X92435141Y-61920594D01*
X92192508Y-61920594D01*
X91914125Y-61642212D01*
X91891562Y-61608444D01*
X91757795Y-61519064D01*
X91639833Y-61495600D01*
X91600006Y-61487678D01*
X91560179Y-61495600D01*
X89926616Y-61495600D01*
X89970085Y-61466555D01*
X89992648Y-61432787D01*
X90214115Y-61211320D01*
X90421036Y-61004400D01*
X92560173Y-61004400D01*
X92600000Y-61012322D01*
X92639827Y-61004400D01*
X92757789Y-60980936D01*
X92891556Y-60891556D01*
X92899678Y-60879400D01*
X93135141Y-60879400D01*
X93384849Y-60775967D01*
X93575967Y-60584849D01*
X93679400Y-60335141D01*
X93679400Y-60064859D01*
X93575967Y-59815151D01*
X93384849Y-59624033D01*
X93135141Y-59520600D01*
X92864859Y-59520600D01*
X92615151Y-59624033D01*
X92429410Y-59809774D01*
X92429410Y-59664859D01*
X92325977Y-59415151D01*
X92134859Y-59224033D01*
X91885151Y-59120600D01*
X91614869Y-59120600D01*
X91365161Y-59224033D01*
X91318594Y-59270600D01*
X89252136Y-59270600D01*
X89199999Y-59260229D01*
X89147862Y-59270600D01*
X88993439Y-59301317D01*
X88818324Y-59418324D01*
X88816803Y-59420600D01*
X88764859Y-59420600D01*
X88515151Y-59524033D01*
X88324033Y-59715151D01*
X88220600Y-59964859D01*
X88220600Y-60235141D01*
X88324033Y-60484849D01*
X88515151Y-60675967D01*
X88743612Y-60770599D01*
X83064826Y-60770599D01*
X83025000Y-60762677D01*
X82985175Y-60770599D01*
X82985174Y-60770599D01*
X82867212Y-60794063D01*
X82733445Y-60883443D01*
X82710885Y-60917207D01*
X82414032Y-61214060D01*
X82171399Y-61214060D01*
X81921691Y-61317493D01*
X81730573Y-61508611D01*
X81627140Y-61758319D01*
X73079400Y-61758319D01*
X73079400Y-59231376D01*
X76544726Y-59231376D01*
X76544726Y-60931376D01*
X76566411Y-61040392D01*
X76628163Y-61132812D01*
X76720583Y-61194564D01*
X76829599Y-61216249D01*
X78529599Y-61216249D01*
X78638615Y-61194564D01*
X78731035Y-61132812D01*
X78792787Y-61040392D01*
X78814472Y-60931376D01*
X78814472Y-59231376D01*
X78792787Y-59122360D01*
X78731035Y-59029940D01*
X78638615Y-58968188D01*
X78529599Y-58946503D01*
X76829599Y-58946503D01*
X76720583Y-58968188D01*
X76628163Y-59029940D01*
X76566411Y-59122360D01*
X76544726Y-59231376D01*
X73079400Y-59231376D01*
X73079400Y-57541376D01*
X76528073Y-57541376D01*
X76615728Y-57982046D01*
X76865347Y-58355628D01*
X77238929Y-58605247D01*
X77568364Y-58670776D01*
X77790834Y-58670776D01*
X78120269Y-58605247D01*
X78493851Y-58355628D01*
X78743470Y-57982046D01*
X78831125Y-57541376D01*
X78743470Y-57100706D01*
X78493851Y-56727124D01*
X78120269Y-56477505D01*
X77790834Y-56411976D01*
X77568364Y-56411976D01*
X77238929Y-56477505D01*
X76865347Y-56727124D01*
X76615728Y-57100706D01*
X76528073Y-57541376D01*
X73079400Y-57541376D01*
X73079400Y-55001376D01*
X76528073Y-55001376D01*
X76615728Y-55442046D01*
X76865347Y-55815628D01*
X77238929Y-56065247D01*
X77568364Y-56130776D01*
X77790834Y-56130776D01*
X78120269Y-56065247D01*
X78493851Y-55815628D01*
X78743470Y-55442046D01*
X78831125Y-55001376D01*
X78743470Y-54560706D01*
X78493851Y-54187124D01*
X78120269Y-53937505D01*
X77790834Y-53871976D01*
X77568364Y-53871976D01*
X77238929Y-53937505D01*
X76865347Y-54187124D01*
X76615728Y-54560706D01*
X76528073Y-55001376D01*
X73079400Y-55001376D01*
X73079400Y-49921376D01*
X76528073Y-49921376D01*
X76615728Y-50362046D01*
X76865347Y-50735628D01*
X77238929Y-50985247D01*
X77568364Y-51050776D01*
X77678869Y-51050776D01*
X78002091Y-51373998D01*
X77790834Y-51331976D01*
X77568364Y-51331976D01*
X77238929Y-51397505D01*
X76865347Y-51647124D01*
X76615728Y-52020706D01*
X76528073Y-52461376D01*
X76615728Y-52902046D01*
X76865347Y-53275628D01*
X77238929Y-53525247D01*
X77568364Y-53590776D01*
X77790834Y-53590776D01*
X78120269Y-53525247D01*
X78493851Y-53275628D01*
X78743470Y-52902046D01*
X78750685Y-52865776D01*
X78857459Y-52865776D01*
X82595601Y-56603919D01*
X82595600Y-58843584D01*
X82424033Y-59015151D01*
X82320600Y-59264859D01*
X82320600Y-59535141D01*
X82424033Y-59784849D01*
X82615151Y-59975967D01*
X82864859Y-60079400D01*
X83135141Y-60079400D01*
X83384849Y-59975967D01*
X83575967Y-59784849D01*
X83600000Y-59726829D01*
X83624033Y-59784849D01*
X83815151Y-59975967D01*
X84064859Y-60079400D01*
X84335141Y-60079400D01*
X84584849Y-59975967D01*
X84775967Y-59784849D01*
X84879400Y-59535141D01*
X84879400Y-59264859D01*
X84775967Y-59015151D01*
X84604400Y-58843584D01*
X84604400Y-57039827D01*
X84612322Y-57000000D01*
X84594111Y-56908444D01*
X84580936Y-56842211D01*
X84491556Y-56708444D01*
X84457792Y-56685884D01*
X81436767Y-53664859D01*
X82352150Y-53664859D01*
X82352150Y-53935141D01*
X82455583Y-54184849D01*
X82646701Y-54375967D01*
X82896409Y-54479400D01*
X83166691Y-54479400D01*
X83416399Y-54375967D01*
X83607517Y-54184849D01*
X83710950Y-53935141D01*
X83710950Y-53692508D01*
X83924059Y-53479399D01*
X84225070Y-53479399D01*
X84148250Y-53664859D01*
X84148250Y-53935141D01*
X84251683Y-54184849D01*
X84442801Y-54375967D01*
X84692509Y-54479400D01*
X84962791Y-54479400D01*
X85212499Y-54375967D01*
X85384066Y-54204400D01*
X89132493Y-54204400D01*
X95345589Y-60417496D01*
X95345590Y-67510157D01*
X95337667Y-67549989D01*
X95369053Y-67707777D01*
X95391623Y-67741555D01*
X95458434Y-67841545D01*
X95492199Y-67864106D01*
X100295601Y-72667509D01*
X100295602Y-73360170D01*
X100287679Y-73400001D01*
X100319065Y-73557789D01*
X100319066Y-73557790D01*
X100408446Y-73691557D01*
X100420600Y-73699678D01*
X100420600Y-73935141D01*
X100524033Y-74184849D01*
X100715151Y-74375967D01*
X100964859Y-74479400D01*
X101235141Y-74479400D01*
X101484849Y-74375967D01*
X101675967Y-74184849D01*
X101779400Y-73935141D01*
X101779400Y-73664859D01*
X101675967Y-73415151D01*
X101484849Y-73224033D01*
X101235141Y-73120600D01*
X101104401Y-73120600D01*
X101104401Y-72539827D01*
X101112323Y-72500000D01*
X101080937Y-72342212D01*
X101025347Y-72259016D01*
X100991557Y-72208445D01*
X100957793Y-72185885D01*
X100711308Y-71939400D01*
X100935141Y-71939400D01*
X101184849Y-71835967D01*
X101375967Y-71644849D01*
X101479400Y-71395141D01*
X101479400Y-71124859D01*
X101375967Y-70875151D01*
X101184849Y-70684033D01*
X101042332Y-70625000D01*
X101184849Y-70565967D01*
X101300816Y-70450000D01*
X123065127Y-70450000D01*
X123065127Y-72150000D01*
X123086812Y-72259016D01*
X123148564Y-72351436D01*
X123240984Y-72413188D01*
X123350000Y-72434873D01*
X125050000Y-72434873D01*
X125159016Y-72413188D01*
X125251436Y-72351436D01*
X125313188Y-72259016D01*
X125334873Y-72150000D01*
X125334873Y-70450000D01*
X125313188Y-70340984D01*
X125251436Y-70248564D01*
X125159016Y-70186812D01*
X125050000Y-70165127D01*
X123350000Y-70165127D01*
X123240984Y-70186812D01*
X123148564Y-70248564D01*
X123086812Y-70340984D01*
X123065127Y-70450000D01*
X101300816Y-70450000D01*
X101375967Y-70374849D01*
X101479400Y-70125141D01*
X101479400Y-69854859D01*
X101375967Y-69605151D01*
X101184849Y-69414033D01*
X101057332Y-69361213D01*
X101214849Y-69295967D01*
X101405967Y-69104849D01*
X101509400Y-68855141D01*
X101509400Y-68584859D01*
X101405967Y-68335151D01*
X101214849Y-68144033D01*
X100965141Y-68040600D01*
X100722508Y-68040600D01*
X98860467Y-66178560D01*
X98900151Y-66178560D01*
X99149859Y-66075127D01*
X99340977Y-65884009D01*
X99444410Y-65634301D01*
X99444410Y-65364019D01*
X99340977Y-65114311D01*
X99294410Y-65067744D01*
X99294410Y-62364859D01*
X101320600Y-62364859D01*
X101320600Y-62635141D01*
X101424033Y-62884849D01*
X101615151Y-63075967D01*
X101864859Y-63179400D01*
X102135141Y-63179400D01*
X102384849Y-63075967D01*
X102575967Y-62884849D01*
X102679400Y-62635141D01*
X102679400Y-62392507D01*
X103392988Y-61678919D01*
X103514859Y-61729400D01*
X103785141Y-61729400D01*
X104034849Y-61625967D01*
X104225967Y-61434849D01*
X104329400Y-61185141D01*
X104329400Y-60914859D01*
X104225967Y-60665151D01*
X104034849Y-60474033D01*
X103785141Y-60370600D01*
X103514859Y-60370600D01*
X103265151Y-60474033D01*
X103074033Y-60665151D01*
X102970600Y-60914859D01*
X102970600Y-60957492D01*
X102107493Y-61820600D01*
X101864859Y-61820600D01*
X101615151Y-61924033D01*
X101424033Y-62115151D01*
X101320600Y-62364859D01*
X99294410Y-62364859D01*
X99294410Y-60331416D01*
X99340977Y-60284849D01*
X99444410Y-60035141D01*
X99444410Y-59969285D01*
X99576218Y-59837477D01*
X99576220Y-59837474D01*
X101904530Y-57509164D01*
X102847668Y-57509164D01*
X102855590Y-57548991D01*
X102855592Y-58370160D01*
X102847669Y-58409991D01*
X102879055Y-58567779D01*
X102905786Y-58607784D01*
X102968436Y-58701547D01*
X103002201Y-58724108D01*
X106895601Y-62617509D01*
X106895600Y-64382492D01*
X106432493Y-64845600D01*
X105649825Y-64845600D01*
X105609999Y-64837678D01*
X105570174Y-64845600D01*
X105570173Y-64845600D01*
X105452211Y-64869064D01*
X105318444Y-64958444D01*
X105295884Y-64992208D01*
X105187492Y-65100600D01*
X104944859Y-65100600D01*
X104695151Y-65204033D01*
X104504033Y-65395151D01*
X104400600Y-65644859D01*
X104400600Y-65915141D01*
X104504033Y-66164849D01*
X104695151Y-66355967D01*
X104944859Y-66459400D01*
X105215141Y-66459400D01*
X105370600Y-66395006D01*
X105370600Y-66485141D01*
X105474033Y-66734849D01*
X105665151Y-66925967D01*
X105914859Y-67029400D01*
X106185141Y-67029400D01*
X106434849Y-66925967D01*
X106625967Y-66734849D01*
X106729400Y-66485141D01*
X106729400Y-66242507D01*
X107745601Y-65226307D01*
X107745601Y-65243583D01*
X107574033Y-65415151D01*
X107470600Y-65664859D01*
X107470600Y-65935141D01*
X107574033Y-66184849D01*
X107765151Y-66375967D01*
X108014859Y-66479400D01*
X108285141Y-66479400D01*
X108534849Y-66375967D01*
X108725967Y-66184849D01*
X108829400Y-65935141D01*
X108829400Y-65664859D01*
X108725967Y-65415151D01*
X108554400Y-65243584D01*
X108554400Y-62339827D01*
X108562322Y-62300000D01*
X108544111Y-62208444D01*
X108530936Y-62142211D01*
X108441556Y-62008444D01*
X108407792Y-61985884D01*
X108102575Y-61680667D01*
X120796679Y-61680667D01*
X120796679Y-61950949D01*
X120900112Y-62200657D01*
X121071679Y-62372224D01*
X121071679Y-62421319D01*
X121071680Y-62421324D01*
X121071679Y-66586252D01*
X121063757Y-66626079D01*
X121080010Y-66707789D01*
X121095143Y-66783867D01*
X121184523Y-66917635D01*
X121218291Y-66940198D01*
X122890600Y-68612508D01*
X122890600Y-68855141D01*
X122994033Y-69104849D01*
X123185151Y-69295967D01*
X123434859Y-69399400D01*
X123705141Y-69399400D01*
X123954849Y-69295967D01*
X124145967Y-69104849D01*
X124249400Y-68855141D01*
X124249400Y-68584859D01*
X124145967Y-68335151D01*
X123954849Y-68144033D01*
X123802332Y-68080858D01*
X123934849Y-68025967D01*
X124125967Y-67834849D01*
X124229400Y-67585141D01*
X124229400Y-67314859D01*
X124125967Y-67065151D01*
X123934849Y-66874033D01*
X123685141Y-66770600D01*
X123442508Y-66770600D01*
X122654400Y-65982493D01*
X122654400Y-64350000D01*
X123265127Y-64350000D01*
X123265127Y-66050000D01*
X123286812Y-66159016D01*
X123348564Y-66251436D01*
X123440984Y-66313188D01*
X123550000Y-66334873D01*
X125250000Y-66334873D01*
X125359016Y-66313188D01*
X125451436Y-66251436D01*
X125513188Y-66159016D01*
X125534873Y-66050000D01*
X125534873Y-64350000D01*
X125513188Y-64240984D01*
X125451436Y-64148564D01*
X125359016Y-64086812D01*
X125250000Y-64065127D01*
X123550000Y-64065127D01*
X123440984Y-64086812D01*
X123348564Y-64148564D01*
X123286812Y-64240984D01*
X123265127Y-64350000D01*
X122654400Y-64350000D01*
X122654400Y-63780388D01*
X134835001Y-63780388D01*
X134859501Y-71800388D01*
X134869167Y-71848601D01*
X134896697Y-71889803D01*
X134937899Y-71917333D01*
X134986500Y-71927000D01*
X147813500Y-71927000D01*
X147862459Y-71917184D01*
X147903576Y-71889528D01*
X147930981Y-71848242D01*
X147940499Y-71799612D01*
X147915999Y-63779612D01*
X147906333Y-63731399D01*
X147878803Y-63690197D01*
X147837601Y-63662667D01*
X147789000Y-63653000D01*
X134962000Y-63653000D01*
X134913041Y-63662816D01*
X134871924Y-63690472D01*
X134844519Y-63731758D01*
X134835001Y-63780388D01*
X122654400Y-63780388D01*
X122654400Y-61456416D01*
X122825967Y-61284849D01*
X122929400Y-61035141D01*
X122929400Y-60764859D01*
X122825967Y-60515151D01*
X122634849Y-60324033D01*
X122385141Y-60220600D01*
X122114859Y-60220600D01*
X121865151Y-60324033D01*
X121674033Y-60515151D01*
X121570600Y-60764859D01*
X121570600Y-61035141D01*
X121612821Y-61137071D01*
X121611220Y-61136408D01*
X121340938Y-61136408D01*
X121091230Y-61239841D01*
X120900112Y-61430959D01*
X120796679Y-61680667D01*
X108102575Y-61680667D01*
X104791360Y-58369452D01*
X104875963Y-58284849D01*
X104979396Y-58035141D01*
X104979396Y-57764859D01*
X104875963Y-57515151D01*
X104684845Y-57324033D01*
X104552637Y-57269270D01*
X104557048Y-57264859D01*
X114420600Y-57264859D01*
X114420600Y-57535141D01*
X114524033Y-57784849D01*
X114715151Y-57975967D01*
X114964859Y-58079400D01*
X115207493Y-58079400D01*
X116040600Y-58912508D01*
X116040601Y-59744476D01*
X116040600Y-59744481D01*
X116040600Y-59793576D01*
X115869033Y-59965143D01*
X115765600Y-60214851D01*
X115765600Y-60485133D01*
X115869033Y-60734841D01*
X116060151Y-60925959D01*
X116309859Y-61029392D01*
X116580141Y-61029392D01*
X116829849Y-60925959D01*
X117020967Y-60734841D01*
X117124400Y-60485133D01*
X117124400Y-60214851D01*
X117020967Y-59965143D01*
X116849400Y-59793576D01*
X116849400Y-58784825D01*
X116857322Y-58744999D01*
X116848679Y-58701547D01*
X116825936Y-58587211D01*
X116736556Y-58453444D01*
X116702791Y-58430883D01*
X115779400Y-57507493D01*
X115779400Y-57264859D01*
X115675967Y-57015151D01*
X115484849Y-56824033D01*
X115235141Y-56720600D01*
X114964859Y-56720600D01*
X114715151Y-56824033D01*
X114524033Y-57015151D01*
X114420600Y-57264859D01*
X104557048Y-57264859D01*
X105057791Y-56764117D01*
X105091556Y-56741556D01*
X105180936Y-56607789D01*
X105204400Y-56489827D01*
X105204400Y-56489826D01*
X105212322Y-56450001D01*
X105204400Y-56410175D01*
X105204400Y-53971426D01*
X105375967Y-53799859D01*
X105479400Y-53550151D01*
X105479400Y-53279869D01*
X105375967Y-53030161D01*
X105184849Y-52839043D01*
X104935141Y-52735610D01*
X104679206Y-52735610D01*
X104679400Y-52735141D01*
X104679400Y-52464859D01*
X104575967Y-52215151D01*
X104384849Y-52024033D01*
X104135141Y-51920600D01*
X103864859Y-51920600D01*
X103615151Y-52024033D01*
X103424033Y-52215151D01*
X103320600Y-52464859D01*
X103320600Y-52735141D01*
X103424033Y-52984849D01*
X103595600Y-53156416D01*
X103595600Y-53189826D01*
X103595601Y-53189831D01*
X103595600Y-56601646D01*
X103002199Y-57195048D01*
X102968434Y-57217609D01*
X102897324Y-57324033D01*
X102879054Y-57351376D01*
X102847668Y-57509164D01*
X101904530Y-57509164D01*
X102037472Y-57376223D01*
X102081673Y-57346689D01*
X102198680Y-57171574D01*
X102229397Y-57017151D01*
X102239768Y-56965014D01*
X102229397Y-56912877D01*
X102229397Y-54631419D01*
X102275964Y-54584852D01*
X102379397Y-54335144D01*
X102379397Y-54064862D01*
X102275964Y-53815154D01*
X102084846Y-53624036D01*
X101835138Y-53520603D01*
X101564856Y-53520603D01*
X101315148Y-53624036D01*
X101124030Y-53815154D01*
X101020597Y-54064862D01*
X101020597Y-54335144D01*
X101124030Y-54584852D01*
X101170597Y-54631419D01*
X101170598Y-56745727D01*
X98827536Y-59088790D01*
X98827533Y-59088792D01*
X98695725Y-59220600D01*
X98629869Y-59220600D01*
X98554400Y-59251860D01*
X98554400Y-57489824D01*
X98562322Y-57449997D01*
X98530936Y-57292209D01*
X98504161Y-57252137D01*
X98441556Y-57158442D01*
X98407791Y-57135882D01*
X95429400Y-54157491D01*
X95429400Y-53914857D01*
X95325967Y-53665149D01*
X95235817Y-53574999D01*
X95375967Y-53434849D01*
X95479400Y-53185141D01*
X95479400Y-52914859D01*
X95375967Y-52665151D01*
X95184849Y-52474033D01*
X94935141Y-52370600D01*
X94664859Y-52370600D01*
X94415151Y-52474033D01*
X94224033Y-52665151D01*
X94120600Y-52914859D01*
X94120600Y-53157492D01*
X93642212Y-53635881D01*
X93608444Y-53658444D01*
X93526210Y-53781517D01*
X93519064Y-53792212D01*
X93487678Y-53950000D01*
X93495600Y-53989827D01*
X93495601Y-55310169D01*
X93487678Y-55350000D01*
X93519064Y-55507788D01*
X93519065Y-55507789D01*
X93608445Y-55641556D01*
X93642210Y-55664117D01*
X97045600Y-59067508D01*
X97045601Y-66084785D01*
X96954400Y-65993584D01*
X96954400Y-60453417D01*
X96962322Y-60413590D01*
X96930936Y-60255801D01*
X96841556Y-60122034D01*
X96807789Y-60099472D01*
X89525528Y-52817211D01*
X89502965Y-52783443D01*
X89369198Y-52694063D01*
X89251236Y-52670599D01*
X89211409Y-52662677D01*
X89171582Y-52670599D01*
X83796376Y-52670599D01*
X83756550Y-52662677D01*
X83716725Y-52670599D01*
X83716724Y-52670599D01*
X83598762Y-52694063D01*
X83464995Y-52783443D01*
X83442434Y-52817208D01*
X83139042Y-53120600D01*
X82896409Y-53120600D01*
X82646701Y-53224033D01*
X82455583Y-53415151D01*
X82352150Y-53664859D01*
X81436767Y-53664859D01*
X78536767Y-50764859D01*
X108170600Y-50764859D01*
X108170600Y-51035141D01*
X108274033Y-51284849D01*
X108465151Y-51475967D01*
X108714859Y-51579400D01*
X108985141Y-51579400D01*
X109234849Y-51475967D01*
X109281590Y-51429226D01*
X114118584Y-51429226D01*
X114165151Y-51475793D01*
X114414859Y-51579226D01*
X114685141Y-51579226D01*
X114934849Y-51475793D01*
X115125967Y-51284675D01*
X115229400Y-51034967D01*
X115229400Y-50764685D01*
X115125967Y-50514977D01*
X114934849Y-50323859D01*
X114685141Y-50220426D01*
X114414859Y-50220426D01*
X114165151Y-50323859D01*
X114118584Y-50370426D01*
X109281242Y-50370426D01*
X109234849Y-50324033D01*
X108985141Y-50220600D01*
X108714859Y-50220600D01*
X108465151Y-50324033D01*
X108274033Y-50515151D01*
X108170600Y-50764859D01*
X78536767Y-50764859D01*
X78499332Y-50727425D01*
X78743470Y-50362046D01*
X78831125Y-49921376D01*
X78743470Y-49480706D01*
X78493851Y-49107124D01*
X78120269Y-48857505D01*
X77790834Y-48791976D01*
X77568364Y-48791976D01*
X77238929Y-48857505D01*
X76865347Y-49107124D01*
X76615728Y-49480706D01*
X76528073Y-49921376D01*
X73079400Y-49921376D01*
X73079400Y-42526917D01*
X82528600Y-42526917D01*
X82528600Y-43925084D01*
X82603760Y-44302940D01*
X82890070Y-44731431D01*
X83012895Y-44813500D01*
X82890070Y-44895569D01*
X82603760Y-45324060D01*
X82528600Y-45701916D01*
X82528600Y-47100083D01*
X82603760Y-47477939D01*
X82890069Y-47906431D01*
X83318560Y-48192740D01*
X83345601Y-48198119D01*
X83345601Y-48457173D01*
X83345600Y-48457178D01*
X83345600Y-48643584D01*
X83299033Y-48690151D01*
X83195600Y-48939859D01*
X83195600Y-49210141D01*
X83299033Y-49459849D01*
X83490151Y-49650967D01*
X83739859Y-49754400D01*
X84010141Y-49754400D01*
X84259849Y-49650967D01*
X84450967Y-49459849D01*
X84554400Y-49210141D01*
X84554400Y-49114859D01*
X108770600Y-49114859D01*
X108770600Y-49385141D01*
X108874033Y-49634849D01*
X109065151Y-49825967D01*
X109314859Y-49929400D01*
X109585141Y-49929400D01*
X109834849Y-49825967D01*
X110025967Y-49634849D01*
X110129400Y-49385141D01*
X110129400Y-49142507D01*
X110967508Y-48304400D01*
X115428422Y-48304400D01*
X115594484Y-48470462D01*
X115465152Y-48524033D01*
X115293585Y-48695600D01*
X113141406Y-48695600D01*
X112969839Y-48524033D01*
X112720131Y-48420600D01*
X112449849Y-48420600D01*
X112200141Y-48524033D01*
X112009023Y-48715151D01*
X111905590Y-48964859D01*
X111905590Y-49235141D01*
X112009023Y-49484849D01*
X112200141Y-49675967D01*
X112449849Y-49779400D01*
X112720131Y-49779400D01*
X112969839Y-49675967D01*
X113141406Y-49504400D01*
X115293585Y-49504400D01*
X115465152Y-49675967D01*
X115714860Y-49779400D01*
X115985142Y-49779400D01*
X116234850Y-49675967D01*
X116245599Y-49665218D01*
X116245600Y-50220600D01*
X116114859Y-50220600D01*
X115865151Y-50324033D01*
X115674033Y-50515151D01*
X115570600Y-50764859D01*
X115570600Y-51035141D01*
X115674033Y-51284849D01*
X115865151Y-51475967D01*
X116114859Y-51579400D01*
X116385141Y-51579400D01*
X116634849Y-51475967D01*
X116825967Y-51284849D01*
X116929400Y-51035141D01*
X116929400Y-50799679D01*
X116941555Y-50791557D01*
X117030935Y-50657790D01*
X117034993Y-50637387D01*
X117062321Y-50500002D01*
X117054399Y-50460175D01*
X117054399Y-48993896D01*
X117062321Y-48954069D01*
X117030935Y-48796281D01*
X116977210Y-48715876D01*
X116941555Y-48662514D01*
X116907790Y-48639953D01*
X115910048Y-47642212D01*
X115887485Y-47608444D01*
X115875686Y-47600560D01*
X118867187Y-47600560D01*
X118867187Y-48799440D01*
X118888872Y-48908456D01*
X118950624Y-49000876D01*
X119021441Y-49048194D01*
X119021441Y-49151806D01*
X118950624Y-49199124D01*
X118888872Y-49291544D01*
X118867187Y-49400560D01*
X118867187Y-50599440D01*
X118888872Y-50708456D01*
X118950624Y-50800876D01*
X119021441Y-50848193D01*
X119021441Y-50951807D01*
X118950624Y-50999124D01*
X118888872Y-51091544D01*
X118867187Y-51200560D01*
X118867187Y-52399440D01*
X118888872Y-52508456D01*
X118950624Y-52600876D01*
X119021441Y-52648193D01*
X119021440Y-52751807D01*
X118950624Y-52799124D01*
X118888872Y-52891544D01*
X118867187Y-53000560D01*
X118867187Y-54199440D01*
X118888872Y-54308456D01*
X118950624Y-54400876D01*
X119021440Y-54448193D01*
X119021440Y-54551807D01*
X118950624Y-54599124D01*
X118888872Y-54691544D01*
X118867187Y-54800560D01*
X118867187Y-55999440D01*
X118888872Y-56108456D01*
X118950624Y-56200876D01*
X119021440Y-56248193D01*
X119021440Y-56351807D01*
X118950624Y-56399124D01*
X118888872Y-56491544D01*
X118867187Y-56600560D01*
X118867187Y-57799440D01*
X118888872Y-57908456D01*
X118950624Y-58000876D01*
X119012750Y-58042387D01*
X119011069Y-58050840D01*
X119021440Y-58102977D01*
X119052157Y-58257400D01*
X119169164Y-58432516D01*
X119213367Y-58462051D01*
X119670600Y-58919285D01*
X119670600Y-58985141D01*
X119774033Y-59234849D01*
X119965151Y-59425967D01*
X120214859Y-59529400D01*
X120485141Y-59529400D01*
X120734849Y-59425967D01*
X120781416Y-59379400D01*
X122447863Y-59379400D01*
X122500000Y-59389771D01*
X122552137Y-59379400D01*
X122552138Y-59379400D01*
X122706561Y-59348683D01*
X122881676Y-59231676D01*
X122911212Y-59187472D01*
X125587475Y-56511210D01*
X125631676Y-56481676D01*
X125748683Y-56306561D01*
X125779400Y-56152138D01*
X125789771Y-56100001D01*
X125779400Y-56047864D01*
X125779400Y-55271000D01*
X134581710Y-55271000D01*
X134634439Y-55536088D01*
X134784601Y-55760819D01*
X135009332Y-55910981D01*
X135274420Y-55963710D01*
X135539508Y-55910981D01*
X135707513Y-55798723D01*
X136665090Y-54841146D01*
X136721820Y-54803240D01*
X136871981Y-54578509D01*
X136911400Y-54380334D01*
X136924710Y-54313420D01*
X136911400Y-54246506D01*
X136911400Y-49743086D01*
X136871981Y-49544911D01*
X136721819Y-49320180D01*
X136497088Y-49170019D01*
X136232000Y-49117290D01*
X135966911Y-49170019D01*
X135742180Y-49320181D01*
X135592019Y-49544912D01*
X135552600Y-49743087D01*
X135552601Y-54032003D01*
X134746697Y-54837907D01*
X134634439Y-55005912D01*
X134581710Y-55271000D01*
X125779400Y-55271000D01*
X125779400Y-45469284D01*
X127819285Y-43429400D01*
X134818584Y-43429400D01*
X134865151Y-43475967D01*
X135114859Y-43579400D01*
X135385141Y-43579400D01*
X135634849Y-43475967D01*
X135825967Y-43284849D01*
X135929400Y-43035141D01*
X135929400Y-42764859D01*
X135825967Y-42515151D01*
X135634849Y-42324033D01*
X135385141Y-42220600D01*
X135114859Y-42220600D01*
X134865151Y-42324033D01*
X134818584Y-42370600D01*
X127652137Y-42370600D01*
X127600000Y-42360229D01*
X127547863Y-42370600D01*
X127547862Y-42370600D01*
X127393439Y-42401317D01*
X127218324Y-42518324D01*
X127188790Y-42562525D01*
X124912528Y-44838788D01*
X124868324Y-44868324D01*
X124751317Y-45043440D01*
X124727629Y-45162525D01*
X124710229Y-45250000D01*
X124720600Y-45302137D01*
X124720601Y-55880714D01*
X122280716Y-58320600D01*
X120781416Y-58320600D01*
X120734849Y-58274033D01*
X120485141Y-58170600D01*
X120419285Y-58170600D01*
X120190511Y-57941827D01*
X120212808Y-57908456D01*
X120234493Y-57799440D01*
X120234493Y-56600560D01*
X120212808Y-56491544D01*
X120151056Y-56399124D01*
X120080240Y-56351807D01*
X120080240Y-56248193D01*
X120151056Y-56200876D01*
X120212808Y-56108456D01*
X120234493Y-55999440D01*
X120234493Y-54800560D01*
X120212808Y-54691544D01*
X120151056Y-54599124D01*
X120080240Y-54551807D01*
X120080240Y-54448193D01*
X120151056Y-54400876D01*
X120212808Y-54308456D01*
X120234493Y-54199440D01*
X120234493Y-53000560D01*
X120212808Y-52891544D01*
X120151056Y-52799124D01*
X120080240Y-52751807D01*
X120080240Y-52648193D01*
X120151056Y-52600876D01*
X120212808Y-52508456D01*
X120234493Y-52399440D01*
X120234493Y-51200560D01*
X120212808Y-51091544D01*
X120151056Y-50999124D01*
X120080240Y-50951807D01*
X120080240Y-50848193D01*
X120151056Y-50800876D01*
X120212808Y-50708456D01*
X120234493Y-50599440D01*
X120234493Y-49400560D01*
X120212808Y-49291544D01*
X120151056Y-49199124D01*
X120080240Y-49151807D01*
X120080240Y-49048193D01*
X120151056Y-49000876D01*
X120212808Y-48908456D01*
X120234493Y-48799440D01*
X120234493Y-47600560D01*
X120212808Y-47491544D01*
X120151056Y-47399124D01*
X120058636Y-47337372D01*
X119949620Y-47315687D01*
X119152060Y-47315687D01*
X119043044Y-47337372D01*
X118950624Y-47399124D01*
X118888872Y-47491544D01*
X118867187Y-47600560D01*
X115875686Y-47600560D01*
X115753718Y-47519064D01*
X115635756Y-47495600D01*
X115595929Y-47487678D01*
X115556102Y-47495600D01*
X110839825Y-47495600D01*
X110799999Y-47487678D01*
X110760174Y-47495600D01*
X110760173Y-47495600D01*
X110642211Y-47519064D01*
X110508444Y-47608444D01*
X110485883Y-47642209D01*
X109557493Y-48570600D01*
X109314859Y-48570600D01*
X109065151Y-48674033D01*
X108874033Y-48865151D01*
X108770600Y-49114859D01*
X84554400Y-49114859D01*
X84554400Y-48939859D01*
X84450967Y-48690151D01*
X84404400Y-48643584D01*
X84404400Y-48142653D01*
X84757931Y-47906431D01*
X85044240Y-47477940D01*
X85119400Y-47100084D01*
X85119400Y-45701916D01*
X85044240Y-45324060D01*
X84757931Y-44895569D01*
X84635106Y-44813500D01*
X84757931Y-44731431D01*
X85044240Y-44302940D01*
X85119400Y-43925084D01*
X85119400Y-42526916D01*
X85044240Y-42149060D01*
X84757931Y-41720569D01*
X84447823Y-41513361D01*
X86956785Y-39004400D01*
X103030716Y-39004400D01*
X105468552Y-41442237D01*
X105242069Y-41593569D01*
X104955760Y-42022061D01*
X104880600Y-42399917D01*
X104880600Y-43798084D01*
X104955760Y-44175940D01*
X105242070Y-44604431D01*
X105364895Y-44686500D01*
X105242070Y-44768569D01*
X104955760Y-45197060D01*
X104880600Y-45574916D01*
X104880600Y-46973083D01*
X104955760Y-47350939D01*
X105242069Y-47779431D01*
X105670560Y-48065740D01*
X106176000Y-48166278D01*
X106681439Y-48065740D01*
X107109931Y-47779431D01*
X107396240Y-47350940D01*
X107471400Y-46973084D01*
X107471400Y-45574916D01*
X107429618Y-45364859D01*
X107920600Y-45364859D01*
X107920600Y-45635141D01*
X108024033Y-45884849D01*
X108215151Y-46075967D01*
X108464859Y-46179400D01*
X108735141Y-46179400D01*
X108984849Y-46075967D01*
X109031416Y-46029400D01*
X119597864Y-46029400D01*
X119650001Y-46039771D01*
X119702138Y-46029400D01*
X119702139Y-46029400D01*
X119856562Y-45998683D01*
X120031677Y-45881676D01*
X120061213Y-45837472D01*
X121569284Y-44329401D01*
X121635141Y-44329401D01*
X121884849Y-44225968D01*
X122045601Y-44065216D01*
X122045601Y-47682491D01*
X122032813Y-47695279D01*
X122032813Y-47600560D01*
X122011128Y-47491544D01*
X121949376Y-47399124D01*
X121856956Y-47337372D01*
X121747940Y-47315687D01*
X120950380Y-47315687D01*
X120841364Y-47337372D01*
X120748944Y-47399124D01*
X120687192Y-47491544D01*
X120665507Y-47600560D01*
X120665507Y-48799440D01*
X120687192Y-48908456D01*
X120748944Y-49000876D01*
X120841364Y-49062628D01*
X120950380Y-49084313D01*
X121747940Y-49084313D01*
X121856956Y-49062628D01*
X121949376Y-49000876D01*
X122011128Y-48908456D01*
X122032813Y-48799440D01*
X122032813Y-48604400D01*
X122060173Y-48604400D01*
X122100000Y-48612322D01*
X122139827Y-48604400D01*
X122257789Y-48580936D01*
X122385611Y-48495528D01*
X122385611Y-49040421D01*
X122031595Y-49394437D01*
X122011128Y-49291544D01*
X121949376Y-49199124D01*
X121856956Y-49137372D01*
X121747940Y-49115687D01*
X120950380Y-49115687D01*
X120841364Y-49137372D01*
X120748944Y-49199124D01*
X120687192Y-49291544D01*
X120665507Y-49400560D01*
X120665507Y-50599440D01*
X120687192Y-50708456D01*
X120748944Y-50800876D01*
X120841364Y-50862628D01*
X120950380Y-50884313D01*
X121747940Y-50884313D01*
X121856956Y-50862628D01*
X121949376Y-50800876D01*
X122011128Y-50708456D01*
X122032813Y-50599440D01*
X122032813Y-50405385D01*
X122037767Y-50404400D01*
X122155729Y-50380936D01*
X122289496Y-50291556D01*
X122312059Y-50257788D01*
X122725620Y-49844227D01*
X122725620Y-50500412D01*
X122031595Y-51194438D01*
X122011128Y-51091544D01*
X121949376Y-50999124D01*
X121856956Y-50937372D01*
X121747940Y-50915687D01*
X120950380Y-50915687D01*
X120841364Y-50937372D01*
X120748944Y-50999124D01*
X120687192Y-51091544D01*
X120665507Y-51200560D01*
X120665507Y-52399440D01*
X120687192Y-52508456D01*
X120748944Y-52600876D01*
X120841364Y-52662628D01*
X120950380Y-52684313D01*
X121747940Y-52684313D01*
X121856956Y-52662628D01*
X121949376Y-52600876D01*
X122011128Y-52508456D01*
X122032813Y-52399440D01*
X122032813Y-52205385D01*
X122037767Y-52204400D01*
X122155729Y-52180936D01*
X122289496Y-52091556D01*
X122312059Y-52057788D01*
X123065632Y-51304216D01*
X123065632Y-52012460D01*
X122032813Y-53045280D01*
X122032813Y-53000560D01*
X122011128Y-52891544D01*
X121949376Y-52799124D01*
X121856956Y-52737372D01*
X121747940Y-52715687D01*
X120950380Y-52715687D01*
X120841364Y-52737372D01*
X120748944Y-52799124D01*
X120687192Y-52891544D01*
X120665507Y-53000560D01*
X120665507Y-54199440D01*
X120687192Y-54308456D01*
X120748944Y-54400876D01*
X120841364Y-54462628D01*
X120950380Y-54484313D01*
X121747940Y-54484313D01*
X121856956Y-54462628D01*
X121949376Y-54400876D01*
X122011128Y-54308456D01*
X122032813Y-54199440D01*
X122032813Y-54008903D01*
X122050000Y-54012322D01*
X122089827Y-54004400D01*
X122207789Y-53980936D01*
X122341556Y-53891556D01*
X122364119Y-53857788D01*
X123405640Y-52816268D01*
X123405640Y-53322452D01*
X122015346Y-54712747D01*
X122011128Y-54691544D01*
X121949376Y-54599124D01*
X121856956Y-54537372D01*
X121747940Y-54515687D01*
X120950380Y-54515687D01*
X120841364Y-54537372D01*
X120748944Y-54599124D01*
X120687192Y-54691544D01*
X120665507Y-54800560D01*
X120665507Y-55999440D01*
X120687192Y-56108456D01*
X120748944Y-56200876D01*
X120841364Y-56262628D01*
X120950380Y-56284313D01*
X121747940Y-56284313D01*
X121856956Y-56262628D01*
X121949376Y-56200876D01*
X122011128Y-56108456D01*
X122032813Y-55999440D01*
X122032813Y-55785904D01*
X122057789Y-55780936D01*
X122191556Y-55691556D01*
X122214119Y-55657788D01*
X123745651Y-54126257D01*
X123745651Y-54932441D01*
X122032813Y-56645280D01*
X122032813Y-56600560D01*
X122011128Y-56491544D01*
X121949376Y-56399124D01*
X121856956Y-56337372D01*
X121747940Y-56315687D01*
X120950380Y-56315687D01*
X120841364Y-56337372D01*
X120748944Y-56399124D01*
X120687192Y-56491544D01*
X120665507Y-56600560D01*
X120665507Y-57799440D01*
X120687192Y-57908456D01*
X120748944Y-58000876D01*
X120841364Y-58062628D01*
X120950380Y-58084313D01*
X121747940Y-58084313D01*
X121856956Y-58062628D01*
X121949376Y-58000876D01*
X122011128Y-57908456D01*
X122032813Y-57799440D01*
X122032813Y-57608903D01*
X122050000Y-57612322D01*
X122089827Y-57604400D01*
X122207789Y-57580936D01*
X122341556Y-57491556D01*
X122364119Y-57457788D01*
X124407841Y-55414067D01*
X124441606Y-55391506D01*
X124530986Y-55257739D01*
X124554450Y-55139777D01*
X124554450Y-55139776D01*
X124562372Y-55099951D01*
X124554450Y-55060125D01*
X124554450Y-43117457D01*
X125617507Y-42054400D01*
X126980173Y-42054400D01*
X127020000Y-42062322D01*
X127059827Y-42054400D01*
X127177789Y-42030936D01*
X127311556Y-41941556D01*
X127334119Y-41907788D01*
X128158582Y-41083326D01*
X128189330Y-41103871D01*
X128518765Y-41169400D01*
X128741235Y-41169400D01*
X129070670Y-41103871D01*
X129444252Y-40854252D01*
X129693871Y-40480670D01*
X129781526Y-40040000D01*
X130018474Y-40040000D01*
X130106129Y-40480670D01*
X130355748Y-40854252D01*
X130729330Y-41103871D01*
X131058765Y-41169400D01*
X131281235Y-41169400D01*
X131610670Y-41103871D01*
X131984252Y-40854252D01*
X132233871Y-40480670D01*
X132321526Y-40040000D01*
X132558474Y-40040000D01*
X132646129Y-40480670D01*
X132895748Y-40854252D01*
X133269330Y-41103871D01*
X133598765Y-41169400D01*
X133821235Y-41169400D01*
X134150670Y-41103871D01*
X134524252Y-40854252D01*
X134773871Y-40480670D01*
X134861526Y-40040000D01*
X135098474Y-40040000D01*
X135186129Y-40480670D01*
X135435748Y-40854252D01*
X135809330Y-41103871D01*
X136138765Y-41169400D01*
X136361235Y-41169400D01*
X136690670Y-41103871D01*
X137064252Y-40854252D01*
X137313871Y-40480670D01*
X137401526Y-40040000D01*
X137313871Y-39599330D01*
X137064252Y-39225748D01*
X136690670Y-38976129D01*
X136361235Y-38910600D01*
X136138765Y-38910600D01*
X135809330Y-38976129D01*
X135435748Y-39225748D01*
X135186129Y-39599330D01*
X135098474Y-40040000D01*
X134861526Y-40040000D01*
X134773871Y-39599330D01*
X134524252Y-39225748D01*
X134150670Y-38976129D01*
X133821235Y-38910600D01*
X133598765Y-38910600D01*
X133269330Y-38976129D01*
X132895748Y-39225748D01*
X132646129Y-39599330D01*
X132558474Y-40040000D01*
X132321526Y-40040000D01*
X132233871Y-39599330D01*
X131984252Y-39225748D01*
X131610670Y-38976129D01*
X131281235Y-38910600D01*
X131058765Y-38910600D01*
X130729330Y-38976129D01*
X130355748Y-39225748D01*
X130106129Y-39599330D01*
X130018474Y-40040000D01*
X129781526Y-40040000D01*
X129693871Y-39599330D01*
X129444252Y-39225748D01*
X129070670Y-38976129D01*
X128741235Y-38910600D01*
X128518765Y-38910600D01*
X128189330Y-38976129D01*
X127815748Y-39225748D01*
X127804400Y-39242732D01*
X127804400Y-38897507D01*
X128158582Y-38543326D01*
X128189330Y-38563871D01*
X128518765Y-38629400D01*
X128741235Y-38629400D01*
X129070670Y-38563871D01*
X129444252Y-38314252D01*
X129693871Y-37940670D01*
X129781526Y-37500000D01*
X130018474Y-37500000D01*
X130106129Y-37940670D01*
X130355748Y-38314252D01*
X130729330Y-38563871D01*
X131058765Y-38629400D01*
X131281235Y-38629400D01*
X131610670Y-38563871D01*
X131984252Y-38314252D01*
X132233871Y-37940670D01*
X132321526Y-37500000D01*
X132558474Y-37500000D01*
X132646129Y-37940670D01*
X132895748Y-38314252D01*
X133269330Y-38563871D01*
X133598765Y-38629400D01*
X133821235Y-38629400D01*
X134150670Y-38563871D01*
X134524252Y-38314252D01*
X134773871Y-37940670D01*
X134861526Y-37500000D01*
X135098474Y-37500000D01*
X135186129Y-37940670D01*
X135435748Y-38314252D01*
X135809330Y-38563871D01*
X136138765Y-38629400D01*
X136361235Y-38629400D01*
X136428500Y-38616020D01*
X142069600Y-38616020D01*
X142069600Y-39383980D01*
X142363486Y-40093484D01*
X142906516Y-40636514D01*
X143616020Y-40930400D01*
X144383980Y-40930400D01*
X145093484Y-40636514D01*
X145636514Y-40093484D01*
X145930400Y-39383980D01*
X145930400Y-38616020D01*
X145636514Y-37906516D01*
X145093484Y-37363486D01*
X144383980Y-37069600D01*
X143616020Y-37069600D01*
X142906516Y-37363486D01*
X142363486Y-37906516D01*
X142069600Y-38616020D01*
X136428500Y-38616020D01*
X136690670Y-38563871D01*
X137064252Y-38314252D01*
X137313871Y-37940670D01*
X137401526Y-37500000D01*
X137313871Y-37059330D01*
X137064252Y-36685748D01*
X136690670Y-36436129D01*
X136361235Y-36370600D01*
X136138765Y-36370600D01*
X135809330Y-36436129D01*
X135435748Y-36685748D01*
X135186129Y-37059330D01*
X135098474Y-37500000D01*
X134861526Y-37500000D01*
X134773871Y-37059330D01*
X134524252Y-36685748D01*
X134150670Y-36436129D01*
X133821235Y-36370600D01*
X133598765Y-36370600D01*
X133269330Y-36436129D01*
X132895748Y-36685748D01*
X132646129Y-37059330D01*
X132558474Y-37500000D01*
X132321526Y-37500000D01*
X132233871Y-37059330D01*
X131984252Y-36685748D01*
X131610670Y-36436129D01*
X131281235Y-36370600D01*
X131058765Y-36370600D01*
X130729330Y-36436129D01*
X130355748Y-36685748D01*
X130106129Y-37059330D01*
X130018474Y-37500000D01*
X129781526Y-37500000D01*
X129693871Y-37059330D01*
X129444252Y-36685748D01*
X129070670Y-36436129D01*
X128741235Y-36370600D01*
X128518765Y-36370600D01*
X128189330Y-36436129D01*
X127815748Y-36685748D01*
X127566129Y-37059330D01*
X127478474Y-37500000D01*
X127566129Y-37940670D01*
X127586674Y-37971418D01*
X127142212Y-38415881D01*
X127108444Y-38438444D01*
X127025902Y-38561978D01*
X127019064Y-38572212D01*
X126987678Y-38730000D01*
X126995600Y-38769827D01*
X126995600Y-39362461D01*
X126904252Y-39225748D01*
X126530670Y-38976129D01*
X126201235Y-38910600D01*
X125978765Y-38910600D01*
X125649330Y-38976129D01*
X125275748Y-39225748D01*
X125254400Y-39257698D01*
X125254400Y-38907507D01*
X125618582Y-38543326D01*
X125649330Y-38563871D01*
X125978765Y-38629400D01*
X126201235Y-38629400D01*
X126530670Y-38563871D01*
X126904252Y-38314252D01*
X127153871Y-37940670D01*
X127241526Y-37500000D01*
X127153871Y-37059330D01*
X126904252Y-36685748D01*
X126530670Y-36436129D01*
X126201235Y-36370600D01*
X125978765Y-36370600D01*
X125649330Y-36436129D01*
X125275748Y-36685748D01*
X125026129Y-37059330D01*
X124938474Y-37500000D01*
X125026129Y-37940670D01*
X125046674Y-37971418D01*
X124684873Y-38333220D01*
X124684873Y-36650000D01*
X124663188Y-36540984D01*
X124601436Y-36448564D01*
X124509016Y-36386812D01*
X124400000Y-36365127D01*
X122700000Y-36365127D01*
X122590984Y-36386812D01*
X122498564Y-36448564D01*
X122436812Y-36540984D01*
X122415127Y-36650000D01*
X122415127Y-38062966D01*
X122192212Y-38285881D01*
X122158444Y-38308444D01*
X122087746Y-38414252D01*
X122069064Y-38442212D01*
X122037678Y-38600000D01*
X122045600Y-38639827D01*
X122045601Y-43234786D01*
X121884849Y-43074034D01*
X121635141Y-42970601D01*
X121364859Y-42970601D01*
X121115151Y-43074034D01*
X120924033Y-43265152D01*
X120820600Y-43514860D01*
X120820600Y-43580717D01*
X119430717Y-44970600D01*
X109031416Y-44970600D01*
X108984849Y-44924033D01*
X108735141Y-44820600D01*
X108464859Y-44820600D01*
X108215151Y-44924033D01*
X108024033Y-45115151D01*
X107920600Y-45364859D01*
X107429618Y-45364859D01*
X107396240Y-45197060D01*
X107109931Y-44768569D01*
X106987106Y-44686500D01*
X107109931Y-44604431D01*
X107396240Y-44175940D01*
X107471400Y-43798084D01*
X107471400Y-42399916D01*
X107396240Y-42022060D01*
X107109931Y-41593569D01*
X106699529Y-41319347D01*
X106674683Y-41194439D01*
X106557676Y-41019324D01*
X106513475Y-40989790D01*
X104338544Y-38814859D01*
X106820600Y-38814859D01*
X106820600Y-39085141D01*
X106924033Y-39334849D01*
X107115151Y-39525967D01*
X107364859Y-39629400D01*
X107635141Y-39629400D01*
X107884849Y-39525967D01*
X107931416Y-39479400D01*
X116780716Y-39479400D01*
X119362525Y-42061210D01*
X119362528Y-42061212D01*
X119420600Y-42119284D01*
X119420600Y-42185141D01*
X119524033Y-42434849D01*
X119715151Y-42625967D01*
X119964859Y-42729400D01*
X120235141Y-42729400D01*
X120484849Y-42625967D01*
X120675967Y-42434849D01*
X120779400Y-42185141D01*
X120779400Y-41914859D01*
X120675967Y-41665151D01*
X120484849Y-41474033D01*
X120235141Y-41370600D01*
X120169284Y-41370600D01*
X120111212Y-41312528D01*
X120111210Y-41312525D01*
X117411212Y-38612528D01*
X117381676Y-38568324D01*
X117206561Y-38451317D01*
X117138917Y-38437862D01*
X117174252Y-38414252D01*
X117423871Y-38040670D01*
X117511526Y-37600000D01*
X117423871Y-37159330D01*
X117174252Y-36785748D01*
X117120752Y-36750000D01*
X117765127Y-36750000D01*
X117765127Y-38450000D01*
X117786812Y-38559016D01*
X117848564Y-38651436D01*
X117940984Y-38713188D01*
X118050000Y-38734873D01*
X119750000Y-38734873D01*
X119859016Y-38713188D01*
X119951436Y-38651436D01*
X120013188Y-38559016D01*
X120034873Y-38450000D01*
X120034873Y-36750000D01*
X120013188Y-36640984D01*
X119951436Y-36548564D01*
X119859016Y-36486812D01*
X119750000Y-36465127D01*
X118050000Y-36465127D01*
X117940984Y-36486812D01*
X117848564Y-36548564D01*
X117786812Y-36640984D01*
X117765127Y-36750000D01*
X117120752Y-36750000D01*
X116800670Y-36536129D01*
X116471235Y-36470600D01*
X116248765Y-36470600D01*
X115919330Y-36536129D01*
X115545748Y-36785748D01*
X115296129Y-37159330D01*
X115208474Y-37600000D01*
X115296129Y-38040670D01*
X115545748Y-38414252D01*
X115555248Y-38420600D01*
X113583419Y-38420600D01*
X113803871Y-38090670D01*
X113891526Y-37650000D01*
X113803871Y-37209330D01*
X113554252Y-36835748D01*
X113180670Y-36586129D01*
X112851235Y-36520600D01*
X112628765Y-36520600D01*
X112299330Y-36586129D01*
X111925748Y-36835748D01*
X111676129Y-37209330D01*
X111588474Y-37650000D01*
X111676129Y-38090670D01*
X111896581Y-38420600D01*
X111334873Y-38420600D01*
X111334873Y-36800000D01*
X111313188Y-36690984D01*
X111251436Y-36598564D01*
X111159016Y-36536812D01*
X111050000Y-36515127D01*
X109350000Y-36515127D01*
X109240984Y-36536812D01*
X109148564Y-36598564D01*
X109086812Y-36690984D01*
X109065127Y-36800000D01*
X109065127Y-38420600D01*
X107931416Y-38420600D01*
X107884849Y-38374033D01*
X107635141Y-38270600D01*
X107364859Y-38270600D01*
X107115151Y-38374033D01*
X106924033Y-38565151D01*
X106820600Y-38814859D01*
X104338544Y-38814859D01*
X103661212Y-38137528D01*
X103631676Y-38093324D01*
X103456561Y-37976317D01*
X103302138Y-37945600D01*
X103302137Y-37945600D01*
X103250000Y-37935229D01*
X103197863Y-37945600D01*
X86789636Y-37945600D01*
X86737499Y-37935229D01*
X86685362Y-37945600D01*
X86530939Y-37976317D01*
X86355824Y-38093324D01*
X86326290Y-38137525D01*
X83486528Y-40977288D01*
X83442324Y-41006824D01*
X83325317Y-41181940D01*
X83301203Y-41303169D01*
X83284229Y-41388500D01*
X83294600Y-41440637D01*
X83294600Y-41450270D01*
X82890069Y-41720569D01*
X82603760Y-42149061D01*
X82528600Y-42526917D01*
X73079400Y-42526917D01*
X73079400Y-39116897D01*
X73124102Y-38616020D01*
X75819600Y-38616020D01*
X75819600Y-39383980D01*
X76113486Y-40093484D01*
X76656516Y-40636514D01*
X77366020Y-40930400D01*
X78133980Y-40930400D01*
X78843484Y-40636514D01*
X79386514Y-40093484D01*
X79680400Y-39383980D01*
X79680400Y-38616020D01*
X79386514Y-37906516D01*
X78843484Y-37363486D01*
X78133980Y-37069600D01*
X77366020Y-37069600D01*
X76656516Y-37363486D01*
X76113486Y-37906516D01*
X75819600Y-38616020D01*
X73124102Y-38616020D01*
X73153910Y-38282028D01*
X73370608Y-37489915D01*
X73724154Y-36748690D01*
X74203371Y-36081789D01*
X74793113Y-35510290D01*
X75474737Y-35052258D01*
X76226696Y-34722171D01*
X77028149Y-34529759D01*
X77713911Y-34479400D01*
X86362632Y-34479400D01*
X86634649Y-34533507D01*
X86634649Y-34533507D01*
G37*
X86634649Y-34533507D02*
X86833574Y-34666424D01*
X86966493Y-34865352D01*
X87027890Y-35174017D01*
X87104010Y-35556700D01*
X87160660Y-35693466D01*
X87377433Y-36017890D01*
X87482110Y-36122567D01*
X87806531Y-36339337D01*
X87806534Y-36339340D01*
X87903242Y-36379397D01*
X87943299Y-36395990D01*
X87943300Y-36395990D01*
X88325983Y-36472110D01*
X88325988Y-36472110D01*
X88362637Y-36479400D01*
X101437363Y-36479400D01*
X101474012Y-36472110D01*
X101474017Y-36472110D01*
X101856700Y-36395990D01*
X101993466Y-36339340D01*
X102317890Y-36122567D01*
X102422567Y-36017890D01*
X102639337Y-35693469D01*
X102639340Y-35693466D01*
X102695990Y-35556700D01*
X102772110Y-35174017D01*
X102833507Y-34865351D01*
X102966424Y-34666426D01*
X103165352Y-34533507D01*
X103437368Y-34479400D01*
X143983103Y-34479400D01*
X144817972Y-34553910D01*
X145610085Y-34770608D01*
X146351310Y-35124154D01*
X147018211Y-35603371D01*
X147589710Y-36193113D01*
X148047742Y-36874737D01*
X148377829Y-37626696D01*
X148570241Y-38428149D01*
X148620601Y-39113924D01*
X148620600Y-83483104D01*
X148546090Y-84317972D01*
X148329393Y-85110084D01*
X147975846Y-85851309D01*
X147496629Y-86518211D01*
X146906890Y-87089708D01*
X146225264Y-87547741D01*
X145473304Y-87877829D01*
X144671852Y-88070241D01*
X143986090Y-88120600D01*
X123122038Y-88120600D01*
X122497722Y-88047812D01*
X121927757Y-87840925D01*
X121420666Y-87508461D01*
X121003660Y-87068260D01*
X120699110Y-86543939D01*
X120521841Y-85958642D01*
X120479400Y-85483104D01*
X120479400Y-85450000D01*
X122238474Y-85450000D01*
X122326129Y-85890670D01*
X122575748Y-86264252D01*
X122949330Y-86513871D01*
X123278765Y-86579400D01*
X123501235Y-86579400D01*
X123830670Y-86513871D01*
X124204252Y-86264252D01*
X124453871Y-85890670D01*
X124541526Y-85450000D01*
X124778474Y-85450000D01*
X124866129Y-85890670D01*
X125115748Y-86264252D01*
X125489330Y-86513871D01*
X125818765Y-86579400D01*
X126041235Y-86579400D01*
X126370670Y-86513871D01*
X126744252Y-86264252D01*
X126993871Y-85890670D01*
X127081526Y-85450000D01*
X127318474Y-85450000D01*
X127406129Y-85890670D01*
X127655748Y-86264252D01*
X128029330Y-86513871D01*
X128358765Y-86579400D01*
X128581235Y-86579400D01*
X128910670Y-86513871D01*
X129284252Y-86264252D01*
X129533871Y-85890670D01*
X129621526Y-85450000D01*
X129858474Y-85450000D01*
X129946129Y-85890670D01*
X130195748Y-86264252D01*
X130569330Y-86513871D01*
X130898765Y-86579400D01*
X131121235Y-86579400D01*
X131450670Y-86513871D01*
X131824252Y-86264252D01*
X132073871Y-85890670D01*
X132161526Y-85450000D01*
X132398474Y-85450000D01*
X132486129Y-85890670D01*
X132735748Y-86264252D01*
X133109330Y-86513871D01*
X133438765Y-86579400D01*
X133661235Y-86579400D01*
X133990670Y-86513871D01*
X134364252Y-86264252D01*
X134613871Y-85890670D01*
X134701526Y-85450000D01*
X134938474Y-85450000D01*
X135026129Y-85890670D01*
X135275748Y-86264252D01*
X135649330Y-86513871D01*
X135978765Y-86579400D01*
X136201235Y-86579400D01*
X136530670Y-86513871D01*
X136904252Y-86264252D01*
X137153871Y-85890670D01*
X137241526Y-85450000D01*
X137153871Y-85009330D01*
X136904252Y-84635748D01*
X136850752Y-84600000D01*
X137495127Y-84600000D01*
X137495127Y-86300000D01*
X137516812Y-86409016D01*
X137578564Y-86501436D01*
X137670984Y-86563188D01*
X137780000Y-86584873D01*
X139480000Y-86584873D01*
X139589016Y-86563188D01*
X139681436Y-86501436D01*
X139743188Y-86409016D01*
X139764873Y-86300000D01*
X139764873Y-84600000D01*
X139743188Y-84490984D01*
X139681436Y-84398564D01*
X139589016Y-84336812D01*
X139480000Y-84315127D01*
X137780000Y-84315127D01*
X137670984Y-84336812D01*
X137578564Y-84398564D01*
X137516812Y-84490984D01*
X137495127Y-84600000D01*
X136850752Y-84600000D01*
X136530670Y-84386129D01*
X136201235Y-84320600D01*
X135978765Y-84320600D01*
X135649330Y-84386129D01*
X135275748Y-84635748D01*
X135026129Y-85009330D01*
X134938474Y-85450000D01*
X134701526Y-85450000D01*
X134613871Y-85009330D01*
X134364252Y-84635748D01*
X133990670Y-84386129D01*
X133661235Y-84320600D01*
X133438765Y-84320600D01*
X133109330Y-84386129D01*
X132735748Y-84635748D01*
X132486129Y-85009330D01*
X132398474Y-85450000D01*
X132161526Y-85450000D01*
X132073871Y-85009330D01*
X131824252Y-84635748D01*
X131450670Y-84386129D01*
X131121235Y-84320600D01*
X130898765Y-84320600D01*
X130569330Y-84386129D01*
X130195748Y-84635748D01*
X129946129Y-85009330D01*
X129858474Y-85450000D01*
X129621526Y-85450000D01*
X129533871Y-85009330D01*
X129284252Y-84635748D01*
X128910670Y-84386129D01*
X128581235Y-84320600D01*
X128358765Y-84320600D01*
X128029330Y-84386129D01*
X127655748Y-84635748D01*
X127406129Y-85009330D01*
X127318474Y-85450000D01*
X127081526Y-85450000D01*
X126993871Y-85009330D01*
X126744252Y-84635748D01*
X126370670Y-84386129D01*
X126041235Y-84320600D01*
X125818765Y-84320600D01*
X125489330Y-84386129D01*
X125115748Y-84635748D01*
X124866129Y-85009330D01*
X124778474Y-85450000D01*
X124541526Y-85450000D01*
X124453871Y-85009330D01*
X124204252Y-84635748D01*
X123830670Y-84386129D01*
X123501235Y-84320600D01*
X123278765Y-84320600D01*
X122949330Y-84386129D01*
X122575748Y-84635748D01*
X122326129Y-85009330D01*
X122238474Y-85450000D01*
X120479400Y-85450000D01*
X120479400Y-84162637D01*
X120476087Y-84145981D01*
X120430485Y-83635020D01*
X120427342Y-83619908D01*
X120426507Y-83604494D01*
X120415698Y-83558770D01*
X120281602Y-83116020D01*
X142069600Y-83116020D01*
X142069600Y-83883980D01*
X142363486Y-84593484D01*
X142906516Y-85136514D01*
X143616020Y-85430400D01*
X144383980Y-85430400D01*
X145093484Y-85136514D01*
X145636514Y-84593484D01*
X145930400Y-83883980D01*
X145930400Y-83116020D01*
X145636514Y-82406516D01*
X145093484Y-81863486D01*
X144383980Y-81569600D01*
X143616020Y-81569600D01*
X142906516Y-81863486D01*
X142363486Y-82406516D01*
X142069600Y-83116020D01*
X120281602Y-83116020D01*
X120214291Y-82893777D01*
X120206095Y-82874927D01*
X120200290Y-82855204D01*
X120179252Y-82813193D01*
X119830266Y-82212370D01*
X119817955Y-82195914D01*
X119807767Y-82178052D01*
X119777629Y-82142007D01*
X119299784Y-81637583D01*
X119284012Y-81624396D01*
X119269994Y-81609363D01*
X119232372Y-81581218D01*
X118651300Y-81200250D01*
X118632920Y-81191046D01*
X118615816Y-81179639D01*
X118572728Y-81160905D01*
X117919600Y-80923831D01*
X117899598Y-80919103D01*
X117880327Y-80911936D01*
X117834085Y-80903616D01*
X117159065Y-80824917D01*
X117137363Y-80820600D01*
X108290216Y-80820600D01*
X108475967Y-80634849D01*
X108579400Y-80385141D01*
X108579400Y-80114859D01*
X108475967Y-79865151D01*
X108284849Y-79674033D01*
X108035141Y-79570600D01*
X107764859Y-79570600D01*
X107515151Y-79674033D01*
X107468584Y-79720600D01*
X95602136Y-79720600D01*
X95549999Y-79710229D01*
X95497863Y-79720600D01*
X95497862Y-79720600D01*
X95343439Y-79751317D01*
X95168324Y-79868324D01*
X95138790Y-79912525D01*
X95030715Y-80020600D01*
X94964859Y-80020600D01*
X94715151Y-80124033D01*
X94524033Y-80315151D01*
X94420600Y-80564859D01*
X94420600Y-80835141D01*
X94524033Y-81084849D01*
X94715151Y-81275967D01*
X94964859Y-81379400D01*
X95235141Y-81379400D01*
X95484849Y-81275967D01*
X95675967Y-81084849D01*
X95779400Y-80835141D01*
X95779400Y-80779400D01*
X107468584Y-80779400D01*
X107509784Y-80820600D01*
X106862637Y-80820600D01*
X106845981Y-80823913D01*
X106335020Y-80869515D01*
X106319908Y-80872658D01*
X106304494Y-80873493D01*
X106258770Y-80884302D01*
X105593777Y-81085709D01*
X105574927Y-81093905D01*
X105555204Y-81099710D01*
X105513193Y-81120748D01*
X104912370Y-81469734D01*
X104895914Y-81482045D01*
X104878052Y-81492233D01*
X104842007Y-81522371D01*
X104337583Y-82000216D01*
X104324396Y-82015988D01*
X104309363Y-82030006D01*
X104281218Y-82067628D01*
X103900250Y-82648700D01*
X103891046Y-82667080D01*
X103879639Y-82684184D01*
X103860905Y-82727272D01*
X103779400Y-82951815D01*
X103779400Y-82864859D01*
X103675967Y-82615151D01*
X103484849Y-82424033D01*
X103235141Y-82320600D01*
X103079400Y-82320600D01*
X103079400Y-82114859D01*
X102975967Y-81865151D01*
X102784849Y-81674033D01*
X102535141Y-81570600D01*
X102264859Y-81570600D01*
X102015151Y-81674033D01*
X101843584Y-81845600D01*
X92115926Y-81845600D01*
X92093276Y-81790919D01*
X91902158Y-81599801D01*
X91652450Y-81496368D01*
X91382168Y-81496368D01*
X91132460Y-81599801D01*
X90941342Y-81790919D01*
X90837909Y-82040627D01*
X90837909Y-82310909D01*
X90941342Y-82560617D01*
X91009956Y-82629231D01*
X90924033Y-82715153D01*
X90820600Y-82964861D01*
X90820600Y-83235143D01*
X90924033Y-83484851D01*
X91115151Y-83675969D01*
X91364859Y-83779402D01*
X91635141Y-83779402D01*
X91884849Y-83675969D01*
X92075967Y-83484851D01*
X92109291Y-83404400D01*
X102543584Y-83404400D01*
X102715151Y-83575967D01*
X102964859Y-83679400D01*
X103235141Y-83679400D01*
X103484849Y-83575967D01*
X103605528Y-83455288D01*
X103603616Y-83465915D01*
X103524915Y-84140947D01*
X103520601Y-84162637D01*
X103520600Y-85477961D01*
X103447812Y-86102278D01*
X103240925Y-86672243D01*
X102908461Y-87179334D01*
X102468260Y-87596340D01*
X101943939Y-87900890D01*
X101358642Y-88078159D01*
X100883104Y-88120600D01*
X77716896Y-88120600D01*
X76882028Y-88046090D01*
X76089916Y-87829393D01*
X75348691Y-87475846D01*
X74681789Y-86996629D01*
X74110292Y-86406890D01*
X73652259Y-85725264D01*
X73322171Y-84973304D01*
X73129759Y-84171852D01*
X73079400Y-83486090D01*
X73079400Y-83116020D01*
X75769600Y-83116020D01*
X75769600Y-83883980D01*
X76063486Y-84593484D01*
X76606516Y-85136514D01*
X77316020Y-85430400D01*
X78083980Y-85430400D01*
X78519504Y-85250000D01*
X85265127Y-85250000D01*
X85265127Y-86950000D01*
X85286812Y-87059016D01*
X85348564Y-87151436D01*
X85440984Y-87213188D01*
X85550000Y-87234873D01*
X87250000Y-87234873D01*
X87359016Y-87213188D01*
X87451436Y-87151436D01*
X87513188Y-87059016D01*
X87534873Y-86950000D01*
X87534873Y-85450000D01*
X89138474Y-85450000D01*
X89226129Y-85890670D01*
X89475748Y-86264252D01*
X89849330Y-86513871D01*
X90178765Y-86579400D01*
X90401235Y-86579400D01*
X90730670Y-86513871D01*
X91104252Y-86264252D01*
X91353871Y-85890670D01*
X91441526Y-85450000D01*
X91678474Y-85450000D01*
X91766129Y-85890670D01*
X92015748Y-86264252D01*
X92389330Y-86513871D01*
X92718765Y-86579400D01*
X92941235Y-86579400D01*
X93270670Y-86513871D01*
X93644252Y-86264252D01*
X93893871Y-85890670D01*
X93981526Y-85450000D01*
X94218474Y-85450000D01*
X94306129Y-85890670D01*
X94555748Y-86264252D01*
X94929330Y-86513871D01*
X95258765Y-86579400D01*
X95481235Y-86579400D01*
X95810670Y-86513871D01*
X96184252Y-86264252D01*
X96433871Y-85890670D01*
X96521526Y-85450000D01*
X96758474Y-85450000D01*
X96846129Y-85890670D01*
X97095748Y-86264252D01*
X97469330Y-86513871D01*
X97798765Y-86579400D01*
X98021235Y-86579400D01*
X98350670Y-86513871D01*
X98724252Y-86264252D01*
X98973871Y-85890670D01*
X99061526Y-85450000D01*
X98973871Y-85009330D01*
X98724252Y-84635748D01*
X98670752Y-84600000D01*
X99315127Y-84600000D01*
X99315127Y-86300000D01*
X99336812Y-86409016D01*
X99398564Y-86501436D01*
X99490984Y-86563188D01*
X99600000Y-86584873D01*
X101300000Y-86584873D01*
X101409016Y-86563188D01*
X101501436Y-86501436D01*
X101563188Y-86409016D01*
X101584873Y-86300000D01*
X101584873Y-84600000D01*
X101563188Y-84490984D01*
X101501436Y-84398564D01*
X101409016Y-84336812D01*
X101300000Y-84315127D01*
X99600000Y-84315127D01*
X99490984Y-84336812D01*
X99398564Y-84398564D01*
X99336812Y-84490984D01*
X99315127Y-84600000D01*
X98670752Y-84600000D01*
X98350670Y-84386129D01*
X98021235Y-84320600D01*
X97798765Y-84320600D01*
X97469330Y-84386129D01*
X97095748Y-84635748D01*
X96846129Y-85009330D01*
X96758474Y-85450000D01*
X96521526Y-85450000D01*
X96433871Y-85009330D01*
X96184252Y-84635748D01*
X95810670Y-84386129D01*
X95481235Y-84320600D01*
X95258765Y-84320600D01*
X94929330Y-84386129D01*
X94555748Y-84635748D01*
X94306129Y-85009330D01*
X94218474Y-85450000D01*
X93981526Y-85450000D01*
X93893871Y-85009330D01*
X93644252Y-84635748D01*
X93270670Y-84386129D01*
X92941235Y-84320600D01*
X92718765Y-84320600D01*
X92389330Y-84386129D01*
X92015748Y-84635748D01*
X91766129Y-85009330D01*
X91678474Y-85450000D01*
X91441526Y-85450000D01*
X91353871Y-85009330D01*
X91104252Y-84635748D01*
X90730670Y-84386129D01*
X90401235Y-84320600D01*
X90178765Y-84320600D01*
X89849330Y-84386129D01*
X89475748Y-84635748D01*
X89226129Y-85009330D01*
X89138474Y-85450000D01*
X87534873Y-85450000D01*
X87534873Y-85250000D01*
X87513188Y-85140984D01*
X87451436Y-85048564D01*
X87359016Y-84986812D01*
X87250000Y-84965127D01*
X85550000Y-84965127D01*
X85440984Y-84986812D01*
X85348564Y-85048564D01*
X85286812Y-85140984D01*
X85265127Y-85250000D01*
X78519504Y-85250000D01*
X78793484Y-85136514D01*
X79336514Y-84593484D01*
X79630400Y-83883980D01*
X79630400Y-83560000D01*
X85248474Y-83560000D01*
X85336129Y-84000670D01*
X85585748Y-84374252D01*
X85959330Y-84623871D01*
X86288765Y-84689400D01*
X86511235Y-84689400D01*
X86840670Y-84623871D01*
X87214252Y-84374252D01*
X87463871Y-84000670D01*
X87551526Y-83560000D01*
X87463871Y-83119330D01*
X87214252Y-82745748D01*
X86840670Y-82496129D01*
X86511235Y-82430600D01*
X86288765Y-82430600D01*
X85959330Y-82496129D01*
X85585748Y-82745748D01*
X85336129Y-83119330D01*
X85248474Y-83560000D01*
X79630400Y-83560000D01*
X79630400Y-83116020D01*
X79336514Y-82406516D01*
X78793484Y-81863486D01*
X78083980Y-81569600D01*
X77316020Y-81569600D01*
X76606516Y-81863486D01*
X76063486Y-82406516D01*
X75769600Y-83116020D01*
X73079400Y-83116020D01*
X73079400Y-74291376D01*
X76528073Y-74291376D01*
X76615728Y-74732046D01*
X76865347Y-75105628D01*
X77238929Y-75355247D01*
X77568364Y-75420776D01*
X77790834Y-75420776D01*
X78120269Y-75355247D01*
X78493851Y-75105628D01*
X78743470Y-74732046D01*
X78831125Y-74291376D01*
X78743470Y-73850706D01*
X78493851Y-73477124D01*
X78120269Y-73227505D01*
X77790834Y-73161976D01*
X77568364Y-73161976D01*
X77238929Y-73227505D01*
X76865347Y-73477124D01*
X76615728Y-73850706D01*
X76528073Y-74291376D01*
X73079400Y-74291376D01*
X73079400Y-73014859D01*
X86820600Y-73014859D01*
X86820600Y-73285141D01*
X86924033Y-73534849D01*
X87115151Y-73725967D01*
X87364859Y-73829400D01*
X87607493Y-73829400D01*
X88845600Y-75067508D01*
X88845601Y-76760169D01*
X88837678Y-76800000D01*
X88869064Y-76957788D01*
X88869065Y-76957789D01*
X88958445Y-77091556D01*
X88992210Y-77114117D01*
X89470600Y-77592508D01*
X89470600Y-77835141D01*
X89574033Y-78084849D01*
X89765151Y-78275967D01*
X89867012Y-78318159D01*
X89703151Y-78386033D01*
X89512033Y-78577151D01*
X89408600Y-78826859D01*
X89408600Y-79097141D01*
X89512033Y-79346849D01*
X89703151Y-79537967D01*
X89952859Y-79641400D01*
X90223141Y-79641400D01*
X90472849Y-79537967D01*
X90663967Y-79346849D01*
X90767400Y-79097141D01*
X90767400Y-78854507D01*
X91357791Y-78264117D01*
X91391556Y-78241556D01*
X91480936Y-78107789D01*
X91504400Y-77989827D01*
X91504400Y-77989826D01*
X91512322Y-77950001D01*
X91504400Y-77910174D01*
X91504400Y-76930000D01*
X97865127Y-76930000D01*
X97865127Y-78630000D01*
X97886812Y-78739016D01*
X97948564Y-78831436D01*
X98040984Y-78893188D01*
X98150000Y-78914873D01*
X99850000Y-78914873D01*
X99959016Y-78893188D01*
X100051436Y-78831436D01*
X100113188Y-78739016D01*
X100134873Y-78630000D01*
X100134873Y-76930000D01*
X100113188Y-76820984D01*
X100051436Y-76728564D01*
X99959016Y-76666812D01*
X99850000Y-76645127D01*
X98150000Y-76645127D01*
X98040984Y-76666812D01*
X97948564Y-76728564D01*
X97886812Y-76820984D01*
X97865127Y-76930000D01*
X91504400Y-76930000D01*
X91504400Y-75240000D01*
X97848474Y-75240000D01*
X97936129Y-75680670D01*
X98185748Y-76054252D01*
X98559330Y-76303871D01*
X98888765Y-76369400D01*
X99111235Y-76369400D01*
X99440670Y-76303871D01*
X99618772Y-76184867D01*
X104400600Y-76184867D01*
X104400600Y-76455149D01*
X104504033Y-76704857D01*
X104675601Y-76876425D01*
X104675600Y-78323584D01*
X104504033Y-78495151D01*
X104400600Y-78744859D01*
X104400600Y-79015141D01*
X104504033Y-79264849D01*
X104695151Y-79455967D01*
X104944859Y-79559400D01*
X105215141Y-79559400D01*
X105464849Y-79455967D01*
X105655967Y-79264849D01*
X105759400Y-79015141D01*
X105759400Y-78744859D01*
X105655967Y-78495151D01*
X105484400Y-78323584D01*
X105484400Y-76876424D01*
X105655967Y-76704857D01*
X105759400Y-76455149D01*
X105759400Y-76184867D01*
X105655967Y-75935159D01*
X105464849Y-75744041D01*
X105215141Y-75640608D01*
X104944859Y-75640608D01*
X104695151Y-75744041D01*
X104504033Y-75935159D01*
X104400600Y-76184867D01*
X99618772Y-76184867D01*
X99814252Y-76054252D01*
X100063871Y-75680670D01*
X100151526Y-75240000D01*
X100063871Y-74799330D01*
X99814252Y-74425748D01*
X99440670Y-74176129D01*
X99111235Y-74110600D01*
X98888765Y-74110600D01*
X98559330Y-74176129D01*
X98185748Y-74425748D01*
X97936129Y-74799330D01*
X97848474Y-75240000D01*
X91504400Y-75240000D01*
X91504400Y-75217507D01*
X92017508Y-74704400D01*
X92043584Y-74704400D01*
X92215151Y-74875967D01*
X92464859Y-74979400D01*
X92735141Y-74979400D01*
X92984849Y-74875967D01*
X93175967Y-74684849D01*
X93279400Y-74435141D01*
X93279400Y-74164859D01*
X93175967Y-73915151D01*
X92984849Y-73724033D01*
X92735141Y-73620600D01*
X92464859Y-73620600D01*
X92215151Y-73724033D01*
X92043584Y-73895600D01*
X91889825Y-73895600D01*
X91849999Y-73887678D01*
X91810174Y-73895600D01*
X91810173Y-73895600D01*
X91692211Y-73919064D01*
X91558444Y-74008444D01*
X91535883Y-74042209D01*
X90842210Y-74735883D01*
X90808445Y-74758444D01*
X90785885Y-74792208D01*
X90719064Y-74892212D01*
X90687678Y-75050000D01*
X90695601Y-75089831D01*
X90695601Y-75956785D01*
X90604400Y-75865584D01*
X90604400Y-74351822D01*
X91322703Y-73633519D01*
X91415151Y-73725967D01*
X91664859Y-73829400D01*
X91935141Y-73829400D01*
X92184849Y-73725967D01*
X92375967Y-73534849D01*
X92479400Y-73285141D01*
X92479400Y-73014859D01*
X92375967Y-72765151D01*
X92184849Y-72574033D01*
X91935141Y-72470600D01*
X91664859Y-72470600D01*
X91415151Y-72574033D01*
X91248654Y-72740530D01*
X91234314Y-72737678D01*
X91194489Y-72745600D01*
X91194488Y-72745600D01*
X91076526Y-72769064D01*
X90942759Y-72858444D01*
X90920198Y-72892209D01*
X89942212Y-73870196D01*
X89908444Y-73892759D01*
X89846220Y-73985885D01*
X89819064Y-74026527D01*
X89787678Y-74184315D01*
X89795600Y-74224142D01*
X89795601Y-75816484D01*
X89795600Y-75816489D01*
X89795600Y-75865584D01*
X89654400Y-76006784D01*
X89654400Y-74939827D01*
X89662322Y-74900000D01*
X89630936Y-74742211D01*
X89624144Y-74732046D01*
X89541556Y-74608444D01*
X89507791Y-74585883D01*
X88179400Y-73257493D01*
X88179400Y-73014859D01*
X88075967Y-72765151D01*
X87884849Y-72574033D01*
X87635141Y-72470600D01*
X87364859Y-72470600D01*
X87115151Y-72574033D01*
X86924033Y-72765151D01*
X86820600Y-73014859D01*
X73079400Y-73014859D01*
X73079400Y-67731376D01*
X76544726Y-67731376D01*
X76544726Y-69431376D01*
X76566411Y-69540392D01*
X76628163Y-69632812D01*
X76720583Y-69694564D01*
X76829599Y-69716249D01*
X78529599Y-69716249D01*
X78638615Y-69694564D01*
X78731035Y-69632812D01*
X78792787Y-69540392D01*
X78814472Y-69431376D01*
X78814472Y-67731376D01*
X78792787Y-67622360D01*
X78731035Y-67529940D01*
X78638615Y-67468188D01*
X78529599Y-67446503D01*
X76829599Y-67446503D01*
X76720583Y-67468188D01*
X76628163Y-67529940D01*
X76566411Y-67622360D01*
X76544726Y-67731376D01*
X73079400Y-67731376D01*
X73079400Y-66041376D01*
X76528073Y-66041376D01*
X76615728Y-66482046D01*
X76865347Y-66855628D01*
X77238929Y-67105247D01*
X77568364Y-67170776D01*
X77790834Y-67170776D01*
X78120269Y-67105247D01*
X78493851Y-66855628D01*
X78743470Y-66482046D01*
X78831125Y-66041376D01*
X78743470Y-65600706D01*
X78585883Y-65364859D01*
X89170590Y-65364859D01*
X89170590Y-65635141D01*
X89274023Y-65884849D01*
X89465141Y-66075967D01*
X89714849Y-66179400D01*
X89985131Y-66179400D01*
X90234839Y-66075967D01*
X90282246Y-66028560D01*
X91318594Y-66028560D01*
X91365161Y-66075127D01*
X91614869Y-66178560D01*
X91885151Y-66178560D01*
X92134859Y-66075127D01*
X92325977Y-65884009D01*
X92429410Y-65634301D01*
X92429410Y-65364019D01*
X92325977Y-65114311D01*
X92134859Y-64923193D01*
X91885151Y-64819760D01*
X91614869Y-64819760D01*
X91365161Y-64923193D01*
X91318594Y-64969760D01*
X90280566Y-64969760D01*
X90234839Y-64924033D01*
X89985131Y-64820600D01*
X89714849Y-64820600D01*
X89465141Y-64924033D01*
X89274023Y-65115151D01*
X89170590Y-65364859D01*
X78585883Y-65364859D01*
X78493851Y-65227124D01*
X78120269Y-64977505D01*
X77790834Y-64911976D01*
X77568364Y-64911976D01*
X77238929Y-64977505D01*
X76865347Y-65227124D01*
X76615728Y-65600706D01*
X76528073Y-66041376D01*
X73079400Y-66041376D01*
X73079400Y-61758319D01*
X81627140Y-61758319D01*
X81627140Y-62028601D01*
X81730573Y-62278309D01*
X81921691Y-62469427D01*
X82171399Y-62572860D01*
X82441681Y-62572860D01*
X82691389Y-62469427D01*
X82882507Y-62278309D01*
X82985940Y-62028601D01*
X82985940Y-61785968D01*
X83192509Y-61579399D01*
X83897420Y-61579399D01*
X83820600Y-61764859D01*
X83820600Y-62035141D01*
X83924033Y-62284849D01*
X84115151Y-62475967D01*
X84364859Y-62579400D01*
X84635141Y-62579400D01*
X84884849Y-62475967D01*
X85056416Y-62304400D01*
X91432499Y-62304400D01*
X91620600Y-62492502D01*
X91620600Y-62735135D01*
X91724033Y-62984843D01*
X91915151Y-63175961D01*
X92164859Y-63279394D01*
X92435141Y-63279394D01*
X92684849Y-63175961D01*
X92875967Y-62984843D01*
X92979400Y-62735135D01*
X92979400Y-62464853D01*
X92875967Y-62215145D01*
X92684849Y-62024027D01*
X92435141Y-61920594D01*
X92192508Y-61920594D01*
X91914125Y-61642212D01*
X91891562Y-61608444D01*
X91757795Y-61519064D01*
X91639833Y-61495600D01*
X91600006Y-61487678D01*
X91560179Y-61495600D01*
X89926616Y-61495600D01*
X89970085Y-61466555D01*
X89992648Y-61432787D01*
X90214115Y-61211320D01*
X90421036Y-61004400D01*
X92560173Y-61004400D01*
X92600000Y-61012322D01*
X92639827Y-61004400D01*
X92757789Y-60980936D01*
X92891556Y-60891556D01*
X92899678Y-60879400D01*
X93135141Y-60879400D01*
X93384849Y-60775967D01*
X93575967Y-60584849D01*
X93679400Y-60335141D01*
X93679400Y-60064859D01*
X93575967Y-59815151D01*
X93384849Y-59624033D01*
X93135141Y-59520600D01*
X92864859Y-59520600D01*
X92615151Y-59624033D01*
X92429410Y-59809774D01*
X92429410Y-59664859D01*
X92325977Y-59415151D01*
X92134859Y-59224033D01*
X91885151Y-59120600D01*
X91614869Y-59120600D01*
X91365161Y-59224033D01*
X91318594Y-59270600D01*
X89252136Y-59270600D01*
X89199999Y-59260229D01*
X89147862Y-59270600D01*
X88993439Y-59301317D01*
X88818324Y-59418324D01*
X88816803Y-59420600D01*
X88764859Y-59420600D01*
X88515151Y-59524033D01*
X88324033Y-59715151D01*
X88220600Y-59964859D01*
X88220600Y-60235141D01*
X88324033Y-60484849D01*
X88515151Y-60675967D01*
X88743612Y-60770599D01*
X83064826Y-60770599D01*
X83025000Y-60762677D01*
X82985175Y-60770599D01*
X82985174Y-60770599D01*
X82867212Y-60794063D01*
X82733445Y-60883443D01*
X82710885Y-60917207D01*
X82414032Y-61214060D01*
X82171399Y-61214060D01*
X81921691Y-61317493D01*
X81730573Y-61508611D01*
X81627140Y-61758319D01*
X73079400Y-61758319D01*
X73079400Y-59231376D01*
X76544726Y-59231376D01*
X76544726Y-60931376D01*
X76566411Y-61040392D01*
X76628163Y-61132812D01*
X76720583Y-61194564D01*
X76829599Y-61216249D01*
X78529599Y-61216249D01*
X78638615Y-61194564D01*
X78731035Y-61132812D01*
X78792787Y-61040392D01*
X78814472Y-60931376D01*
X78814472Y-59231376D01*
X78792787Y-59122360D01*
X78731035Y-59029940D01*
X78638615Y-58968188D01*
X78529599Y-58946503D01*
X76829599Y-58946503D01*
X76720583Y-58968188D01*
X76628163Y-59029940D01*
X76566411Y-59122360D01*
X76544726Y-59231376D01*
X73079400Y-59231376D01*
X73079400Y-57541376D01*
X76528073Y-57541376D01*
X76615728Y-57982046D01*
X76865347Y-58355628D01*
X77238929Y-58605247D01*
X77568364Y-58670776D01*
X77790834Y-58670776D01*
X78120269Y-58605247D01*
X78493851Y-58355628D01*
X78743470Y-57982046D01*
X78831125Y-57541376D01*
X78743470Y-57100706D01*
X78493851Y-56727124D01*
X78120269Y-56477505D01*
X77790834Y-56411976D01*
X77568364Y-56411976D01*
X77238929Y-56477505D01*
X76865347Y-56727124D01*
X76615728Y-57100706D01*
X76528073Y-57541376D01*
X73079400Y-57541376D01*
X73079400Y-55001376D01*
X76528073Y-55001376D01*
X76615728Y-55442046D01*
X76865347Y-55815628D01*
X77238929Y-56065247D01*
X77568364Y-56130776D01*
X77790834Y-56130776D01*
X78120269Y-56065247D01*
X78493851Y-55815628D01*
X78743470Y-55442046D01*
X78831125Y-55001376D01*
X78743470Y-54560706D01*
X78493851Y-54187124D01*
X78120269Y-53937505D01*
X77790834Y-53871976D01*
X77568364Y-53871976D01*
X77238929Y-53937505D01*
X76865347Y-54187124D01*
X76615728Y-54560706D01*
X76528073Y-55001376D01*
X73079400Y-55001376D01*
X73079400Y-49921376D01*
X76528073Y-49921376D01*
X76615728Y-50362046D01*
X76865347Y-50735628D01*
X77238929Y-50985247D01*
X77568364Y-51050776D01*
X77678869Y-51050776D01*
X78002091Y-51373998D01*
X77790834Y-51331976D01*
X77568364Y-51331976D01*
X77238929Y-51397505D01*
X76865347Y-51647124D01*
X76615728Y-52020706D01*
X76528073Y-52461376D01*
X76615728Y-52902046D01*
X76865347Y-53275628D01*
X77238929Y-53525247D01*
X77568364Y-53590776D01*
X77790834Y-53590776D01*
X78120269Y-53525247D01*
X78493851Y-53275628D01*
X78743470Y-52902046D01*
X78750685Y-52865776D01*
X78857459Y-52865776D01*
X82595601Y-56603919D01*
X82595600Y-58843584D01*
X82424033Y-59015151D01*
X82320600Y-59264859D01*
X82320600Y-59535141D01*
X82424033Y-59784849D01*
X82615151Y-59975967D01*
X82864859Y-60079400D01*
X83135141Y-60079400D01*
X83384849Y-59975967D01*
X83575967Y-59784849D01*
X83600000Y-59726829D01*
X83624033Y-59784849D01*
X83815151Y-59975967D01*
X84064859Y-60079400D01*
X84335141Y-60079400D01*
X84584849Y-59975967D01*
X84775967Y-59784849D01*
X84879400Y-59535141D01*
X84879400Y-59264859D01*
X84775967Y-59015151D01*
X84604400Y-58843584D01*
X84604400Y-57039827D01*
X84612322Y-57000000D01*
X84594111Y-56908444D01*
X84580936Y-56842211D01*
X84491556Y-56708444D01*
X84457792Y-56685884D01*
X81436767Y-53664859D01*
X82352150Y-53664859D01*
X82352150Y-53935141D01*
X82455583Y-54184849D01*
X82646701Y-54375967D01*
X82896409Y-54479400D01*
X83166691Y-54479400D01*
X83416399Y-54375967D01*
X83607517Y-54184849D01*
X83710950Y-53935141D01*
X83710950Y-53692508D01*
X83924059Y-53479399D01*
X84225070Y-53479399D01*
X84148250Y-53664859D01*
X84148250Y-53935141D01*
X84251683Y-54184849D01*
X84442801Y-54375967D01*
X84692509Y-54479400D01*
X84962791Y-54479400D01*
X85212499Y-54375967D01*
X85384066Y-54204400D01*
X89132493Y-54204400D01*
X95345589Y-60417496D01*
X95345590Y-67510157D01*
X95337667Y-67549989D01*
X95369053Y-67707777D01*
X95391623Y-67741555D01*
X95458434Y-67841545D01*
X95492199Y-67864106D01*
X100295601Y-72667509D01*
X100295602Y-73360170D01*
X100287679Y-73400001D01*
X100319065Y-73557789D01*
X100319066Y-73557790D01*
X100408446Y-73691557D01*
X100420600Y-73699678D01*
X100420600Y-73935141D01*
X100524033Y-74184849D01*
X100715151Y-74375967D01*
X100964859Y-74479400D01*
X101235141Y-74479400D01*
X101484849Y-74375967D01*
X101675967Y-74184849D01*
X101779400Y-73935141D01*
X101779400Y-73664859D01*
X101675967Y-73415151D01*
X101484849Y-73224033D01*
X101235141Y-73120600D01*
X101104401Y-73120600D01*
X101104401Y-72539827D01*
X101112323Y-72500000D01*
X101080937Y-72342212D01*
X101025347Y-72259016D01*
X100991557Y-72208445D01*
X100957793Y-72185885D01*
X100711308Y-71939400D01*
X100935141Y-71939400D01*
X101184849Y-71835967D01*
X101375967Y-71644849D01*
X101479400Y-71395141D01*
X101479400Y-71124859D01*
X101375967Y-70875151D01*
X101184849Y-70684033D01*
X101042332Y-70625000D01*
X101184849Y-70565967D01*
X101300816Y-70450000D01*
X123065127Y-70450000D01*
X123065127Y-72150000D01*
X123086812Y-72259016D01*
X123148564Y-72351436D01*
X123240984Y-72413188D01*
X123350000Y-72434873D01*
X125050000Y-72434873D01*
X125159016Y-72413188D01*
X125251436Y-72351436D01*
X125313188Y-72259016D01*
X125334873Y-72150000D01*
X125334873Y-70450000D01*
X125313188Y-70340984D01*
X125251436Y-70248564D01*
X125159016Y-70186812D01*
X125050000Y-70165127D01*
X123350000Y-70165127D01*
X123240984Y-70186812D01*
X123148564Y-70248564D01*
X123086812Y-70340984D01*
X123065127Y-70450000D01*
X101300816Y-70450000D01*
X101375967Y-70374849D01*
X101479400Y-70125141D01*
X101479400Y-69854859D01*
X101375967Y-69605151D01*
X101184849Y-69414033D01*
X101057332Y-69361213D01*
X101214849Y-69295967D01*
X101405967Y-69104849D01*
X101509400Y-68855141D01*
X101509400Y-68584859D01*
X101405967Y-68335151D01*
X101214849Y-68144033D01*
X100965141Y-68040600D01*
X100722508Y-68040600D01*
X98860467Y-66178560D01*
X98900151Y-66178560D01*
X99149859Y-66075127D01*
X99340977Y-65884009D01*
X99444410Y-65634301D01*
X99444410Y-65364019D01*
X99340977Y-65114311D01*
X99294410Y-65067744D01*
X99294410Y-62364859D01*
X101320600Y-62364859D01*
X101320600Y-62635141D01*
X101424033Y-62884849D01*
X101615151Y-63075967D01*
X101864859Y-63179400D01*
X102135141Y-63179400D01*
X102384849Y-63075967D01*
X102575967Y-62884849D01*
X102679400Y-62635141D01*
X102679400Y-62392507D01*
X103392988Y-61678919D01*
X103514859Y-61729400D01*
X103785141Y-61729400D01*
X104034849Y-61625967D01*
X104225967Y-61434849D01*
X104329400Y-61185141D01*
X104329400Y-60914859D01*
X104225967Y-60665151D01*
X104034849Y-60474033D01*
X103785141Y-60370600D01*
X103514859Y-60370600D01*
X103265151Y-60474033D01*
X103074033Y-60665151D01*
X102970600Y-60914859D01*
X102970600Y-60957492D01*
X102107493Y-61820600D01*
X101864859Y-61820600D01*
X101615151Y-61924033D01*
X101424033Y-62115151D01*
X101320600Y-62364859D01*
X99294410Y-62364859D01*
X99294410Y-60331416D01*
X99340977Y-60284849D01*
X99444410Y-60035141D01*
X99444410Y-59969285D01*
X99576218Y-59837477D01*
X99576220Y-59837474D01*
X101904530Y-57509164D01*
X102847668Y-57509164D01*
X102855590Y-57548991D01*
X102855592Y-58370160D01*
X102847669Y-58409991D01*
X102879055Y-58567779D01*
X102905786Y-58607784D01*
X102968436Y-58701547D01*
X103002201Y-58724108D01*
X106895601Y-62617509D01*
X106895600Y-64382492D01*
X106432493Y-64845600D01*
X105649825Y-64845600D01*
X105609999Y-64837678D01*
X105570174Y-64845600D01*
X105570173Y-64845600D01*
X105452211Y-64869064D01*
X105318444Y-64958444D01*
X105295884Y-64992208D01*
X105187492Y-65100600D01*
X104944859Y-65100600D01*
X104695151Y-65204033D01*
X104504033Y-65395151D01*
X104400600Y-65644859D01*
X104400600Y-65915141D01*
X104504033Y-66164849D01*
X104695151Y-66355967D01*
X104944859Y-66459400D01*
X105215141Y-66459400D01*
X105370600Y-66395006D01*
X105370600Y-66485141D01*
X105474033Y-66734849D01*
X105665151Y-66925967D01*
X105914859Y-67029400D01*
X106185141Y-67029400D01*
X106434849Y-66925967D01*
X106625967Y-66734849D01*
X106729400Y-66485141D01*
X106729400Y-66242507D01*
X107745601Y-65226307D01*
X107745601Y-65243583D01*
X107574033Y-65415151D01*
X107470600Y-65664859D01*
X107470600Y-65935141D01*
X107574033Y-66184849D01*
X107765151Y-66375967D01*
X108014859Y-66479400D01*
X108285141Y-66479400D01*
X108534849Y-66375967D01*
X108725967Y-66184849D01*
X108829400Y-65935141D01*
X108829400Y-65664859D01*
X108725967Y-65415151D01*
X108554400Y-65243584D01*
X108554400Y-62339827D01*
X108562322Y-62300000D01*
X108544111Y-62208444D01*
X108530936Y-62142211D01*
X108441556Y-62008444D01*
X108407792Y-61985884D01*
X108102575Y-61680667D01*
X120796679Y-61680667D01*
X120796679Y-61950949D01*
X120900112Y-62200657D01*
X121071679Y-62372224D01*
X121071679Y-62421319D01*
X121071680Y-62421324D01*
X121071679Y-66586252D01*
X121063757Y-66626079D01*
X121080010Y-66707789D01*
X121095143Y-66783867D01*
X121184523Y-66917635D01*
X121218291Y-66940198D01*
X122890600Y-68612508D01*
X122890600Y-68855141D01*
X122994033Y-69104849D01*
X123185151Y-69295967D01*
X123434859Y-69399400D01*
X123705141Y-69399400D01*
X123954849Y-69295967D01*
X124145967Y-69104849D01*
X124249400Y-68855141D01*
X124249400Y-68584859D01*
X124145967Y-68335151D01*
X123954849Y-68144033D01*
X123802332Y-68080858D01*
X123934849Y-68025967D01*
X124125967Y-67834849D01*
X124229400Y-67585141D01*
X124229400Y-67314859D01*
X124125967Y-67065151D01*
X123934849Y-66874033D01*
X123685141Y-66770600D01*
X123442508Y-66770600D01*
X122654400Y-65982493D01*
X122654400Y-64350000D01*
X123265127Y-64350000D01*
X123265127Y-66050000D01*
X123286812Y-66159016D01*
X123348564Y-66251436D01*
X123440984Y-66313188D01*
X123550000Y-66334873D01*
X125250000Y-66334873D01*
X125359016Y-66313188D01*
X125451436Y-66251436D01*
X125513188Y-66159016D01*
X125534873Y-66050000D01*
X125534873Y-64350000D01*
X125513188Y-64240984D01*
X125451436Y-64148564D01*
X125359016Y-64086812D01*
X125250000Y-64065127D01*
X123550000Y-64065127D01*
X123440984Y-64086812D01*
X123348564Y-64148564D01*
X123286812Y-64240984D01*
X123265127Y-64350000D01*
X122654400Y-64350000D01*
X122654400Y-63780388D01*
X134835001Y-63780388D01*
X134859501Y-71800388D01*
X134869167Y-71848601D01*
X134896697Y-71889803D01*
X134937899Y-71917333D01*
X134986500Y-71927000D01*
X147813500Y-71927000D01*
X147862459Y-71917184D01*
X147903576Y-71889528D01*
X147930981Y-71848242D01*
X147940499Y-71799612D01*
X147915999Y-63779612D01*
X147906333Y-63731399D01*
X147878803Y-63690197D01*
X147837601Y-63662667D01*
X147789000Y-63653000D01*
X134962000Y-63653000D01*
X134913041Y-63662816D01*
X134871924Y-63690472D01*
X134844519Y-63731758D01*
X134835001Y-63780388D01*
X122654400Y-63780388D01*
X122654400Y-61456416D01*
X122825967Y-61284849D01*
X122929400Y-61035141D01*
X122929400Y-60764859D01*
X122825967Y-60515151D01*
X122634849Y-60324033D01*
X122385141Y-60220600D01*
X122114859Y-60220600D01*
X121865151Y-60324033D01*
X121674033Y-60515151D01*
X121570600Y-60764859D01*
X121570600Y-61035141D01*
X121612821Y-61137071D01*
X121611220Y-61136408D01*
X121340938Y-61136408D01*
X121091230Y-61239841D01*
X120900112Y-61430959D01*
X120796679Y-61680667D01*
X108102575Y-61680667D01*
X104791360Y-58369452D01*
X104875963Y-58284849D01*
X104979396Y-58035141D01*
X104979396Y-57764859D01*
X104875963Y-57515151D01*
X104684845Y-57324033D01*
X104552637Y-57269270D01*
X104557048Y-57264859D01*
X114420600Y-57264859D01*
X114420600Y-57535141D01*
X114524033Y-57784849D01*
X114715151Y-57975967D01*
X114964859Y-58079400D01*
X115207493Y-58079400D01*
X116040600Y-58912508D01*
X116040601Y-59744476D01*
X116040600Y-59744481D01*
X116040600Y-59793576D01*
X115869033Y-59965143D01*
X115765600Y-60214851D01*
X115765600Y-60485133D01*
X115869033Y-60734841D01*
X116060151Y-60925959D01*
X116309859Y-61029392D01*
X116580141Y-61029392D01*
X116829849Y-60925959D01*
X117020967Y-60734841D01*
X117124400Y-60485133D01*
X117124400Y-60214851D01*
X117020967Y-59965143D01*
X116849400Y-59793576D01*
X116849400Y-58784825D01*
X116857322Y-58744999D01*
X116848679Y-58701547D01*
X116825936Y-58587211D01*
X116736556Y-58453444D01*
X116702791Y-58430883D01*
X115779400Y-57507493D01*
X115779400Y-57264859D01*
X115675967Y-57015151D01*
X115484849Y-56824033D01*
X115235141Y-56720600D01*
X114964859Y-56720600D01*
X114715151Y-56824033D01*
X114524033Y-57015151D01*
X114420600Y-57264859D01*
X104557048Y-57264859D01*
X105057791Y-56764117D01*
X105091556Y-56741556D01*
X105180936Y-56607789D01*
X105204400Y-56489827D01*
X105204400Y-56489826D01*
X105212322Y-56450001D01*
X105204400Y-56410175D01*
X105204400Y-53971426D01*
X105375967Y-53799859D01*
X105479400Y-53550151D01*
X105479400Y-53279869D01*
X105375967Y-53030161D01*
X105184849Y-52839043D01*
X104935141Y-52735610D01*
X104679206Y-52735610D01*
X104679400Y-52735141D01*
X104679400Y-52464859D01*
X104575967Y-52215151D01*
X104384849Y-52024033D01*
X104135141Y-51920600D01*
X103864859Y-51920600D01*
X103615151Y-52024033D01*
X103424033Y-52215151D01*
X103320600Y-52464859D01*
X103320600Y-52735141D01*
X103424033Y-52984849D01*
X103595600Y-53156416D01*
X103595600Y-53189826D01*
X103595601Y-53189831D01*
X103595600Y-56601646D01*
X103002199Y-57195048D01*
X102968434Y-57217609D01*
X102897324Y-57324033D01*
X102879054Y-57351376D01*
X102847668Y-57509164D01*
X101904530Y-57509164D01*
X102037472Y-57376223D01*
X102081673Y-57346689D01*
X102198680Y-57171574D01*
X102229397Y-57017151D01*
X102239768Y-56965014D01*
X102229397Y-56912877D01*
X102229397Y-54631419D01*
X102275964Y-54584852D01*
X102379397Y-54335144D01*
X102379397Y-54064862D01*
X102275964Y-53815154D01*
X102084846Y-53624036D01*
X101835138Y-53520603D01*
X101564856Y-53520603D01*
X101315148Y-53624036D01*
X101124030Y-53815154D01*
X101020597Y-54064862D01*
X101020597Y-54335144D01*
X101124030Y-54584852D01*
X101170597Y-54631419D01*
X101170598Y-56745727D01*
X98827536Y-59088790D01*
X98827533Y-59088792D01*
X98695725Y-59220600D01*
X98629869Y-59220600D01*
X98554400Y-59251860D01*
X98554400Y-57489824D01*
X98562322Y-57449997D01*
X98530936Y-57292209D01*
X98504161Y-57252137D01*
X98441556Y-57158442D01*
X98407791Y-57135882D01*
X95429400Y-54157491D01*
X95429400Y-53914857D01*
X95325967Y-53665149D01*
X95235817Y-53574999D01*
X95375967Y-53434849D01*
X95479400Y-53185141D01*
X95479400Y-52914859D01*
X95375967Y-52665151D01*
X95184849Y-52474033D01*
X94935141Y-52370600D01*
X94664859Y-52370600D01*
X94415151Y-52474033D01*
X94224033Y-52665151D01*
X94120600Y-52914859D01*
X94120600Y-53157492D01*
X93642212Y-53635881D01*
X93608444Y-53658444D01*
X93526210Y-53781517D01*
X93519064Y-53792212D01*
X93487678Y-53950000D01*
X93495600Y-53989827D01*
X93495601Y-55310169D01*
X93487678Y-55350000D01*
X93519064Y-55507788D01*
X93519065Y-55507789D01*
X93608445Y-55641556D01*
X93642210Y-55664117D01*
X97045600Y-59067508D01*
X97045601Y-66084785D01*
X96954400Y-65993584D01*
X96954400Y-60453417D01*
X96962322Y-60413590D01*
X96930936Y-60255801D01*
X96841556Y-60122034D01*
X96807789Y-60099472D01*
X89525528Y-52817211D01*
X89502965Y-52783443D01*
X89369198Y-52694063D01*
X89251236Y-52670599D01*
X89211409Y-52662677D01*
X89171582Y-52670599D01*
X83796376Y-52670599D01*
X83756550Y-52662677D01*
X83716725Y-52670599D01*
X83716724Y-52670599D01*
X83598762Y-52694063D01*
X83464995Y-52783443D01*
X83442434Y-52817208D01*
X83139042Y-53120600D01*
X82896409Y-53120600D01*
X82646701Y-53224033D01*
X82455583Y-53415151D01*
X82352150Y-53664859D01*
X81436767Y-53664859D01*
X78536767Y-50764859D01*
X108170600Y-50764859D01*
X108170600Y-51035141D01*
X108274033Y-51284849D01*
X108465151Y-51475967D01*
X108714859Y-51579400D01*
X108985141Y-51579400D01*
X109234849Y-51475967D01*
X109281590Y-51429226D01*
X114118584Y-51429226D01*
X114165151Y-51475793D01*
X114414859Y-51579226D01*
X114685141Y-51579226D01*
X114934849Y-51475793D01*
X115125967Y-51284675D01*
X115229400Y-51034967D01*
X115229400Y-50764685D01*
X115125967Y-50514977D01*
X114934849Y-50323859D01*
X114685141Y-50220426D01*
X114414859Y-50220426D01*
X114165151Y-50323859D01*
X114118584Y-50370426D01*
X109281242Y-50370426D01*
X109234849Y-50324033D01*
X108985141Y-50220600D01*
X108714859Y-50220600D01*
X108465151Y-50324033D01*
X108274033Y-50515151D01*
X108170600Y-50764859D01*
X78536767Y-50764859D01*
X78499332Y-50727425D01*
X78743470Y-50362046D01*
X78831125Y-49921376D01*
X78743470Y-49480706D01*
X78493851Y-49107124D01*
X78120269Y-48857505D01*
X77790834Y-48791976D01*
X77568364Y-48791976D01*
X77238929Y-48857505D01*
X76865347Y-49107124D01*
X76615728Y-49480706D01*
X76528073Y-49921376D01*
X73079400Y-49921376D01*
X73079400Y-42526917D01*
X82528600Y-42526917D01*
X82528600Y-43925084D01*
X82603760Y-44302940D01*
X82890070Y-44731431D01*
X83012895Y-44813500D01*
X82890070Y-44895569D01*
X82603760Y-45324060D01*
X82528600Y-45701916D01*
X82528600Y-47100083D01*
X82603760Y-47477939D01*
X82890069Y-47906431D01*
X83318560Y-48192740D01*
X83345601Y-48198119D01*
X83345601Y-48457173D01*
X83345600Y-48457178D01*
X83345600Y-48643584D01*
X83299033Y-48690151D01*
X83195600Y-48939859D01*
X83195600Y-49210141D01*
X83299033Y-49459849D01*
X83490151Y-49650967D01*
X83739859Y-49754400D01*
X84010141Y-49754400D01*
X84259849Y-49650967D01*
X84450967Y-49459849D01*
X84554400Y-49210141D01*
X84554400Y-49114859D01*
X108770600Y-49114859D01*
X108770600Y-49385141D01*
X108874033Y-49634849D01*
X109065151Y-49825967D01*
X109314859Y-49929400D01*
X109585141Y-49929400D01*
X109834849Y-49825967D01*
X110025967Y-49634849D01*
X110129400Y-49385141D01*
X110129400Y-49142507D01*
X110967508Y-48304400D01*
X115428422Y-48304400D01*
X115594484Y-48470462D01*
X115465152Y-48524033D01*
X115293585Y-48695600D01*
X113141406Y-48695600D01*
X112969839Y-48524033D01*
X112720131Y-48420600D01*
X112449849Y-48420600D01*
X112200141Y-48524033D01*
X112009023Y-48715151D01*
X111905590Y-48964859D01*
X111905590Y-49235141D01*
X112009023Y-49484849D01*
X112200141Y-49675967D01*
X112449849Y-49779400D01*
X112720131Y-49779400D01*
X112969839Y-49675967D01*
X113141406Y-49504400D01*
X115293585Y-49504400D01*
X115465152Y-49675967D01*
X115714860Y-49779400D01*
X115985142Y-49779400D01*
X116234850Y-49675967D01*
X116245599Y-49665218D01*
X116245600Y-50220600D01*
X116114859Y-50220600D01*
X115865151Y-50324033D01*
X115674033Y-50515151D01*
X115570600Y-50764859D01*
X115570600Y-51035141D01*
X115674033Y-51284849D01*
X115865151Y-51475967D01*
X116114859Y-51579400D01*
X116385141Y-51579400D01*
X116634849Y-51475967D01*
X116825967Y-51284849D01*
X116929400Y-51035141D01*
X116929400Y-50799679D01*
X116941555Y-50791557D01*
X117030935Y-50657790D01*
X117034993Y-50637387D01*
X117062321Y-50500002D01*
X117054399Y-50460175D01*
X117054399Y-48993896D01*
X117062321Y-48954069D01*
X117030935Y-48796281D01*
X116977210Y-48715876D01*
X116941555Y-48662514D01*
X116907790Y-48639953D01*
X115910048Y-47642212D01*
X115887485Y-47608444D01*
X115875686Y-47600560D01*
X118867187Y-47600560D01*
X118867187Y-48799440D01*
X118888872Y-48908456D01*
X118950624Y-49000876D01*
X119021441Y-49048194D01*
X119021441Y-49151806D01*
X118950624Y-49199124D01*
X118888872Y-49291544D01*
X118867187Y-49400560D01*
X118867187Y-50599440D01*
X118888872Y-50708456D01*
X118950624Y-50800876D01*
X119021441Y-50848193D01*
X119021441Y-50951807D01*
X118950624Y-50999124D01*
X118888872Y-51091544D01*
X118867187Y-51200560D01*
X118867187Y-52399440D01*
X118888872Y-52508456D01*
X118950624Y-52600876D01*
X119021441Y-52648193D01*
X119021440Y-52751807D01*
X118950624Y-52799124D01*
X118888872Y-52891544D01*
X118867187Y-53000560D01*
X118867187Y-54199440D01*
X118888872Y-54308456D01*
X118950624Y-54400876D01*
X119021440Y-54448193D01*
X119021440Y-54551807D01*
X118950624Y-54599124D01*
X118888872Y-54691544D01*
X118867187Y-54800560D01*
X118867187Y-55999440D01*
X118888872Y-56108456D01*
X118950624Y-56200876D01*
X119021440Y-56248193D01*
X119021440Y-56351807D01*
X118950624Y-56399124D01*
X118888872Y-56491544D01*
X118867187Y-56600560D01*
X118867187Y-57799440D01*
X118888872Y-57908456D01*
X118950624Y-58000876D01*
X119012750Y-58042387D01*
X119011069Y-58050840D01*
X119021440Y-58102977D01*
X119052157Y-58257400D01*
X119169164Y-58432516D01*
X119213367Y-58462051D01*
X119670600Y-58919285D01*
X119670600Y-58985141D01*
X119774033Y-59234849D01*
X119965151Y-59425967D01*
X120214859Y-59529400D01*
X120485141Y-59529400D01*
X120734849Y-59425967D01*
X120781416Y-59379400D01*
X122447863Y-59379400D01*
X122500000Y-59389771D01*
X122552137Y-59379400D01*
X122552138Y-59379400D01*
X122706561Y-59348683D01*
X122881676Y-59231676D01*
X122911212Y-59187472D01*
X125587475Y-56511210D01*
X125631676Y-56481676D01*
X125748683Y-56306561D01*
X125779400Y-56152138D01*
X125789771Y-56100001D01*
X125779400Y-56047864D01*
X125779400Y-55271000D01*
X134581710Y-55271000D01*
X134634439Y-55536088D01*
X134784601Y-55760819D01*
X135009332Y-55910981D01*
X135274420Y-55963710D01*
X135539508Y-55910981D01*
X135707513Y-55798723D01*
X136665090Y-54841146D01*
X136721820Y-54803240D01*
X136871981Y-54578509D01*
X136911400Y-54380334D01*
X136924710Y-54313420D01*
X136911400Y-54246506D01*
X136911400Y-49743086D01*
X136871981Y-49544911D01*
X136721819Y-49320180D01*
X136497088Y-49170019D01*
X136232000Y-49117290D01*
X135966911Y-49170019D01*
X135742180Y-49320181D01*
X135592019Y-49544912D01*
X135552600Y-49743087D01*
X135552601Y-54032003D01*
X134746697Y-54837907D01*
X134634439Y-55005912D01*
X134581710Y-55271000D01*
X125779400Y-55271000D01*
X125779400Y-45469284D01*
X127819285Y-43429400D01*
X134818584Y-43429400D01*
X134865151Y-43475967D01*
X135114859Y-43579400D01*
X135385141Y-43579400D01*
X135634849Y-43475967D01*
X135825967Y-43284849D01*
X135929400Y-43035141D01*
X135929400Y-42764859D01*
X135825967Y-42515151D01*
X135634849Y-42324033D01*
X135385141Y-42220600D01*
X135114859Y-42220600D01*
X134865151Y-42324033D01*
X134818584Y-42370600D01*
X127652137Y-42370600D01*
X127600000Y-42360229D01*
X127547863Y-42370600D01*
X127547862Y-42370600D01*
X127393439Y-42401317D01*
X127218324Y-42518324D01*
X127188790Y-42562525D01*
X124912528Y-44838788D01*
X124868324Y-44868324D01*
X124751317Y-45043440D01*
X124727629Y-45162525D01*
X124710229Y-45250000D01*
X124720600Y-45302137D01*
X124720601Y-55880714D01*
X122280716Y-58320600D01*
X120781416Y-58320600D01*
X120734849Y-58274033D01*
X120485141Y-58170600D01*
X120419285Y-58170600D01*
X120190511Y-57941827D01*
X120212808Y-57908456D01*
X120234493Y-57799440D01*
X120234493Y-56600560D01*
X120212808Y-56491544D01*
X120151056Y-56399124D01*
X120080240Y-56351807D01*
X120080240Y-56248193D01*
X120151056Y-56200876D01*
X120212808Y-56108456D01*
X120234493Y-55999440D01*
X120234493Y-54800560D01*
X120212808Y-54691544D01*
X120151056Y-54599124D01*
X120080240Y-54551807D01*
X120080240Y-54448193D01*
X120151056Y-54400876D01*
X120212808Y-54308456D01*
X120234493Y-54199440D01*
X120234493Y-53000560D01*
X120212808Y-52891544D01*
X120151056Y-52799124D01*
X120080240Y-52751807D01*
X120080240Y-52648193D01*
X120151056Y-52600876D01*
X120212808Y-52508456D01*
X120234493Y-52399440D01*
X120234493Y-51200560D01*
X120212808Y-51091544D01*
X120151056Y-50999124D01*
X120080240Y-50951807D01*
X120080240Y-50848193D01*
X120151056Y-50800876D01*
X120212808Y-50708456D01*
X120234493Y-50599440D01*
X120234493Y-49400560D01*
X120212808Y-49291544D01*
X120151056Y-49199124D01*
X120080240Y-49151807D01*
X120080240Y-49048193D01*
X120151056Y-49000876D01*
X120212808Y-48908456D01*
X120234493Y-48799440D01*
X120234493Y-47600560D01*
X120212808Y-47491544D01*
X120151056Y-47399124D01*
X120058636Y-47337372D01*
X119949620Y-47315687D01*
X119152060Y-47315687D01*
X119043044Y-47337372D01*
X118950624Y-47399124D01*
X118888872Y-47491544D01*
X118867187Y-47600560D01*
X115875686Y-47600560D01*
X115753718Y-47519064D01*
X115635756Y-47495600D01*
X115595929Y-47487678D01*
X115556102Y-47495600D01*
X110839825Y-47495600D01*
X110799999Y-47487678D01*
X110760174Y-47495600D01*
X110760173Y-47495600D01*
X110642211Y-47519064D01*
X110508444Y-47608444D01*
X110485883Y-47642209D01*
X109557493Y-48570600D01*
X109314859Y-48570600D01*
X109065151Y-48674033D01*
X108874033Y-48865151D01*
X108770600Y-49114859D01*
X84554400Y-49114859D01*
X84554400Y-48939859D01*
X84450967Y-48690151D01*
X84404400Y-48643584D01*
X84404400Y-48142653D01*
X84757931Y-47906431D01*
X85044240Y-47477940D01*
X85119400Y-47100084D01*
X85119400Y-45701916D01*
X85044240Y-45324060D01*
X84757931Y-44895569D01*
X84635106Y-44813500D01*
X84757931Y-44731431D01*
X85044240Y-44302940D01*
X85119400Y-43925084D01*
X85119400Y-42526916D01*
X85044240Y-42149060D01*
X84757931Y-41720569D01*
X84447823Y-41513361D01*
X86956785Y-39004400D01*
X103030716Y-39004400D01*
X105468552Y-41442237D01*
X105242069Y-41593569D01*
X104955760Y-42022061D01*
X104880600Y-42399917D01*
X104880600Y-43798084D01*
X104955760Y-44175940D01*
X105242070Y-44604431D01*
X105364895Y-44686500D01*
X105242070Y-44768569D01*
X104955760Y-45197060D01*
X104880600Y-45574916D01*
X104880600Y-46973083D01*
X104955760Y-47350939D01*
X105242069Y-47779431D01*
X105670560Y-48065740D01*
X106176000Y-48166278D01*
X106681439Y-48065740D01*
X107109931Y-47779431D01*
X107396240Y-47350940D01*
X107471400Y-46973084D01*
X107471400Y-45574916D01*
X107429618Y-45364859D01*
X107920600Y-45364859D01*
X107920600Y-45635141D01*
X108024033Y-45884849D01*
X108215151Y-46075967D01*
X108464859Y-46179400D01*
X108735141Y-46179400D01*
X108984849Y-46075967D01*
X109031416Y-46029400D01*
X119597864Y-46029400D01*
X119650001Y-46039771D01*
X119702138Y-46029400D01*
X119702139Y-46029400D01*
X119856562Y-45998683D01*
X120031677Y-45881676D01*
X120061213Y-45837472D01*
X121569284Y-44329401D01*
X121635141Y-44329401D01*
X121884849Y-44225968D01*
X122045601Y-44065216D01*
X122045601Y-47682491D01*
X122032813Y-47695279D01*
X122032813Y-47600560D01*
X122011128Y-47491544D01*
X121949376Y-47399124D01*
X121856956Y-47337372D01*
X121747940Y-47315687D01*
X120950380Y-47315687D01*
X120841364Y-47337372D01*
X120748944Y-47399124D01*
X120687192Y-47491544D01*
X120665507Y-47600560D01*
X120665507Y-48799440D01*
X120687192Y-48908456D01*
X120748944Y-49000876D01*
X120841364Y-49062628D01*
X120950380Y-49084313D01*
X121747940Y-49084313D01*
X121856956Y-49062628D01*
X121949376Y-49000876D01*
X122011128Y-48908456D01*
X122032813Y-48799440D01*
X122032813Y-48604400D01*
X122060173Y-48604400D01*
X122100000Y-48612322D01*
X122139827Y-48604400D01*
X122257789Y-48580936D01*
X122385611Y-48495528D01*
X122385611Y-49040421D01*
X122031595Y-49394437D01*
X122011128Y-49291544D01*
X121949376Y-49199124D01*
X121856956Y-49137372D01*
X121747940Y-49115687D01*
X120950380Y-49115687D01*
X120841364Y-49137372D01*
X120748944Y-49199124D01*
X120687192Y-49291544D01*
X120665507Y-49400560D01*
X120665507Y-50599440D01*
X120687192Y-50708456D01*
X120748944Y-50800876D01*
X120841364Y-50862628D01*
X120950380Y-50884313D01*
X121747940Y-50884313D01*
X121856956Y-50862628D01*
X121949376Y-50800876D01*
X122011128Y-50708456D01*
X122032813Y-50599440D01*
X122032813Y-50405385D01*
X122037767Y-50404400D01*
X122155729Y-50380936D01*
X122289496Y-50291556D01*
X122312059Y-50257788D01*
X122725620Y-49844227D01*
X122725620Y-50500412D01*
X122031595Y-51194438D01*
X122011128Y-51091544D01*
X121949376Y-50999124D01*
X121856956Y-50937372D01*
X121747940Y-50915687D01*
X120950380Y-50915687D01*
X120841364Y-50937372D01*
X120748944Y-50999124D01*
X120687192Y-51091544D01*
X120665507Y-51200560D01*
X120665507Y-52399440D01*
X120687192Y-52508456D01*
X120748944Y-52600876D01*
X120841364Y-52662628D01*
X120950380Y-52684313D01*
X121747940Y-52684313D01*
X121856956Y-52662628D01*
X121949376Y-52600876D01*
X122011128Y-52508456D01*
X122032813Y-52399440D01*
X122032813Y-52205385D01*
X122037767Y-52204400D01*
X122155729Y-52180936D01*
X122289496Y-52091556D01*
X122312059Y-52057788D01*
X123065632Y-51304216D01*
X123065632Y-52012460D01*
X122032813Y-53045280D01*
X122032813Y-53000560D01*
X122011128Y-52891544D01*
X121949376Y-52799124D01*
X121856956Y-52737372D01*
X121747940Y-52715687D01*
X120950380Y-52715687D01*
X120841364Y-52737372D01*
X120748944Y-52799124D01*
X120687192Y-52891544D01*
X120665507Y-53000560D01*
X120665507Y-54199440D01*
X120687192Y-54308456D01*
X120748944Y-54400876D01*
X120841364Y-54462628D01*
X120950380Y-54484313D01*
X121747940Y-54484313D01*
X121856956Y-54462628D01*
X121949376Y-54400876D01*
X122011128Y-54308456D01*
X122032813Y-54199440D01*
X122032813Y-54008903D01*
X122050000Y-54012322D01*
X122089827Y-54004400D01*
X122207789Y-53980936D01*
X122341556Y-53891556D01*
X122364119Y-53857788D01*
X123405640Y-52816268D01*
X123405640Y-53322452D01*
X122015346Y-54712747D01*
X122011128Y-54691544D01*
X121949376Y-54599124D01*
X121856956Y-54537372D01*
X121747940Y-54515687D01*
X120950380Y-54515687D01*
X120841364Y-54537372D01*
X120748944Y-54599124D01*
X120687192Y-54691544D01*
X120665507Y-54800560D01*
X120665507Y-55999440D01*
X120687192Y-56108456D01*
X120748944Y-56200876D01*
X120841364Y-56262628D01*
X120950380Y-56284313D01*
X121747940Y-56284313D01*
X121856956Y-56262628D01*
X121949376Y-56200876D01*
X122011128Y-56108456D01*
X122032813Y-55999440D01*
X122032813Y-55785904D01*
X122057789Y-55780936D01*
X122191556Y-55691556D01*
X122214119Y-55657788D01*
X123745651Y-54126257D01*
X123745651Y-54932441D01*
X122032813Y-56645280D01*
X122032813Y-56600560D01*
X122011128Y-56491544D01*
X121949376Y-56399124D01*
X121856956Y-56337372D01*
X121747940Y-56315687D01*
X120950380Y-56315687D01*
X120841364Y-56337372D01*
X120748944Y-56399124D01*
X120687192Y-56491544D01*
X120665507Y-56600560D01*
X120665507Y-57799440D01*
X120687192Y-57908456D01*
X120748944Y-58000876D01*
X120841364Y-58062628D01*
X120950380Y-58084313D01*
X121747940Y-58084313D01*
X121856956Y-58062628D01*
X121949376Y-58000876D01*
X122011128Y-57908456D01*
X122032813Y-57799440D01*
X122032813Y-57608903D01*
X122050000Y-57612322D01*
X122089827Y-57604400D01*
X122207789Y-57580936D01*
X122341556Y-57491556D01*
X122364119Y-57457788D01*
X124407841Y-55414067D01*
X124441606Y-55391506D01*
X124530986Y-55257739D01*
X124554450Y-55139777D01*
X124554450Y-55139776D01*
X124562372Y-55099951D01*
X124554450Y-55060125D01*
X124554450Y-43117457D01*
X125617507Y-42054400D01*
X126980173Y-42054400D01*
X127020000Y-42062322D01*
X127059827Y-42054400D01*
X127177789Y-42030936D01*
X127311556Y-41941556D01*
X127334119Y-41907788D01*
X128158582Y-41083326D01*
X128189330Y-41103871D01*
X128518765Y-41169400D01*
X128741235Y-41169400D01*
X129070670Y-41103871D01*
X129444252Y-40854252D01*
X129693871Y-40480670D01*
X129781526Y-40040000D01*
X130018474Y-40040000D01*
X130106129Y-40480670D01*
X130355748Y-40854252D01*
X130729330Y-41103871D01*
X131058765Y-41169400D01*
X131281235Y-41169400D01*
X131610670Y-41103871D01*
X131984252Y-40854252D01*
X132233871Y-40480670D01*
X132321526Y-40040000D01*
X132558474Y-40040000D01*
X132646129Y-40480670D01*
X132895748Y-40854252D01*
X133269330Y-41103871D01*
X133598765Y-41169400D01*
X133821235Y-41169400D01*
X134150670Y-41103871D01*
X134524252Y-40854252D01*
X134773871Y-40480670D01*
X134861526Y-40040000D01*
X135098474Y-40040000D01*
X135186129Y-40480670D01*
X135435748Y-40854252D01*
X135809330Y-41103871D01*
X136138765Y-41169400D01*
X136361235Y-41169400D01*
X136690670Y-41103871D01*
X137064252Y-40854252D01*
X137313871Y-40480670D01*
X137401526Y-40040000D01*
X137313871Y-39599330D01*
X137064252Y-39225748D01*
X136690670Y-38976129D01*
X136361235Y-38910600D01*
X136138765Y-38910600D01*
X135809330Y-38976129D01*
X135435748Y-39225748D01*
X135186129Y-39599330D01*
X135098474Y-40040000D01*
X134861526Y-40040000D01*
X134773871Y-39599330D01*
X134524252Y-39225748D01*
X134150670Y-38976129D01*
X133821235Y-38910600D01*
X133598765Y-38910600D01*
X133269330Y-38976129D01*
X132895748Y-39225748D01*
X132646129Y-39599330D01*
X132558474Y-40040000D01*
X132321526Y-40040000D01*
X132233871Y-39599330D01*
X131984252Y-39225748D01*
X131610670Y-38976129D01*
X131281235Y-38910600D01*
X131058765Y-38910600D01*
X130729330Y-38976129D01*
X130355748Y-39225748D01*
X130106129Y-39599330D01*
X130018474Y-40040000D01*
X129781526Y-40040000D01*
X129693871Y-39599330D01*
X129444252Y-39225748D01*
X129070670Y-38976129D01*
X128741235Y-38910600D01*
X128518765Y-38910600D01*
X128189330Y-38976129D01*
X127815748Y-39225748D01*
X127804400Y-39242732D01*
X127804400Y-38897507D01*
X128158582Y-38543326D01*
X128189330Y-38563871D01*
X128518765Y-38629400D01*
X128741235Y-38629400D01*
X129070670Y-38563871D01*
X129444252Y-38314252D01*
X129693871Y-37940670D01*
X129781526Y-37500000D01*
X130018474Y-37500000D01*
X130106129Y-37940670D01*
X130355748Y-38314252D01*
X130729330Y-38563871D01*
X131058765Y-38629400D01*
X131281235Y-38629400D01*
X131610670Y-38563871D01*
X131984252Y-38314252D01*
X132233871Y-37940670D01*
X132321526Y-37500000D01*
X132558474Y-37500000D01*
X132646129Y-37940670D01*
X132895748Y-38314252D01*
X133269330Y-38563871D01*
X133598765Y-38629400D01*
X133821235Y-38629400D01*
X134150670Y-38563871D01*
X134524252Y-38314252D01*
X134773871Y-37940670D01*
X134861526Y-37500000D01*
X135098474Y-37500000D01*
X135186129Y-37940670D01*
X135435748Y-38314252D01*
X135809330Y-38563871D01*
X136138765Y-38629400D01*
X136361235Y-38629400D01*
X136428500Y-38616020D01*
X142069600Y-38616020D01*
X142069600Y-39383980D01*
X142363486Y-40093484D01*
X142906516Y-40636514D01*
X143616020Y-40930400D01*
X144383980Y-40930400D01*
X145093484Y-40636514D01*
X145636514Y-40093484D01*
X145930400Y-39383980D01*
X145930400Y-38616020D01*
X145636514Y-37906516D01*
X145093484Y-37363486D01*
X144383980Y-37069600D01*
X143616020Y-37069600D01*
X142906516Y-37363486D01*
X142363486Y-37906516D01*
X142069600Y-38616020D01*
X136428500Y-38616020D01*
X136690670Y-38563871D01*
X137064252Y-38314252D01*
X137313871Y-37940670D01*
X137401526Y-37500000D01*
X137313871Y-37059330D01*
X137064252Y-36685748D01*
X136690670Y-36436129D01*
X136361235Y-36370600D01*
X136138765Y-36370600D01*
X135809330Y-36436129D01*
X135435748Y-36685748D01*
X135186129Y-37059330D01*
X135098474Y-37500000D01*
X134861526Y-37500000D01*
X134773871Y-37059330D01*
X134524252Y-36685748D01*
X134150670Y-36436129D01*
X133821235Y-36370600D01*
X133598765Y-36370600D01*
X133269330Y-36436129D01*
X132895748Y-36685748D01*
X132646129Y-37059330D01*
X132558474Y-37500000D01*
X132321526Y-37500000D01*
X132233871Y-37059330D01*
X131984252Y-36685748D01*
X131610670Y-36436129D01*
X131281235Y-36370600D01*
X131058765Y-36370600D01*
X130729330Y-36436129D01*
X130355748Y-36685748D01*
X130106129Y-37059330D01*
X130018474Y-37500000D01*
X129781526Y-37500000D01*
X129693871Y-37059330D01*
X129444252Y-36685748D01*
X129070670Y-36436129D01*
X128741235Y-36370600D01*
X128518765Y-36370600D01*
X128189330Y-36436129D01*
X127815748Y-36685748D01*
X127566129Y-37059330D01*
X127478474Y-37500000D01*
X127566129Y-37940670D01*
X127586674Y-37971418D01*
X127142212Y-38415881D01*
X127108444Y-38438444D01*
X127025902Y-38561978D01*
X127019064Y-38572212D01*
X126987678Y-38730000D01*
X126995600Y-38769827D01*
X126995600Y-39362461D01*
X126904252Y-39225748D01*
X126530670Y-38976129D01*
X126201235Y-38910600D01*
X125978765Y-38910600D01*
X125649330Y-38976129D01*
X125275748Y-39225748D01*
X125254400Y-39257698D01*
X125254400Y-38907507D01*
X125618582Y-38543326D01*
X125649330Y-38563871D01*
X125978765Y-38629400D01*
X126201235Y-38629400D01*
X126530670Y-38563871D01*
X126904252Y-38314252D01*
X127153871Y-37940670D01*
X127241526Y-37500000D01*
X127153871Y-37059330D01*
X126904252Y-36685748D01*
X126530670Y-36436129D01*
X126201235Y-36370600D01*
X125978765Y-36370600D01*
X125649330Y-36436129D01*
X125275748Y-36685748D01*
X125026129Y-37059330D01*
X124938474Y-37500000D01*
X125026129Y-37940670D01*
X125046674Y-37971418D01*
X124684873Y-38333220D01*
X124684873Y-36650000D01*
X124663188Y-36540984D01*
X124601436Y-36448564D01*
X124509016Y-36386812D01*
X124400000Y-36365127D01*
X122700000Y-36365127D01*
X122590984Y-36386812D01*
X122498564Y-36448564D01*
X122436812Y-36540984D01*
X122415127Y-36650000D01*
X122415127Y-38062966D01*
X122192212Y-38285881D01*
X122158444Y-38308444D01*
X122087746Y-38414252D01*
X122069064Y-38442212D01*
X122037678Y-38600000D01*
X122045600Y-38639827D01*
X122045601Y-43234786D01*
X121884849Y-43074034D01*
X121635141Y-42970601D01*
X121364859Y-42970601D01*
X121115151Y-43074034D01*
X120924033Y-43265152D01*
X120820600Y-43514860D01*
X120820600Y-43580717D01*
X119430717Y-44970600D01*
X109031416Y-44970600D01*
X108984849Y-44924033D01*
X108735141Y-44820600D01*
X108464859Y-44820600D01*
X108215151Y-44924033D01*
X108024033Y-45115151D01*
X107920600Y-45364859D01*
X107429618Y-45364859D01*
X107396240Y-45197060D01*
X107109931Y-44768569D01*
X106987106Y-44686500D01*
X107109931Y-44604431D01*
X107396240Y-44175940D01*
X107471400Y-43798084D01*
X107471400Y-42399916D01*
X107396240Y-42022060D01*
X107109931Y-41593569D01*
X106699529Y-41319347D01*
X106674683Y-41194439D01*
X106557676Y-41019324D01*
X106513475Y-40989790D01*
X104338544Y-38814859D01*
X106820600Y-38814859D01*
X106820600Y-39085141D01*
X106924033Y-39334849D01*
X107115151Y-39525967D01*
X107364859Y-39629400D01*
X107635141Y-39629400D01*
X107884849Y-39525967D01*
X107931416Y-39479400D01*
X116780716Y-39479400D01*
X119362525Y-42061210D01*
X119362528Y-42061212D01*
X119420600Y-42119284D01*
X119420600Y-42185141D01*
X119524033Y-42434849D01*
X119715151Y-42625967D01*
X119964859Y-42729400D01*
X120235141Y-42729400D01*
X120484849Y-42625967D01*
X120675967Y-42434849D01*
X120779400Y-42185141D01*
X120779400Y-41914859D01*
X120675967Y-41665151D01*
X120484849Y-41474033D01*
X120235141Y-41370600D01*
X120169284Y-41370600D01*
X120111212Y-41312528D01*
X120111210Y-41312525D01*
X117411212Y-38612528D01*
X117381676Y-38568324D01*
X117206561Y-38451317D01*
X117138917Y-38437862D01*
X117174252Y-38414252D01*
X117423871Y-38040670D01*
X117511526Y-37600000D01*
X117423871Y-37159330D01*
X117174252Y-36785748D01*
X117120752Y-36750000D01*
X117765127Y-36750000D01*
X117765127Y-38450000D01*
X117786812Y-38559016D01*
X117848564Y-38651436D01*
X117940984Y-38713188D01*
X118050000Y-38734873D01*
X119750000Y-38734873D01*
X119859016Y-38713188D01*
X119951436Y-38651436D01*
X120013188Y-38559016D01*
X120034873Y-38450000D01*
X120034873Y-36750000D01*
X120013188Y-36640984D01*
X119951436Y-36548564D01*
X119859016Y-36486812D01*
X119750000Y-36465127D01*
X118050000Y-36465127D01*
X117940984Y-36486812D01*
X117848564Y-36548564D01*
X117786812Y-36640984D01*
X117765127Y-36750000D01*
X117120752Y-36750000D01*
X116800670Y-36536129D01*
X116471235Y-36470600D01*
X116248765Y-36470600D01*
X115919330Y-36536129D01*
X115545748Y-36785748D01*
X115296129Y-37159330D01*
X115208474Y-37600000D01*
X115296129Y-38040670D01*
X115545748Y-38414252D01*
X115555248Y-38420600D01*
X113583419Y-38420600D01*
X113803871Y-38090670D01*
X113891526Y-37650000D01*
X113803871Y-37209330D01*
X113554252Y-36835748D01*
X113180670Y-36586129D01*
X112851235Y-36520600D01*
X112628765Y-36520600D01*
X112299330Y-36586129D01*
X111925748Y-36835748D01*
X111676129Y-37209330D01*
X111588474Y-37650000D01*
X111676129Y-38090670D01*
X111896581Y-38420600D01*
X111334873Y-38420600D01*
X111334873Y-36800000D01*
X111313188Y-36690984D01*
X111251436Y-36598564D01*
X111159016Y-36536812D01*
X111050000Y-36515127D01*
X109350000Y-36515127D01*
X109240984Y-36536812D01*
X109148564Y-36598564D01*
X109086812Y-36690984D01*
X109065127Y-36800000D01*
X109065127Y-38420600D01*
X107931416Y-38420600D01*
X107884849Y-38374033D01*
X107635141Y-38270600D01*
X107364859Y-38270600D01*
X107115151Y-38374033D01*
X106924033Y-38565151D01*
X106820600Y-38814859D01*
X104338544Y-38814859D01*
X103661212Y-38137528D01*
X103631676Y-38093324D01*
X103456561Y-37976317D01*
X103302138Y-37945600D01*
X103302137Y-37945600D01*
X103250000Y-37935229D01*
X103197863Y-37945600D01*
X86789636Y-37945600D01*
X86737499Y-37935229D01*
X86685362Y-37945600D01*
X86530939Y-37976317D01*
X86355824Y-38093324D01*
X86326290Y-38137525D01*
X83486528Y-40977288D01*
X83442324Y-41006824D01*
X83325317Y-41181940D01*
X83301203Y-41303169D01*
X83284229Y-41388500D01*
X83294600Y-41440637D01*
X83294600Y-41450270D01*
X82890069Y-41720569D01*
X82603760Y-42149061D01*
X82528600Y-42526917D01*
X73079400Y-42526917D01*
X73079400Y-39116897D01*
X73124102Y-38616020D01*
X75819600Y-38616020D01*
X75819600Y-39383980D01*
X76113486Y-40093484D01*
X76656516Y-40636514D01*
X77366020Y-40930400D01*
X78133980Y-40930400D01*
X78843484Y-40636514D01*
X79386514Y-40093484D01*
X79680400Y-39383980D01*
X79680400Y-38616020D01*
X79386514Y-37906516D01*
X78843484Y-37363486D01*
X78133980Y-37069600D01*
X77366020Y-37069600D01*
X76656516Y-37363486D01*
X76113486Y-37906516D01*
X75819600Y-38616020D01*
X73124102Y-38616020D01*
X73153910Y-38282028D01*
X73370608Y-37489915D01*
X73724154Y-36748690D01*
X74203371Y-36081789D01*
X74793113Y-35510290D01*
X75474737Y-35052258D01*
X76226696Y-34722171D01*
X77028149Y-34529759D01*
X77713911Y-34479400D01*
X86362632Y-34479400D01*
X86634649Y-34533507D01*
G04 #@! TD*
M02*
