G04 #@! TF.GenerationSoftware,KiCad,Pcbnew,(5.0.1-3-g963ef8bb5)*
G04 #@! TF.CreationDate,2019-05-10T17:55:58-07:00*
G04 #@! TF.ProjectId,ME203_Project,4D453230335F50726F6A6563742E6B69,rev?*
G04 #@! TF.SameCoordinates,Original*
G04 #@! TF.FileFunction,Legend,Bot*
G04 #@! TF.FilePolarity,Positive*
%FSLAX46Y46*%
G04 Gerber Fmt 4.6, Leading zero omitted, Abs format (unit mm)*
G04 Created by KiCad (PCBNEW (5.0.1-3-g963ef8bb5)) date Friday, May 10, 2019 at 05:55:58 PM*
%MOMM*%
%LPD*%
G01*
G04 APERTURE LIST*
%ADD10C,0.066040*%
%ADD11C,0.203200*%
%ADD12C,0.127000*%
G04 APERTURE END LIST*
D10*
G04 #@! TO.C,BT1*
X93001020Y-42751020D02*
X96998980Y-42751020D01*
X96998980Y-42751020D02*
X96998980Y-46748980D01*
X93001020Y-46748980D02*
X96998980Y-46748980D01*
X93001020Y-42751020D02*
X93001020Y-46748980D01*
X81538000Y-41321000D02*
X85094000Y-41321000D01*
X85094000Y-41321000D02*
X85094000Y-48433000D01*
X81538000Y-48433000D02*
X85094000Y-48433000D01*
X81538000Y-41321000D02*
X81538000Y-48433000D01*
X104906000Y-41194000D02*
X108462000Y-41194000D01*
X108462000Y-41194000D02*
X108462000Y-48306000D01*
X104906000Y-48306000D02*
X108462000Y-48306000D01*
X104906000Y-41194000D02*
X104906000Y-48306000D01*
D11*
X87501920Y-52098220D02*
X102498080Y-52098220D01*
X87501920Y-52098220D02*
X84451380Y-49398200D01*
X102498080Y-52098220D02*
X105548620Y-49398200D01*
X105548620Y-40200860D02*
X100549900Y-36802340D01*
X89450100Y-36802340D02*
X84451380Y-40200860D01*
X105548620Y-49398200D02*
X105548620Y-47947860D01*
X84451380Y-48328860D02*
X84451380Y-49398200D01*
X84451380Y-40200860D02*
X84451380Y-41171140D01*
X105548620Y-40200860D02*
X105548620Y-41171140D01*
X100547955Y-36803517D02*
G75*
G02X89450100Y-36802340I-5547955J9162957D01*
G01*
G04 #@! TO.C,R6*
D12*
X118351600Y-52075771D02*
X118554800Y-51785485D01*
X118699942Y-52075771D02*
X118699942Y-51466171D01*
X118467714Y-51466171D01*
X118409657Y-51495200D01*
X118380628Y-51524228D01*
X118351600Y-51582285D01*
X118351600Y-51669371D01*
X118380628Y-51727428D01*
X118409657Y-51756457D01*
X118467714Y-51785485D01*
X118699942Y-51785485D01*
X117829085Y-51466171D02*
X117945200Y-51466171D01*
X118003257Y-51495200D01*
X118032285Y-51524228D01*
X118090342Y-51611314D01*
X118119371Y-51727428D01*
X118119371Y-51959657D01*
X118090342Y-52017714D01*
X118061314Y-52046742D01*
X118003257Y-52075771D01*
X117887142Y-52075771D01*
X117829085Y-52046742D01*
X117800057Y-52017714D01*
X117771028Y-51959657D01*
X117771028Y-51814514D01*
X117800057Y-51756457D01*
X117829085Y-51727428D01*
X117887142Y-51698400D01*
X118003257Y-51698400D01*
X118061314Y-51727428D01*
X118090342Y-51756457D01*
X118119371Y-51814514D01*
G04 #@! TO.C,R5*
X118351600Y-50275771D02*
X118554800Y-49985485D01*
X118699942Y-50275771D02*
X118699942Y-49666171D01*
X118467714Y-49666171D01*
X118409657Y-49695200D01*
X118380628Y-49724228D01*
X118351600Y-49782285D01*
X118351600Y-49869371D01*
X118380628Y-49927428D01*
X118409657Y-49956457D01*
X118467714Y-49985485D01*
X118699942Y-49985485D01*
X117800057Y-49666171D02*
X118090342Y-49666171D01*
X118119371Y-49956457D01*
X118090342Y-49927428D01*
X118032285Y-49898400D01*
X117887142Y-49898400D01*
X117829085Y-49927428D01*
X117800057Y-49956457D01*
X117771028Y-50014514D01*
X117771028Y-50159657D01*
X117800057Y-50217714D01*
X117829085Y-50246742D01*
X117887142Y-50275771D01*
X118032285Y-50275771D01*
X118090342Y-50246742D01*
X118119371Y-50217714D01*
G04 #@! TO.C,R4*
X118351600Y-48475771D02*
X118554800Y-48185485D01*
X118699942Y-48475771D02*
X118699942Y-47866171D01*
X118467714Y-47866171D01*
X118409657Y-47895200D01*
X118380628Y-47924228D01*
X118351600Y-47982285D01*
X118351600Y-48069371D01*
X118380628Y-48127428D01*
X118409657Y-48156457D01*
X118467714Y-48185485D01*
X118699942Y-48185485D01*
X117829085Y-48069371D02*
X117829085Y-48475771D01*
X117974228Y-47837142D02*
X118119371Y-48272571D01*
X117742000Y-48272571D01*
G04 #@! TO.C,R9*
X118351600Y-57425771D02*
X118554800Y-57135485D01*
X118699942Y-57425771D02*
X118699942Y-56816171D01*
X118467714Y-56816171D01*
X118409657Y-56845200D01*
X118380628Y-56874228D01*
X118351600Y-56932285D01*
X118351600Y-57019371D01*
X118380628Y-57077428D01*
X118409657Y-57106457D01*
X118467714Y-57135485D01*
X118699942Y-57135485D01*
X118061314Y-57425771D02*
X117945200Y-57425771D01*
X117887142Y-57396742D01*
X117858114Y-57367714D01*
X117800057Y-57280628D01*
X117771028Y-57164514D01*
X117771028Y-56932285D01*
X117800057Y-56874228D01*
X117829085Y-56845200D01*
X117887142Y-56816171D01*
X118003257Y-56816171D01*
X118061314Y-56845200D01*
X118090342Y-56874228D01*
X118119371Y-56932285D01*
X118119371Y-57077428D01*
X118090342Y-57135485D01*
X118061314Y-57164514D01*
X118003257Y-57193542D01*
X117887142Y-57193542D01*
X117829085Y-57164514D01*
X117800057Y-57135485D01*
X117771028Y-57077428D01*
G04 #@! TO.C,R8*
X118351600Y-55675771D02*
X118554800Y-55385485D01*
X118699942Y-55675771D02*
X118699942Y-55066171D01*
X118467714Y-55066171D01*
X118409657Y-55095200D01*
X118380628Y-55124228D01*
X118351600Y-55182285D01*
X118351600Y-55269371D01*
X118380628Y-55327428D01*
X118409657Y-55356457D01*
X118467714Y-55385485D01*
X118699942Y-55385485D01*
X118003257Y-55327428D02*
X118061314Y-55298400D01*
X118090342Y-55269371D01*
X118119371Y-55211314D01*
X118119371Y-55182285D01*
X118090342Y-55124228D01*
X118061314Y-55095200D01*
X118003257Y-55066171D01*
X117887142Y-55066171D01*
X117829085Y-55095200D01*
X117800057Y-55124228D01*
X117771028Y-55182285D01*
X117771028Y-55211314D01*
X117800057Y-55269371D01*
X117829085Y-55298400D01*
X117887142Y-55327428D01*
X118003257Y-55327428D01*
X118061314Y-55356457D01*
X118090342Y-55385485D01*
X118119371Y-55443542D01*
X118119371Y-55559657D01*
X118090342Y-55617714D01*
X118061314Y-55646742D01*
X118003257Y-55675771D01*
X117887142Y-55675771D01*
X117829085Y-55646742D01*
X117800057Y-55617714D01*
X117771028Y-55559657D01*
X117771028Y-55443542D01*
X117800057Y-55385485D01*
X117829085Y-55356457D01*
X117887142Y-55327428D01*
G04 #@! TO.C,R7*
X118351600Y-53875771D02*
X118554800Y-53585485D01*
X118699942Y-53875771D02*
X118699942Y-53266171D01*
X118467714Y-53266171D01*
X118409657Y-53295200D01*
X118380628Y-53324228D01*
X118351600Y-53382285D01*
X118351600Y-53469371D01*
X118380628Y-53527428D01*
X118409657Y-53556457D01*
X118467714Y-53585485D01*
X118699942Y-53585485D01*
X118148400Y-53266171D02*
X117742000Y-53266171D01*
X118003257Y-53875771D01*
G04 #@! TD*
M02*
