G04 #@! TF.GenerationSoftware,KiCad,Pcbnew,(5.0.1-3-g963ef8bb5)*
G04 #@! TF.CreationDate,2019-05-10T17:58:09-07:00*
G04 #@! TF.ProjectId,NixieDriver,4E697869654472697665722E6B696361,rev?*
G04 #@! TF.SameCoordinates,Original*
G04 #@! TF.FileFunction,Legend,Top*
G04 #@! TF.FilePolarity,Positive*
%FSLAX46Y46*%
G04 Gerber Fmt 4.6, Leading zero omitted, Abs format (unit mm)*
G04 Created by KiCad (PCBNEW (5.0.1-3-g963ef8bb5)) date Friday, May 10, 2019 at 05:58:09 PM*
%MOMM*%
%LPD*%
G01*
G04 APERTURE LIST*
%ADD10C,0.200000*%
%ADD11C,0.177800*%
%ADD12C,0.150000*%
%ADD13C,0.120000*%
%ADD14C,0.127000*%
G04 APERTURE END LIST*
D10*
X129159000Y-82677000D02*
X129159000Y-86741000D01*
X120015000Y-86741000D02*
X120015000Y-82677000D01*
X120523000Y-83058000D02*
G75*
G03X120523000Y-83058000I-127000J0D01*
G01*
X129159000Y-82677000D02*
X120015000Y-82677000D01*
X120015000Y-86741000D02*
X129159000Y-86741000D01*
D11*
X126597833Y-86254166D02*
X126597833Y-85365166D01*
X126809500Y-85365166D01*
X126936500Y-85407500D01*
X127021166Y-85492166D01*
X127063500Y-85576833D01*
X127105833Y-85746166D01*
X127105833Y-85873166D01*
X127063500Y-86042500D01*
X127021166Y-86127166D01*
X126936500Y-86211833D01*
X126809500Y-86254166D01*
X126597833Y-86254166D01*
X127486833Y-86254166D02*
X127486833Y-85365166D01*
X128079500Y-85365166D02*
X128248833Y-85365166D01*
X128333500Y-85407500D01*
X128418166Y-85492166D01*
X128460500Y-85661500D01*
X128460500Y-85957833D01*
X128418166Y-86127166D01*
X128333500Y-86211833D01*
X128248833Y-86254166D01*
X128079500Y-86254166D01*
X127994833Y-86211833D01*
X127910166Y-86127166D01*
X127867833Y-85957833D01*
X127867833Y-85661500D01*
X127910166Y-85492166D01*
X127994833Y-85407500D01*
X128079500Y-85365166D01*
X123952000Y-84980780D02*
X124671666Y-84980780D01*
X124587000Y-86254166D02*
X124163666Y-86254166D01*
X124163666Y-85365166D01*
X124671666Y-84980780D02*
X125476000Y-84980780D01*
X124883333Y-85788500D02*
X125179666Y-85788500D01*
X125306666Y-86254166D02*
X124883333Y-86254166D01*
X124883333Y-85365166D01*
X125306666Y-85365166D01*
X120988666Y-86254166D02*
X120480666Y-86254166D01*
X120734666Y-86254166D02*
X120734666Y-85365166D01*
X120650000Y-85492166D01*
X120565333Y-85576833D01*
X120480666Y-85619166D01*
X121327333Y-85449833D02*
X121369666Y-85407500D01*
X121454333Y-85365166D01*
X121666000Y-85365166D01*
X121750666Y-85407500D01*
X121793000Y-85449833D01*
X121835333Y-85534500D01*
X121835333Y-85619166D01*
X121793000Y-85746166D01*
X121285000Y-86254166D01*
X121835333Y-86254166D01*
X122089333Y-85365166D02*
X122385666Y-86254166D01*
X122682000Y-85365166D01*
X127105833Y-84264500D02*
X127063500Y-84306833D01*
X126936500Y-84349166D01*
X126851833Y-84349166D01*
X126724833Y-84306833D01*
X126640166Y-84222166D01*
X126597833Y-84137500D01*
X126555500Y-83968166D01*
X126555500Y-83841166D01*
X126597833Y-83671833D01*
X126640166Y-83587166D01*
X126724833Y-83502500D01*
X126851833Y-83460166D01*
X126936500Y-83460166D01*
X127063500Y-83502500D01*
X127105833Y-83544833D01*
X127910166Y-84349166D02*
X127486833Y-84349166D01*
X127486833Y-83460166D01*
X128206500Y-84349166D02*
X128206500Y-83460166D01*
X128714500Y-84349166D02*
X128333500Y-83841166D01*
X128714500Y-83460166D02*
X128206500Y-83968166D01*
X123909666Y-83075780D02*
X124798666Y-83075780D01*
X124417666Y-83883500D02*
X124544666Y-83925833D01*
X124587000Y-83968166D01*
X124629333Y-84052833D01*
X124629333Y-84179833D01*
X124587000Y-84264500D01*
X124544666Y-84306833D01*
X124460000Y-84349166D01*
X124121333Y-84349166D01*
X124121333Y-83460166D01*
X124417666Y-83460166D01*
X124502333Y-83502500D01*
X124544666Y-83544833D01*
X124587000Y-83629500D01*
X124587000Y-83714166D01*
X124544666Y-83798833D01*
X124502333Y-83841166D01*
X124417666Y-83883500D01*
X124121333Y-83883500D01*
X124798666Y-83075780D02*
X125518333Y-83075780D01*
X125433666Y-84349166D02*
X125010333Y-84349166D01*
X125010333Y-83460166D01*
X120988666Y-83502500D02*
X120904000Y-83460166D01*
X120777000Y-83460166D01*
X120650000Y-83502500D01*
X120565333Y-83587166D01*
X120523000Y-83671833D01*
X120480666Y-83841166D01*
X120480666Y-83968166D01*
X120523000Y-84137500D01*
X120565333Y-84222166D01*
X120650000Y-84306833D01*
X120777000Y-84349166D01*
X120861666Y-84349166D01*
X120988666Y-84306833D01*
X121031000Y-84264500D01*
X121031000Y-83968166D01*
X120861666Y-83968166D01*
X121412000Y-84349166D02*
X121412000Y-83460166D01*
X121920000Y-84349166D01*
X121920000Y-83460166D01*
X122343333Y-84349166D02*
X122343333Y-83460166D01*
X122555000Y-83460166D01*
X122682000Y-83502500D01*
X122766666Y-83587166D01*
X122809000Y-83671833D01*
X122851333Y-83841166D01*
X122851333Y-83968166D01*
X122809000Y-84137500D01*
X122766666Y-84222166D01*
X122682000Y-84306833D01*
X122555000Y-84349166D01*
X122343333Y-84349166D01*
X117940666Y-84095166D02*
X117432666Y-84095166D01*
X117686666Y-84095166D02*
X117686666Y-83206166D01*
X117602000Y-83333166D01*
X117517333Y-83417833D01*
X117432666Y-83460166D01*
X118237000Y-83206166D02*
X118829666Y-83206166D01*
X118448666Y-84095166D01*
X109262333Y-103907166D02*
X109812666Y-103907166D01*
X109516333Y-104245833D01*
X109643333Y-104245833D01*
X109728000Y-104288166D01*
X109770333Y-104330500D01*
X109812666Y-104415166D01*
X109812666Y-104626833D01*
X109770333Y-104711500D01*
X109728000Y-104753833D01*
X109643333Y-104796166D01*
X109389333Y-104796166D01*
X109304666Y-104753833D01*
X109262333Y-104711500D01*
X110151333Y-103991833D02*
X110193666Y-103949500D01*
X110278333Y-103907166D01*
X110490000Y-103907166D01*
X110574666Y-103949500D01*
X110617000Y-103991833D01*
X110659333Y-104076500D01*
X110659333Y-104161166D01*
X110617000Y-104288166D01*
X110109000Y-104796166D01*
X110659333Y-104796166D01*
X109812666Y-84095166D02*
X109304666Y-84095166D01*
X109558666Y-84095166D02*
X109558666Y-83206166D01*
X109474000Y-83333166D01*
X109389333Y-83417833D01*
X109304666Y-83460166D01*
X110320666Y-83587166D02*
X110236000Y-83544833D01*
X110193666Y-83502500D01*
X110151333Y-83417833D01*
X110151333Y-83375500D01*
X110193666Y-83290833D01*
X110236000Y-83248500D01*
X110320666Y-83206166D01*
X110490000Y-83206166D01*
X110574666Y-83248500D01*
X110617000Y-83290833D01*
X110659333Y-83375500D01*
X110659333Y-83417833D01*
X110617000Y-83502500D01*
X110574666Y-83544833D01*
X110490000Y-83587166D01*
X110320666Y-83587166D01*
X110236000Y-83629500D01*
X110193666Y-83671833D01*
X110151333Y-83756500D01*
X110151333Y-83925833D01*
X110193666Y-84010500D01*
X110236000Y-84052833D01*
X110320666Y-84095166D01*
X110490000Y-84095166D01*
X110574666Y-84052833D01*
X110617000Y-84010500D01*
X110659333Y-83925833D01*
X110659333Y-83756500D01*
X110617000Y-83671833D01*
X110574666Y-83629500D01*
X110490000Y-83587166D01*
X117390333Y-103907166D02*
X117940666Y-103907166D01*
X117644333Y-104245833D01*
X117771333Y-104245833D01*
X117856000Y-104288166D01*
X117898333Y-104330500D01*
X117940666Y-104415166D01*
X117940666Y-104626833D01*
X117898333Y-104711500D01*
X117856000Y-104753833D01*
X117771333Y-104796166D01*
X117517333Y-104796166D01*
X117432666Y-104753833D01*
X117390333Y-104711500D01*
X118787333Y-104796166D02*
X118279333Y-104796166D01*
X118533333Y-104796166D02*
X118533333Y-103907166D01*
X118448666Y-104034166D01*
X118364000Y-104118833D01*
X118279333Y-104161166D01*
X138303000Y-103864833D02*
X138345333Y-103822500D01*
X138430000Y-103780166D01*
X138641666Y-103780166D01*
X138726333Y-103822500D01*
X138768666Y-103864833D01*
X138811000Y-103949500D01*
X138811000Y-104034166D01*
X138768666Y-104161166D01*
X138260666Y-104669166D01*
X138811000Y-104669166D01*
X131572000Y-104669166D02*
X131064000Y-104669166D01*
X131318000Y-104669166D02*
X131318000Y-103780166D01*
X131233333Y-103907166D01*
X131148666Y-103991833D01*
X131064000Y-104034166D01*
X138768666Y-84222166D02*
X138260666Y-84222166D01*
X138514666Y-84222166D02*
X138514666Y-83333166D01*
X138430000Y-83460166D01*
X138345333Y-83544833D01*
X138260666Y-83587166D01*
X139530666Y-83333166D02*
X139361333Y-83333166D01*
X139276666Y-83375500D01*
X139234333Y-83417833D01*
X139149666Y-83544833D01*
X139107333Y-83714166D01*
X139107333Y-84052833D01*
X139149666Y-84137500D01*
X139192000Y-84179833D01*
X139276666Y-84222166D01*
X139446000Y-84222166D01*
X139530666Y-84179833D01*
X139573000Y-84137500D01*
X139615333Y-84052833D01*
X139615333Y-83841166D01*
X139573000Y-83756500D01*
X139530666Y-83714166D01*
X139446000Y-83671833D01*
X139276666Y-83671833D01*
X139192000Y-83714166D01*
X139149666Y-83756500D01*
X139107333Y-83841166D01*
X130640666Y-84222166D02*
X130132666Y-84222166D01*
X130386666Y-84222166D02*
X130386666Y-83333166D01*
X130302000Y-83460166D01*
X130217333Y-83544833D01*
X130132666Y-83587166D01*
X131445000Y-83333166D02*
X131021666Y-83333166D01*
X130979333Y-83756500D01*
X131021666Y-83714166D01*
X131106333Y-83671833D01*
X131318000Y-83671833D01*
X131402666Y-83714166D01*
X131445000Y-83756500D01*
X131487333Y-83841166D01*
X131487333Y-84052833D01*
X131445000Y-84137500D01*
X131402666Y-84179833D01*
X131318000Y-84222166D01*
X131106333Y-84222166D01*
X131021666Y-84179833D01*
X130979333Y-84137500D01*
D12*
G04 #@! TO.C,U1*
X129681000Y-88729000D02*
X129106000Y-88729000D01*
X129681000Y-99079000D02*
X129006000Y-99079000D01*
X119331000Y-99079000D02*
X120006000Y-99079000D01*
X119331000Y-88729000D02*
X120006000Y-88729000D01*
X129681000Y-88729000D02*
X129681000Y-89404000D01*
X119331000Y-88729000D02*
X119331000Y-89404000D01*
X119331000Y-99079000D02*
X119331000Y-98404000D01*
X129681000Y-99079000D02*
X129681000Y-98404000D01*
X129106000Y-88729000D02*
X129106000Y-87454000D01*
D13*
G04 #@! TO.C,J3*
X146618000Y-95250000D02*
X146618000Y-96580000D01*
X146618000Y-96580000D02*
X145288000Y-96580000D01*
X146618000Y-93980000D02*
X144018000Y-93980000D01*
X144018000Y-93980000D02*
X144018000Y-96580000D01*
X144018000Y-96580000D02*
X138878000Y-96580000D01*
X138878000Y-91380000D02*
X138878000Y-96580000D01*
X146618000Y-91380000D02*
X138878000Y-91380000D01*
X146618000Y-91380000D02*
X146618000Y-93980000D01*
G04 #@! TO.C,J2*
X102556000Y-96834000D02*
X102556000Y-94234000D01*
X102556000Y-96834000D02*
X110296000Y-96834000D01*
X110296000Y-96834000D02*
X110296000Y-91634000D01*
X105156000Y-91634000D02*
X110296000Y-91634000D01*
X105156000Y-94234000D02*
X105156000Y-91634000D01*
X102556000Y-94234000D02*
X105156000Y-94234000D01*
X102556000Y-91634000D02*
X103886000Y-91634000D01*
X102556000Y-92964000D02*
X102556000Y-91634000D01*
G04 #@! TO.C,J4*
X137474000Y-104200000D02*
X134874000Y-104200000D01*
X137474000Y-104200000D02*
X137474000Y-83760000D01*
X137474000Y-83760000D02*
X132274000Y-83760000D01*
X132274000Y-101600000D02*
X132274000Y-83760000D01*
X134874000Y-101600000D02*
X132274000Y-101600000D01*
X134874000Y-104200000D02*
X134874000Y-101600000D01*
X132274000Y-104200000D02*
X132274000Y-102870000D01*
X133604000Y-104200000D02*
X132274000Y-104200000D01*
G04 #@! TO.C,J1*
X111446000Y-83760000D02*
X114046000Y-83760000D01*
X111446000Y-83760000D02*
X111446000Y-104200000D01*
X111446000Y-104200000D02*
X116646000Y-104200000D01*
X116646000Y-86360000D02*
X116646000Y-104200000D01*
X114046000Y-86360000D02*
X116646000Y-86360000D01*
X114046000Y-83760000D02*
X114046000Y-86360000D01*
X116646000Y-83760000D02*
X116646000Y-85090000D01*
X115316000Y-83760000D02*
X116646000Y-83760000D01*
G04 #@! TO.C,C1*
D14*
X125628400Y-103595714D02*
X125599371Y-103624742D01*
X125512285Y-103653771D01*
X125454228Y-103653771D01*
X125367142Y-103624742D01*
X125309085Y-103566685D01*
X125280057Y-103508628D01*
X125251028Y-103392514D01*
X125251028Y-103305428D01*
X125280057Y-103189314D01*
X125309085Y-103131257D01*
X125367142Y-103073200D01*
X125454228Y-103044171D01*
X125512285Y-103044171D01*
X125599371Y-103073200D01*
X125628400Y-103102228D01*
X126208971Y-103653771D02*
X125860628Y-103653771D01*
X126034800Y-103653771D02*
X126034800Y-103044171D01*
X125976742Y-103131257D01*
X125918685Y-103189314D01*
X125860628Y-103218342D01*
G04 #@! TO.C,U1*
D12*
X123698095Y-93356380D02*
X123698095Y-94165904D01*
X123745714Y-94261142D01*
X123793333Y-94308761D01*
X123888571Y-94356380D01*
X124079047Y-94356380D01*
X124174285Y-94308761D01*
X124221904Y-94261142D01*
X124269523Y-94165904D01*
X124269523Y-93356380D01*
X125269523Y-94356380D02*
X124698095Y-94356380D01*
X124983809Y-94356380D02*
X124983809Y-93356380D01*
X124888571Y-93499238D01*
X124793333Y-93594476D01*
X124698095Y-93642095D01*
G04 #@! TD*
M02*
