G04 #@! TF.GenerationSoftware,KiCad,Pcbnew,(5.0.1-3-g963ef8bb5)*
G04 #@! TF.CreationDate,2019-05-10T17:58:09-07:00*
G04 #@! TF.ProjectId,NixieDriver,4E697869654472697665722E6B696361,rev?*
G04 #@! TF.SameCoordinates,Original*
G04 #@! TF.FileFunction,Paste,Top*
G04 #@! TF.FilePolarity,Positive*
%FSLAX46Y46*%
G04 Gerber Fmt 4.6, Leading zero omitted, Abs format (unit mm)*
G04 Created by KiCad (PCBNEW (5.0.1-3-g963ef8bb5)) date Friday, May 10, 2019 at 05:58:09 PM*
%MOMM*%
%LPD*%
G01*
G04 APERTURE LIST*
%ADD10R,0.797560X1.198880*%
%ADD11R,0.520000X1.500000*%
%ADD12R,1.500000X0.520000*%
G04 APERTURE END LIST*
D10*
G04 #@! TO.C,C1*
X126629160Y-102108000D03*
X124830840Y-102108000D03*
G04 #@! TD*
D11*
G04 #@! TO.C,U1*
X128506000Y-87854000D03*
X127706000Y-87854000D03*
X126906000Y-87854000D03*
X126106000Y-87854000D03*
X125306000Y-87854000D03*
X124506000Y-87854000D03*
X123706000Y-87854000D03*
X122906000Y-87854000D03*
X122106000Y-87854000D03*
X121306000Y-87854000D03*
X120506000Y-87854000D03*
D12*
X118456000Y-89904000D03*
X118456000Y-90704000D03*
X118456000Y-91504000D03*
X118456000Y-92304000D03*
X118456000Y-93104000D03*
X118456000Y-93904000D03*
X118456000Y-94704000D03*
X118456000Y-95504000D03*
X118456000Y-96304000D03*
X118456000Y-97104000D03*
X118456000Y-97904000D03*
D11*
X120506000Y-99954000D03*
X121306000Y-99954000D03*
X122106000Y-99954000D03*
X122906000Y-99954000D03*
X123706000Y-99954000D03*
X124506000Y-99954000D03*
X125306000Y-99954000D03*
X126106000Y-99954000D03*
X126906000Y-99954000D03*
X127706000Y-99954000D03*
X128506000Y-99954000D03*
D12*
X130556000Y-97904000D03*
X130556000Y-97104000D03*
X130556000Y-96304000D03*
X130556000Y-95504000D03*
X130556000Y-94704000D03*
X130556000Y-93904000D03*
X130556000Y-93104000D03*
X130556000Y-92304000D03*
X130556000Y-91504000D03*
X130556000Y-90704000D03*
X130556000Y-89904000D03*
G04 #@! TD*
M02*
