M48
;DRILL file {KiCad (5.0.1-3-g963ef8bb5)} date Friday, May 10, 2019 at 05:57:58 PM
;FORMAT={-:-/ absolute / inch / decimal}
FMAT,2
INCH,TZ
T1C0.0157
T2C0.0394
T3C0.1259
%
G90
G05
M72
T1
X4.7113Y-3.7285
X4.7136Y-3.5395
X4.7136Y-3.7915
X4.7136Y-3.8545
X4.7157Y-3.6655
X4.7166Y-3.6025
X4.7428Y-3.697
X4.7428Y-3.76
X4.7451Y-3.571
X4.7451Y-3.823
X4.7457Y-3.634
X4.75Y-3.5121
X4.78Y-3.5421
X4.785Y-4.01
X4.787Y-4.0734
X4.81Y-3.5121
X4.8149Y-4.0402
X4.84Y-3.5421
X4.87Y-3.5121
X4.9Y-3.5421
X4.9018Y-3.8561
X4.93Y-3.5121
X4.9379Y-4.0726
X4.9648Y-3.538
X4.9963Y-3.5088
X4.9963Y-3.8852
X5.0278Y-3.538
X5.04Y-4.02
X5.0593Y-3.8852
X5.0605Y-3.51
X5.0609Y-3.571
X5.0609Y-3.634
X5.0609Y-3.697
X5.0609Y-3.76
X5.0609Y-3.823
X5.09Y-3.5395
X5.09Y-3.6025
X5.09Y-3.6655
X5.09Y-3.7285
X5.09Y-3.7915
T2
X4.09Y-3.66
X4.09Y-3.76
X4.19Y-3.66
X4.19Y-3.76
X4.29Y-3.66
X4.29Y-3.76
X5.26Y-3.35
X5.26Y-3.45
X5.26Y-3.55
X5.26Y-3.65
X5.26Y-3.75
X5.26Y-3.85
X5.26Y-3.95
X5.26Y-4.05
X5.36Y-3.35
X5.36Y-3.45
X5.36Y-3.55
X5.36Y-3.65
X5.36Y-3.75
X5.36Y-3.85
X5.36Y-3.95
X5.36Y-4.05
X5.52Y-3.65
X5.52Y-3.75
X5.62Y-3.65
X5.62Y-3.75
X5.72Y-3.65
X5.72Y-3.75
X4.44Y-3.35
X4.44Y-3.45
X4.44Y-3.55
X4.44Y-3.65
X4.44Y-3.75
X4.44Y-3.85
X4.44Y-3.95
X4.44Y-4.05
X4.54Y-3.35
X4.54Y-3.45
X4.54Y-3.55
X4.54Y-3.65
X4.54Y-3.75
X4.54Y-3.85
X4.54Y-3.95
X4.54Y-4.05
T3
X5.61Y-3.98
X5.61Y-3.42
X4.19Y-3.42
X4.19Y-3.98
T0
M30
