G04 #@! TF.GenerationSoftware,KiCad,Pcbnew,(5.0.1-3-g963ef8bb5)*
G04 #@! TF.CreationDate,2019-05-10T17:55:58-07:00*
G04 #@! TF.ProjectId,ME203_Project,4D453230335F50726F6A6563742E6B69,rev?*
G04 #@! TF.SameCoordinates,Original*
G04 #@! TF.FileFunction,Copper,L1,Top,Signal*
G04 #@! TF.FilePolarity,Positive*
%FSLAX46Y46*%
G04 Gerber Fmt 4.6, Leading zero omitted, Abs format (unit mm)*
G04 Created by KiCad (PCBNEW (5.0.1-3-g963ef8bb5)) date Friday, May 10, 2019 at 05:55:58 PM*
%MOMM*%
%LPD*%
G01*
G04 APERTURE LIST*
G04 #@! TA.AperFunction,ComponentPad*
%ADD10O,1.700000X1.700000*%
G04 #@! TD*
G04 #@! TA.AperFunction,ComponentPad*
%ADD11R,1.700000X1.700000*%
G04 #@! TD*
G04 #@! TA.AperFunction,SMDPad,CuDef*
%ADD12R,1.198880X0.797560*%
G04 #@! TD*
G04 #@! TA.AperFunction,SMDPad,CuDef*
%ADD13R,1.798320X1.597660*%
G04 #@! TD*
G04 #@! TA.AperFunction,SMDPad,CuDef*
%ADD14R,6.000000X6.000000*%
G04 #@! TD*
G04 #@! TA.AperFunction,SMDPad,CuDef*
%ADD15O,2.500000X0.900000*%
G04 #@! TD*
G04 #@! TA.AperFunction,SMDPad,CuDef*
%ADD16O,0.900000X2.500000*%
G04 #@! TD*
G04 #@! TA.AperFunction,SMDPad,CuDef*
%ADD17R,0.797560X1.198880*%
G04 #@! TD*
G04 #@! TA.AperFunction,SMDPad,CuDef*
%ADD18R,0.812800X0.304800*%
G04 #@! TD*
G04 #@! TA.AperFunction,SMDPad,CuDef*
%ADD19R,0.304800X0.812800*%
G04 #@! TD*
G04 #@! TA.AperFunction,SMDPad,CuDef*
%ADD20R,2.159000X2.159000*%
G04 #@! TD*
G04 #@! TA.AperFunction,SMDPad,CuDef*
%ADD21R,1.450000X2.000000*%
G04 #@! TD*
G04 #@! TA.AperFunction,SMDPad,CuDef*
%ADD22R,0.800000X1.500000*%
G04 #@! TD*
G04 #@! TA.AperFunction,SMDPad,CuDef*
%ADD23R,0.500000X0.350000*%
G04 #@! TD*
G04 #@! TA.AperFunction,SMDPad,CuDef*
%ADD24R,1.524000X0.762000*%
G04 #@! TD*
G04 #@! TA.AperFunction,SMDPad,CuDef*
%ADD25R,0.998220X0.998220*%
G04 #@! TD*
G04 #@! TA.AperFunction,SMDPad,CuDef*
%ADD26R,1.099820X0.998220*%
G04 #@! TD*
G04 #@! TA.AperFunction,SMDPad,CuDef*
%ADD27R,0.610000X0.500000*%
G04 #@! TD*
G04 #@! TA.AperFunction,SMDPad,CuDef*
%ADD28R,1.100000X1.900000*%
G04 #@! TD*
G04 #@! TA.AperFunction,ComponentPad*
%ADD29C,0.320000*%
G04 #@! TD*
G04 #@! TA.AperFunction,SMDPad,CuDef*
%ADD30R,1.198880X0.599440*%
G04 #@! TD*
G04 #@! TA.AperFunction,SMDPad,CuDef*
%ADD31R,1.397000X1.193800*%
G04 #@! TD*
G04 #@! TA.AperFunction,SMDPad,CuDef*
%ADD32R,2.199640X0.599440*%
G04 #@! TD*
G04 #@! TA.AperFunction,SMDPad,CuDef*
%ADD33R,1.498600X2.247900*%
G04 #@! TD*
G04 #@! TA.AperFunction,SMDPad,CuDef*
%ADD34R,0.347980X0.899160*%
G04 #@! TD*
G04 #@! TA.AperFunction,Conductor*
%ADD35C,0.100000*%
G04 #@! TD*
G04 #@! TA.AperFunction,SMDPad,CuDef*
%ADD36C,0.875000*%
G04 #@! TD*
G04 #@! TA.AperFunction,SMDPad,CuDef*
%ADD37C,1.250000*%
G04 #@! TD*
G04 #@! TA.AperFunction,SMDPad,CuDef*
%ADD38C,0.975000*%
G04 #@! TD*
G04 #@! TA.AperFunction,SMDPad,CuDef*
%ADD39C,1.350000*%
G04 #@! TD*
G04 #@! TA.AperFunction,ViaPad*
%ADD40C,0.800000*%
G04 #@! TD*
G04 #@! TA.AperFunction,ViaPad*
%ADD41C,0.685800*%
G04 #@! TD*
G04 #@! TA.AperFunction,Conductor*
%ADD42C,0.800000*%
G04 #@! TD*
G04 #@! TA.AperFunction,Conductor*
%ADD43C,0.500000*%
G04 #@! TD*
G04 #@! TA.AperFunction,Conductor*
%ADD44C,0.250000*%
G04 #@! TD*
G04 #@! TA.AperFunction,Conductor*
%ADD45C,0.300000*%
G04 #@! TD*
G04 #@! TA.AperFunction,Conductor*
%ADD46C,0.254000*%
G04 #@! TD*
G04 APERTURE END LIST*
D10*
G04 #@! TO.P,J11,2*
G04 #@! TO.N,+3V3*
X86400000Y-83560000D03*
D11*
G04 #@! TO.P,J11,1*
X86400000Y-86100000D03*
G04 #@! TD*
G04 #@! TO.P,J13,1*
G04 #@! TO.N,GND*
X82700000Y-83500000D03*
D10*
G04 #@! TO.P,J13,2*
X82700000Y-86040000D03*
G04 #@! TD*
G04 #@! TO.P,J14,3*
G04 #@! TO.N,GND*
X99000000Y-72700000D03*
G04 #@! TO.P,J14,2*
G04 #@! TO.N,/ESP32/RXD0*
X99000000Y-75240000D03*
D11*
G04 #@! TO.P,J14,1*
G04 #@! TO.N,/ESP32/TXD0*
X99000000Y-77780000D03*
G04 #@! TD*
G04 #@! TO.P,J12,1*
G04 #@! TO.N,/ESP32/A11-T5-D12*
X124400000Y-65200000D03*
G04 #@! TD*
G04 #@! TO.P,J10,1*
G04 #@! TO.N,/ESP32/A7-T9-D32*
X124200000Y-71300000D03*
G04 #@! TD*
D12*
G04 #@! TO.P,R23,2*
G04 #@! TO.N,GND*
X88429599Y-64432216D03*
G04 #@! TO.P,R23,1*
G04 #@! TO.N,Net-(R22-Pad2)*
X88429599Y-66230536D03*
G04 #@! TD*
G04 #@! TO.P,R22,1*
G04 #@! TO.N,+3V3*
X88429599Y-69730536D03*
G04 #@! TO.P,R22,2*
G04 #@! TO.N,Net-(R22-Pad2)*
X88429599Y-67932216D03*
G04 #@! TD*
D13*
G04 #@! TO.P,C7,1*
G04 #@! TO.N,+12V*
X81679599Y-66181837D03*
G04 #@! TO.P,C7,2*
G04 #@! TO.N,GND*
X81679599Y-68980917D03*
G04 #@! TD*
D12*
G04 #@! TO.P,C19,1*
G04 #@! TO.N,+3.3VA*
X111050000Y-43650840D03*
G04 #@! TO.P,C19,2*
G04 #@! TO.N,AGND*
X111050000Y-45449160D03*
G04 #@! TD*
D14*
G04 #@! TO.P,U4,39*
G04 #@! TO.N,GND*
X112300000Y-72450000D03*
D15*
G04 #@! TO.P,U4,1*
X121000000Y-80150000D03*
G04 #@! TO.P,U4,2*
G04 #@! TO.N,+3V3*
X121000000Y-78880000D03*
G04 #@! TO.P,U4,3*
G04 #@! TO.N,Net-(R24-Pad2)*
X121000000Y-77610000D03*
G04 #@! TO.P,U4,4*
G04 #@! TO.N,/ESP32/A4-D36*
X121000000Y-76340000D03*
G04 #@! TO.P,U4,5*
G04 #@! TO.N,/ESP32/A3-D39*
X121000000Y-75070000D03*
G04 #@! TO.P,U4,6*
G04 #@! TO.N,/ESP32/A2-D34*
X121000000Y-73800000D03*
G04 #@! TO.P,U4,7*
G04 #@! TO.N,/ESP32/A13-D35*
X121000000Y-72530000D03*
G04 #@! TO.P,U4,8*
G04 #@! TO.N,/ESP32/A7-T9-D32*
X121000000Y-71260000D03*
G04 #@! TO.P,U4,9*
G04 #@! TO.N,/ESP32/A9-T8-D33*
X121000000Y-69990000D03*
G04 #@! TO.P,U4,10*
G04 #@! TO.N,/DAC1*
X121000000Y-68720000D03*
G04 #@! TO.P,U4,11*
G04 #@! TO.N,/DAC2*
X121000000Y-67450000D03*
G04 #@! TO.P,U4,12*
G04 #@! TO.N,/ESP32/SD-Select*
X121000000Y-66180000D03*
G04 #@! TO.P,U4,13*
G04 #@! TO.N,/ESP32/A6-T6-D14*
X121000000Y-64910000D03*
G04 #@! TO.P,U4,14*
G04 #@! TO.N,/ESP32/A11-T5-D12*
X121000000Y-63640000D03*
D16*
G04 #@! TO.P,U4,15*
G04 #@! TO.N,GND*
X117715000Y-62150000D03*
G04 #@! TO.P,U4,16*
G04 #@! TO.N,/ESP32/A12-D13*
X116445000Y-62150000D03*
G04 #@! TO.P,U4,17*
G04 #@! TO.N,Net-(U4-Pad17)*
X115175000Y-62150000D03*
G04 #@! TO.P,U4,18*
G04 #@! TO.N,Net-(U4-Pad18)*
X113905000Y-62150000D03*
G04 #@! TO.P,U4,19*
G04 #@! TO.N,Net-(U4-Pad19)*
X112635000Y-62150000D03*
G04 #@! TO.P,U4,20*
G04 #@! TO.N,Net-(U4-Pad20)*
X111365000Y-62150000D03*
G04 #@! TO.P,U4,21*
G04 #@! TO.N,Net-(U4-Pad21)*
X110095000Y-62150000D03*
G04 #@! TO.P,U4,22*
G04 #@! TO.N,Net-(U4-Pad22)*
X108825000Y-62150000D03*
G04 #@! TO.P,U4,23*
G04 #@! TO.N,/ESP32/A8-D15*
X107555000Y-62150000D03*
G04 #@! TO.P,U4,24*
G04 #@! TO.N,Net-(U4-Pad24)*
X106285000Y-62150000D03*
D15*
G04 #@! TO.P,U4,25*
G04 #@! TO.N,Net-(R25-Pad2)*
X103000000Y-63640000D03*
G04 #@! TO.P,U4,26*
G04 #@! TO.N,/ESP32/A5-T0-D4*
X103000000Y-64910000D03*
G04 #@! TO.P,U4,27*
G04 #@! TO.N,/ESP32/RX*
X103000000Y-66180000D03*
G04 #@! TO.P,U4,28*
G04 #@! TO.N,/ESP32/TX*
X103000000Y-67450000D03*
G04 #@! TO.P,U4,29*
G04 #@! TO.N,/ESP32/SCK-D5*
X103000000Y-68720000D03*
G04 #@! TO.P,U4,30*
G04 #@! TO.N,/ESP32/MOSI-D18*
X103000000Y-69990000D03*
G04 #@! TO.P,U4,31*
G04 #@! TO.N,/ESP32/MISO-D19*
X103000000Y-71260000D03*
G04 #@! TO.P,U4,32*
G04 #@! TO.N,Net-(U4-Pad32)*
X103000000Y-72530000D03*
G04 #@! TO.P,U4,33*
G04 #@! TO.N,/Nixie_Interface/CLK*
X103000000Y-73800000D03*
G04 #@! TO.P,U4,34*
G04 #@! TO.N,/ESP32/RXD0*
X103000000Y-75070000D03*
G04 #@! TO.P,U4,35*
G04 #@! TO.N,/ESP32/TXD0*
X103000000Y-76340000D03*
G04 #@! TO.P,U4,36*
G04 #@! TO.N,/MCU_Audio/SCL*
X103000000Y-77610000D03*
G04 #@! TO.P,U4,37*
G04 #@! TO.N,/MCU_Audio/SDA*
X103000000Y-78880000D03*
G04 #@! TO.P,U4,38*
G04 #@! TO.N,GND*
X103000000Y-80150000D03*
G04 #@! TD*
D12*
G04 #@! TO.P,C17,1*
G04 #@! TO.N,Net-(C17-Pad1)*
X117891602Y-47416177D03*
G04 #@! TO.P,C17,2*
G04 #@! TO.N,/DAC2*
X117891602Y-49214497D03*
G04 #@! TD*
G04 #@! TO.P,C12,2*
G04 #@! TO.N,GND*
X94500000Y-78499160D03*
G04 #@! TO.P,C12,1*
G04 #@! TO.N,+3V3*
X94500000Y-76700840D03*
G04 #@! TD*
G04 #@! TO.P,C13,1*
G04 #@! TO.N,+3V3*
X111048320Y-42250840D03*
G04 #@! TO.P,C13,2*
G04 #@! TO.N,GND*
X111048320Y-40452520D03*
G04 #@! TD*
G04 #@! TO.P,C14,2*
G04 #@! TO.N,AGND*
X118200000Y-43600840D03*
G04 #@! TO.P,C14,1*
G04 #@! TO.N,GND*
X118200000Y-45399160D03*
G04 #@! TD*
G04 #@! TO.P,C15,1*
G04 #@! TO.N,+3V3*
X118200000Y-42199160D03*
G04 #@! TO.P,C15,2*
G04 #@! TO.N,GND*
X118200000Y-40400840D03*
G04 #@! TD*
G04 #@! TO.P,C18,2*
G04 #@! TO.N,/DAC1*
X111150000Y-49249160D03*
G04 #@! TO.P,C18,1*
G04 #@! TO.N,Net-(C18-Pad1)*
X111150000Y-47450840D03*
G04 #@! TD*
G04 #@! TO.P,R21,1*
G04 #@! TO.N,+3V3*
X114550000Y-49649160D03*
G04 #@! TO.P,R21,2*
G04 #@! TO.N,Net-(R21-Pad2)*
X114550000Y-47850840D03*
G04 #@! TD*
D17*
G04 #@! TO.P,R20,2*
G04 #@! TO.N,/ESP32/SD-Select*
X100800840Y-56175000D03*
G04 #@! TO.P,R20,1*
G04 #@! TO.N,+3V3*
X102599160Y-56175000D03*
G04 #@! TD*
D12*
G04 #@! TO.P,FB1,1*
G04 #@! TO.N,+3.3VA*
X109250000Y-44049160D03*
G04 #@! TO.P,FB1,2*
G04 #@! TO.N,+3V3*
X109250000Y-42250840D03*
G04 #@! TD*
G04 #@! TO.P,FB2,2*
G04 #@! TO.N,AGND*
X119900000Y-43600840D03*
G04 #@! TO.P,FB2,1*
G04 #@! TO.N,GND*
X119900000Y-45399160D03*
G04 #@! TD*
D17*
G04 #@! TO.P,C16,1*
G04 #@! TO.N,+3V3*
X109199160Y-40550000D03*
G04 #@! TO.P,C16,2*
G04 #@! TO.N,GND*
X107400840Y-40550000D03*
G04 #@! TD*
D18*
G04 #@! TO.P,U6,1*
G04 #@! TO.N,Net-(C17-Pad1)*
X116531200Y-44590600D03*
G04 #@! TO.P,U6,2*
G04 #@! TO.N,GND*
X116531200Y-44108000D03*
G04 #@! TO.P,U6,3*
G04 #@! TO.N,AGND*
X116531200Y-43600000D03*
G04 #@! TO.P,U6,4*
G04 #@! TO.N,+3V3*
X116531200Y-43092000D03*
G04 #@! TO.P,U6,5*
X116531200Y-42609400D03*
D19*
G04 #@! TO.P,U6,6*
G04 #@! TO.N,Net-(J8-Pad1)*
X115540600Y-41618800D03*
G04 #@! TO.P,U6,7*
G04 #@! TO.N,Net-(J8-Pad2)*
X115058000Y-41618800D03*
G04 #@! TO.P,U6,8*
G04 #@! TO.N,GND*
X114550000Y-41618800D03*
G04 #@! TO.P,U6,9*
G04 #@! TO.N,Net-(J9-Pad2)*
X114042000Y-41618800D03*
G04 #@! TO.P,U6,10*
G04 #@! TO.N,Net-(J9-Pad1)*
X113559400Y-41618800D03*
D18*
G04 #@! TO.P,U6,11*
G04 #@! TO.N,+3V3*
X112568800Y-42609400D03*
G04 #@! TO.P,U6,12*
X112568800Y-43092000D03*
G04 #@! TO.P,U6,13*
G04 #@! TO.N,+3.3VA*
X112568800Y-43600000D03*
G04 #@! TO.P,U6,14*
G04 #@! TO.N,GND*
X112568800Y-44108000D03*
G04 #@! TO.P,U6,15*
G04 #@! TO.N,Net-(C18-Pad1)*
X112568800Y-44590600D03*
D19*
G04 #@! TO.P,U6,16*
G04 #@! TO.N,Net-(U6-Pad16)*
X113559400Y-45581200D03*
G04 #@! TO.P,U6,17*
G04 #@! TO.N,/MCU_Audio/SCL*
X114042000Y-45581200D03*
G04 #@! TO.P,U6,18*
G04 #@! TO.N,Net-(R21-Pad2)*
X114550000Y-45581200D03*
G04 #@! TO.P,U6,19*
G04 #@! TO.N,/MCU_Audio/SDA*
X115058000Y-45581200D03*
G04 #@! TO.P,U6,20*
G04 #@! TO.N,Net-(U6-Pad20)*
X115540600Y-45581200D03*
D20*
G04 #@! TO.P,U6,21*
G04 #@! TO.N,GND*
X114550000Y-43600000D03*
G04 #@! TD*
D10*
G04 #@! TO.P,J8,2*
G04 #@! TO.N,Net-(J8-Pad2)*
X116360000Y-37600000D03*
D11*
G04 #@! TO.P,J8,1*
G04 #@! TO.N,Net-(J8-Pad1)*
X118900000Y-37600000D03*
G04 #@! TD*
G04 #@! TO.P,J9,1*
G04 #@! TO.N,Net-(J9-Pad1)*
X110200000Y-37650000D03*
D10*
G04 #@! TO.P,J9,2*
G04 #@! TO.N,Net-(J9-Pad2)*
X112740000Y-37650000D03*
G04 #@! TD*
D11*
G04 #@! TO.P,J1,1*
G04 #@! TO.N,Net-(J1-Pad1)*
X123550000Y-37500000D03*
D10*
G04 #@! TO.P,J1,2*
G04 #@! TO.N,Net-(J1-Pad2)*
X123550000Y-40040000D03*
G04 #@! TO.P,J1,3*
G04 #@! TO.N,Net-(J1-Pad3)*
X126090000Y-37500000D03*
G04 #@! TO.P,J1,4*
G04 #@! TO.N,Net-(J1-Pad4)*
X126090000Y-40040000D03*
G04 #@! TO.P,J1,5*
G04 #@! TO.N,Net-(J1-Pad5)*
X128630000Y-37500000D03*
G04 #@! TO.P,J1,6*
G04 #@! TO.N,Net-(J1-Pad6)*
X128630000Y-40040000D03*
G04 #@! TO.P,J1,7*
G04 #@! TO.N,Net-(J1-Pad7)*
X131170000Y-37500000D03*
G04 #@! TO.P,J1,8*
G04 #@! TO.N,Net-(J1-Pad8)*
X131170000Y-40040000D03*
G04 #@! TO.P,J1,9*
G04 #@! TO.N,Net-(J1-Pad9)*
X133710000Y-37500000D03*
G04 #@! TO.P,J1,10*
G04 #@! TO.N,Net-(J1-Pad10)*
X133710000Y-40040000D03*
G04 #@! TO.P,J1,11*
G04 #@! TO.N,Net-(J1-Pad11)*
X136250000Y-37500000D03*
G04 #@! TO.P,J1,12*
G04 #@! TO.N,Net-(J1-Pad12)*
X136250000Y-40040000D03*
G04 #@! TD*
D21*
G04 #@! TO.P,J7,9*
G04 #@! TO.N,GND*
X101525000Y-38500000D03*
X87775000Y-38500000D03*
X87775000Y-46800000D03*
X101525000Y-46800000D03*
D22*
G04 #@! TO.P,J7,8*
G04 #@! TO.N,Net-(J7-Pad8)*
X99150000Y-41100000D03*
G04 #@! TO.P,J7,7*
G04 #@! TO.N,/ESP32/MISO-D19*
X98050000Y-41100000D03*
G04 #@! TO.P,J7,6*
G04 #@! TO.N,GND*
X96950000Y-41100000D03*
G04 #@! TO.P,J7,5*
G04 #@! TO.N,/ESP32/SCK-D5*
X95850000Y-41100000D03*
G04 #@! TO.P,J7,4*
G04 #@! TO.N,+3V3*
X94750000Y-41100000D03*
G04 #@! TO.P,J7,3*
G04 #@! TO.N,/ESP32/MOSI-D18*
X93650000Y-41100000D03*
G04 #@! TO.P,J7,2*
G04 #@! TO.N,/ESP32/SD-Select*
X92550000Y-41100000D03*
G04 #@! TO.P,J7,1*
G04 #@! TO.N,Net-(J7-Pad1)*
X91450000Y-41100000D03*
G04 #@! TD*
D12*
G04 #@! TO.P,C5,2*
G04 #@! TO.N,GND*
X87429599Y-58932216D03*
G04 #@! TO.P,C5,1*
G04 #@! TO.N,+12V*
X87429599Y-60730536D03*
G04 #@! TD*
G04 #@! TO.P,C4,1*
G04 #@! TO.N,GND*
X87429599Y-56730536D03*
G04 #@! TO.P,C4,2*
G04 #@! TO.N,+3V3*
X87429599Y-54932216D03*
G04 #@! TD*
G04 #@! TO.P,C6,1*
G04 #@! TO.N,+3V3*
X81450000Y-77681840D03*
G04 #@! TO.P,C6,2*
G04 #@! TO.N,GND*
X81450000Y-79480160D03*
G04 #@! TD*
G04 #@! TO.P,C10,1*
G04 #@! TO.N,+3V3*
X124000000Y-78850840D03*
G04 #@! TO.P,C10,2*
G04 #@! TO.N,GND*
X124000000Y-80649160D03*
G04 #@! TD*
D17*
G04 #@! TO.P,C11,2*
G04 #@! TO.N,GND*
X91350840Y-80100000D03*
G04 #@! TO.P,C11,1*
G04 #@! TO.N,+3V3*
X93149160Y-80100000D03*
G04 #@! TD*
D12*
G04 #@! TO.P,R25,2*
G04 #@! TO.N,Net-(R25-Pad2)*
X100100000Y-63700840D03*
G04 #@! TO.P,R25,1*
G04 #@! TO.N,+3V3*
X100100000Y-65499160D03*
G04 #@! TD*
G04 #@! TO.P,R24,1*
G04 #@! TO.N,+3V3*
X100100000Y-59900840D03*
G04 #@! TO.P,R24,2*
G04 #@! TO.N,Net-(R24-Pad2)*
X100100000Y-61699160D03*
G04 #@! TD*
G04 #@! TO.P,R19,1*
G04 #@! TO.N,+3V3*
X90550000Y-74899160D03*
G04 #@! TO.P,R19,2*
G04 #@! TO.N,/MCU_Audio/SCL*
X90550000Y-73100840D03*
G04 #@! TD*
G04 #@! TO.P,R18,2*
G04 #@! TO.N,/MCU_Audio/SDA*
X88800000Y-73100840D03*
G04 #@! TO.P,R18,1*
G04 #@! TO.N,+3V3*
X88800000Y-74899160D03*
G04 #@! TD*
D17*
G04 #@! TO.P,R17,1*
G04 #@! TO.N,/ESP32/A12-D13*
X112126099Y-57186099D03*
G04 #@! TO.P,R17,2*
G04 #@! TO.N,Net-(D3-PadA)*
X110327779Y-57186099D03*
G04 #@! TD*
G04 #@! TO.P,R16,2*
G04 #@! TO.N,Net-(D2-PadA)*
X110350840Y-55300000D03*
G04 #@! TO.P,R16,1*
G04 #@! TO.N,+3V3*
X112149160Y-55300000D03*
G04 #@! TD*
G04 #@! TO.P,R15,1*
G04 #@! TO.N,Net-(J1-Pad12)*
X121349160Y-57200000D03*
G04 #@! TO.P,R15,2*
G04 #@! TO.N,/Nixie_PSU/180V*
X119550840Y-57200000D03*
G04 #@! TD*
G04 #@! TO.P,R14,2*
G04 #@! TO.N,/Nixie_PSU/180V*
X119550840Y-55400000D03*
G04 #@! TO.P,R14,1*
G04 #@! TO.N,Net-(J1-Pad11)*
X121349160Y-55400000D03*
G04 #@! TD*
G04 #@! TO.P,R13,1*
G04 #@! TO.N,Net-(J1-Pad10)*
X121349160Y-53600000D03*
G04 #@! TO.P,R13,2*
G04 #@! TO.N,/Nixie_PSU/180V*
X119550840Y-53600000D03*
G04 #@! TD*
G04 #@! TO.P,R12,2*
G04 #@! TO.N,/Nixie_PSU/180V*
X119550840Y-51800000D03*
G04 #@! TO.P,R12,1*
G04 #@! TO.N,Net-(J1-Pad9)*
X121349160Y-51800000D03*
G04 #@! TD*
G04 #@! TO.P,R11,1*
G04 #@! TO.N,Net-(J1-Pad8)*
X121349160Y-50000000D03*
G04 #@! TO.P,R11,2*
G04 #@! TO.N,/Nixie_PSU/180V*
X119550840Y-50000000D03*
G04 #@! TD*
G04 #@! TO.P,R10,2*
G04 #@! TO.N,/Nixie_PSU/180V*
X119550840Y-48200000D03*
G04 #@! TO.P,R10,1*
G04 #@! TO.N,Net-(J1-Pad7)*
X121349160Y-48200000D03*
G04 #@! TD*
D23*
G04 #@! TO.P,U5,1*
G04 #@! TO.N,GND*
X91450000Y-78575000D03*
G04 #@! TO.P,U5,5*
G04 #@! TO.N,+3V3*
X93050000Y-76625000D03*
G04 #@! TO.P,U5,6*
X93050000Y-77275000D03*
G04 #@! TO.P,U5,7*
G04 #@! TO.N,GND*
X93050000Y-77925000D03*
G04 #@! TO.P,U5,4*
G04 #@! TO.N,/MCU_Audio/SCL*
X91450000Y-76625000D03*
G04 #@! TO.P,U5,3*
G04 #@! TO.N,/MCU_Audio/SDA*
X91450000Y-77275000D03*
G04 #@! TO.P,U5,2*
G04 #@! TO.N,+3V3*
X91450000Y-77925000D03*
G04 #@! TO.P,U5,8*
X93050000Y-78575000D03*
G04 #@! TD*
D24*
G04 #@! TO.P,SW2,1*
G04 #@! TO.N,Net-(R25-Pad2)*
X92206000Y-63695000D03*
X97794000Y-63695000D03*
G04 #@! TO.P,SW2,2*
G04 #@! TO.N,GND*
X92206000Y-67505000D03*
X97794000Y-67505000D03*
G04 #@! TD*
G04 #@! TO.P,SW1,2*
G04 #@! TO.N,Net-(R24-Pad2)*
X97794000Y-61605000D03*
X92206000Y-61605000D03*
G04 #@! TO.P,SW1,1*
G04 #@! TO.N,GND*
X97794000Y-57795000D03*
X92206000Y-57795000D03*
G04 #@! TD*
D25*
G04 #@! TO.P,D3,C*
G04 #@! TO.N,GND*
X106923700Y-57200000D03*
G04 #@! TO.P,D3,A*
G04 #@! TO.N,Net-(D3-PadA)*
X108676300Y-57200000D03*
G04 #@! TD*
G04 #@! TO.P,D2,A*
G04 #@! TO.N,Net-(D2-PadA)*
X108676300Y-55350000D03*
G04 #@! TO.P,D2,C*
G04 #@! TO.N,GND*
X106923700Y-55350000D03*
G04 #@! TD*
D11*
G04 #@! TO.P,J6,1*
G04 #@! TO.N,/DAC2*
X138630000Y-85450000D03*
D10*
G04 #@! TO.P,J6,2*
G04 #@! TO.N,/DAC1*
X136090000Y-85450000D03*
G04 #@! TO.P,J6,3*
G04 #@! TO.N,/ESP32/A9-T8-D33*
X133550000Y-85450000D03*
G04 #@! TO.P,J6,4*
G04 #@! TO.N,/ESP32/A13-D35*
X131010000Y-85450000D03*
G04 #@! TO.P,J6,5*
G04 #@! TO.N,/ESP32/A2-D34*
X128470000Y-85450000D03*
G04 #@! TO.P,J6,6*
G04 #@! TO.N,/ESP32/A3-D39*
X125930000Y-85450000D03*
G04 #@! TO.P,J6,7*
G04 #@! TO.N,/ESP32/A4-D36*
X123390000Y-85450000D03*
G04 #@! TD*
D11*
G04 #@! TO.P,J2,1*
G04 #@! TO.N,/ESP32/MISO-D19*
X100450000Y-85450000D03*
D10*
G04 #@! TO.P,J2,2*
G04 #@! TO.N,/ESP32/MOSI-D18*
X97910000Y-85450000D03*
G04 #@! TO.P,J2,3*
G04 #@! TO.N,/ESP32/SCK-D5*
X95370000Y-85450000D03*
G04 #@! TO.P,J2,4*
G04 #@! TO.N,/ESP32/TX*
X92830000Y-85450000D03*
G04 #@! TO.P,J2,5*
G04 #@! TO.N,/ESP32/RX*
X90290000Y-85450000D03*
G04 #@! TD*
D26*
G04 #@! TO.P,C8,2*
G04 #@! TO.N,GND*
X84581240Y-64331376D03*
G04 #@! TO.P,C8,1*
G04 #@! TO.N,Net-(C8-Pad1)*
X86277960Y-64331376D03*
G04 #@! TD*
G04 #@! TO.P,R1,2*
G04 #@! TO.N,/Nixie_PSU/FB*
X144151640Y-45750000D03*
G04 #@! TO.P,R1,1*
G04 #@! TO.N,/Nixie_PSU/180V*
X145848360Y-45750000D03*
G04 #@! TD*
G04 #@! TO.P,R2,1*
G04 #@! TO.N,/Nixie_PSU/FB*
X142448360Y-45750000D03*
G04 #@! TO.P,R2,2*
G04 #@! TO.N,Net-(R2-Pad2)*
X140751640Y-45750000D03*
G04 #@! TD*
G04 #@! TO.P,R3,2*
G04 #@! TO.N,GND*
X138951640Y-44200000D03*
G04 #@! TO.P,R3,1*
G04 #@! TO.N,Net-(R2-Pad2)*
X140648360Y-44200000D03*
G04 #@! TD*
D17*
G04 #@! TO.P,C9,1*
G04 #@! TO.N,+3V3*
X86328760Y-71081376D03*
G04 #@! TO.P,C9,2*
G04 #@! TO.N,GND*
X84530440Y-71081376D03*
G04 #@! TD*
D27*
G04 #@! TO.P,U3,1*
G04 #@! TO.N,+12V*
X84379599Y-66606377D03*
G04 #@! TO.P,U3,5*
G04 #@! TO.N,+3V3*
X86479599Y-68556377D03*
G04 #@! TO.P,U3,2*
G04 #@! TO.N,+12V*
X84379598Y-67256377D03*
G04 #@! TO.P,U3,3*
G04 #@! TO.N,GND*
X84379599Y-67906377D03*
G04 #@! TO.P,U3,4*
G04 #@! TO.N,+3V3*
X84379599Y-68556377D03*
G04 #@! TO.P,U3,6*
G04 #@! TO.N,Net-(R22-Pad2)*
X86479600Y-67906377D03*
G04 #@! TO.P,U3,7*
G04 #@! TO.N,Net-(U3-Pad7)*
X86479599Y-67256377D03*
G04 #@! TO.P,U3,8*
G04 #@! TO.N,Net-(C8-Pad1)*
X86479599Y-66606377D03*
D28*
G04 #@! TO.P,U3,EP*
G04 #@! TO.N,GND*
X85429599Y-67581377D03*
D29*
G04 #@! TO.P,U3,V3*
X85429599Y-68331377D03*
G04 #@! TO.P,U3,V2*
X85429599Y-67581377D03*
G04 #@! TO.P,U3,V1*
X85429599Y-66831377D03*
G04 #@! TD*
D30*
G04 #@! TO.P,RTC1,1*
G04 #@! TO.N,Net-(RTC1-Pad1)*
X83222920Y-76422000D03*
G04 #@! TO.P,RTC1,2*
G04 #@! TO.N,+3V3*
X83222920Y-77692000D03*
G04 #@! TO.P,RTC1,3*
G04 #@! TO.N,Net-(RTC1-Pad3)*
X83222920Y-78962000D03*
G04 #@! TO.P,RTC1,4*
G04 #@! TO.N,Net-(RTC1-Pad4)*
X83222920Y-80232000D03*
G04 #@! TO.P,RTC1,5*
G04 #@! TO.N,GND*
X88821080Y-80232000D03*
G04 #@! TO.P,RTC1,6*
G04 #@! TO.N,+*
X88821080Y-78962000D03*
G04 #@! TO.P,RTC1,7*
G04 #@! TO.N,/MCU_Audio/SDA*
X88821080Y-77692000D03*
G04 #@! TO.P,RTC1,8*
G04 #@! TO.N,/MCU_Audio/SCL*
X88821080Y-76422000D03*
G04 #@! TD*
D31*
G04 #@! TO.P,D1,A*
G04 #@! TO.N,Net-(D1-PadA)*
X145900000Y-57899400D03*
G04 #@! TO.P,D1,C*
G04 #@! TO.N,/Nixie_PSU/180V*
X145900000Y-54800600D03*
G04 #@! TD*
D32*
G04 #@! TO.P,Q1,1*
G04 #@! TO.N,Net-(C2-Pad1)*
X138101580Y-52645000D03*
G04 #@! TO.P,Q1,2*
X138101580Y-53915000D03*
G04 #@! TO.P,Q1,3*
X138101580Y-55185000D03*
G04 #@! TO.P,Q1,4*
G04 #@! TO.N,Net-(Q1-Pad4)*
X138101580Y-56455000D03*
G04 #@! TO.P,Q1,5*
G04 #@! TO.N,Net-(Q1-Pad5)*
X143298420Y-56455000D03*
G04 #@! TO.P,Q1,6*
X143298420Y-55185000D03*
G04 #@! TO.P,Q1,7*
X143298420Y-53915000D03*
G04 #@! TO.P,Q1,8*
X143298420Y-52645000D03*
G04 #@! TD*
G04 #@! TO.P,U1,1*
G04 #@! TO.N,Net-(C2-Pad1)*
X130201580Y-54045000D03*
G04 #@! TO.P,U1,2*
G04 #@! TO.N,Net-(CC1-Pad1)*
X130201580Y-55315000D03*
G04 #@! TO.P,U1,3*
G04 #@! TO.N,/Nixie_PSU/FB*
X130201580Y-56585000D03*
G04 #@! TO.P,U1,4*
G04 #@! TO.N,GND*
X130201580Y-57855000D03*
G04 #@! TO.P,U1,5*
X135398420Y-57855000D03*
G04 #@! TO.P,U1,6*
G04 #@! TO.N,Net-(Q1-Pad4)*
X135398420Y-56585000D03*
G04 #@! TO.P,U1,7*
G04 #@! TO.N,Net-(RF1-Pad2)*
X135398420Y-55315000D03*
G04 #@! TO.P,U1,8*
G04 #@! TO.N,+12V*
X135398420Y-54045000D03*
G04 #@! TD*
D33*
G04 #@! TO.P,T1,1*
G04 #@! TO.N,Net-(D1-PadA)*
X145646940Y-61775920D03*
G04 #@! TO.P,T1,2*
G04 #@! TO.N,Net-(Q1-Pad5)*
X143647960Y-61775920D03*
G04 #@! TO.P,T1,3*
G04 #@! TO.N,Net-(T1-Pad3)*
X141646440Y-61775920D03*
G04 #@! TO.P,T1,4*
X139650000Y-61775920D03*
G04 #@! TO.P,T1,5*
G04 #@! TO.N,+12V*
X137648480Y-61775920D03*
G04 #@! TO.P,T1,6*
G04 #@! TO.N,Net-(T1-Pad12)*
X135649500Y-61775920D03*
G04 #@! TO.P,T1,7*
G04 #@! TO.N,Net-(T1-Pad11)*
X135649500Y-73724080D03*
G04 #@! TO.P,T1,8*
G04 #@! TO.N,GND*
X137648480Y-73724080D03*
G04 #@! TO.P,T1,9*
G04 #@! TO.N,Net-(T1-Pad10)*
X139650000Y-73724080D03*
G04 #@! TO.P,T1,10*
X141646440Y-73724080D03*
G04 #@! TO.P,T1,11*
G04 #@! TO.N,Net-(T1-Pad11)*
X143647960Y-73724080D03*
G04 #@! TO.P,T1,12*
G04 #@! TO.N,Net-(T1-Pad12)*
X145646940Y-73724080D03*
G04 #@! TD*
D34*
G04 #@! TO.P,U2,16*
G04 #@! TO.N,+12V*
X86202900Y-60704116D03*
G04 #@! TO.P,U2,15*
G04 #@! TO.N,+3V3*
X85552660Y-60704116D03*
G04 #@! TO.P,U2,14*
G04 #@! TO.N,/ESP32/A6-T6-D14*
X84902421Y-60704116D03*
G04 #@! TO.P,U2,13*
G04 #@! TO.N,/Nixie_Interface/HDIN*
X84252180Y-60704116D03*
G04 #@! TO.P,U2,12*
G04 #@! TO.N,N/C*
X83607020Y-60704116D03*
G04 #@! TO.P,U2,11*
G04 #@! TO.N,/Nixie_Interface/~HLE*
X82956780Y-60704117D03*
G04 #@! TO.P,U2,10*
G04 #@! TO.N,/ESP32/A8-D15*
X82306540Y-60704116D03*
G04 #@! TO.P,U2,9*
G04 #@! TO.N,+3V3*
X81656300Y-60704116D03*
G04 #@! TO.P,U2,8*
G04 #@! TO.N,GND*
X81656300Y-54958636D03*
G04 #@! TO.P,U2,7*
G04 #@! TO.N,+3V3*
X82306540Y-54958636D03*
G04 #@! TO.P,U2,6*
G04 #@! TO.N,/ESP32/A5-T0-D4*
X82956779Y-54958636D03*
G04 #@! TO.P,U2,5*
G04 #@! TO.N,/Nixie_Interface/~HBL*
X83607020Y-54958636D03*
G04 #@! TO.P,U2,4*
G04 #@! TO.N,/Nixie_Interface/HCLK*
X84252180Y-54958636D03*
G04 #@! TO.P,U2,3*
G04 #@! TO.N,/Nixie_Interface/CLK*
X84902420Y-54958635D03*
G04 #@! TO.P,U2,2*
G04 #@! TO.N,+3V3*
X85552660Y-54958636D03*
G04 #@! TO.P,U2,1*
X86202900Y-54958636D03*
G04 #@! TD*
D10*
G04 #@! TO.P,J5,2*
G04 #@! TO.N,Net-(J4-Pad1)*
X77679599Y-74291376D03*
D11*
G04 #@! TO.P,J5,1*
G04 #@! TO.N,GND*
X77679599Y-76831376D03*
G04 #@! TD*
D10*
G04 #@! TO.P,J4,2*
G04 #@! TO.N,+12V*
X77679599Y-66041376D03*
D11*
G04 #@! TO.P,J4,1*
G04 #@! TO.N,Net-(J4-Pad1)*
X77679599Y-68581376D03*
G04 #@! TD*
D10*
G04 #@! TO.P,J3,6*
G04 #@! TO.N,GND*
X77679599Y-47381376D03*
G04 #@! TO.P,J3,5*
G04 #@! TO.N,/Nixie_Interface/HDIN*
X77679599Y-49921376D03*
G04 #@! TO.P,J3,4*
G04 #@! TO.N,/Nixie_Interface/~HLE*
X77679599Y-52461376D03*
G04 #@! TO.P,J3,3*
G04 #@! TO.N,/Nixie_Interface/~HBL*
X77679599Y-55001376D03*
G04 #@! TO.P,J3,2*
G04 #@! TO.N,/Nixie_Interface/HCLK*
X77679599Y-57541376D03*
D11*
G04 #@! TO.P,J3,1*
G04 #@! TO.N,+12V*
X77679599Y-60081376D03*
G04 #@! TD*
D35*
G04 #@! TO.N,Net-(CS1-Pad2)*
G04 #@! TO.C,CS1*
G36*
X139340191Y-58576053D02*
X139361426Y-58579203D01*
X139382250Y-58584419D01*
X139402462Y-58591651D01*
X139421868Y-58600830D01*
X139440281Y-58611866D01*
X139457524Y-58624654D01*
X139473430Y-58639070D01*
X139487846Y-58654976D01*
X139500634Y-58672219D01*
X139511670Y-58690632D01*
X139520849Y-58710038D01*
X139528081Y-58730250D01*
X139533297Y-58751074D01*
X139536447Y-58772309D01*
X139537500Y-58793750D01*
X139537500Y-59306250D01*
X139536447Y-59327691D01*
X139533297Y-59348926D01*
X139528081Y-59369750D01*
X139520849Y-59389962D01*
X139511670Y-59409368D01*
X139500634Y-59427781D01*
X139487846Y-59445024D01*
X139473430Y-59460930D01*
X139457524Y-59475346D01*
X139440281Y-59488134D01*
X139421868Y-59499170D01*
X139402462Y-59508349D01*
X139382250Y-59515581D01*
X139361426Y-59520797D01*
X139340191Y-59523947D01*
X139318750Y-59525000D01*
X138881250Y-59525000D01*
X138859809Y-59523947D01*
X138838574Y-59520797D01*
X138817750Y-59515581D01*
X138797538Y-59508349D01*
X138778132Y-59499170D01*
X138759719Y-59488134D01*
X138742476Y-59475346D01*
X138726570Y-59460930D01*
X138712154Y-59445024D01*
X138699366Y-59427781D01*
X138688330Y-59409368D01*
X138679151Y-59389962D01*
X138671919Y-59369750D01*
X138666703Y-59348926D01*
X138663553Y-59327691D01*
X138662500Y-59306250D01*
X138662500Y-58793750D01*
X138663553Y-58772309D01*
X138666703Y-58751074D01*
X138671919Y-58730250D01*
X138679151Y-58710038D01*
X138688330Y-58690632D01*
X138699366Y-58672219D01*
X138712154Y-58654976D01*
X138726570Y-58639070D01*
X138742476Y-58624654D01*
X138759719Y-58611866D01*
X138778132Y-58600830D01*
X138797538Y-58591651D01*
X138817750Y-58584419D01*
X138838574Y-58579203D01*
X138859809Y-58576053D01*
X138881250Y-58575000D01*
X139318750Y-58575000D01*
X139340191Y-58576053D01*
X139340191Y-58576053D01*
G37*
D36*
G04 #@! TD*
G04 #@! TO.P,CS1,2*
G04 #@! TO.N,Net-(CS1-Pad2)*
X139100000Y-59050000D03*
D35*
G04 #@! TO.N,+12V*
G04 #@! TO.C,CS1*
G36*
X137765191Y-58576053D02*
X137786426Y-58579203D01*
X137807250Y-58584419D01*
X137827462Y-58591651D01*
X137846868Y-58600830D01*
X137865281Y-58611866D01*
X137882524Y-58624654D01*
X137898430Y-58639070D01*
X137912846Y-58654976D01*
X137925634Y-58672219D01*
X137936670Y-58690632D01*
X137945849Y-58710038D01*
X137953081Y-58730250D01*
X137958297Y-58751074D01*
X137961447Y-58772309D01*
X137962500Y-58793750D01*
X137962500Y-59306250D01*
X137961447Y-59327691D01*
X137958297Y-59348926D01*
X137953081Y-59369750D01*
X137945849Y-59389962D01*
X137936670Y-59409368D01*
X137925634Y-59427781D01*
X137912846Y-59445024D01*
X137898430Y-59460930D01*
X137882524Y-59475346D01*
X137865281Y-59488134D01*
X137846868Y-59499170D01*
X137827462Y-59508349D01*
X137807250Y-59515581D01*
X137786426Y-59520797D01*
X137765191Y-59523947D01*
X137743750Y-59525000D01*
X137306250Y-59525000D01*
X137284809Y-59523947D01*
X137263574Y-59520797D01*
X137242750Y-59515581D01*
X137222538Y-59508349D01*
X137203132Y-59499170D01*
X137184719Y-59488134D01*
X137167476Y-59475346D01*
X137151570Y-59460930D01*
X137137154Y-59445024D01*
X137124366Y-59427781D01*
X137113330Y-59409368D01*
X137104151Y-59389962D01*
X137096919Y-59369750D01*
X137091703Y-59348926D01*
X137088553Y-59327691D01*
X137087500Y-59306250D01*
X137087500Y-58793750D01*
X137088553Y-58772309D01*
X137091703Y-58751074D01*
X137096919Y-58730250D01*
X137104151Y-58710038D01*
X137113330Y-58690632D01*
X137124366Y-58672219D01*
X137137154Y-58654976D01*
X137151570Y-58639070D01*
X137167476Y-58624654D01*
X137184719Y-58611866D01*
X137203132Y-58600830D01*
X137222538Y-58591651D01*
X137242750Y-58584419D01*
X137263574Y-58579203D01*
X137284809Y-58576053D01*
X137306250Y-58575000D01*
X137743750Y-58575000D01*
X137765191Y-58576053D01*
X137765191Y-58576053D01*
G37*
D36*
G04 #@! TD*
G04 #@! TO.P,CS1,1*
G04 #@! TO.N,+12V*
X137525000Y-59050000D03*
D35*
G04 #@! TO.N,Net-(CC1-Pad2)*
G04 #@! TO.C,CC1*
G36*
X131927691Y-48476053D02*
X131948926Y-48479203D01*
X131969750Y-48484419D01*
X131989962Y-48491651D01*
X132009368Y-48500830D01*
X132027781Y-48511866D01*
X132045024Y-48524654D01*
X132060930Y-48539070D01*
X132075346Y-48554976D01*
X132088134Y-48572219D01*
X132099170Y-48590632D01*
X132108349Y-48610038D01*
X132115581Y-48630250D01*
X132120797Y-48651074D01*
X132123947Y-48672309D01*
X132125000Y-48693750D01*
X132125000Y-49206250D01*
X132123947Y-49227691D01*
X132120797Y-49248926D01*
X132115581Y-49269750D01*
X132108349Y-49289962D01*
X132099170Y-49309368D01*
X132088134Y-49327781D01*
X132075346Y-49345024D01*
X132060930Y-49360930D01*
X132045024Y-49375346D01*
X132027781Y-49388134D01*
X132009368Y-49399170D01*
X131989962Y-49408349D01*
X131969750Y-49415581D01*
X131948926Y-49420797D01*
X131927691Y-49423947D01*
X131906250Y-49425000D01*
X131468750Y-49425000D01*
X131447309Y-49423947D01*
X131426074Y-49420797D01*
X131405250Y-49415581D01*
X131385038Y-49408349D01*
X131365632Y-49399170D01*
X131347219Y-49388134D01*
X131329976Y-49375346D01*
X131314070Y-49360930D01*
X131299654Y-49345024D01*
X131286866Y-49327781D01*
X131275830Y-49309368D01*
X131266651Y-49289962D01*
X131259419Y-49269750D01*
X131254203Y-49248926D01*
X131251053Y-49227691D01*
X131250000Y-49206250D01*
X131250000Y-48693750D01*
X131251053Y-48672309D01*
X131254203Y-48651074D01*
X131259419Y-48630250D01*
X131266651Y-48610038D01*
X131275830Y-48590632D01*
X131286866Y-48572219D01*
X131299654Y-48554976D01*
X131314070Y-48539070D01*
X131329976Y-48524654D01*
X131347219Y-48511866D01*
X131365632Y-48500830D01*
X131385038Y-48491651D01*
X131405250Y-48484419D01*
X131426074Y-48479203D01*
X131447309Y-48476053D01*
X131468750Y-48475000D01*
X131906250Y-48475000D01*
X131927691Y-48476053D01*
X131927691Y-48476053D01*
G37*
D36*
G04 #@! TD*
G04 #@! TO.P,CC1,2*
G04 #@! TO.N,Net-(CC1-Pad2)*
X131687500Y-48950000D03*
D35*
G04 #@! TO.N,Net-(CC1-Pad1)*
G04 #@! TO.C,CC1*
G36*
X130352691Y-48476053D02*
X130373926Y-48479203D01*
X130394750Y-48484419D01*
X130414962Y-48491651D01*
X130434368Y-48500830D01*
X130452781Y-48511866D01*
X130470024Y-48524654D01*
X130485930Y-48539070D01*
X130500346Y-48554976D01*
X130513134Y-48572219D01*
X130524170Y-48590632D01*
X130533349Y-48610038D01*
X130540581Y-48630250D01*
X130545797Y-48651074D01*
X130548947Y-48672309D01*
X130550000Y-48693750D01*
X130550000Y-49206250D01*
X130548947Y-49227691D01*
X130545797Y-49248926D01*
X130540581Y-49269750D01*
X130533349Y-49289962D01*
X130524170Y-49309368D01*
X130513134Y-49327781D01*
X130500346Y-49345024D01*
X130485930Y-49360930D01*
X130470024Y-49375346D01*
X130452781Y-49388134D01*
X130434368Y-49399170D01*
X130414962Y-49408349D01*
X130394750Y-49415581D01*
X130373926Y-49420797D01*
X130352691Y-49423947D01*
X130331250Y-49425000D01*
X129893750Y-49425000D01*
X129872309Y-49423947D01*
X129851074Y-49420797D01*
X129830250Y-49415581D01*
X129810038Y-49408349D01*
X129790632Y-49399170D01*
X129772219Y-49388134D01*
X129754976Y-49375346D01*
X129739070Y-49360930D01*
X129724654Y-49345024D01*
X129711866Y-49327781D01*
X129700830Y-49309368D01*
X129691651Y-49289962D01*
X129684419Y-49269750D01*
X129679203Y-49248926D01*
X129676053Y-49227691D01*
X129675000Y-49206250D01*
X129675000Y-48693750D01*
X129676053Y-48672309D01*
X129679203Y-48651074D01*
X129684419Y-48630250D01*
X129691651Y-48610038D01*
X129700830Y-48590632D01*
X129711866Y-48572219D01*
X129724654Y-48554976D01*
X129739070Y-48539070D01*
X129754976Y-48524654D01*
X129772219Y-48511866D01*
X129790632Y-48500830D01*
X129810038Y-48491651D01*
X129830250Y-48484419D01*
X129851074Y-48479203D01*
X129872309Y-48476053D01*
X129893750Y-48475000D01*
X130331250Y-48475000D01*
X130352691Y-48476053D01*
X130352691Y-48476053D01*
G37*
D36*
G04 #@! TD*
G04 #@! TO.P,CC1,1*
G04 #@! TO.N,Net-(CC1-Pad1)*
X130112500Y-48950000D03*
D35*
G04 #@! TO.N,GND*
G04 #@! TO.C,C2*
G36*
X131677691Y-50226053D02*
X131698926Y-50229203D01*
X131719750Y-50234419D01*
X131739962Y-50241651D01*
X131759368Y-50250830D01*
X131777781Y-50261866D01*
X131795024Y-50274654D01*
X131810930Y-50289070D01*
X131825346Y-50304976D01*
X131838134Y-50322219D01*
X131849170Y-50340632D01*
X131858349Y-50360038D01*
X131865581Y-50380250D01*
X131870797Y-50401074D01*
X131873947Y-50422309D01*
X131875000Y-50443750D01*
X131875000Y-50881250D01*
X131873947Y-50902691D01*
X131870797Y-50923926D01*
X131865581Y-50944750D01*
X131858349Y-50964962D01*
X131849170Y-50984368D01*
X131838134Y-51002781D01*
X131825346Y-51020024D01*
X131810930Y-51035930D01*
X131795024Y-51050346D01*
X131777781Y-51063134D01*
X131759368Y-51074170D01*
X131739962Y-51083349D01*
X131719750Y-51090581D01*
X131698926Y-51095797D01*
X131677691Y-51098947D01*
X131656250Y-51100000D01*
X131143750Y-51100000D01*
X131122309Y-51098947D01*
X131101074Y-51095797D01*
X131080250Y-51090581D01*
X131060038Y-51083349D01*
X131040632Y-51074170D01*
X131022219Y-51063134D01*
X131004976Y-51050346D01*
X130989070Y-51035930D01*
X130974654Y-51020024D01*
X130961866Y-51002781D01*
X130950830Y-50984368D01*
X130941651Y-50964962D01*
X130934419Y-50944750D01*
X130929203Y-50923926D01*
X130926053Y-50902691D01*
X130925000Y-50881250D01*
X130925000Y-50443750D01*
X130926053Y-50422309D01*
X130929203Y-50401074D01*
X130934419Y-50380250D01*
X130941651Y-50360038D01*
X130950830Y-50340632D01*
X130961866Y-50322219D01*
X130974654Y-50304976D01*
X130989070Y-50289070D01*
X131004976Y-50274654D01*
X131022219Y-50261866D01*
X131040632Y-50250830D01*
X131060038Y-50241651D01*
X131080250Y-50234419D01*
X131101074Y-50229203D01*
X131122309Y-50226053D01*
X131143750Y-50225000D01*
X131656250Y-50225000D01*
X131677691Y-50226053D01*
X131677691Y-50226053D01*
G37*
D36*
G04 #@! TD*
G04 #@! TO.P,C2,2*
G04 #@! TO.N,GND*
X131400000Y-50662500D03*
D35*
G04 #@! TO.N,Net-(C2-Pad1)*
G04 #@! TO.C,C2*
G36*
X131677691Y-51801053D02*
X131698926Y-51804203D01*
X131719750Y-51809419D01*
X131739962Y-51816651D01*
X131759368Y-51825830D01*
X131777781Y-51836866D01*
X131795024Y-51849654D01*
X131810930Y-51864070D01*
X131825346Y-51879976D01*
X131838134Y-51897219D01*
X131849170Y-51915632D01*
X131858349Y-51935038D01*
X131865581Y-51955250D01*
X131870797Y-51976074D01*
X131873947Y-51997309D01*
X131875000Y-52018750D01*
X131875000Y-52456250D01*
X131873947Y-52477691D01*
X131870797Y-52498926D01*
X131865581Y-52519750D01*
X131858349Y-52539962D01*
X131849170Y-52559368D01*
X131838134Y-52577781D01*
X131825346Y-52595024D01*
X131810930Y-52610930D01*
X131795024Y-52625346D01*
X131777781Y-52638134D01*
X131759368Y-52649170D01*
X131739962Y-52658349D01*
X131719750Y-52665581D01*
X131698926Y-52670797D01*
X131677691Y-52673947D01*
X131656250Y-52675000D01*
X131143750Y-52675000D01*
X131122309Y-52673947D01*
X131101074Y-52670797D01*
X131080250Y-52665581D01*
X131060038Y-52658349D01*
X131040632Y-52649170D01*
X131022219Y-52638134D01*
X131004976Y-52625346D01*
X130989070Y-52610930D01*
X130974654Y-52595024D01*
X130961866Y-52577781D01*
X130950830Y-52559368D01*
X130941651Y-52539962D01*
X130934419Y-52519750D01*
X130929203Y-52498926D01*
X130926053Y-52477691D01*
X130925000Y-52456250D01*
X130925000Y-52018750D01*
X130926053Y-51997309D01*
X130929203Y-51976074D01*
X130934419Y-51955250D01*
X130941651Y-51935038D01*
X130950830Y-51915632D01*
X130961866Y-51897219D01*
X130974654Y-51879976D01*
X130989070Y-51864070D01*
X131004976Y-51849654D01*
X131022219Y-51836866D01*
X131040632Y-51825830D01*
X131060038Y-51816651D01*
X131080250Y-51809419D01*
X131101074Y-51804203D01*
X131122309Y-51801053D01*
X131143750Y-51800000D01*
X131656250Y-51800000D01*
X131677691Y-51801053D01*
X131677691Y-51801053D01*
G37*
D36*
G04 #@! TD*
G04 #@! TO.P,C2,1*
G04 #@! TO.N,Net-(C2-Pad1)*
X131400000Y-52237500D03*
D35*
G04 #@! TO.N,GND*
G04 #@! TO.C,C3*
G36*
X143399504Y-48326204D02*
X143423773Y-48329804D01*
X143447571Y-48335765D01*
X143470671Y-48344030D01*
X143492849Y-48354520D01*
X143513893Y-48367133D01*
X143533598Y-48381747D01*
X143551777Y-48398223D01*
X143568253Y-48416402D01*
X143582867Y-48436107D01*
X143595480Y-48457151D01*
X143605970Y-48479329D01*
X143614235Y-48502429D01*
X143620196Y-48526227D01*
X143623796Y-48550496D01*
X143625000Y-48575000D01*
X143625000Y-50725000D01*
X143623796Y-50749504D01*
X143620196Y-50773773D01*
X143614235Y-50797571D01*
X143605970Y-50820671D01*
X143595480Y-50842849D01*
X143582867Y-50863893D01*
X143568253Y-50883598D01*
X143551777Y-50901777D01*
X143533598Y-50918253D01*
X143513893Y-50932867D01*
X143492849Y-50945480D01*
X143470671Y-50955970D01*
X143447571Y-50964235D01*
X143423773Y-50970196D01*
X143399504Y-50973796D01*
X143375000Y-50975000D01*
X142625000Y-50975000D01*
X142600496Y-50973796D01*
X142576227Y-50970196D01*
X142552429Y-50964235D01*
X142529329Y-50955970D01*
X142507151Y-50945480D01*
X142486107Y-50932867D01*
X142466402Y-50918253D01*
X142448223Y-50901777D01*
X142431747Y-50883598D01*
X142417133Y-50863893D01*
X142404520Y-50842849D01*
X142394030Y-50820671D01*
X142385765Y-50797571D01*
X142379804Y-50773773D01*
X142376204Y-50749504D01*
X142375000Y-50725000D01*
X142375000Y-48575000D01*
X142376204Y-48550496D01*
X142379804Y-48526227D01*
X142385765Y-48502429D01*
X142394030Y-48479329D01*
X142404520Y-48457151D01*
X142417133Y-48436107D01*
X142431747Y-48416402D01*
X142448223Y-48398223D01*
X142466402Y-48381747D01*
X142486107Y-48367133D01*
X142507151Y-48354520D01*
X142529329Y-48344030D01*
X142552429Y-48335765D01*
X142576227Y-48329804D01*
X142600496Y-48326204D01*
X142625000Y-48325000D01*
X143375000Y-48325000D01*
X143399504Y-48326204D01*
X143399504Y-48326204D01*
G37*
D37*
G04 #@! TD*
G04 #@! TO.P,C3,2*
G04 #@! TO.N,GND*
X143000000Y-49650000D03*
D35*
G04 #@! TO.N,/Nixie_PSU/180V*
G04 #@! TO.C,C3*
G36*
X146199504Y-48326204D02*
X146223773Y-48329804D01*
X146247571Y-48335765D01*
X146270671Y-48344030D01*
X146292849Y-48354520D01*
X146313893Y-48367133D01*
X146333598Y-48381747D01*
X146351777Y-48398223D01*
X146368253Y-48416402D01*
X146382867Y-48436107D01*
X146395480Y-48457151D01*
X146405970Y-48479329D01*
X146414235Y-48502429D01*
X146420196Y-48526227D01*
X146423796Y-48550496D01*
X146425000Y-48575000D01*
X146425000Y-50725000D01*
X146423796Y-50749504D01*
X146420196Y-50773773D01*
X146414235Y-50797571D01*
X146405970Y-50820671D01*
X146395480Y-50842849D01*
X146382867Y-50863893D01*
X146368253Y-50883598D01*
X146351777Y-50901777D01*
X146333598Y-50918253D01*
X146313893Y-50932867D01*
X146292849Y-50945480D01*
X146270671Y-50955970D01*
X146247571Y-50964235D01*
X146223773Y-50970196D01*
X146199504Y-50973796D01*
X146175000Y-50975000D01*
X145425000Y-50975000D01*
X145400496Y-50973796D01*
X145376227Y-50970196D01*
X145352429Y-50964235D01*
X145329329Y-50955970D01*
X145307151Y-50945480D01*
X145286107Y-50932867D01*
X145266402Y-50918253D01*
X145248223Y-50901777D01*
X145231747Y-50883598D01*
X145217133Y-50863893D01*
X145204520Y-50842849D01*
X145194030Y-50820671D01*
X145185765Y-50797571D01*
X145179804Y-50773773D01*
X145176204Y-50749504D01*
X145175000Y-50725000D01*
X145175000Y-48575000D01*
X145176204Y-48550496D01*
X145179804Y-48526227D01*
X145185765Y-48502429D01*
X145194030Y-48479329D01*
X145204520Y-48457151D01*
X145217133Y-48436107D01*
X145231747Y-48416402D01*
X145248223Y-48398223D01*
X145266402Y-48381747D01*
X145286107Y-48367133D01*
X145307151Y-48354520D01*
X145329329Y-48344030D01*
X145352429Y-48335765D01*
X145376227Y-48329804D01*
X145400496Y-48326204D01*
X145425000Y-48325000D01*
X146175000Y-48325000D01*
X146199504Y-48326204D01*
X146199504Y-48326204D01*
G37*
D37*
G04 #@! TD*
G04 #@! TO.P,C3,1*
G04 #@! TO.N,/Nixie_PSU/180V*
X145800000Y-49650000D03*
D35*
G04 #@! TO.N,GND*
G04 #@! TO.C,C1*
G36*
X127199504Y-58726204D02*
X127223773Y-58729804D01*
X127247571Y-58735765D01*
X127270671Y-58744030D01*
X127292849Y-58754520D01*
X127313893Y-58767133D01*
X127333598Y-58781747D01*
X127351777Y-58798223D01*
X127368253Y-58816402D01*
X127382867Y-58836107D01*
X127395480Y-58857151D01*
X127405970Y-58879329D01*
X127414235Y-58902429D01*
X127420196Y-58926227D01*
X127423796Y-58950496D01*
X127425000Y-58975000D01*
X127425000Y-61125000D01*
X127423796Y-61149504D01*
X127420196Y-61173773D01*
X127414235Y-61197571D01*
X127405970Y-61220671D01*
X127395480Y-61242849D01*
X127382867Y-61263893D01*
X127368253Y-61283598D01*
X127351777Y-61301777D01*
X127333598Y-61318253D01*
X127313893Y-61332867D01*
X127292849Y-61345480D01*
X127270671Y-61355970D01*
X127247571Y-61364235D01*
X127223773Y-61370196D01*
X127199504Y-61373796D01*
X127175000Y-61375000D01*
X126425000Y-61375000D01*
X126400496Y-61373796D01*
X126376227Y-61370196D01*
X126352429Y-61364235D01*
X126329329Y-61355970D01*
X126307151Y-61345480D01*
X126286107Y-61332867D01*
X126266402Y-61318253D01*
X126248223Y-61301777D01*
X126231747Y-61283598D01*
X126217133Y-61263893D01*
X126204520Y-61242849D01*
X126194030Y-61220671D01*
X126185765Y-61197571D01*
X126179804Y-61173773D01*
X126176204Y-61149504D01*
X126175000Y-61125000D01*
X126175000Y-58975000D01*
X126176204Y-58950496D01*
X126179804Y-58926227D01*
X126185765Y-58902429D01*
X126194030Y-58879329D01*
X126204520Y-58857151D01*
X126217133Y-58836107D01*
X126231747Y-58816402D01*
X126248223Y-58798223D01*
X126266402Y-58781747D01*
X126286107Y-58767133D01*
X126307151Y-58754520D01*
X126329329Y-58744030D01*
X126352429Y-58735765D01*
X126376227Y-58729804D01*
X126400496Y-58726204D01*
X126425000Y-58725000D01*
X127175000Y-58725000D01*
X127199504Y-58726204D01*
X127199504Y-58726204D01*
G37*
D37*
G04 #@! TD*
G04 #@! TO.P,C1,2*
G04 #@! TO.N,GND*
X126800000Y-60050000D03*
D35*
G04 #@! TO.N,+12V*
G04 #@! TO.C,C1*
G36*
X129999504Y-58726204D02*
X130023773Y-58729804D01*
X130047571Y-58735765D01*
X130070671Y-58744030D01*
X130092849Y-58754520D01*
X130113893Y-58767133D01*
X130133598Y-58781747D01*
X130151777Y-58798223D01*
X130168253Y-58816402D01*
X130182867Y-58836107D01*
X130195480Y-58857151D01*
X130205970Y-58879329D01*
X130214235Y-58902429D01*
X130220196Y-58926227D01*
X130223796Y-58950496D01*
X130225000Y-58975000D01*
X130225000Y-61125000D01*
X130223796Y-61149504D01*
X130220196Y-61173773D01*
X130214235Y-61197571D01*
X130205970Y-61220671D01*
X130195480Y-61242849D01*
X130182867Y-61263893D01*
X130168253Y-61283598D01*
X130151777Y-61301777D01*
X130133598Y-61318253D01*
X130113893Y-61332867D01*
X130092849Y-61345480D01*
X130070671Y-61355970D01*
X130047571Y-61364235D01*
X130023773Y-61370196D01*
X129999504Y-61373796D01*
X129975000Y-61375000D01*
X129225000Y-61375000D01*
X129200496Y-61373796D01*
X129176227Y-61370196D01*
X129152429Y-61364235D01*
X129129329Y-61355970D01*
X129107151Y-61345480D01*
X129086107Y-61332867D01*
X129066402Y-61318253D01*
X129048223Y-61301777D01*
X129031747Y-61283598D01*
X129017133Y-61263893D01*
X129004520Y-61242849D01*
X128994030Y-61220671D01*
X128985765Y-61197571D01*
X128979804Y-61173773D01*
X128976204Y-61149504D01*
X128975000Y-61125000D01*
X128975000Y-58975000D01*
X128976204Y-58950496D01*
X128979804Y-58926227D01*
X128985765Y-58902429D01*
X128994030Y-58879329D01*
X129004520Y-58857151D01*
X129017133Y-58836107D01*
X129031747Y-58816402D01*
X129048223Y-58798223D01*
X129066402Y-58781747D01*
X129086107Y-58767133D01*
X129107151Y-58754520D01*
X129129329Y-58744030D01*
X129152429Y-58735765D01*
X129176227Y-58729804D01*
X129200496Y-58726204D01*
X129225000Y-58725000D01*
X129975000Y-58725000D01*
X129999504Y-58726204D01*
X129999504Y-58726204D01*
G37*
D37*
G04 #@! TD*
G04 #@! TO.P,C1,1*
G04 #@! TO.N,+12V*
X129600000Y-60050000D03*
D35*
G04 #@! TO.N,GND*
G04 #@! TO.C,RC1*
G36*
X130342691Y-46536053D02*
X130363926Y-46539203D01*
X130384750Y-46544419D01*
X130404962Y-46551651D01*
X130424368Y-46560830D01*
X130442781Y-46571866D01*
X130460024Y-46584654D01*
X130475930Y-46599070D01*
X130490346Y-46614976D01*
X130503134Y-46632219D01*
X130514170Y-46650632D01*
X130523349Y-46670038D01*
X130530581Y-46690250D01*
X130535797Y-46711074D01*
X130538947Y-46732309D01*
X130540000Y-46753750D01*
X130540000Y-47266250D01*
X130538947Y-47287691D01*
X130535797Y-47308926D01*
X130530581Y-47329750D01*
X130523349Y-47349962D01*
X130514170Y-47369368D01*
X130503134Y-47387781D01*
X130490346Y-47405024D01*
X130475930Y-47420930D01*
X130460024Y-47435346D01*
X130442781Y-47448134D01*
X130424368Y-47459170D01*
X130404962Y-47468349D01*
X130384750Y-47475581D01*
X130363926Y-47480797D01*
X130342691Y-47483947D01*
X130321250Y-47485000D01*
X129883750Y-47485000D01*
X129862309Y-47483947D01*
X129841074Y-47480797D01*
X129820250Y-47475581D01*
X129800038Y-47468349D01*
X129780632Y-47459170D01*
X129762219Y-47448134D01*
X129744976Y-47435346D01*
X129729070Y-47420930D01*
X129714654Y-47405024D01*
X129701866Y-47387781D01*
X129690830Y-47369368D01*
X129681651Y-47349962D01*
X129674419Y-47329750D01*
X129669203Y-47308926D01*
X129666053Y-47287691D01*
X129665000Y-47266250D01*
X129665000Y-46753750D01*
X129666053Y-46732309D01*
X129669203Y-46711074D01*
X129674419Y-46690250D01*
X129681651Y-46670038D01*
X129690830Y-46650632D01*
X129701866Y-46632219D01*
X129714654Y-46614976D01*
X129729070Y-46599070D01*
X129744976Y-46584654D01*
X129762219Y-46571866D01*
X129780632Y-46560830D01*
X129800038Y-46551651D01*
X129820250Y-46544419D01*
X129841074Y-46539203D01*
X129862309Y-46536053D01*
X129883750Y-46535000D01*
X130321250Y-46535000D01*
X130342691Y-46536053D01*
X130342691Y-46536053D01*
G37*
D36*
G04 #@! TD*
G04 #@! TO.P,RC1,2*
G04 #@! TO.N,GND*
X130102500Y-47010000D03*
D35*
G04 #@! TO.N,Net-(CC1-Pad2)*
G04 #@! TO.C,RC1*
G36*
X131917691Y-46536053D02*
X131938926Y-46539203D01*
X131959750Y-46544419D01*
X131979962Y-46551651D01*
X131999368Y-46560830D01*
X132017781Y-46571866D01*
X132035024Y-46584654D01*
X132050930Y-46599070D01*
X132065346Y-46614976D01*
X132078134Y-46632219D01*
X132089170Y-46650632D01*
X132098349Y-46670038D01*
X132105581Y-46690250D01*
X132110797Y-46711074D01*
X132113947Y-46732309D01*
X132115000Y-46753750D01*
X132115000Y-47266250D01*
X132113947Y-47287691D01*
X132110797Y-47308926D01*
X132105581Y-47329750D01*
X132098349Y-47349962D01*
X132089170Y-47369368D01*
X132078134Y-47387781D01*
X132065346Y-47405024D01*
X132050930Y-47420930D01*
X132035024Y-47435346D01*
X132017781Y-47448134D01*
X131999368Y-47459170D01*
X131979962Y-47468349D01*
X131959750Y-47475581D01*
X131938926Y-47480797D01*
X131917691Y-47483947D01*
X131896250Y-47485000D01*
X131458750Y-47485000D01*
X131437309Y-47483947D01*
X131416074Y-47480797D01*
X131395250Y-47475581D01*
X131375038Y-47468349D01*
X131355632Y-47459170D01*
X131337219Y-47448134D01*
X131319976Y-47435346D01*
X131304070Y-47420930D01*
X131289654Y-47405024D01*
X131276866Y-47387781D01*
X131265830Y-47369368D01*
X131256651Y-47349962D01*
X131249419Y-47329750D01*
X131244203Y-47308926D01*
X131241053Y-47287691D01*
X131240000Y-47266250D01*
X131240000Y-46753750D01*
X131241053Y-46732309D01*
X131244203Y-46711074D01*
X131249419Y-46690250D01*
X131256651Y-46670038D01*
X131265830Y-46650632D01*
X131276866Y-46632219D01*
X131289654Y-46614976D01*
X131304070Y-46599070D01*
X131319976Y-46584654D01*
X131337219Y-46571866D01*
X131355632Y-46560830D01*
X131375038Y-46551651D01*
X131395250Y-46544419D01*
X131416074Y-46539203D01*
X131437309Y-46536053D01*
X131458750Y-46535000D01*
X131896250Y-46535000D01*
X131917691Y-46536053D01*
X131917691Y-46536053D01*
G37*
D36*
G04 #@! TD*
G04 #@! TO.P,RC1,1*
G04 #@! TO.N,Net-(CC1-Pad2)*
X131677500Y-47010000D03*
D35*
G04 #@! TO.N,Net-(RF1-Pad2)*
G04 #@! TO.C,RF1*
G36*
X137980142Y-49201174D02*
X138003803Y-49204684D01*
X138027007Y-49210496D01*
X138049529Y-49218554D01*
X138071153Y-49228782D01*
X138091670Y-49241079D01*
X138110883Y-49255329D01*
X138128607Y-49271393D01*
X138144671Y-49289117D01*
X138158921Y-49308330D01*
X138171218Y-49328847D01*
X138181446Y-49350471D01*
X138189504Y-49372993D01*
X138195316Y-49396197D01*
X138198826Y-49419858D01*
X138200000Y-49443750D01*
X138200000Y-49931250D01*
X138198826Y-49955142D01*
X138195316Y-49978803D01*
X138189504Y-50002007D01*
X138181446Y-50024529D01*
X138171218Y-50046153D01*
X138158921Y-50066670D01*
X138144671Y-50085883D01*
X138128607Y-50103607D01*
X138110883Y-50119671D01*
X138091670Y-50133921D01*
X138071153Y-50146218D01*
X138049529Y-50156446D01*
X138027007Y-50164504D01*
X138003803Y-50170316D01*
X137980142Y-50173826D01*
X137956250Y-50175000D01*
X137043750Y-50175000D01*
X137019858Y-50173826D01*
X136996197Y-50170316D01*
X136972993Y-50164504D01*
X136950471Y-50156446D01*
X136928847Y-50146218D01*
X136908330Y-50133921D01*
X136889117Y-50119671D01*
X136871393Y-50103607D01*
X136855329Y-50085883D01*
X136841079Y-50066670D01*
X136828782Y-50046153D01*
X136818554Y-50024529D01*
X136810496Y-50002007D01*
X136804684Y-49978803D01*
X136801174Y-49955142D01*
X136800000Y-49931250D01*
X136800000Y-49443750D01*
X136801174Y-49419858D01*
X136804684Y-49396197D01*
X136810496Y-49372993D01*
X136818554Y-49350471D01*
X136828782Y-49328847D01*
X136841079Y-49308330D01*
X136855329Y-49289117D01*
X136871393Y-49271393D01*
X136889117Y-49255329D01*
X136908330Y-49241079D01*
X136928847Y-49228782D01*
X136950471Y-49218554D01*
X136972993Y-49210496D01*
X136996197Y-49204684D01*
X137019858Y-49201174D01*
X137043750Y-49200000D01*
X137956250Y-49200000D01*
X137980142Y-49201174D01*
X137980142Y-49201174D01*
G37*
D38*
G04 #@! TD*
G04 #@! TO.P,RF1,2*
G04 #@! TO.N,Net-(RF1-Pad2)*
X137500000Y-49687500D03*
D35*
G04 #@! TO.N,GND*
G04 #@! TO.C,RF1*
G36*
X137980142Y-47326174D02*
X138003803Y-47329684D01*
X138027007Y-47335496D01*
X138049529Y-47343554D01*
X138071153Y-47353782D01*
X138091670Y-47366079D01*
X138110883Y-47380329D01*
X138128607Y-47396393D01*
X138144671Y-47414117D01*
X138158921Y-47433330D01*
X138171218Y-47453847D01*
X138181446Y-47475471D01*
X138189504Y-47497993D01*
X138195316Y-47521197D01*
X138198826Y-47544858D01*
X138200000Y-47568750D01*
X138200000Y-48056250D01*
X138198826Y-48080142D01*
X138195316Y-48103803D01*
X138189504Y-48127007D01*
X138181446Y-48149529D01*
X138171218Y-48171153D01*
X138158921Y-48191670D01*
X138144671Y-48210883D01*
X138128607Y-48228607D01*
X138110883Y-48244671D01*
X138091670Y-48258921D01*
X138071153Y-48271218D01*
X138049529Y-48281446D01*
X138027007Y-48289504D01*
X138003803Y-48295316D01*
X137980142Y-48298826D01*
X137956250Y-48300000D01*
X137043750Y-48300000D01*
X137019858Y-48298826D01*
X136996197Y-48295316D01*
X136972993Y-48289504D01*
X136950471Y-48281446D01*
X136928847Y-48271218D01*
X136908330Y-48258921D01*
X136889117Y-48244671D01*
X136871393Y-48228607D01*
X136855329Y-48210883D01*
X136841079Y-48191670D01*
X136828782Y-48171153D01*
X136818554Y-48149529D01*
X136810496Y-48127007D01*
X136804684Y-48103803D01*
X136801174Y-48080142D01*
X136800000Y-48056250D01*
X136800000Y-47568750D01*
X136801174Y-47544858D01*
X136804684Y-47521197D01*
X136810496Y-47497993D01*
X136818554Y-47475471D01*
X136828782Y-47453847D01*
X136841079Y-47433330D01*
X136855329Y-47414117D01*
X136871393Y-47396393D01*
X136889117Y-47380329D01*
X136908330Y-47366079D01*
X136928847Y-47353782D01*
X136950471Y-47343554D01*
X136972993Y-47335496D01*
X136996197Y-47329684D01*
X137019858Y-47326174D01*
X137043750Y-47325000D01*
X137956250Y-47325000D01*
X137980142Y-47326174D01*
X137980142Y-47326174D01*
G37*
D38*
G04 #@! TD*
G04 #@! TO.P,RF1,1*
G04 #@! TO.N,GND*
X137500000Y-47812500D03*
D35*
G04 #@! TO.N,Net-(Q1-Pad5)*
G04 #@! TO.C,RS1*
G36*
X143999504Y-57976204D02*
X144023773Y-57979804D01*
X144047571Y-57985765D01*
X144070671Y-57994030D01*
X144092849Y-58004520D01*
X144113893Y-58017133D01*
X144133598Y-58031747D01*
X144151777Y-58048223D01*
X144168253Y-58066402D01*
X144182867Y-58086107D01*
X144195480Y-58107151D01*
X144205970Y-58129329D01*
X144214235Y-58152429D01*
X144220196Y-58176227D01*
X144223796Y-58200496D01*
X144225000Y-58225000D01*
X144225000Y-59475000D01*
X144223796Y-59499504D01*
X144220196Y-59523773D01*
X144214235Y-59547571D01*
X144205970Y-59570671D01*
X144195480Y-59592849D01*
X144182867Y-59613893D01*
X144168253Y-59633598D01*
X144151777Y-59651777D01*
X144133598Y-59668253D01*
X144113893Y-59682867D01*
X144092849Y-59695480D01*
X144070671Y-59705970D01*
X144047571Y-59714235D01*
X144023773Y-59720196D01*
X143999504Y-59723796D01*
X143975000Y-59725000D01*
X143225000Y-59725000D01*
X143200496Y-59723796D01*
X143176227Y-59720196D01*
X143152429Y-59714235D01*
X143129329Y-59705970D01*
X143107151Y-59695480D01*
X143086107Y-59682867D01*
X143066402Y-59668253D01*
X143048223Y-59651777D01*
X143031747Y-59633598D01*
X143017133Y-59613893D01*
X143004520Y-59592849D01*
X142994030Y-59570671D01*
X142985765Y-59547571D01*
X142979804Y-59523773D01*
X142976204Y-59499504D01*
X142975000Y-59475000D01*
X142975000Y-58225000D01*
X142976204Y-58200496D01*
X142979804Y-58176227D01*
X142985765Y-58152429D01*
X142994030Y-58129329D01*
X143004520Y-58107151D01*
X143017133Y-58086107D01*
X143031747Y-58066402D01*
X143048223Y-58048223D01*
X143066402Y-58031747D01*
X143086107Y-58017133D01*
X143107151Y-58004520D01*
X143129329Y-57994030D01*
X143152429Y-57985765D01*
X143176227Y-57979804D01*
X143200496Y-57976204D01*
X143225000Y-57975000D01*
X143975000Y-57975000D01*
X143999504Y-57976204D01*
X143999504Y-57976204D01*
G37*
D37*
G04 #@! TD*
G04 #@! TO.P,RS1,2*
G04 #@! TO.N,Net-(Q1-Pad5)*
X143600000Y-58850000D03*
D35*
G04 #@! TO.N,Net-(CS1-Pad2)*
G04 #@! TO.C,RS1*
G36*
X141199504Y-57976204D02*
X141223773Y-57979804D01*
X141247571Y-57985765D01*
X141270671Y-57994030D01*
X141292849Y-58004520D01*
X141313893Y-58017133D01*
X141333598Y-58031747D01*
X141351777Y-58048223D01*
X141368253Y-58066402D01*
X141382867Y-58086107D01*
X141395480Y-58107151D01*
X141405970Y-58129329D01*
X141414235Y-58152429D01*
X141420196Y-58176227D01*
X141423796Y-58200496D01*
X141425000Y-58225000D01*
X141425000Y-59475000D01*
X141423796Y-59499504D01*
X141420196Y-59523773D01*
X141414235Y-59547571D01*
X141405970Y-59570671D01*
X141395480Y-59592849D01*
X141382867Y-59613893D01*
X141368253Y-59633598D01*
X141351777Y-59651777D01*
X141333598Y-59668253D01*
X141313893Y-59682867D01*
X141292849Y-59695480D01*
X141270671Y-59705970D01*
X141247571Y-59714235D01*
X141223773Y-59720196D01*
X141199504Y-59723796D01*
X141175000Y-59725000D01*
X140425000Y-59725000D01*
X140400496Y-59723796D01*
X140376227Y-59720196D01*
X140352429Y-59714235D01*
X140329329Y-59705970D01*
X140307151Y-59695480D01*
X140286107Y-59682867D01*
X140266402Y-59668253D01*
X140248223Y-59651777D01*
X140231747Y-59633598D01*
X140217133Y-59613893D01*
X140204520Y-59592849D01*
X140194030Y-59570671D01*
X140185765Y-59547571D01*
X140179804Y-59523773D01*
X140176204Y-59499504D01*
X140175000Y-59475000D01*
X140175000Y-58225000D01*
X140176204Y-58200496D01*
X140179804Y-58176227D01*
X140185765Y-58152429D01*
X140194030Y-58129329D01*
X140204520Y-58107151D01*
X140217133Y-58086107D01*
X140231747Y-58066402D01*
X140248223Y-58048223D01*
X140266402Y-58031747D01*
X140286107Y-58017133D01*
X140307151Y-58004520D01*
X140329329Y-57994030D01*
X140352429Y-57985765D01*
X140376227Y-57979804D01*
X140400496Y-57976204D01*
X140425000Y-57975000D01*
X141175000Y-57975000D01*
X141199504Y-57976204D01*
X141199504Y-57976204D01*
G37*
D37*
G04 #@! TD*
G04 #@! TO.P,RS1,1*
G04 #@! TO.N,Net-(CS1-Pad2)*
X140800000Y-58850000D03*
D35*
G04 #@! TO.N,GND*
G04 #@! TO.C,Rsen1*
G36*
X135699505Y-46426204D02*
X135723773Y-46429804D01*
X135747572Y-46435765D01*
X135770671Y-46444030D01*
X135792850Y-46454520D01*
X135813893Y-46467132D01*
X135833599Y-46481747D01*
X135851777Y-46498223D01*
X135868253Y-46516401D01*
X135882868Y-46536107D01*
X135895480Y-46557150D01*
X135905970Y-46579329D01*
X135914235Y-46602428D01*
X135920196Y-46626227D01*
X135923796Y-46650495D01*
X135925000Y-46674999D01*
X135925000Y-47525001D01*
X135923796Y-47549505D01*
X135920196Y-47573773D01*
X135914235Y-47597572D01*
X135905970Y-47620671D01*
X135895480Y-47642850D01*
X135882868Y-47663893D01*
X135868253Y-47683599D01*
X135851777Y-47701777D01*
X135833599Y-47718253D01*
X135813893Y-47732868D01*
X135792850Y-47745480D01*
X135770671Y-47755970D01*
X135747572Y-47764235D01*
X135723773Y-47770196D01*
X135699505Y-47773796D01*
X135675001Y-47775000D01*
X133524999Y-47775000D01*
X133500495Y-47773796D01*
X133476227Y-47770196D01*
X133452428Y-47764235D01*
X133429329Y-47755970D01*
X133407150Y-47745480D01*
X133386107Y-47732868D01*
X133366401Y-47718253D01*
X133348223Y-47701777D01*
X133331747Y-47683599D01*
X133317132Y-47663893D01*
X133304520Y-47642850D01*
X133294030Y-47620671D01*
X133285765Y-47597572D01*
X133279804Y-47573773D01*
X133276204Y-47549505D01*
X133275000Y-47525001D01*
X133275000Y-46674999D01*
X133276204Y-46650495D01*
X133279804Y-46626227D01*
X133285765Y-46602428D01*
X133294030Y-46579329D01*
X133304520Y-46557150D01*
X133317132Y-46536107D01*
X133331747Y-46516401D01*
X133348223Y-46498223D01*
X133366401Y-46481747D01*
X133386107Y-46467132D01*
X133407150Y-46454520D01*
X133429329Y-46444030D01*
X133452428Y-46435765D01*
X133476227Y-46429804D01*
X133500495Y-46426204D01*
X133524999Y-46425000D01*
X135675001Y-46425000D01*
X135699505Y-46426204D01*
X135699505Y-46426204D01*
G37*
D39*
G04 #@! TD*
G04 #@! TO.P,Rsen1,2*
G04 #@! TO.N,GND*
X134600000Y-47100000D03*
D35*
G04 #@! TO.N,Net-(C2-Pad1)*
G04 #@! TO.C,Rsen1*
G36*
X135699505Y-50926204D02*
X135723773Y-50929804D01*
X135747572Y-50935765D01*
X135770671Y-50944030D01*
X135792850Y-50954520D01*
X135813893Y-50967132D01*
X135833599Y-50981747D01*
X135851777Y-50998223D01*
X135868253Y-51016401D01*
X135882868Y-51036107D01*
X135895480Y-51057150D01*
X135905970Y-51079329D01*
X135914235Y-51102428D01*
X135920196Y-51126227D01*
X135923796Y-51150495D01*
X135925000Y-51174999D01*
X135925000Y-52025001D01*
X135923796Y-52049505D01*
X135920196Y-52073773D01*
X135914235Y-52097572D01*
X135905970Y-52120671D01*
X135895480Y-52142850D01*
X135882868Y-52163893D01*
X135868253Y-52183599D01*
X135851777Y-52201777D01*
X135833599Y-52218253D01*
X135813893Y-52232868D01*
X135792850Y-52245480D01*
X135770671Y-52255970D01*
X135747572Y-52264235D01*
X135723773Y-52270196D01*
X135699505Y-52273796D01*
X135675001Y-52275000D01*
X133524999Y-52275000D01*
X133500495Y-52273796D01*
X133476227Y-52270196D01*
X133452428Y-52264235D01*
X133429329Y-52255970D01*
X133407150Y-52245480D01*
X133386107Y-52232868D01*
X133366401Y-52218253D01*
X133348223Y-52201777D01*
X133331747Y-52183599D01*
X133317132Y-52163893D01*
X133304520Y-52142850D01*
X133294030Y-52120671D01*
X133285765Y-52097572D01*
X133279804Y-52073773D01*
X133276204Y-52049505D01*
X133275000Y-52025001D01*
X133275000Y-51174999D01*
X133276204Y-51150495D01*
X133279804Y-51126227D01*
X133285765Y-51102428D01*
X133294030Y-51079329D01*
X133304520Y-51057150D01*
X133317132Y-51036107D01*
X133331747Y-51016401D01*
X133348223Y-50998223D01*
X133366401Y-50981747D01*
X133386107Y-50967132D01*
X133407150Y-50954520D01*
X133429329Y-50944030D01*
X133452428Y-50935765D01*
X133476227Y-50929804D01*
X133500495Y-50926204D01*
X133524999Y-50925000D01*
X135675001Y-50925000D01*
X135699505Y-50926204D01*
X135699505Y-50926204D01*
G37*
D39*
G04 #@! TD*
G04 #@! TO.P,Rsen1,1*
G04 #@! TO.N,Net-(C2-Pad1)*
X134600000Y-51600000D03*
D40*
G04 #@! TO.N,GND*
X94500000Y-79800000D03*
X137677421Y-44198360D03*
X101525000Y-40125000D03*
X101525000Y-45175000D03*
X81450000Y-80754379D03*
X80382081Y-54958636D03*
X105649481Y-57200000D03*
X105761948Y-55387489D03*
X103000000Y-81424219D03*
X125274219Y-80649160D03*
D41*
X141820000Y-48794000D03*
X141947000Y-50699000D03*
X141947000Y-49810000D03*
X136994000Y-57811000D03*
X137629000Y-72035000D03*
X138264000Y-72162000D03*
X125880000Y-60327000D03*
X125880000Y-59565000D03*
X126515000Y-61851000D03*
X126007000Y-58803000D03*
D40*
X80929599Y-70831376D03*
X82429599Y-70831376D03*
X83429599Y-70581377D03*
X83429599Y-71581376D03*
X125880000Y-61216000D03*
X109800000Y-76250000D03*
X114800000Y-76150000D03*
X114650000Y-68800000D03*
X109600000Y-68700000D03*
X117650000Y-78250000D03*
X88429599Y-63208797D03*
X87429599Y-57800000D03*
X95000000Y-57795000D03*
X95000000Y-67505000D03*
X90200000Y-80300000D03*
X119000000Y-62200000D03*
D41*
X135724000Y-48286000D03*
X134962000Y-48286000D03*
X131406000Y-49975009D03*
X133565000Y-48286000D03*
X134200000Y-48286000D03*
X128612000Y-57811000D03*
X136994000Y-72035000D03*
D40*
X96950000Y-39774992D03*
X87775000Y-45200000D03*
X87775000Y-40125000D03*
X112500000Y-40350000D03*
X116700000Y-40300000D03*
X107750000Y-41950000D03*
X119950000Y-46600000D03*
X120250000Y-40300000D03*
D41*
X129037000Y-47076000D03*
X137248000Y-47016000D03*
G04 #@! TO.N,Net-(RF1-Pad2)*
X135274420Y-55271000D03*
X136232000Y-49810000D03*
D40*
G04 #@! TO.N,+12V*
X91750010Y-59800000D03*
X88900000Y-60100000D03*
G04 #@! TO.N,/Nixie_PSU/180V*
X135250000Y-42900000D03*
X120350000Y-58850000D03*
G04 #@! TO.N,+3V3*
X107500000Y-38950000D03*
X91750010Y-65499160D03*
X89849990Y-65500000D03*
X101699997Y-54200003D03*
X98765010Y-59900000D03*
X98765010Y-65499160D03*
X107900000Y-80250000D03*
X114550000Y-50899826D03*
X108850000Y-50900000D03*
X120100000Y-42050000D03*
X95100000Y-80700000D03*
G04 #@! TO.N,/Nixie_Interface/~HLE*
X83000000Y-59400000D03*
G04 #@! TO.N,/Nixie_Interface/HDIN*
X84200000Y-59400000D03*
G04 #@! TO.N,/ESP32/MISO-D19*
X100800000Y-71260000D03*
X94800000Y-53050000D03*
G04 #@! TO.N,/ESP32/MOSI-D18*
X100800000Y-69990000D03*
X94700000Y-55100000D03*
G04 #@! TO.N,/ESP32/SCK-D5*
X100830000Y-68720000D03*
X94750000Y-54049998D03*
G04 #@! TO.N,/ESP32/A8-D15*
X82306540Y-61893460D03*
X93000000Y-60200000D03*
G04 #@! TO.N,/ESP32/A12-D13*
X115100000Y-57400000D03*
X116445000Y-60349992D03*
G04 #@! TO.N,/Nixie_Interface/CLK*
X84827650Y-53800000D03*
X101100000Y-73800000D03*
G04 #@! TO.N,+*
X90088000Y-78962000D03*
X92600000Y-74300000D03*
X83875000Y-49075000D03*
G04 #@! TO.N,/MCU_Audio/SCL*
X90200000Y-76422000D03*
X91800000Y-73150000D03*
X103100000Y-83000000D03*
X106050000Y-66350000D03*
X104800000Y-53415010D03*
X91500000Y-83100002D03*
G04 #@! TO.N,/MCU_Audio/SDA*
X90150000Y-77700000D03*
X87500000Y-73150000D03*
X102400000Y-82250000D03*
X105080000Y-78880000D03*
X105080000Y-76320008D03*
X105080000Y-65780000D03*
X104000000Y-52600000D03*
X112584990Y-49100000D03*
X115850001Y-49100000D03*
X91517309Y-82175768D03*
G04 #@! TO.N,/DAC1*
X123570000Y-68720000D03*
X109450000Y-49250000D03*
X121476079Y-61815808D03*
X116250000Y-50900000D03*
G04 #@! TO.N,/DAC2*
X123550000Y-67450000D03*
X122250000Y-60900000D03*
G04 #@! TO.N,/ESP32/SD-Select*
X104299996Y-57900000D03*
X108150000Y-65800000D03*
G04 #@! TO.N,AGND*
X121500000Y-43650001D03*
X108600000Y-45500000D03*
G04 #@! TO.N,/ESP32/A6-T6-D14*
X84500000Y-61900000D03*
X102000000Y-62500000D03*
X92300000Y-62599994D03*
X103650000Y-61050000D03*
G04 #@! TO.N,/ESP32/A5-T0-D4*
X83031550Y-53800000D03*
X96550000Y-66550000D03*
G04 #@! TD*
D42*
G04 #@! TO.N,Net-(C2-Pad1)*
X137756000Y-52731000D02*
X137756000Y-54001000D01*
X134659000Y-52211000D02*
X134708000Y-52260000D01*
X137285000Y-52260000D02*
X137756000Y-52731000D01*
X130077580Y-54001000D02*
X130077580Y-53539420D01*
X134708000Y-52260000D02*
X137285000Y-52260000D01*
X137756000Y-54001000D02*
X137756000Y-55271000D01*
X130077580Y-53539420D02*
X131406000Y-52211000D01*
X131406000Y-52211000D02*
X134659000Y-52211000D01*
D43*
G04 #@! TO.N,GND*
X138951640Y-44198360D02*
X137677421Y-44198360D01*
X101525000Y-38500000D02*
X101525000Y-40125000D01*
X101525000Y-46800000D02*
X101525000Y-45175000D01*
X81450000Y-79480160D02*
X81450000Y-80754379D01*
X81656300Y-54958636D02*
X80382081Y-54958636D01*
X106923700Y-57200000D02*
X105649481Y-57200000D01*
X107036167Y-55387489D02*
X105761948Y-55387489D01*
X103000000Y-80150000D02*
X103000000Y-81424219D01*
X124000000Y-80649160D02*
X125274219Y-80649160D01*
D42*
X126896000Y-59692000D02*
X126007000Y-58803000D01*
X126388000Y-60073000D02*
X125880000Y-59565000D01*
X126896000Y-60073000D02*
X126134000Y-60073000D01*
X126896000Y-60200000D02*
X125880000Y-61216000D01*
X126896000Y-60073000D02*
X126896000Y-59692000D01*
X126134000Y-60073000D02*
X125880000Y-60327000D01*
X126896000Y-60073000D02*
X126388000Y-60073000D01*
X142733000Y-49913000D02*
X141947000Y-50699000D01*
X142733000Y-49556000D02*
X142733000Y-49913000D01*
X137550260Y-73691080D02*
X137550260Y-72113740D01*
X142733000Y-49556000D02*
X142201000Y-49556000D01*
X137550260Y-72591260D02*
X136994000Y-72035000D01*
X126896000Y-61470000D02*
X126515000Y-61851000D01*
X142733000Y-49556000D02*
X142582000Y-49556000D01*
X126896000Y-60073000D02*
X126896000Y-60200000D01*
X137550260Y-72875740D02*
X138264000Y-72162000D01*
X142201000Y-49556000D02*
X141947000Y-49810000D01*
X137550260Y-73691080D02*
X137550260Y-72875740D01*
X142582000Y-49556000D02*
X141820000Y-48794000D01*
X137550260Y-72113740D02*
X137629000Y-72035000D01*
X126896000Y-60073000D02*
X126896000Y-61470000D01*
X137550260Y-73691080D02*
X137550260Y-72591260D01*
X135274420Y-57811000D02*
X136994000Y-57811000D01*
D43*
X109800000Y-76250000D02*
X109800000Y-74950000D01*
X109800000Y-74950000D02*
X112300000Y-72450000D01*
X114800000Y-76150000D02*
X114800000Y-74950000D01*
X114800000Y-74950000D02*
X112300000Y-72450000D01*
X114650000Y-70100000D02*
X112300000Y-72450000D01*
X114650000Y-68800000D02*
X114650000Y-70100000D01*
X109600000Y-68700000D02*
X109600000Y-69750000D01*
X109600000Y-69750000D02*
X112300000Y-72450000D01*
D44*
X88429599Y-63208797D02*
X88429599Y-63208797D01*
D43*
X122900560Y-80649160D02*
X122351400Y-80100000D01*
X124000000Y-80649160D02*
X122900560Y-80649160D01*
X121050000Y-80100000D02*
X121000000Y-80150000D01*
X122351400Y-80100000D02*
X121050000Y-80100000D01*
X119550000Y-80150000D02*
X117650000Y-78250000D01*
X121000000Y-80150000D02*
X119550000Y-80150000D01*
X87429599Y-58932216D02*
X87429599Y-57800000D01*
X87429599Y-57800000D02*
X87429599Y-56730536D01*
X92206000Y-57795000D02*
X95000000Y-57795000D01*
X95000000Y-57795000D02*
X97794000Y-57795000D01*
X92206000Y-67505000D02*
X95000000Y-67505000D01*
X95000000Y-67505000D02*
X97794000Y-67505000D01*
X118950000Y-62150000D02*
X119000000Y-62200000D01*
X117715000Y-62150000D02*
X118950000Y-62150000D01*
D42*
X134708000Y-47360000D02*
X134491000Y-47360000D01*
X134708000Y-47360000D02*
X134708000Y-48032000D01*
X134708000Y-48032000D02*
X134962000Y-48286000D01*
X130077580Y-57811000D02*
X128612000Y-57811000D01*
X134491000Y-47360000D02*
X133565000Y-48286000D01*
X134708000Y-47778000D02*
X134200000Y-48286000D01*
X134708000Y-47360000D02*
X134708000Y-47778000D01*
X134798000Y-47360000D02*
X135724000Y-48286000D01*
X131406000Y-50711000D02*
X131406000Y-49975009D01*
X134708000Y-47360000D02*
X134798000Y-47360000D01*
D44*
X85104599Y-67906377D02*
X84379599Y-67906377D01*
X85429599Y-67581377D02*
X85104599Y-67906377D01*
D43*
X96950000Y-41100000D02*
X96950000Y-39774992D01*
X87775000Y-46825000D02*
X87775000Y-45200000D01*
X87775000Y-38500000D02*
X87775000Y-40125000D01*
D44*
X118200000Y-45120400D02*
X118200000Y-45399160D01*
X117187600Y-44108000D02*
X118200000Y-45120400D01*
X116531200Y-44108000D02*
X117187600Y-44108000D01*
D43*
X107400840Y-41600840D02*
X107750000Y-41950000D01*
X107400840Y-40550000D02*
X107400840Y-41600840D01*
D42*
X129865000Y-47076000D02*
X129037000Y-47076000D01*
X137502000Y-47270000D02*
X137248000Y-47016000D01*
X137502000Y-47844000D02*
X137502000Y-47270000D01*
G04 #@! TO.N,Net-(CS1-Pad2)*
X140569000Y-59081000D02*
X139014000Y-59081000D01*
X140800000Y-58850000D02*
X140569000Y-59081000D01*
G04 #@! TO.N,Net-(Q1-Pad5)*
X143549740Y-61742920D02*
X143549740Y-59233740D01*
X143397000Y-56583840D02*
X143354160Y-56541000D01*
X143549740Y-59233740D02*
X143397000Y-59081000D01*
X143354160Y-55271000D02*
X143354160Y-54001000D01*
X143354160Y-54001000D02*
X143354160Y-52731000D01*
X143354160Y-56541000D02*
X143354160Y-55271000D01*
X143397000Y-59081000D02*
X143397000Y-56583840D01*
G04 #@! TO.N,Net-(RF1-Pad2)*
X137502000Y-49744000D02*
X136298000Y-49744000D01*
X136298000Y-49744000D02*
X136232000Y-49810000D01*
D44*
G04 #@! TO.N,Net-(CC1-Pad2)*
X131687500Y-47020000D02*
X131677500Y-47010000D01*
D42*
X131687500Y-48950000D02*
X131687500Y-47020000D01*
G04 #@! TO.N,+12V*
X137514000Y-59081000D02*
X137514000Y-61706660D01*
X133520599Y-58633921D02*
X133520599Y-54448079D01*
X133520599Y-54448079D02*
X133967678Y-54001000D01*
X133967678Y-54001000D02*
X135274420Y-54001000D01*
X135162748Y-59081000D02*
X133967678Y-59081000D01*
X136314000Y-59081000D02*
X137514000Y-59081000D01*
X137514000Y-61706660D02*
X137550260Y-61742920D01*
X133967678Y-59081000D02*
X133520599Y-58633921D01*
X135162748Y-59081000D02*
X136314000Y-59081000D01*
X130723000Y-63520748D02*
X135162748Y-59081000D01*
D43*
X77679599Y-60081376D02*
X77679599Y-66041377D01*
X81466999Y-66041377D02*
X77679599Y-66041377D01*
X81679599Y-65828776D02*
X81466999Y-66041377D01*
X86229320Y-60730536D02*
X86202900Y-60704116D01*
X87429599Y-60730536D02*
X86229320Y-60730536D01*
X87429599Y-60730536D02*
X88529039Y-60730536D01*
X88529039Y-60730536D02*
X88900000Y-60359575D01*
X88900000Y-60359575D02*
X88900000Y-60100000D01*
X129903260Y-62701008D02*
X130723000Y-63520748D01*
X116900000Y-58900000D02*
X120701008Y-62701008D01*
X120701008Y-62701008D02*
X129903260Y-62701008D01*
X91750010Y-59800000D02*
X92650010Y-58900000D01*
X92650010Y-58900000D02*
X116900000Y-58900000D01*
X87359575Y-61900000D02*
X88529039Y-60730536D01*
X85706596Y-61900000D02*
X87359575Y-61900000D01*
X84906596Y-62700000D02*
X85706596Y-61900000D01*
X83018746Y-62700000D02*
X84906596Y-62700000D01*
X81679599Y-64039147D02*
X83018746Y-62700000D01*
X81679599Y-65828778D02*
X81679599Y-64039147D01*
D42*
G04 #@! TO.N,/Nixie_PSU/180V*
X145733000Y-45788000D02*
X145691000Y-45746000D01*
X145733000Y-49556000D02*
X145733000Y-45788000D01*
X145884000Y-49707000D02*
X145733000Y-49556000D01*
X145884000Y-54864600D02*
X145884000Y-49707000D01*
D44*
X145848360Y-45750000D02*
X145797560Y-45750000D01*
D43*
X142947560Y-42900000D02*
X135250000Y-42900000D01*
X145797560Y-45750000D02*
X142947560Y-42900000D01*
X135250000Y-42900000D02*
X135250000Y-42900000D01*
X120350000Y-58850000D02*
X119550000Y-58050000D01*
X119550840Y-58049160D02*
X119550840Y-48200000D01*
X119550000Y-58050000D02*
X119550840Y-58049160D01*
D42*
G04 #@! TO.N,Net-(CC1-Pad1)*
X128770838Y-55271000D02*
X130077580Y-55271000D01*
X130148000Y-48921000D02*
X130148000Y-50096000D01*
X130148000Y-50096000D02*
X128323759Y-51920241D01*
X128323759Y-54823921D02*
X128770838Y-55271000D01*
X128323759Y-51920241D02*
X128323759Y-54823921D01*
D43*
G04 #@! TO.N,+3V3*
X107599160Y-38950000D02*
X109199160Y-40550000D01*
D44*
X107500000Y-38950000D02*
X107599160Y-38950000D01*
X121021640Y-78901640D02*
X121000000Y-78880000D01*
D43*
X124000000Y-78901640D02*
X121021640Y-78901640D01*
X81490640Y-77692000D02*
X83222920Y-77692000D01*
D44*
X81450000Y-77732640D02*
X81490640Y-77692000D01*
X93050000Y-80051640D02*
X93098360Y-80100000D01*
D43*
X93050000Y-78575000D02*
X93050000Y-80051640D01*
X83222920Y-77692000D02*
X85908000Y-77692000D01*
X85908000Y-77692000D02*
X88150000Y-75450000D01*
X124000000Y-78901640D02*
X120098360Y-78901640D01*
D44*
X85579080Y-54932216D02*
X85552660Y-54958636D01*
X87429599Y-54932216D02*
X85579080Y-54932216D01*
D43*
X89300000Y-69679736D02*
X88429599Y-69679736D01*
X86328760Y-73628760D02*
X86328760Y-71081376D01*
X88150000Y-75450000D02*
X86328760Y-73628760D01*
D44*
X99250560Y-65499160D02*
X99249720Y-65500000D01*
D43*
X100100000Y-65499160D02*
X99250560Y-65499160D01*
D44*
X91500840Y-65499160D02*
X91500840Y-65499160D01*
D43*
X91750010Y-65499160D02*
X98550840Y-65499160D01*
X104025000Y-54200003D02*
X102265682Y-54200003D01*
X102265682Y-54200003D02*
X101699997Y-54200003D01*
X112149160Y-55099340D02*
X111249823Y-54200003D01*
X112149160Y-55300000D02*
X112149160Y-55099340D01*
D44*
X81656300Y-60004536D02*
X81656300Y-60704116D01*
X82651999Y-58674999D02*
X81656300Y-59670698D01*
X84548001Y-58674999D02*
X82651999Y-58674999D01*
X81656300Y-59670698D02*
X81656300Y-60004536D01*
X85552660Y-59679658D02*
X84548001Y-58674999D01*
X85552660Y-60704116D02*
X85552660Y-59679658D01*
X85552660Y-53352660D02*
X85552660Y-54958636D01*
X85200000Y-53000000D02*
X85552660Y-53352660D01*
X82800000Y-53000000D02*
X85200000Y-53000000D01*
X82306540Y-53493460D02*
X82800000Y-53000000D01*
X82306540Y-54958636D02*
X82306540Y-53493460D01*
X85552660Y-57670340D02*
X84548001Y-58674999D01*
X85552660Y-54958636D02*
X85552660Y-57670340D01*
D43*
X89428709Y-69679736D02*
X89849990Y-69258455D01*
X88429599Y-69679736D02*
X89428709Y-69679736D01*
X89849990Y-66065685D02*
X89849990Y-65500000D01*
X89849990Y-69258455D02*
X89849990Y-66065685D01*
X87429599Y-54932216D02*
X87630259Y-54932216D01*
X89900000Y-57201957D02*
X89900000Y-64884305D01*
X89849990Y-64934315D02*
X89849990Y-65500000D01*
X87630259Y-54932216D02*
X89900000Y-57201957D01*
X89900000Y-64884305D02*
X89849990Y-64934315D01*
D44*
X102599160Y-56175000D02*
X103247940Y-56175000D01*
X104025000Y-55397940D02*
X104025000Y-54200003D01*
X103247940Y-56175000D02*
X104025000Y-55397940D01*
D43*
X111249823Y-54200003D02*
X104025000Y-54200003D01*
X94750000Y-40100000D02*
X94750000Y-41100000D01*
X94250000Y-39600000D02*
X94750000Y-40100000D01*
X82850000Y-49703837D02*
X82850000Y-46300000D01*
X89550000Y-39600000D02*
X94250000Y-39600000D01*
X82850000Y-46300000D02*
X89550000Y-39600000D01*
X87429599Y-54283436D02*
X82850000Y-49703837D01*
X87429599Y-54932216D02*
X87429599Y-54283436D01*
X114550000Y-50899826D02*
X114550000Y-50899826D01*
X114550000Y-49649160D02*
X114550000Y-50899826D01*
D44*
X98200840Y-65499160D02*
X98550840Y-65499160D01*
D43*
X99250560Y-65499160D02*
X98765010Y-65499160D01*
X100100000Y-59900840D02*
X98765850Y-59900840D01*
D44*
X98765850Y-59900840D02*
X98765010Y-59900000D01*
X98550840Y-65499160D02*
X98765010Y-65499160D01*
D43*
X125099440Y-78850840D02*
X126900000Y-80651400D01*
X126900000Y-80651400D02*
X126900000Y-81400000D01*
X124000000Y-78850840D02*
X125099440Y-78850840D01*
X126900000Y-81400000D02*
X126300000Y-82000000D01*
X126300000Y-82000000D02*
X120243794Y-82000000D01*
X108465685Y-80250000D02*
X107900000Y-80250000D01*
X120243794Y-82000000D02*
X118493794Y-80250000D01*
X118493794Y-80250000D02*
X108465685Y-80250000D01*
D44*
X116531200Y-43092000D02*
X116531200Y-42609400D01*
D43*
X116941440Y-42199160D02*
X116531200Y-42609400D01*
X118200000Y-42199160D02*
X116941440Y-42199160D01*
D44*
X111048320Y-42250840D02*
X111050000Y-42249160D01*
D43*
X109250000Y-42250840D02*
X111048320Y-42250840D01*
D44*
X112568800Y-42609400D02*
X112568800Y-43092000D01*
X109199160Y-42200000D02*
X109250000Y-42250840D01*
D43*
X109199160Y-40550000D02*
X109199160Y-42200000D01*
X112568800Y-42418800D02*
X112568800Y-42609400D01*
X111050000Y-42249160D02*
X112399160Y-42249160D01*
X112399160Y-42249160D02*
X112568800Y-42418800D01*
X114550000Y-50899826D02*
X111249823Y-54200003D01*
X108450001Y-50500001D02*
X108850000Y-50900000D01*
X106150000Y-40300000D02*
X106150000Y-48200000D01*
X107500000Y-38950000D02*
X106150000Y-40300000D01*
X106150000Y-48200000D02*
X108450001Y-50500001D01*
X118200000Y-42199160D02*
X118400660Y-42199160D01*
X119950840Y-42199160D02*
X120100000Y-42050000D01*
X118200000Y-42199160D02*
X119950840Y-42199160D01*
X94780000Y-75080000D02*
X95700000Y-76000000D01*
X88520000Y-75080000D02*
X94780000Y-75080000D01*
X88150000Y-75450000D02*
X88520000Y-75080000D01*
D44*
X95599160Y-76700840D02*
X94500000Y-76700840D01*
X95700000Y-76600000D02*
X95599160Y-76700840D01*
D43*
X95700000Y-76000000D02*
X95700000Y-76600000D01*
D44*
X93925840Y-77275000D02*
X94500000Y-76700840D01*
X93050000Y-77275000D02*
X93925840Y-77275000D01*
D43*
X95499999Y-80300001D02*
X95100000Y-80700000D01*
X95700000Y-76600000D02*
X95700000Y-80100000D01*
X95700000Y-80100000D02*
X95499999Y-80300001D01*
X93749160Y-80700000D02*
X95100000Y-80700000D01*
X93149160Y-80100000D02*
X93749160Y-80700000D01*
D44*
X92887998Y-77275000D02*
X93050000Y-77275000D01*
X92237998Y-77925000D02*
X92887998Y-77275000D01*
X91450000Y-77925000D02*
X92237998Y-77925000D01*
X93050000Y-76625000D02*
X93050000Y-77275000D01*
D43*
X86400000Y-78184000D02*
X86400000Y-83560000D01*
X85908000Y-77692000D02*
X86400000Y-78184000D01*
X86400000Y-83560000D02*
X86400000Y-86100000D01*
D42*
G04 #@! TO.N,/Nixie_PSU/FB*
X142448360Y-45750000D02*
X144151640Y-45750000D01*
X139400000Y-47250000D02*
X142247470Y-47250000D01*
X127088000Y-55451240D02*
X128177760Y-56541000D01*
X128177760Y-56541000D02*
X130077580Y-56541000D01*
X142448360Y-47049110D02*
X142448360Y-45750000D01*
X137088000Y-44938000D02*
X139400000Y-47250000D01*
X127088000Y-47600000D02*
X127088000Y-55451240D01*
X129750000Y-44938000D02*
X137088000Y-44938000D01*
X127088000Y-47600000D02*
X129750000Y-44938000D01*
X142247470Y-47250000D02*
X142448360Y-47049110D01*
D44*
G04 #@! TO.N,Net-(R2-Pad2)*
X140648360Y-45646720D02*
X140751640Y-45750000D01*
D42*
X140648360Y-44200000D02*
X140648360Y-45646720D01*
D44*
G04 #@! TO.N,Net-(J1-Pad7)*
X129950000Y-38720000D02*
X131170000Y-37500000D01*
X129950000Y-40550000D02*
X129950000Y-38720000D01*
X129150000Y-41350000D02*
X129950000Y-40550000D01*
X122100000Y-48200000D02*
X122400000Y-47900000D01*
X122400000Y-47900000D02*
X122400000Y-42950000D01*
X124000000Y-41350000D02*
X129150000Y-41350000D01*
X122400000Y-42950000D02*
X124000000Y-41350000D01*
X121349160Y-48200000D02*
X122100000Y-48200000D01*
G04 #@! TO.N,Net-(J1-Pad8)*
X129519990Y-41690010D02*
X131170000Y-40040000D01*
X124159990Y-41690010D02*
X129519990Y-41690010D01*
X122740010Y-43109990D02*
X124159990Y-41690010D01*
X121349160Y-50000000D02*
X121997940Y-50000000D01*
X122740010Y-49257930D02*
X122740010Y-43109990D01*
X121997940Y-50000000D02*
X122740010Y-49257930D01*
G04 #@! TO.N,Net-(R22-Pad2)*
X86479599Y-67906376D02*
X88352959Y-67906376D01*
X88429600Y-67983016D02*
X88429599Y-66179737D01*
G04 #@! TO.N,Net-(C8-Pad1)*
X86479599Y-64533015D02*
X86277960Y-64331376D01*
X86479599Y-66606377D02*
X86479599Y-64533015D01*
G04 #@! TO.N,/Nixie_Interface/HCLK*
X77679599Y-57541376D02*
X82995035Y-57541376D01*
X84252180Y-55658216D02*
X84252180Y-54958636D01*
X82995035Y-57541376D02*
X84252180Y-56284231D01*
X84252180Y-56284231D02*
X84252180Y-55658216D01*
G04 #@! TO.N,/Nixie_Interface/~HBL*
X83607020Y-56292980D02*
X83607020Y-54958636D01*
X82900000Y-57000000D02*
X83607020Y-56292980D01*
X79500000Y-57000000D02*
X82900000Y-57000000D01*
X77679599Y-55179599D02*
X79500000Y-57000000D01*
X77679599Y-55001376D02*
X77679599Y-55179599D01*
G04 #@! TO.N,/Nixie_Interface/~HLE*
X82956780Y-60004537D02*
X83000000Y-59961317D01*
X82956780Y-60704117D02*
X82956780Y-60004537D01*
X83000000Y-59961317D02*
X83000000Y-59400000D01*
G04 #@! TO.N,/Nixie_Interface/HDIN*
X84252180Y-60004536D02*
X84200000Y-59952356D01*
X84252180Y-60704116D02*
X84252180Y-60004536D01*
X84200000Y-59952356D02*
X84200000Y-59400000D01*
D43*
G04 #@! TO.N,Net-(J4-Pad1)*
X77679599Y-74291376D02*
X77679599Y-68581376D01*
D44*
G04 #@! TO.N,Net-(R25-Pad2)*
X93106000Y-63695000D02*
X92206000Y-63695000D01*
X102945000Y-63695000D02*
X93106000Y-63695000D01*
X103000000Y-63640000D02*
X102945000Y-63695000D01*
G04 #@! TO.N,Net-(R24-Pad2)*
X93106000Y-61605000D02*
X92206000Y-61605000D01*
X103005000Y-61605000D02*
X93106000Y-61605000D01*
X107900000Y-66500000D02*
X103005000Y-61605000D01*
X117100000Y-66500000D02*
X107900000Y-66500000D01*
X121000000Y-77610000D02*
X118910000Y-77610000D01*
X117800000Y-67200000D02*
X117100000Y-66500000D01*
X117800000Y-76500000D02*
X117800000Y-67200000D01*
X118910000Y-77610000D02*
X117800000Y-76500000D01*
G04 #@! TO.N,/ESP32/MISO-D19*
X101500000Y-71260000D02*
X103000000Y-71260000D01*
X100800000Y-71260000D02*
X101500000Y-71260000D01*
X98050000Y-41537002D02*
X93630020Y-45956982D01*
X98050000Y-41100000D02*
X98050000Y-41537002D01*
X93630020Y-45956982D02*
X93630020Y-51880020D01*
X93630020Y-51880020D02*
X94800000Y-53050000D01*
X94800000Y-53050000D02*
X94800000Y-53050000D01*
X99886200Y-71260000D02*
X100800000Y-71260000D01*
X98040000Y-71260000D02*
X99886200Y-71260000D01*
X97560044Y-71739956D02*
X98040000Y-71260000D01*
X100450000Y-82716410D02*
X97560044Y-79826454D01*
X97560044Y-79826454D02*
X97560044Y-71739956D01*
X100450000Y-85450000D02*
X100450000Y-82716410D01*
G04 #@! TO.N,/ESP32/MOSI-D18*
X101500000Y-69990000D02*
X101500000Y-69990000D01*
X101500000Y-69990000D02*
X103000000Y-69990000D01*
X100950000Y-69990000D02*
X101500000Y-69990000D01*
X100800000Y-69990000D02*
X100950000Y-69990000D01*
X94700000Y-55100000D02*
X94700000Y-55100000D01*
X93650000Y-42819152D02*
X92950000Y-43519152D01*
X93650000Y-41100000D02*
X93650000Y-42819152D01*
X92950000Y-43519152D02*
X92950000Y-53350000D01*
X94300001Y-54700001D02*
X94700000Y-55100000D01*
X92950000Y-53350000D02*
X94300001Y-54700001D01*
X97220033Y-71479967D02*
X98710000Y-69990000D01*
X97220033Y-79967291D02*
X97220033Y-71479967D01*
X97910000Y-80657258D02*
X97220033Y-79967291D01*
X98710000Y-69990000D02*
X100800000Y-69990000D01*
X97910000Y-85450000D02*
X97910000Y-80657258D01*
G04 #@! TO.N,/ESP32/SCK-D5*
X100830000Y-68720000D02*
X100830000Y-68720000D01*
X103000000Y-68720000D02*
X100830000Y-68720000D01*
X95850000Y-42100000D02*
X93290010Y-44659990D01*
X95850000Y-41100000D02*
X95850000Y-42100000D01*
X93290010Y-52590008D02*
X94750000Y-54049998D01*
X93290010Y-44659990D02*
X93290010Y-52590008D01*
X96895021Y-83924979D02*
X96219999Y-84600001D01*
X96895021Y-80123125D02*
X96895021Y-83924979D01*
X99380000Y-68720000D02*
X96880022Y-71219978D01*
X96219999Y-84600001D02*
X95370000Y-85450000D01*
X96880022Y-80108124D02*
X96895021Y-80123125D01*
X96880022Y-71219978D02*
X96880022Y-80108124D01*
X100830000Y-68720000D02*
X99380000Y-68720000D01*
G04 #@! TO.N,/ESP32/A8-D15*
X82306540Y-61693460D02*
X82306540Y-61893460D01*
X82306540Y-60704116D02*
X82306540Y-61693460D01*
X82306540Y-61693460D02*
X82306540Y-61893460D01*
X82306540Y-61893460D02*
X82306540Y-61693460D01*
X107555000Y-60300000D02*
X107555000Y-60250000D01*
X107555000Y-60700000D02*
X107555000Y-60255000D01*
X107555000Y-62150000D02*
X107555000Y-60700000D01*
X107555000Y-60700000D02*
X107555000Y-60300000D01*
X107555000Y-60255000D02*
X107400000Y-60100000D01*
X107400000Y-60100000D02*
X103200000Y-60100000D01*
X103200000Y-60100000D02*
X102500000Y-60800000D01*
X102500000Y-60800000D02*
X93600000Y-60800000D01*
X93600000Y-60800000D02*
X93000000Y-60200000D01*
X93000000Y-60200000D02*
X93000000Y-60200000D01*
G04 #@! TO.N,/ESP32/A12-D13*
X116445000Y-60650000D02*
X116445000Y-60650000D01*
X112340000Y-57400000D02*
X112126099Y-57186099D01*
X115100000Y-57400000D02*
X112340000Y-57400000D01*
X116445000Y-62150000D02*
X116445000Y-60349992D01*
G04 #@! TO.N,/ESP32/A13-D35*
X131010000Y-84247919D02*
X131010000Y-85450000D01*
X131010000Y-81610000D02*
X131010000Y-84247919D01*
X121930000Y-72530000D02*
X131010000Y-81610000D01*
X121000000Y-72530000D02*
X121930000Y-72530000D01*
G04 #@! TO.N,/ESP32/A2-D34*
X122500000Y-73800000D02*
X121000000Y-73800000D01*
X128470000Y-79770000D02*
X122500000Y-73800000D01*
X128470000Y-85450000D02*
X128470000Y-79770000D01*
G04 #@! TO.N,/ESP32/A3-D39*
X127925020Y-79925020D02*
X127925020Y-81874980D01*
X123070000Y-75070000D02*
X127925020Y-79925020D01*
X125930000Y-83870000D02*
X125930000Y-85450000D01*
X127925020Y-81874980D02*
X125930000Y-83870000D01*
X121000000Y-75070000D02*
X123070000Y-75070000D01*
G04 #@! TO.N,/ESP32/A4-D36*
X126538176Y-82575010D02*
X127475010Y-81638176D01*
X125062909Y-82575010D02*
X126538176Y-82575010D01*
X123390000Y-84247919D02*
X125062909Y-82575010D01*
X123390000Y-85450000D02*
X123390000Y-84247919D01*
X123653186Y-76340000D02*
X122500000Y-76340000D01*
X127475010Y-80161824D02*
X123653186Y-76340000D01*
X122500000Y-76340000D02*
X121000000Y-76340000D01*
X127475010Y-81638176D02*
X127475010Y-80161824D01*
D42*
G04 #@! TO.N,Net-(D1-PadA)*
X145548720Y-58298680D02*
X145884000Y-57963400D01*
X145548720Y-61742920D02*
X145548720Y-58298680D01*
G04 #@! TO.N,Net-(T1-Pad12)*
X144640708Y-76523042D02*
X145548720Y-75615030D01*
X134001980Y-63666870D02*
X134001980Y-75192232D01*
X135332790Y-76523042D02*
X144640708Y-76523042D01*
X135551280Y-62117570D02*
X134001980Y-63666870D01*
X134001980Y-75192232D02*
X135332790Y-76523042D01*
X145548720Y-75615030D02*
X145548720Y-73691080D01*
X135551280Y-62117570D02*
X134147979Y-63520871D01*
X135551280Y-61742920D02*
X135551280Y-62117570D01*
X134147979Y-63520871D02*
X134147979Y-75338231D01*
G04 #@! TO.N,Net-(T1-Pad11)*
X136277759Y-75469031D02*
X136146959Y-75338231D01*
X142820721Y-75469031D02*
X136277759Y-75469031D01*
X142951521Y-74289299D02*
X142951521Y-75338231D01*
X143549740Y-73691080D02*
X142951521Y-74289299D01*
X142951521Y-75338231D02*
X142820721Y-75469031D01*
X136146959Y-75338231D02*
X136146959Y-74286759D01*
X136146959Y-74286759D02*
X135551280Y-73691080D01*
G04 #@! TO.N,Net-(Q1-Pad4)*
X137756000Y-56541000D02*
X135274420Y-56541000D01*
D44*
G04 #@! TO.N,Net-(J1-Pad9)*
X132860001Y-38349999D02*
X133710000Y-37500000D01*
X132500000Y-38710000D02*
X132860001Y-38349999D01*
X132500000Y-40500000D02*
X132500000Y-38710000D01*
X130969980Y-42030020D02*
X132500000Y-40500000D01*
X121349160Y-51800000D02*
X122000000Y-51800000D01*
X124300827Y-42030021D02*
X130969980Y-42030020D01*
X123080021Y-43250827D02*
X124300827Y-42030021D01*
X122000000Y-51800000D02*
X123080021Y-50719979D01*
X123080021Y-50719979D02*
X123080021Y-43250827D01*
G04 #@! TO.N,Net-(J1-Pad10)*
X122050000Y-53600000D02*
X121349160Y-53600000D01*
X123450000Y-52200000D02*
X122050000Y-53600000D01*
X123450000Y-43361696D02*
X123450000Y-52200000D01*
X124441666Y-42370030D02*
X123450000Y-43361696D01*
X131379970Y-42370030D02*
X124441666Y-42370030D01*
X133710000Y-40040000D02*
X131379970Y-42370030D01*
G04 #@! TO.N,Net-(J1-Pad11)*
X135400001Y-38349999D02*
X136250000Y-37500000D01*
X135050000Y-40276202D02*
X135050000Y-38700000D01*
X132616162Y-42710040D02*
X135050000Y-40276202D01*
X124582504Y-42710040D02*
X132616162Y-42710040D01*
X123850000Y-43442544D02*
X124582504Y-42710040D01*
X123850000Y-53450000D02*
X123850000Y-43442544D01*
X135050000Y-38700000D02*
X135400001Y-38349999D01*
X121900000Y-55400000D02*
X123850000Y-53450000D01*
X121349160Y-55400000D02*
X121900000Y-55400000D01*
G04 #@! TO.N,Net-(J1-Pad12)*
X122050000Y-57200000D02*
X121349160Y-57200000D01*
X124799950Y-43050050D02*
X124190010Y-43659990D01*
X124190010Y-43659990D02*
X124190010Y-55059990D01*
X133239950Y-43050050D02*
X124799950Y-43050050D01*
X124190010Y-55059990D02*
X122050000Y-57200000D01*
X136250000Y-40040000D02*
X133239950Y-43050050D01*
G04 #@! TO.N,/Nixie_Interface/CLK*
X84902420Y-54958635D02*
X84902420Y-53874770D01*
X84902420Y-53874770D02*
X84827650Y-53800000D01*
X103000000Y-73800000D02*
X101100000Y-73800000D01*
G04 #@! TO.N,/ESP32/RX*
X101500000Y-66180000D02*
X103000000Y-66180000D01*
X96200000Y-81010202D02*
X96200000Y-70900000D01*
X93210202Y-84000000D02*
X96200000Y-81010202D01*
X99990011Y-67109989D02*
X100490011Y-67109989D01*
X96200000Y-70900000D02*
X99990011Y-67109989D01*
X101420000Y-66180000D02*
X101500000Y-66180000D01*
X91740000Y-84000000D02*
X93210202Y-84000000D01*
X100490011Y-67109989D02*
X101420000Y-66180000D01*
X90290000Y-85450000D02*
X91740000Y-84000000D01*
G04 #@! TO.N,/ESP32/TX*
X101500000Y-67450000D02*
X103000000Y-67450000D01*
X100150000Y-67450000D02*
X101500000Y-67450000D01*
X96555011Y-81724989D02*
X96555011Y-80263961D01*
X96540011Y-71059989D02*
X100150000Y-67450000D01*
X96540011Y-80248961D02*
X96540011Y-71059989D01*
X96555011Y-80263961D02*
X96540011Y-80248961D01*
X92830000Y-85450000D02*
X96555011Y-81724989D01*
G04 #@! TO.N,Net-(D2-PadA)*
X110401640Y-55300000D02*
X108726300Y-55300000D01*
G04 #@! TO.N,Net-(D3-PadA)*
X110378579Y-57186099D02*
X108690201Y-57186099D01*
G04 #@! TO.N,/ESP32/RXD0*
X103000000Y-75070000D02*
X99140000Y-75070000D01*
X99140000Y-75070000D02*
X99000000Y-75210000D01*
G04 #@! TO.N,/ESP32/TXD0*
X103000000Y-76340000D02*
X100410000Y-76340000D01*
X100410000Y-76340000D02*
X99000000Y-77750000D01*
G04 #@! TO.N,+*
X88821080Y-78962000D02*
X90088000Y-78962000D01*
X90088000Y-78962000D02*
X90188000Y-78962000D01*
X90088000Y-78962000D02*
X90088000Y-78962000D01*
D43*
X84274999Y-49474999D02*
X83875000Y-49075000D01*
X90949999Y-56149999D02*
X84274999Y-49474999D01*
X92600000Y-74300000D02*
X92600000Y-72200001D01*
X90949999Y-70550000D02*
X90949999Y-56149999D01*
X92600000Y-72200001D02*
X90949999Y-70550000D01*
D44*
G04 #@! TO.N,/MCU_Audio/SCL*
X88821080Y-76422000D02*
X90200000Y-76422000D01*
X90456640Y-76625000D02*
X90253640Y-76422000D01*
X91450000Y-76625000D02*
X90456640Y-76625000D01*
X90200000Y-76422000D02*
X90253640Y-76422000D01*
X91299110Y-73151640D02*
X91800000Y-73150000D01*
X90550000Y-73151640D02*
X91299110Y-73151640D01*
X91300750Y-73150000D02*
X91800000Y-73150000D01*
X91800000Y-73150000D02*
X91300750Y-73150000D01*
X103150001Y-83000000D02*
X103100000Y-83000000D01*
X106300000Y-79850001D02*
X103150001Y-83000000D01*
X106300000Y-78350000D02*
X106300000Y-79850001D01*
X105560000Y-77610000D02*
X105560000Y-77610000D01*
X103000000Y-77610000D02*
X105560000Y-77610000D01*
X105560000Y-77610000D02*
X106300000Y-78350000D01*
X105560000Y-77610000D02*
X106050000Y-77120000D01*
X106050000Y-75950000D02*
X105420010Y-75320010D01*
X105420010Y-75320010D02*
X105420010Y-67450000D01*
X106050000Y-77120000D02*
X106050000Y-75950000D01*
X105420010Y-67450000D02*
X105420010Y-66979990D01*
X105420010Y-66979990D02*
X106050000Y-66350000D01*
X106050000Y-66350000D02*
X106050000Y-66350000D01*
X109934990Y-53415010D02*
X105365685Y-53415010D01*
X113300000Y-50050000D02*
X109934990Y-53415010D01*
X113300000Y-47200000D02*
X113300000Y-50050000D01*
X105365685Y-53415010D02*
X104800000Y-53415010D01*
X114042000Y-46458000D02*
X113300000Y-47200000D01*
X114042000Y-45581200D02*
X114042000Y-46458000D01*
X88821080Y-76422000D02*
X88521360Y-76422000D01*
X87259989Y-80925674D02*
X89434317Y-83100002D01*
X90934315Y-83100002D02*
X91500000Y-83100002D01*
X87259989Y-77683371D02*
X87259989Y-80925674D01*
X89434317Y-83100002D02*
X90934315Y-83100002D01*
X88521360Y-76422000D02*
X87259989Y-77683371D01*
G04 #@! TO.N,/MCU_Audio/SDA*
X88713080Y-77800000D02*
X88821080Y-77692000D01*
X90950000Y-77275000D02*
X91450000Y-77275000D01*
X89670520Y-77692000D02*
X90150000Y-77700000D01*
X88821080Y-77692000D02*
X89670520Y-77692000D01*
X89678520Y-77700000D02*
X90150000Y-77700000D01*
X90575000Y-77275000D02*
X90950000Y-77275000D01*
X90150000Y-77700000D02*
X90575000Y-77275000D01*
X90150000Y-77700000D02*
X89678520Y-77700000D01*
X88050890Y-73151640D02*
X88049250Y-73150000D01*
X88800000Y-73151640D02*
X88050890Y-73151640D01*
X88049250Y-73150000D02*
X87500000Y-73150000D01*
X87500000Y-73150000D02*
X87500000Y-73150000D01*
X103263590Y-82250000D02*
X102400000Y-82250000D01*
X105500000Y-80013590D02*
X103263590Y-82250000D01*
X105080000Y-78880000D02*
X105080000Y-78880000D01*
X105500000Y-79300000D02*
X105500000Y-80013590D01*
X103000000Y-78880000D02*
X105080000Y-78880000D01*
X105080000Y-78880000D02*
X105500000Y-79300000D01*
X105080000Y-65780000D02*
X105080000Y-65780000D01*
X105080000Y-65780000D02*
X105080000Y-76320008D01*
X112600000Y-49100000D02*
X112600000Y-49100000D01*
X104200000Y-52800000D02*
X109850000Y-52800000D01*
X112584990Y-50065010D02*
X112584990Y-49100000D01*
X109850000Y-52800000D02*
X112584990Y-50065010D01*
X104000000Y-52600000D02*
X104200000Y-52800000D01*
X115850001Y-48534315D02*
X115850001Y-49100000D01*
X115058000Y-45581200D02*
X115058000Y-46458000D01*
X115058000Y-46458000D02*
X115850001Y-47250001D01*
X115850001Y-47250001D02*
X115850001Y-48534315D01*
X87600000Y-80780200D02*
X88995568Y-82175768D01*
X88995568Y-82175768D02*
X90951624Y-82175768D01*
X88821080Y-77692000D02*
X88521360Y-77692000D01*
X87600000Y-78613360D02*
X87600000Y-80780200D01*
X90951624Y-82175768D02*
X91517309Y-82175768D01*
X88521360Y-77692000D02*
X87600000Y-78613360D01*
G04 #@! TO.N,/DAC1*
X123570000Y-68720000D02*
X123570000Y-68720000D01*
X123570000Y-68720000D02*
X121000000Y-68720000D01*
X110300560Y-49249160D02*
X110299720Y-49250000D01*
X111150000Y-49249160D02*
X110300560Y-49249160D01*
X110299720Y-49250000D02*
X109450000Y-49250000D01*
X109450000Y-49250000D02*
X109450000Y-49250000D01*
X121476079Y-61815808D02*
X116250000Y-56589729D01*
X116250000Y-56589729D02*
X116250000Y-51465685D01*
X116250000Y-51465685D02*
X116250000Y-50900000D01*
X136090000Y-85450000D02*
X126640011Y-76000011D01*
X125100848Y-68720000D02*
X124135685Y-68720000D01*
X126640011Y-76000011D02*
X126640011Y-70259163D01*
X124135685Y-68720000D02*
X123570000Y-68720000D01*
X126640011Y-70259163D02*
X125100848Y-68720000D01*
G04 #@! TO.N,/DAC2*
X123550000Y-67450000D02*
X123550000Y-67450000D01*
X121000000Y-67450000D02*
X123550000Y-67450000D01*
X117900000Y-49222895D02*
X117891602Y-49214497D01*
X117900000Y-57550000D02*
X117900000Y-49222895D01*
X121250000Y-60900000D02*
X117900000Y-57550000D01*
X122250000Y-60900000D02*
X121250000Y-60900000D01*
X137780000Y-83500000D02*
X138630000Y-84350000D01*
X124311696Y-67450000D02*
X126980022Y-70118326D01*
X123550000Y-67450000D02*
X124311696Y-67450000D01*
X126980022Y-75670792D02*
X134809230Y-83500000D01*
X126980022Y-70118326D02*
X126980022Y-75670792D01*
X134809230Y-83500000D02*
X137780000Y-83500000D01*
X138630000Y-84350000D02*
X138630000Y-85450000D01*
G04 #@! TO.N,/ESP32/SD-Select*
X94575000Y-56175000D02*
X100152060Y-56175000D01*
X92550000Y-54150000D02*
X94575000Y-56175000D01*
X100152060Y-56175000D02*
X100800840Y-56175000D01*
X92550000Y-41100000D02*
X92550000Y-54150000D01*
X100800840Y-56175000D02*
X100800840Y-56375660D01*
X100800840Y-56375660D02*
X102325180Y-57900000D01*
X102325180Y-57900000D02*
X104299996Y-57900000D01*
X121000000Y-66180000D02*
X119080000Y-66180000D01*
X119080000Y-66180000D02*
X118250000Y-65350000D01*
X108600000Y-65350000D02*
X108150000Y-65800000D01*
X118250000Y-65350000D02*
X108600000Y-65350000D01*
D45*
G04 #@! TO.N,Net-(J9-Pad1)*
X113559400Y-40209400D02*
X111000000Y-37650000D01*
X111000000Y-37650000D02*
X110200000Y-37650000D01*
X113559400Y-41618800D02*
X113559400Y-40209400D01*
G04 #@! TO.N,Net-(J9-Pad2)*
X114042000Y-38952000D02*
X112740000Y-37650000D01*
X114042000Y-41618800D02*
X114042000Y-38952000D01*
G04 #@! TO.N,Net-(J8-Pad2)*
X115058000Y-38902000D02*
X116360000Y-37600000D01*
X115058000Y-41618800D02*
X115058000Y-38902000D01*
G04 #@! TO.N,Net-(J8-Pad1)*
X118050000Y-37600000D02*
X118900000Y-37600000D01*
X115540600Y-40109400D02*
X118050000Y-37600000D01*
X115540600Y-41618800D02*
X115540600Y-40109400D01*
D44*
G04 #@! TO.N,AGND*
X116532040Y-43600840D02*
X116531200Y-43600000D01*
X119950000Y-43600840D02*
X116532040Y-43600840D01*
X121450839Y-43600840D02*
X121500000Y-43650001D01*
X119950000Y-43600840D02*
X121450839Y-43600840D01*
D43*
X111050000Y-45449160D02*
X108650840Y-45449160D01*
X108650840Y-45449160D02*
X108600000Y-45500000D01*
D44*
G04 #@! TO.N,+3.3VA*
X109648320Y-43650840D02*
X109250000Y-44049160D01*
X112517960Y-43650840D02*
X109648320Y-43650840D01*
X112568800Y-43600000D02*
X112517960Y-43650840D01*
G04 #@! TO.N,Net-(C17-Pad1)*
X116472802Y-45997377D02*
X117891602Y-47416177D01*
X116472802Y-44555937D02*
X116472802Y-45997377D01*
G04 #@! TO.N,Net-(R21-Pad2)*
X114550000Y-47850840D02*
X114550000Y-45581200D01*
G04 #@! TO.N,/ESP32/A6-T6-D14*
X84902421Y-61497579D02*
X84902421Y-60704116D01*
X84500000Y-61900000D02*
X84902421Y-61497579D01*
X102000000Y-62500000D02*
X92399994Y-62500000D01*
X92399994Y-62500000D02*
X92300000Y-62599994D01*
X106944315Y-64910000D02*
X103650000Y-61615685D01*
X121000000Y-64910000D02*
X106944315Y-64910000D01*
X103650000Y-61615685D02*
X103650000Y-61050000D01*
G04 #@! TO.N,/ESP32/A5-T0-D4*
X82956779Y-53874771D02*
X83031550Y-53800000D01*
X82956779Y-54958636D02*
X82956779Y-53874771D01*
X102200000Y-64910000D02*
X100560000Y-66550000D01*
X100560000Y-66550000D02*
X97115685Y-66550000D01*
X103000000Y-64910000D02*
X102200000Y-64910000D01*
X97115685Y-66550000D02*
X96550000Y-66550000D01*
G04 #@! TO.N,/ESP32/A7-T9-D32*
X124160000Y-71260000D02*
X124200000Y-71300000D01*
X121000000Y-71260000D02*
X124160000Y-71260000D01*
G04 #@! TO.N,/ESP32/A9-T8-D33*
X133550000Y-84247919D02*
X133550000Y-85450000D01*
X121000000Y-69990000D02*
X121990000Y-69990000D01*
X126300000Y-70400000D02*
X126300000Y-76263590D01*
X125200000Y-69300000D02*
X126300000Y-70400000D01*
X126300000Y-76263590D02*
X133550000Y-83513590D01*
X123900202Y-69300000D02*
X125200000Y-69300000D01*
X133550000Y-83513590D02*
X133550000Y-85450000D01*
X123865201Y-69335001D02*
X123900202Y-69300000D01*
X122800000Y-69300000D02*
X123239798Y-69300000D01*
X123274799Y-69335001D02*
X123865201Y-69335001D01*
X123239798Y-69300000D02*
X123274799Y-69335001D01*
X122110000Y-69990000D02*
X122800000Y-69300000D01*
X121000000Y-69990000D02*
X122110000Y-69990000D01*
G04 #@! TO.N,/ESP32/A11-T5-D12*
X124400000Y-64100000D02*
X124400000Y-65200000D01*
X123940000Y-63640000D02*
X124400000Y-64100000D01*
X121000000Y-63640000D02*
X123940000Y-63640000D01*
G04 #@! TO.N,Net-(C18-Pad1)*
X112568800Y-46032040D02*
X111150000Y-47450840D01*
X112568800Y-44590600D02*
X112568800Y-46032040D01*
G04 #@! TD*
D46*
G04 #@! TO.N,+12V*
G36*
X84089796Y-66421179D02*
X84130998Y-66448709D01*
X84179599Y-66458376D01*
X84552600Y-66458376D01*
X84552600Y-66573538D01*
X84541095Y-66631377D01*
X84541095Y-67317873D01*
X84074599Y-67317873D01*
X83945059Y-67343640D01*
X83835241Y-67417019D01*
X83832371Y-67421314D01*
X82985062Y-67177936D01*
X82950001Y-67173000D01*
X80575838Y-67173001D01*
X80557773Y-65208376D01*
X82876993Y-65208376D01*
X84089796Y-66421179D01*
X84089796Y-66421179D01*
G37*
X84089796Y-66421179D02*
X84130998Y-66448709D01*
X84179599Y-66458376D01*
X84552600Y-66458376D01*
X84552600Y-66573538D01*
X84541095Y-66631377D01*
X84541095Y-67317873D01*
X84074599Y-67317873D01*
X83945059Y-67343640D01*
X83835241Y-67417019D01*
X83832371Y-67421314D01*
X82985062Y-67177936D01*
X82950001Y-67173000D01*
X80575838Y-67173001D01*
X80557773Y-65208376D01*
X82876993Y-65208376D01*
X84089796Y-66421179D01*
G04 #@! TO.N,+3V3*
G36*
X87339797Y-68921179D02*
X87380999Y-68948710D01*
X87429601Y-68958377D01*
X87679601Y-68958376D01*
X88876993Y-68958376D01*
X89052599Y-69133982D01*
X89052599Y-70278770D01*
X88876993Y-70454376D01*
X87679599Y-70454376D01*
X87630998Y-70464043D01*
X87589796Y-70491574D01*
X87339796Y-70741575D01*
X87312266Y-70782776D01*
X87302599Y-70831377D01*
X87302600Y-71278771D01*
X86876994Y-71704376D01*
X85806599Y-71704377D01*
X85806599Y-70081376D01*
X85796932Y-70032775D01*
X85769402Y-69991574D01*
X85519403Y-69741574D01*
X85478201Y-69714043D01*
X85429600Y-69704376D01*
X84056599Y-69704377D01*
X84056600Y-68491301D01*
X84074599Y-68494881D01*
X84541095Y-68494881D01*
X84541095Y-68531377D01*
X84566862Y-68660917D01*
X84640241Y-68770735D01*
X84750059Y-68844114D01*
X84879599Y-68869881D01*
X85038498Y-68869881D01*
X85089796Y-68921179D01*
X85130998Y-68948710D01*
X85179599Y-68958377D01*
X85679599Y-68958377D01*
X85728200Y-68948710D01*
X85769401Y-68921180D01*
X85820700Y-68869881D01*
X85979599Y-68869881D01*
X86109139Y-68844114D01*
X86218957Y-68770735D01*
X86292336Y-68660917D01*
X86318103Y-68531377D01*
X86318103Y-68494881D01*
X86784600Y-68494881D01*
X86892114Y-68473495D01*
X87339797Y-68921179D01*
X87339797Y-68921179D01*
G37*
X87339797Y-68921179D02*
X87380999Y-68948710D01*
X87429601Y-68958377D01*
X87679601Y-68958376D01*
X88876993Y-68958376D01*
X89052599Y-69133982D01*
X89052599Y-70278770D01*
X88876993Y-70454376D01*
X87679599Y-70454376D01*
X87630998Y-70464043D01*
X87589796Y-70491574D01*
X87339796Y-70741575D01*
X87312266Y-70782776D01*
X87302599Y-70831377D01*
X87302600Y-71278771D01*
X86876994Y-71704376D01*
X85806599Y-71704377D01*
X85806599Y-70081376D01*
X85796932Y-70032775D01*
X85769402Y-69991574D01*
X85519403Y-69741574D01*
X85478201Y-69714043D01*
X85429600Y-69704376D01*
X84056599Y-69704377D01*
X84056600Y-68491301D01*
X84074599Y-68494881D01*
X84541095Y-68494881D01*
X84541095Y-68531377D01*
X84566862Y-68660917D01*
X84640241Y-68770735D01*
X84750059Y-68844114D01*
X84879599Y-68869881D01*
X85038498Y-68869881D01*
X85089796Y-68921179D01*
X85130998Y-68948710D01*
X85179599Y-68958377D01*
X85679599Y-68958377D01*
X85728200Y-68948710D01*
X85769401Y-68921180D01*
X85820700Y-68869881D01*
X85979599Y-68869881D01*
X86109139Y-68844114D01*
X86218957Y-68770735D01*
X86292336Y-68660917D01*
X86318103Y-68531377D01*
X86318103Y-68494881D01*
X86784600Y-68494881D01*
X86892114Y-68473495D01*
X87339797Y-68921179D01*
G04 #@! TO.N,Net-(C2-Pad1)*
G36*
X139026000Y-55525000D02*
X137248000Y-55525000D01*
X137248000Y-52731000D01*
X137238333Y-52682399D01*
X137210803Y-52641197D01*
X137169601Y-52613667D01*
X137121000Y-52604000D01*
X131279000Y-52604000D01*
X131230399Y-52613667D01*
X131189197Y-52641197D01*
X131161667Y-52682399D01*
X131152000Y-52731000D01*
X131152000Y-54255000D01*
X129120000Y-54255000D01*
X129120000Y-53158521D01*
X130448903Y-51588000D01*
X132168000Y-51588000D01*
X132216601Y-51578333D01*
X132257803Y-51550803D01*
X132285333Y-51509601D01*
X132295000Y-51461000D01*
X132295000Y-50953000D01*
X139026000Y-50953000D01*
X139026000Y-55525000D01*
X139026000Y-55525000D01*
G37*
X139026000Y-55525000D02*
X137248000Y-55525000D01*
X137248000Y-52731000D01*
X137238333Y-52682399D01*
X137210803Y-52641197D01*
X137169601Y-52613667D01*
X137121000Y-52604000D01*
X131279000Y-52604000D01*
X131230399Y-52613667D01*
X131189197Y-52641197D01*
X131161667Y-52682399D01*
X131152000Y-52731000D01*
X131152000Y-54255000D01*
X129120000Y-54255000D01*
X129120000Y-53158521D01*
X130448903Y-51588000D01*
X132168000Y-51588000D01*
X132216601Y-51578333D01*
X132257803Y-51550803D01*
X132285333Y-51509601D01*
X132295000Y-51461000D01*
X132295000Y-50953000D01*
X139026000Y-50953000D01*
X139026000Y-55525000D01*
G04 #@! TO.N,Net-(Q1-Pad5)*
G36*
X144233000Y-62764000D02*
X142836000Y-62764000D01*
X142836000Y-60224000D01*
X142826333Y-60175399D01*
X142798803Y-60134197D01*
X142757601Y-60106667D01*
X142709000Y-60097000D01*
X142201000Y-60097000D01*
X142201000Y-52096000D01*
X144233000Y-52096000D01*
X144233000Y-62764000D01*
X144233000Y-62764000D01*
G37*
X144233000Y-62764000D02*
X142836000Y-62764000D01*
X142836000Y-60224000D01*
X142826333Y-60175399D01*
X142798803Y-60134197D01*
X142757601Y-60106667D01*
X142709000Y-60097000D01*
X142201000Y-60097000D01*
X142201000Y-52096000D01*
X144233000Y-52096000D01*
X144233000Y-62764000D01*
G04 #@! TO.N,+12V*
G36*
X136613000Y-54509000D02*
X133946000Y-54509000D01*
X133897399Y-54518667D01*
X133856197Y-54546197D01*
X133828667Y-54587399D01*
X133819000Y-54636000D01*
X133819000Y-58446000D01*
X133828667Y-58494601D01*
X133856197Y-58535803D01*
X133897399Y-58563333D01*
X133946000Y-58573000D01*
X138264000Y-58573000D01*
X138264000Y-62764000D01*
X136867000Y-62764000D01*
X136867000Y-60097000D01*
X136857333Y-60048399D01*
X136829803Y-60007197D01*
X136788601Y-59979667D01*
X136740000Y-59970000D01*
X134835000Y-59970000D01*
X134786399Y-59979667D01*
X134745197Y-60007197D01*
X131697197Y-63055197D01*
X131669667Y-63096399D01*
X131660000Y-63145000D01*
X131660000Y-64273000D01*
X127850000Y-64273000D01*
X127850000Y-58700000D01*
X131660000Y-58700000D01*
X131708601Y-58690333D01*
X131749803Y-58662803D01*
X131777333Y-58621601D01*
X131787000Y-58573000D01*
X131787000Y-53239000D01*
X136613000Y-53239000D01*
X136613000Y-54509000D01*
X136613000Y-54509000D01*
G37*
X136613000Y-54509000D02*
X133946000Y-54509000D01*
X133897399Y-54518667D01*
X133856197Y-54546197D01*
X133828667Y-54587399D01*
X133819000Y-54636000D01*
X133819000Y-58446000D01*
X133828667Y-58494601D01*
X133856197Y-58535803D01*
X133897399Y-58563333D01*
X133946000Y-58573000D01*
X138264000Y-58573000D01*
X138264000Y-62764000D01*
X136867000Y-62764000D01*
X136867000Y-60097000D01*
X136857333Y-60048399D01*
X136829803Y-60007197D01*
X136788601Y-59979667D01*
X136740000Y-59970000D01*
X134835000Y-59970000D01*
X134786399Y-59979667D01*
X134745197Y-60007197D01*
X131697197Y-63055197D01*
X131669667Y-63096399D01*
X131660000Y-63145000D01*
X131660000Y-64273000D01*
X127850000Y-64273000D01*
X127850000Y-58700000D01*
X131660000Y-58700000D01*
X131708601Y-58690333D01*
X131749803Y-58662803D01*
X131777333Y-58621601D01*
X131787000Y-58573000D01*
X131787000Y-53239000D01*
X136613000Y-53239000D01*
X136613000Y-54509000D01*
G04 #@! TO.N,Net-(T1-Pad3)*
G36*
X142201000Y-62764000D02*
X138899000Y-62764000D01*
X138899000Y-60732000D01*
X142201000Y-60732000D01*
X142201000Y-62764000D01*
X142201000Y-62764000D01*
G37*
X142201000Y-62764000D02*
X138899000Y-62764000D01*
X138899000Y-60732000D01*
X142201000Y-60732000D01*
X142201000Y-62764000D01*
G04 #@! TO.N,Net-(T1-Pad10)*
G36*
X142201000Y-74702000D02*
X138899000Y-74702000D01*
X138899000Y-72670000D01*
X142201000Y-72670000D01*
X142201000Y-74702000D01*
X142201000Y-74702000D01*
G37*
X142201000Y-74702000D02*
X138899000Y-74702000D01*
X138899000Y-72670000D01*
X142201000Y-72670000D01*
X142201000Y-74702000D01*
G04 #@! TO.N,GND*
G36*
X95170601Y-79880715D02*
X95162526Y-79888790D01*
X95162523Y-79888792D01*
X95030715Y-80020600D01*
X94964859Y-80020600D01*
X94715151Y-80124033D01*
X94668584Y-80170600D01*
X93968445Y-80170600D01*
X93832813Y-80034968D01*
X93832813Y-79500560D01*
X93811128Y-79391544D01*
X93749376Y-79299124D01*
X93656956Y-79237372D01*
X93579400Y-79221945D01*
X93579400Y-78777514D01*
X93584873Y-78750000D01*
X93584873Y-78400000D01*
X93563188Y-78290984D01*
X93501436Y-78198564D01*
X93409016Y-78136812D01*
X93320852Y-78119275D01*
X93256560Y-78076317D01*
X93050000Y-78035229D01*
X92843439Y-78076317D01*
X92779147Y-78119275D01*
X92690984Y-78136812D01*
X92598564Y-78198564D01*
X92536812Y-78290984D01*
X92515127Y-78400000D01*
X92515127Y-78750000D01*
X92520600Y-78777515D01*
X92520601Y-79341544D01*
X92487192Y-79391544D01*
X92465507Y-79500560D01*
X92465507Y-80699440D01*
X92480139Y-80773000D01*
X88227000Y-80773000D01*
X88227000Y-79727000D01*
X90700000Y-79727000D01*
X90748601Y-79717333D01*
X90789803Y-79689803D01*
X90817333Y-79648601D01*
X90827000Y-79600000D01*
X90827000Y-79327000D01*
X91100000Y-79327000D01*
X91148601Y-79317333D01*
X91189803Y-79289803D01*
X91217333Y-79248601D01*
X91227000Y-79200000D01*
X91227000Y-78384873D01*
X91700000Y-78384873D01*
X91809016Y-78363188D01*
X91859584Y-78329400D01*
X92198171Y-78329400D01*
X92237998Y-78337322D01*
X92277825Y-78329400D01*
X92395787Y-78305936D01*
X92529554Y-78216556D01*
X92552117Y-78182788D01*
X93000033Y-77734873D01*
X93300000Y-77734873D01*
X93339580Y-77727000D01*
X95170600Y-77727000D01*
X95170601Y-79880715D01*
X95170601Y-79880715D01*
G37*
X95170601Y-79880715D02*
X95162526Y-79888790D01*
X95162523Y-79888792D01*
X95030715Y-80020600D01*
X94964859Y-80020600D01*
X94715151Y-80124033D01*
X94668584Y-80170600D01*
X93968445Y-80170600D01*
X93832813Y-80034968D01*
X93832813Y-79500560D01*
X93811128Y-79391544D01*
X93749376Y-79299124D01*
X93656956Y-79237372D01*
X93579400Y-79221945D01*
X93579400Y-78777514D01*
X93584873Y-78750000D01*
X93584873Y-78400000D01*
X93563188Y-78290984D01*
X93501436Y-78198564D01*
X93409016Y-78136812D01*
X93320852Y-78119275D01*
X93256560Y-78076317D01*
X93050000Y-78035229D01*
X92843439Y-78076317D01*
X92779147Y-78119275D01*
X92690984Y-78136812D01*
X92598564Y-78198564D01*
X92536812Y-78290984D01*
X92515127Y-78400000D01*
X92515127Y-78750000D01*
X92520600Y-78777515D01*
X92520601Y-79341544D01*
X92487192Y-79391544D01*
X92465507Y-79500560D01*
X92465507Y-80699440D01*
X92480139Y-80773000D01*
X88227000Y-80773000D01*
X88227000Y-79727000D01*
X90700000Y-79727000D01*
X90748601Y-79717333D01*
X90789803Y-79689803D01*
X90817333Y-79648601D01*
X90827000Y-79600000D01*
X90827000Y-79327000D01*
X91100000Y-79327000D01*
X91148601Y-79317333D01*
X91189803Y-79289803D01*
X91217333Y-79248601D01*
X91227000Y-79200000D01*
X91227000Y-78384873D01*
X91700000Y-78384873D01*
X91809016Y-78363188D01*
X91859584Y-78329400D01*
X92198171Y-78329400D01*
X92237998Y-78337322D01*
X92277825Y-78329400D01*
X92395787Y-78305936D01*
X92529554Y-78216556D01*
X92552117Y-78182788D01*
X93000033Y-77734873D01*
X93300000Y-77734873D01*
X93339580Y-77727000D01*
X95170600Y-77727000D01*
X95170601Y-79880715D01*
G36*
X89370601Y-64698879D02*
X89351307Y-64727755D01*
X89320590Y-64882177D01*
X89310219Y-64934315D01*
X89320590Y-64986452D01*
X89320590Y-65068584D01*
X89274023Y-65115151D01*
X89170590Y-65364859D01*
X89170590Y-65590307D01*
X89138055Y-65568568D01*
X89029039Y-65546883D01*
X87830159Y-65546883D01*
X87721143Y-65568568D01*
X87628723Y-65630320D01*
X87566971Y-65722740D01*
X87545286Y-65831756D01*
X87545286Y-66629316D01*
X87566971Y-66738332D01*
X87628723Y-66830752D01*
X87721143Y-66892504D01*
X87830159Y-66914189D01*
X88025200Y-66914189D01*
X88025200Y-67248563D01*
X87830159Y-67248563D01*
X87721143Y-67270248D01*
X87628723Y-67332000D01*
X87566971Y-67424420D01*
X87551544Y-67501976D01*
X87069472Y-67501976D01*
X87069472Y-67006377D01*
X87054553Y-66931377D01*
X87069472Y-66856377D01*
X87069472Y-66356377D01*
X87047787Y-66247361D01*
X86986035Y-66154941D01*
X86893615Y-66093189D01*
X86883999Y-66091276D01*
X86883999Y-65104194D01*
X86936886Y-65093674D01*
X87029306Y-65031922D01*
X87091058Y-64939502D01*
X87112743Y-64830486D01*
X87112743Y-63832266D01*
X87091058Y-63723250D01*
X87029306Y-63630830D01*
X86936886Y-63569078D01*
X86827870Y-63547393D01*
X85728050Y-63547393D01*
X85619034Y-63569078D01*
X85526614Y-63630830D01*
X85464862Y-63723250D01*
X85443177Y-63832266D01*
X85443177Y-64830486D01*
X85464862Y-64939502D01*
X85526614Y-65031922D01*
X85619034Y-65093674D01*
X85728050Y-65115359D01*
X86075200Y-65115359D01*
X86075199Y-66091276D01*
X86065583Y-66093189D01*
X85973163Y-66154941D01*
X85911411Y-66247361D01*
X85889726Y-66356377D01*
X85889726Y-66856377D01*
X85904645Y-66931377D01*
X85889726Y-67006377D01*
X85889726Y-67506377D01*
X85904645Y-67581380D01*
X85889727Y-67656377D01*
X85889727Y-68151731D01*
X85542080Y-68499377D01*
X85317118Y-68499377D01*
X84914359Y-68096617D01*
X84806650Y-68024648D01*
X84679599Y-67999376D01*
X83929600Y-67999376D01*
X83802549Y-68024648D01*
X83694841Y-68096616D01*
X83622872Y-68204325D01*
X83597600Y-68331376D01*
X83597599Y-69831377D01*
X83622871Y-69958428D01*
X83694840Y-70066137D01*
X83802548Y-70138105D01*
X83929599Y-70163377D01*
X85292081Y-70163376D01*
X85347599Y-70218895D01*
X85347599Y-71831377D01*
X85372871Y-71958428D01*
X85444840Y-72066137D01*
X85455111Y-72073000D01*
X79729646Y-72073000D01*
X79843093Y-66570777D01*
X80111280Y-66570777D01*
X80118014Y-67303054D01*
X80143272Y-67427052D01*
X80215241Y-67534761D01*
X80322949Y-67606729D01*
X80450000Y-67632001D01*
X82903266Y-67632000D01*
X83837943Y-67900473D01*
X83929599Y-67913376D01*
X84679599Y-67913376D01*
X84806650Y-67888104D01*
X84914358Y-67816136D01*
X84986327Y-67708427D01*
X85011599Y-67581376D01*
X85011600Y-66331376D01*
X84986328Y-66204325D01*
X84914359Y-66096617D01*
X84806651Y-66024648D01*
X84679600Y-65999376D01*
X84317117Y-65999376D01*
X83164358Y-64846617D01*
X83056650Y-64774648D01*
X82929599Y-64749376D01*
X82208999Y-64749376D01*
X82208999Y-64258431D01*
X83238031Y-63229400D01*
X84854459Y-63229400D01*
X84906596Y-63239771D01*
X84958733Y-63229400D01*
X84958734Y-63229400D01*
X85113157Y-63198683D01*
X85288272Y-63081676D01*
X85317807Y-63037473D01*
X85728281Y-62627000D01*
X89370601Y-62627000D01*
X89370601Y-64698879D01*
X89370601Y-64698879D01*
G37*
X89370601Y-64698879D02*
X89351307Y-64727755D01*
X89320590Y-64882177D01*
X89310219Y-64934315D01*
X89320590Y-64986452D01*
X89320590Y-65068584D01*
X89274023Y-65115151D01*
X89170590Y-65364859D01*
X89170590Y-65590307D01*
X89138055Y-65568568D01*
X89029039Y-65546883D01*
X87830159Y-65546883D01*
X87721143Y-65568568D01*
X87628723Y-65630320D01*
X87566971Y-65722740D01*
X87545286Y-65831756D01*
X87545286Y-66629316D01*
X87566971Y-66738332D01*
X87628723Y-66830752D01*
X87721143Y-66892504D01*
X87830159Y-66914189D01*
X88025200Y-66914189D01*
X88025200Y-67248563D01*
X87830159Y-67248563D01*
X87721143Y-67270248D01*
X87628723Y-67332000D01*
X87566971Y-67424420D01*
X87551544Y-67501976D01*
X87069472Y-67501976D01*
X87069472Y-67006377D01*
X87054553Y-66931377D01*
X87069472Y-66856377D01*
X87069472Y-66356377D01*
X87047787Y-66247361D01*
X86986035Y-66154941D01*
X86893615Y-66093189D01*
X86883999Y-66091276D01*
X86883999Y-65104194D01*
X86936886Y-65093674D01*
X87029306Y-65031922D01*
X87091058Y-64939502D01*
X87112743Y-64830486D01*
X87112743Y-63832266D01*
X87091058Y-63723250D01*
X87029306Y-63630830D01*
X86936886Y-63569078D01*
X86827870Y-63547393D01*
X85728050Y-63547393D01*
X85619034Y-63569078D01*
X85526614Y-63630830D01*
X85464862Y-63723250D01*
X85443177Y-63832266D01*
X85443177Y-64830486D01*
X85464862Y-64939502D01*
X85526614Y-65031922D01*
X85619034Y-65093674D01*
X85728050Y-65115359D01*
X86075200Y-65115359D01*
X86075199Y-66091276D01*
X86065583Y-66093189D01*
X85973163Y-66154941D01*
X85911411Y-66247361D01*
X85889726Y-66356377D01*
X85889726Y-66856377D01*
X85904645Y-66931377D01*
X85889726Y-67006377D01*
X85889726Y-67506377D01*
X85904645Y-67581380D01*
X85889727Y-67656377D01*
X85889727Y-68151731D01*
X85542080Y-68499377D01*
X85317118Y-68499377D01*
X84914359Y-68096617D01*
X84806650Y-68024648D01*
X84679599Y-67999376D01*
X83929600Y-67999376D01*
X83802549Y-68024648D01*
X83694841Y-68096616D01*
X83622872Y-68204325D01*
X83597600Y-68331376D01*
X83597599Y-69831377D01*
X83622871Y-69958428D01*
X83694840Y-70066137D01*
X83802548Y-70138105D01*
X83929599Y-70163377D01*
X85292081Y-70163376D01*
X85347599Y-70218895D01*
X85347599Y-71831377D01*
X85372871Y-71958428D01*
X85444840Y-72066137D01*
X85455111Y-72073000D01*
X79729646Y-72073000D01*
X79843093Y-66570777D01*
X80111280Y-66570777D01*
X80118014Y-67303054D01*
X80143272Y-67427052D01*
X80215241Y-67534761D01*
X80322949Y-67606729D01*
X80450000Y-67632001D01*
X82903266Y-67632000D01*
X83837943Y-67900473D01*
X83929599Y-67913376D01*
X84679599Y-67913376D01*
X84806650Y-67888104D01*
X84914358Y-67816136D01*
X84986327Y-67708427D01*
X85011599Y-67581376D01*
X85011600Y-66331376D01*
X84986328Y-66204325D01*
X84914359Y-66096617D01*
X84806651Y-66024648D01*
X84679600Y-65999376D01*
X84317117Y-65999376D01*
X83164358Y-64846617D01*
X83056650Y-64774648D01*
X82929599Y-64749376D01*
X82208999Y-64749376D01*
X82208999Y-64258431D01*
X83238031Y-63229400D01*
X84854459Y-63229400D01*
X84906596Y-63239771D01*
X84958733Y-63229400D01*
X84958734Y-63229400D01*
X85113157Y-63198683D01*
X85288272Y-63081676D01*
X85317807Y-63037473D01*
X85728281Y-62627000D01*
X89370601Y-62627000D01*
X89370601Y-64698879D01*
G36*
X120973000Y-43196440D02*
X120783195Y-43196440D01*
X120762628Y-43093044D01*
X120700876Y-43000624D01*
X120608456Y-42938872D01*
X120499440Y-42917187D01*
X119300560Y-42917187D01*
X119191544Y-42938872D01*
X119099124Y-43000624D01*
X119050000Y-43074145D01*
X119000876Y-43000624D01*
X118908456Y-42938872D01*
X118799440Y-42917187D01*
X117600560Y-42917187D01*
X117491544Y-42938872D01*
X117399124Y-43000624D01*
X117337372Y-43093044D01*
X117316805Y-43196440D01*
X117222473Y-43196440D01*
X117222473Y-42939600D01*
X117204789Y-42850700D01*
X117222473Y-42761800D01*
X117222473Y-42728560D01*
X117351807Y-42728560D01*
X117399124Y-42799376D01*
X117491544Y-42861128D01*
X117600560Y-42882813D01*
X118799440Y-42882813D01*
X118908456Y-42861128D01*
X119000876Y-42799376D01*
X119048193Y-42728560D01*
X119898703Y-42728560D01*
X119950840Y-42738931D01*
X119998754Y-42729400D01*
X120235141Y-42729400D01*
X120484849Y-42625967D01*
X120675967Y-42434849D01*
X120779400Y-42185141D01*
X120779400Y-41914859D01*
X120675967Y-41665151D01*
X120484849Y-41474033D01*
X120235141Y-41370600D01*
X119964859Y-41370600D01*
X119715151Y-41474033D01*
X119524033Y-41665151D01*
X119522124Y-41669760D01*
X119048193Y-41669760D01*
X119000876Y-41598944D01*
X118908456Y-41537192D01*
X118799440Y-41515507D01*
X117600560Y-41515507D01*
X117491544Y-41537192D01*
X117399124Y-41598944D01*
X117351807Y-41669760D01*
X116993577Y-41669760D01*
X116941440Y-41659389D01*
X116889303Y-41669760D01*
X116889302Y-41669760D01*
X116734879Y-41700477D01*
X116559764Y-41817484D01*
X116530230Y-41861685D01*
X116219789Y-42172127D01*
X116124800Y-42172127D01*
X116015784Y-42193812D01*
X115923364Y-42255564D01*
X115861612Y-42347984D01*
X115839927Y-42457000D01*
X115839927Y-42761800D01*
X115857611Y-42850700D01*
X115839927Y-42939600D01*
X115839927Y-43244400D01*
X115860137Y-43346000D01*
X115839927Y-43447600D01*
X115839927Y-43752400D01*
X115861612Y-43861416D01*
X115923364Y-43953836D01*
X116015784Y-44015588D01*
X116124800Y-44037273D01*
X116937600Y-44037273D01*
X117046616Y-44015588D01*
X117062103Y-44005240D01*
X117316805Y-44005240D01*
X117337372Y-44108636D01*
X117399124Y-44201056D01*
X117491544Y-44262808D01*
X117600560Y-44284493D01*
X118799440Y-44284493D01*
X118908456Y-44262808D01*
X119000876Y-44201056D01*
X119050000Y-44127535D01*
X119099124Y-44201056D01*
X119191544Y-44262808D01*
X119300560Y-44284493D01*
X120499440Y-44284493D01*
X120608456Y-44262808D01*
X120700876Y-44201056D01*
X120762628Y-44108636D01*
X120783195Y-44005240D01*
X120911768Y-44005240D01*
X120924033Y-44034850D01*
X120973000Y-44083817D01*
X120973000Y-47073427D01*
X118775915Y-47080816D01*
X118775915Y-47017397D01*
X118754230Y-46908381D01*
X118692478Y-46815961D01*
X118600058Y-46754209D01*
X118491042Y-46732524D01*
X117779857Y-46732524D01*
X116877202Y-45829870D01*
X116877202Y-45027873D01*
X116937600Y-45027873D01*
X117046616Y-45006188D01*
X117139036Y-44944436D01*
X117200788Y-44852016D01*
X117222473Y-44743000D01*
X117222473Y-44438200D01*
X117200788Y-44329184D01*
X117139036Y-44236764D01*
X117046616Y-44175012D01*
X116937600Y-44153327D01*
X116521627Y-44153327D01*
X116472802Y-44143615D01*
X116423976Y-44153327D01*
X116124800Y-44153327D01*
X116015784Y-44175012D01*
X115923364Y-44236764D01*
X115861612Y-44329184D01*
X115839927Y-44438200D01*
X115839927Y-44743000D01*
X115861612Y-44852016D01*
X115923364Y-44944436D01*
X116015784Y-45006188D01*
X116068402Y-45016655D01*
X116068403Y-45957546D01*
X116060480Y-45997377D01*
X116091866Y-46155165D01*
X116091867Y-46155166D01*
X116181247Y-46288933D01*
X116215012Y-46311494D01*
X116990339Y-47086822D01*
X116229046Y-47089382D01*
X116164117Y-46992209D01*
X116141557Y-46958445D01*
X116107792Y-46935884D01*
X115462400Y-46290493D01*
X115462400Y-46272473D01*
X115693000Y-46272473D01*
X115802016Y-46250788D01*
X115894436Y-46189036D01*
X115956188Y-46096616D01*
X115977873Y-45987600D01*
X115977873Y-45174800D01*
X115956188Y-45065784D01*
X115894436Y-44973364D01*
X115802016Y-44911612D01*
X115693000Y-44889927D01*
X115388200Y-44889927D01*
X115299300Y-44907611D01*
X115210400Y-44889927D01*
X114905600Y-44889927D01*
X114804000Y-44910137D01*
X114702400Y-44889927D01*
X114397600Y-44889927D01*
X114296000Y-44910137D01*
X114194400Y-44889927D01*
X113889600Y-44889927D01*
X113800700Y-44907611D01*
X113711800Y-44889927D01*
X113407000Y-44889927D01*
X113297984Y-44911612D01*
X113205564Y-44973364D01*
X113143812Y-45065784D01*
X113122127Y-45174800D01*
X113122127Y-45987600D01*
X113143812Y-46096616D01*
X113205564Y-46189036D01*
X113297984Y-46250788D01*
X113407000Y-46272473D01*
X113637601Y-46272473D01*
X113637601Y-46290491D01*
X113042212Y-46885881D01*
X113008444Y-46908444D01*
X112952475Y-46992209D01*
X112919064Y-47042212D01*
X112907459Y-47100553D01*
X112069375Y-47103372D01*
X112826591Y-46346157D01*
X112860356Y-46323596D01*
X112949736Y-46189829D01*
X112973200Y-46071867D01*
X112973200Y-46071866D01*
X112981122Y-46032041D01*
X112973200Y-45992215D01*
X112973200Y-45027873D01*
X112975200Y-45027873D01*
X113084216Y-45006188D01*
X113176636Y-44944436D01*
X113238388Y-44852016D01*
X113260073Y-44743000D01*
X113260073Y-44438200D01*
X113238388Y-44329184D01*
X113176636Y-44236764D01*
X113084216Y-44175012D01*
X112975200Y-44153327D01*
X112162400Y-44153327D01*
X112053384Y-44175012D01*
X111960964Y-44236764D01*
X111899212Y-44329184D01*
X111877527Y-44438200D01*
X111877527Y-44743000D01*
X111899212Y-44852016D01*
X111960964Y-44944436D01*
X112053384Y-45006188D01*
X112162400Y-45027873D01*
X112164400Y-45027873D01*
X112164401Y-45864531D01*
X111261746Y-46767187D01*
X110550560Y-46767187D01*
X110441544Y-46788872D01*
X110349124Y-46850624D01*
X110287372Y-46943044D01*
X110265687Y-47052060D01*
X110265687Y-47109438D01*
X110077823Y-47110070D01*
X110085111Y-45978560D01*
X110201807Y-45978560D01*
X110249124Y-46049376D01*
X110341544Y-46111128D01*
X110450560Y-46132813D01*
X111649440Y-46132813D01*
X111758456Y-46111128D01*
X111850876Y-46049376D01*
X111912628Y-45956956D01*
X111934313Y-45847940D01*
X111934313Y-45050380D01*
X111912628Y-44941364D01*
X111850876Y-44848944D01*
X111758456Y-44787192D01*
X111649440Y-44765507D01*
X110450560Y-44765507D01*
X110341544Y-44787192D01*
X110249124Y-44848944D01*
X110201807Y-44919760D01*
X110091931Y-44919760D01*
X110094089Y-44584701D01*
X110112628Y-44556956D01*
X110134313Y-44447940D01*
X110134313Y-44055240D01*
X110166805Y-44055240D01*
X110187372Y-44158636D01*
X110249124Y-44251056D01*
X110341544Y-44312808D01*
X110450560Y-44334493D01*
X111649440Y-44334493D01*
X111758456Y-44312808D01*
X111850876Y-44251056D01*
X111912628Y-44158636D01*
X111933195Y-44055240D01*
X112478133Y-44055240D01*
X112517960Y-44063162D01*
X112557787Y-44055240D01*
X112648114Y-44037273D01*
X112975200Y-44037273D01*
X113084216Y-44015588D01*
X113176636Y-43953836D01*
X113238388Y-43861416D01*
X113260073Y-43752400D01*
X113260073Y-43447600D01*
X113239863Y-43346000D01*
X113260073Y-43244400D01*
X113260073Y-42939600D01*
X113242389Y-42850700D01*
X113260073Y-42761800D01*
X113260073Y-42457000D01*
X113238388Y-42347984D01*
X113176636Y-42255564D01*
X113084216Y-42193812D01*
X113050718Y-42187149D01*
X112950476Y-42037124D01*
X112906273Y-42007589D01*
X112810372Y-41911688D01*
X112780836Y-41867484D01*
X112605721Y-41750477D01*
X112451298Y-41719760D01*
X112451297Y-41719760D01*
X112399160Y-41709389D01*
X112347023Y-41719760D01*
X111895390Y-41719760D01*
X111849196Y-41650624D01*
X111756776Y-41588872D01*
X111647760Y-41567187D01*
X110448880Y-41567187D01*
X110339864Y-41588872D01*
X110247444Y-41650624D01*
X110200127Y-41721440D01*
X110112532Y-41721440D01*
X110126186Y-39601716D01*
X112339468Y-39596731D01*
X113130001Y-40387265D01*
X113130000Y-41172819D01*
X113122127Y-41212400D01*
X113122127Y-42025200D01*
X113143812Y-42134216D01*
X113205564Y-42226636D01*
X113297984Y-42288388D01*
X113407000Y-42310073D01*
X113711800Y-42310073D01*
X113800700Y-42292389D01*
X113889600Y-42310073D01*
X114194400Y-42310073D01*
X114303416Y-42288388D01*
X114395836Y-42226636D01*
X114457588Y-42134216D01*
X114479273Y-42025200D01*
X114479273Y-41212400D01*
X114471400Y-41172820D01*
X114471400Y-39591930D01*
X114628601Y-39591576D01*
X114628600Y-41172820D01*
X114620727Y-41212400D01*
X114620727Y-42025200D01*
X114642412Y-42134216D01*
X114704164Y-42226636D01*
X114796584Y-42288388D01*
X114905600Y-42310073D01*
X115210400Y-42310073D01*
X115299300Y-42292389D01*
X115388200Y-42310073D01*
X115693000Y-42310073D01*
X115802016Y-42288388D01*
X115894436Y-42226636D01*
X115956188Y-42134216D01*
X115977873Y-42025200D01*
X115977873Y-41212400D01*
X115970000Y-41172820D01*
X115970000Y-40287263D01*
X116670286Y-39586977D01*
X120973000Y-39577287D01*
X120973000Y-43196440D01*
X120973000Y-43196440D01*
G37*
X120973000Y-43196440D02*
X120783195Y-43196440D01*
X120762628Y-43093044D01*
X120700876Y-43000624D01*
X120608456Y-42938872D01*
X120499440Y-42917187D01*
X119300560Y-42917187D01*
X119191544Y-42938872D01*
X119099124Y-43000624D01*
X119050000Y-43074145D01*
X119000876Y-43000624D01*
X118908456Y-42938872D01*
X118799440Y-42917187D01*
X117600560Y-42917187D01*
X117491544Y-42938872D01*
X117399124Y-43000624D01*
X117337372Y-43093044D01*
X117316805Y-43196440D01*
X117222473Y-43196440D01*
X117222473Y-42939600D01*
X117204789Y-42850700D01*
X117222473Y-42761800D01*
X117222473Y-42728560D01*
X117351807Y-42728560D01*
X117399124Y-42799376D01*
X117491544Y-42861128D01*
X117600560Y-42882813D01*
X118799440Y-42882813D01*
X118908456Y-42861128D01*
X119000876Y-42799376D01*
X119048193Y-42728560D01*
X119898703Y-42728560D01*
X119950840Y-42738931D01*
X119998754Y-42729400D01*
X120235141Y-42729400D01*
X120484849Y-42625967D01*
X120675967Y-42434849D01*
X120779400Y-42185141D01*
X120779400Y-41914859D01*
X120675967Y-41665151D01*
X120484849Y-41474033D01*
X120235141Y-41370600D01*
X119964859Y-41370600D01*
X119715151Y-41474033D01*
X119524033Y-41665151D01*
X119522124Y-41669760D01*
X119048193Y-41669760D01*
X119000876Y-41598944D01*
X118908456Y-41537192D01*
X118799440Y-41515507D01*
X117600560Y-41515507D01*
X117491544Y-41537192D01*
X117399124Y-41598944D01*
X117351807Y-41669760D01*
X116993577Y-41669760D01*
X116941440Y-41659389D01*
X116889303Y-41669760D01*
X116889302Y-41669760D01*
X116734879Y-41700477D01*
X116559764Y-41817484D01*
X116530230Y-41861685D01*
X116219789Y-42172127D01*
X116124800Y-42172127D01*
X116015784Y-42193812D01*
X115923364Y-42255564D01*
X115861612Y-42347984D01*
X115839927Y-42457000D01*
X115839927Y-42761800D01*
X115857611Y-42850700D01*
X115839927Y-42939600D01*
X115839927Y-43244400D01*
X115860137Y-43346000D01*
X115839927Y-43447600D01*
X115839927Y-43752400D01*
X115861612Y-43861416D01*
X115923364Y-43953836D01*
X116015784Y-44015588D01*
X116124800Y-44037273D01*
X116937600Y-44037273D01*
X117046616Y-44015588D01*
X117062103Y-44005240D01*
X117316805Y-44005240D01*
X117337372Y-44108636D01*
X117399124Y-44201056D01*
X117491544Y-44262808D01*
X117600560Y-44284493D01*
X118799440Y-44284493D01*
X118908456Y-44262808D01*
X119000876Y-44201056D01*
X119050000Y-44127535D01*
X119099124Y-44201056D01*
X119191544Y-44262808D01*
X119300560Y-44284493D01*
X120499440Y-44284493D01*
X120608456Y-44262808D01*
X120700876Y-44201056D01*
X120762628Y-44108636D01*
X120783195Y-44005240D01*
X120911768Y-44005240D01*
X120924033Y-44034850D01*
X120973000Y-44083817D01*
X120973000Y-47073427D01*
X118775915Y-47080816D01*
X118775915Y-47017397D01*
X118754230Y-46908381D01*
X118692478Y-46815961D01*
X118600058Y-46754209D01*
X118491042Y-46732524D01*
X117779857Y-46732524D01*
X116877202Y-45829870D01*
X116877202Y-45027873D01*
X116937600Y-45027873D01*
X117046616Y-45006188D01*
X117139036Y-44944436D01*
X117200788Y-44852016D01*
X117222473Y-44743000D01*
X117222473Y-44438200D01*
X117200788Y-44329184D01*
X117139036Y-44236764D01*
X117046616Y-44175012D01*
X116937600Y-44153327D01*
X116521627Y-44153327D01*
X116472802Y-44143615D01*
X116423976Y-44153327D01*
X116124800Y-44153327D01*
X116015784Y-44175012D01*
X115923364Y-44236764D01*
X115861612Y-44329184D01*
X115839927Y-44438200D01*
X115839927Y-44743000D01*
X115861612Y-44852016D01*
X115923364Y-44944436D01*
X116015784Y-45006188D01*
X116068402Y-45016655D01*
X116068403Y-45957546D01*
X116060480Y-45997377D01*
X116091866Y-46155165D01*
X116091867Y-46155166D01*
X116181247Y-46288933D01*
X116215012Y-46311494D01*
X116990339Y-47086822D01*
X116229046Y-47089382D01*
X116164117Y-46992209D01*
X116141557Y-46958445D01*
X116107792Y-46935884D01*
X115462400Y-46290493D01*
X115462400Y-46272473D01*
X115693000Y-46272473D01*
X115802016Y-46250788D01*
X115894436Y-46189036D01*
X115956188Y-46096616D01*
X115977873Y-45987600D01*
X115977873Y-45174800D01*
X115956188Y-45065784D01*
X115894436Y-44973364D01*
X115802016Y-44911612D01*
X115693000Y-44889927D01*
X115388200Y-44889927D01*
X115299300Y-44907611D01*
X115210400Y-44889927D01*
X114905600Y-44889927D01*
X114804000Y-44910137D01*
X114702400Y-44889927D01*
X114397600Y-44889927D01*
X114296000Y-44910137D01*
X114194400Y-44889927D01*
X113889600Y-44889927D01*
X113800700Y-44907611D01*
X113711800Y-44889927D01*
X113407000Y-44889927D01*
X113297984Y-44911612D01*
X113205564Y-44973364D01*
X113143812Y-45065784D01*
X113122127Y-45174800D01*
X113122127Y-45987600D01*
X113143812Y-46096616D01*
X113205564Y-46189036D01*
X113297984Y-46250788D01*
X113407000Y-46272473D01*
X113637601Y-46272473D01*
X113637601Y-46290491D01*
X113042212Y-46885881D01*
X113008444Y-46908444D01*
X112952475Y-46992209D01*
X112919064Y-47042212D01*
X112907459Y-47100553D01*
X112069375Y-47103372D01*
X112826591Y-46346157D01*
X112860356Y-46323596D01*
X112949736Y-46189829D01*
X112973200Y-46071867D01*
X112973200Y-46071866D01*
X112981122Y-46032041D01*
X112973200Y-45992215D01*
X112973200Y-45027873D01*
X112975200Y-45027873D01*
X113084216Y-45006188D01*
X113176636Y-44944436D01*
X113238388Y-44852016D01*
X113260073Y-44743000D01*
X113260073Y-44438200D01*
X113238388Y-44329184D01*
X113176636Y-44236764D01*
X113084216Y-44175012D01*
X112975200Y-44153327D01*
X112162400Y-44153327D01*
X112053384Y-44175012D01*
X111960964Y-44236764D01*
X111899212Y-44329184D01*
X111877527Y-44438200D01*
X111877527Y-44743000D01*
X111899212Y-44852016D01*
X111960964Y-44944436D01*
X112053384Y-45006188D01*
X112162400Y-45027873D01*
X112164400Y-45027873D01*
X112164401Y-45864531D01*
X111261746Y-46767187D01*
X110550560Y-46767187D01*
X110441544Y-46788872D01*
X110349124Y-46850624D01*
X110287372Y-46943044D01*
X110265687Y-47052060D01*
X110265687Y-47109438D01*
X110077823Y-47110070D01*
X110085111Y-45978560D01*
X110201807Y-45978560D01*
X110249124Y-46049376D01*
X110341544Y-46111128D01*
X110450560Y-46132813D01*
X111649440Y-46132813D01*
X111758456Y-46111128D01*
X111850876Y-46049376D01*
X111912628Y-45956956D01*
X111934313Y-45847940D01*
X111934313Y-45050380D01*
X111912628Y-44941364D01*
X111850876Y-44848944D01*
X111758456Y-44787192D01*
X111649440Y-44765507D01*
X110450560Y-44765507D01*
X110341544Y-44787192D01*
X110249124Y-44848944D01*
X110201807Y-44919760D01*
X110091931Y-44919760D01*
X110094089Y-44584701D01*
X110112628Y-44556956D01*
X110134313Y-44447940D01*
X110134313Y-44055240D01*
X110166805Y-44055240D01*
X110187372Y-44158636D01*
X110249124Y-44251056D01*
X110341544Y-44312808D01*
X110450560Y-44334493D01*
X111649440Y-44334493D01*
X111758456Y-44312808D01*
X111850876Y-44251056D01*
X111912628Y-44158636D01*
X111933195Y-44055240D01*
X112478133Y-44055240D01*
X112517960Y-44063162D01*
X112557787Y-44055240D01*
X112648114Y-44037273D01*
X112975200Y-44037273D01*
X113084216Y-44015588D01*
X113176636Y-43953836D01*
X113238388Y-43861416D01*
X113260073Y-43752400D01*
X113260073Y-43447600D01*
X113239863Y-43346000D01*
X113260073Y-43244400D01*
X113260073Y-42939600D01*
X113242389Y-42850700D01*
X113260073Y-42761800D01*
X113260073Y-42457000D01*
X113238388Y-42347984D01*
X113176636Y-42255564D01*
X113084216Y-42193812D01*
X113050718Y-42187149D01*
X112950476Y-42037124D01*
X112906273Y-42007589D01*
X112810372Y-41911688D01*
X112780836Y-41867484D01*
X112605721Y-41750477D01*
X112451298Y-41719760D01*
X112451297Y-41719760D01*
X112399160Y-41709389D01*
X112347023Y-41719760D01*
X111895390Y-41719760D01*
X111849196Y-41650624D01*
X111756776Y-41588872D01*
X111647760Y-41567187D01*
X110448880Y-41567187D01*
X110339864Y-41588872D01*
X110247444Y-41650624D01*
X110200127Y-41721440D01*
X110112532Y-41721440D01*
X110126186Y-39601716D01*
X112339468Y-39596731D01*
X113130001Y-40387265D01*
X113130000Y-41172819D01*
X113122127Y-41212400D01*
X113122127Y-42025200D01*
X113143812Y-42134216D01*
X113205564Y-42226636D01*
X113297984Y-42288388D01*
X113407000Y-42310073D01*
X113711800Y-42310073D01*
X113800700Y-42292389D01*
X113889600Y-42310073D01*
X114194400Y-42310073D01*
X114303416Y-42288388D01*
X114395836Y-42226636D01*
X114457588Y-42134216D01*
X114479273Y-42025200D01*
X114479273Y-41212400D01*
X114471400Y-41172820D01*
X114471400Y-39591930D01*
X114628601Y-39591576D01*
X114628600Y-41172820D01*
X114620727Y-41212400D01*
X114620727Y-42025200D01*
X114642412Y-42134216D01*
X114704164Y-42226636D01*
X114796584Y-42288388D01*
X114905600Y-42310073D01*
X115210400Y-42310073D01*
X115299300Y-42292389D01*
X115388200Y-42310073D01*
X115693000Y-42310073D01*
X115802016Y-42288388D01*
X115894436Y-42226636D01*
X115956188Y-42134216D01*
X115977873Y-42025200D01*
X115977873Y-41212400D01*
X115970000Y-41172820D01*
X115970000Y-40287263D01*
X116670286Y-39586977D01*
X120973000Y-39577287D01*
X120973000Y-43196440D01*
G04 #@! TD*
M02*
