G04 #@! TF.GenerationSoftware,KiCad,Pcbnew,(5.0.1-3-g963ef8bb5)*
G04 #@! TF.CreationDate,2019-05-10T17:55:58-07:00*
G04 #@! TF.ProjectId,ME203_Project,4D453230335F50726F6A6563742E6B69,rev?*
G04 #@! TF.SameCoordinates,Original*
G04 #@! TF.FileFunction,Paste,Top*
G04 #@! TF.FilePolarity,Positive*
%FSLAX46Y46*%
G04 Gerber Fmt 4.6, Leading zero omitted, Abs format (unit mm)*
G04 Created by KiCad (PCBNEW (5.0.1-3-g963ef8bb5)) date Friday, May 10, 2019 at 05:55:58 PM*
%MOMM*%
%LPD*%
G01*
G04 APERTURE LIST*
%ADD10C,0.100000*%
%ADD11R,1.198880X0.797560*%
%ADD12R,1.798320X1.597660*%
%ADD13R,6.000000X6.000000*%
%ADD14O,2.500000X0.900000*%
%ADD15O,0.900000X2.500000*%
%ADD16R,0.797560X1.198880*%
%ADD17R,0.812800X0.304800*%
%ADD18R,0.304800X0.812800*%
%ADD19R,2.159000X2.159000*%
%ADD20R,1.450000X2.000000*%
%ADD21R,0.800000X1.500000*%
%ADD22R,0.500000X0.350000*%
%ADD23R,1.524000X0.762000*%
%ADD24R,0.998220X0.998220*%
%ADD25R,1.099820X0.998220*%
%ADD26R,0.610000X0.500000*%
%ADD27R,1.100000X1.900000*%
%ADD28R,1.198880X0.599440*%
%ADD29R,1.397000X1.193800*%
%ADD30R,2.199640X0.599440*%
%ADD31R,1.498600X2.247900*%
%ADD32R,0.347980X0.899160*%
%ADD33C,0.875000*%
%ADD34C,1.250000*%
%ADD35C,0.975000*%
%ADD36C,1.350000*%
G04 APERTURE END LIST*
D10*
G04 #@! TO.C,U3*
G36*
X85080178Y-66981377D02*
X85777399Y-66981377D01*
X85777399Y-68184175D01*
X85080178Y-68184175D01*
X85080178Y-66981377D01*
G37*
G04 #@! TD*
D11*
G04 #@! TO.C,R23*
X88429599Y-64432216D03*
X88429599Y-66230536D03*
G04 #@! TD*
G04 #@! TO.C,R22*
X88429599Y-69730536D03*
X88429599Y-67932216D03*
G04 #@! TD*
D12*
G04 #@! TO.C,C7*
X81679599Y-66181837D03*
X81679599Y-68980917D03*
G04 #@! TD*
D11*
G04 #@! TO.C,C19*
X111050000Y-43650840D03*
X111050000Y-45449160D03*
G04 #@! TD*
D13*
G04 #@! TO.C,U4*
X112300000Y-72450000D03*
D14*
X121000000Y-80150000D03*
X121000000Y-78880000D03*
X121000000Y-77610000D03*
X121000000Y-76340000D03*
X121000000Y-75070000D03*
X121000000Y-73800000D03*
X121000000Y-72530000D03*
X121000000Y-71260000D03*
X121000000Y-69990000D03*
X121000000Y-68720000D03*
X121000000Y-67450000D03*
X121000000Y-66180000D03*
X121000000Y-64910000D03*
X121000000Y-63640000D03*
D15*
X117715000Y-62150000D03*
X116445000Y-62150000D03*
X115175000Y-62150000D03*
X113905000Y-62150000D03*
X112635000Y-62150000D03*
X111365000Y-62150000D03*
X110095000Y-62150000D03*
X108825000Y-62150000D03*
X107555000Y-62150000D03*
X106285000Y-62150000D03*
D14*
X103000000Y-63640000D03*
X103000000Y-64910000D03*
X103000000Y-66180000D03*
X103000000Y-67450000D03*
X103000000Y-68720000D03*
X103000000Y-69990000D03*
X103000000Y-71260000D03*
X103000000Y-72530000D03*
X103000000Y-73800000D03*
X103000000Y-75070000D03*
X103000000Y-76340000D03*
X103000000Y-77610000D03*
X103000000Y-78880000D03*
X103000000Y-80150000D03*
G04 #@! TD*
D11*
G04 #@! TO.C,C17*
X117891602Y-47416177D03*
X117891602Y-49214497D03*
G04 #@! TD*
G04 #@! TO.C,C12*
X94500000Y-78499160D03*
X94500000Y-76700840D03*
G04 #@! TD*
G04 #@! TO.C,C13*
X111048320Y-42250840D03*
X111048320Y-40452520D03*
G04 #@! TD*
G04 #@! TO.C,C14*
X118200000Y-43600840D03*
X118200000Y-45399160D03*
G04 #@! TD*
G04 #@! TO.C,C15*
X118200000Y-42199160D03*
X118200000Y-40400840D03*
G04 #@! TD*
G04 #@! TO.C,C18*
X111150000Y-49249160D03*
X111150000Y-47450840D03*
G04 #@! TD*
G04 #@! TO.C,R21*
X114550000Y-49649160D03*
X114550000Y-47850840D03*
G04 #@! TD*
D16*
G04 #@! TO.C,R20*
X100800840Y-56175000D03*
X102599160Y-56175000D03*
G04 #@! TD*
D11*
G04 #@! TO.C,FB1*
X109250000Y-44049160D03*
X109250000Y-42250840D03*
G04 #@! TD*
G04 #@! TO.C,FB2*
X119900000Y-43600840D03*
X119900000Y-45399160D03*
G04 #@! TD*
D16*
G04 #@! TO.C,C16*
X109199160Y-40550000D03*
X107400840Y-40550000D03*
G04 #@! TD*
D17*
G04 #@! TO.C,U6*
X116531200Y-44590600D03*
X116531200Y-44108000D03*
X116531200Y-43600000D03*
X116531200Y-43092000D03*
X116531200Y-42609400D03*
D18*
X115540600Y-41618800D03*
X115058000Y-41618800D03*
X114550000Y-41618800D03*
X114042000Y-41618800D03*
X113559400Y-41618800D03*
D17*
X112568800Y-42609400D03*
X112568800Y-43092000D03*
X112568800Y-43600000D03*
X112568800Y-44108000D03*
X112568800Y-44590600D03*
D18*
X113559400Y-45581200D03*
X114042000Y-45581200D03*
X114550000Y-45581200D03*
X115058000Y-45581200D03*
X115540600Y-45581200D03*
D19*
X114550000Y-43600000D03*
G04 #@! TD*
D20*
G04 #@! TO.C,J7*
X101525000Y-38500000D03*
X87775000Y-38500000D03*
X87775000Y-46800000D03*
X101525000Y-46800000D03*
D21*
X99150000Y-41100000D03*
X98050000Y-41100000D03*
X96950000Y-41100000D03*
X95850000Y-41100000D03*
X94750000Y-41100000D03*
X93650000Y-41100000D03*
X92550000Y-41100000D03*
X91450000Y-41100000D03*
G04 #@! TD*
D11*
G04 #@! TO.C,C5*
X87429599Y-58932216D03*
X87429599Y-60730536D03*
G04 #@! TD*
G04 #@! TO.C,C4*
X87429599Y-56730536D03*
X87429599Y-54932216D03*
G04 #@! TD*
G04 #@! TO.C,C6*
X81450000Y-77681840D03*
X81450000Y-79480160D03*
G04 #@! TD*
G04 #@! TO.C,C10*
X124000000Y-78850840D03*
X124000000Y-80649160D03*
G04 #@! TD*
D16*
G04 #@! TO.C,C11*
X91350840Y-80100000D03*
X93149160Y-80100000D03*
G04 #@! TD*
D11*
G04 #@! TO.C,R25*
X100100000Y-63700840D03*
X100100000Y-65499160D03*
G04 #@! TD*
G04 #@! TO.C,R24*
X100100000Y-59900840D03*
X100100000Y-61699160D03*
G04 #@! TD*
G04 #@! TO.C,R19*
X90550000Y-74899160D03*
X90550000Y-73100840D03*
G04 #@! TD*
G04 #@! TO.C,R18*
X88800000Y-73100840D03*
X88800000Y-74899160D03*
G04 #@! TD*
D16*
G04 #@! TO.C,R17*
X112126099Y-57186099D03*
X110327779Y-57186099D03*
G04 #@! TD*
G04 #@! TO.C,R16*
X110350840Y-55300000D03*
X112149160Y-55300000D03*
G04 #@! TD*
G04 #@! TO.C,R15*
X121349160Y-57200000D03*
X119550840Y-57200000D03*
G04 #@! TD*
G04 #@! TO.C,R14*
X119550840Y-55400000D03*
X121349160Y-55400000D03*
G04 #@! TD*
G04 #@! TO.C,R13*
X121349160Y-53600000D03*
X119550840Y-53600000D03*
G04 #@! TD*
G04 #@! TO.C,R12*
X119550840Y-51800000D03*
X121349160Y-51800000D03*
G04 #@! TD*
G04 #@! TO.C,R11*
X121349160Y-50000000D03*
X119550840Y-50000000D03*
G04 #@! TD*
G04 #@! TO.C,R10*
X119550840Y-48200000D03*
X121349160Y-48200000D03*
G04 #@! TD*
D22*
G04 #@! TO.C,U5*
X91450000Y-78575000D03*
X93050000Y-76625000D03*
X93050000Y-77275000D03*
X93050000Y-77925000D03*
X91450000Y-76625000D03*
X91450000Y-77275000D03*
X91450000Y-77925000D03*
X93050000Y-78575000D03*
G04 #@! TD*
D23*
G04 #@! TO.C,SW2*
X92206000Y-63695000D03*
X97794000Y-63695000D03*
X92206000Y-67505000D03*
X97794000Y-67505000D03*
G04 #@! TD*
G04 #@! TO.C,SW1*
X97794000Y-61605000D03*
X92206000Y-61605000D03*
X97794000Y-57795000D03*
X92206000Y-57795000D03*
G04 #@! TD*
D24*
G04 #@! TO.C,D3*
X106923700Y-57200000D03*
X108676300Y-57200000D03*
G04 #@! TD*
G04 #@! TO.C,D2*
X108676300Y-55350000D03*
X106923700Y-55350000D03*
G04 #@! TD*
D25*
G04 #@! TO.C,C8*
X84581240Y-64331376D03*
X86277960Y-64331376D03*
G04 #@! TD*
G04 #@! TO.C,R1*
X144151640Y-45750000D03*
X145848360Y-45750000D03*
G04 #@! TD*
G04 #@! TO.C,R2*
X142448360Y-45750000D03*
X140751640Y-45750000D03*
G04 #@! TD*
G04 #@! TO.C,R3*
X138951640Y-44200000D03*
X140648360Y-44200000D03*
G04 #@! TD*
D16*
G04 #@! TO.C,C9*
X86328760Y-71081376D03*
X84530440Y-71081376D03*
G04 #@! TD*
D26*
G04 #@! TO.C,U3*
X84379599Y-66606377D03*
X86479599Y-68556377D03*
X84379598Y-67256377D03*
X84379599Y-67906377D03*
X84379599Y-68556377D03*
X86479600Y-67906377D03*
X86479599Y-67256377D03*
X86479599Y-66606377D03*
D27*
X85429599Y-67581377D03*
G04 #@! TD*
D28*
G04 #@! TO.C,RTC1*
X83222920Y-76422000D03*
X83222920Y-77692000D03*
X83222920Y-78962000D03*
X83222920Y-80232000D03*
X88821080Y-80232000D03*
X88821080Y-78962000D03*
X88821080Y-77692000D03*
X88821080Y-76422000D03*
G04 #@! TD*
D29*
G04 #@! TO.C,D1*
X145900000Y-57899400D03*
X145900000Y-54800600D03*
G04 #@! TD*
D30*
G04 #@! TO.C,Q1*
X138101580Y-52645000D03*
X138101580Y-53915000D03*
X138101580Y-55185000D03*
X138101580Y-56455000D03*
X143298420Y-56455000D03*
X143298420Y-55185000D03*
X143298420Y-53915000D03*
X143298420Y-52645000D03*
G04 #@! TD*
G04 #@! TO.C,U1*
X130201580Y-54045000D03*
X130201580Y-55315000D03*
X130201580Y-56585000D03*
X130201580Y-57855000D03*
X135398420Y-57855000D03*
X135398420Y-56585000D03*
X135398420Y-55315000D03*
X135398420Y-54045000D03*
G04 #@! TD*
D31*
G04 #@! TO.C,T1*
X145646940Y-61775920D03*
X143647960Y-61775920D03*
X141646440Y-61775920D03*
X139650000Y-61775920D03*
X137648480Y-61775920D03*
X135649500Y-61775920D03*
X135649500Y-73724080D03*
X137648480Y-73724080D03*
X139650000Y-73724080D03*
X141646440Y-73724080D03*
X143647960Y-73724080D03*
X145646940Y-73724080D03*
G04 #@! TD*
D32*
G04 #@! TO.C,U2*
X86202900Y-60704116D03*
X85552660Y-60704116D03*
X84902421Y-60704116D03*
X84252180Y-60704116D03*
X83607020Y-60704116D03*
X82956780Y-60704117D03*
X82306540Y-60704116D03*
X81656300Y-60704116D03*
X81656300Y-54958636D03*
X82306540Y-54958636D03*
X82956779Y-54958636D03*
X83607020Y-54958636D03*
X84252180Y-54958636D03*
X84902420Y-54958635D03*
X85552660Y-54958636D03*
X86202900Y-54958636D03*
G04 #@! TD*
D10*
G04 #@! TO.C,CS1*
G36*
X139340191Y-58576053D02*
X139361426Y-58579203D01*
X139382250Y-58584419D01*
X139402462Y-58591651D01*
X139421868Y-58600830D01*
X139440281Y-58611866D01*
X139457524Y-58624654D01*
X139473430Y-58639070D01*
X139487846Y-58654976D01*
X139500634Y-58672219D01*
X139511670Y-58690632D01*
X139520849Y-58710038D01*
X139528081Y-58730250D01*
X139533297Y-58751074D01*
X139536447Y-58772309D01*
X139537500Y-58793750D01*
X139537500Y-59306250D01*
X139536447Y-59327691D01*
X139533297Y-59348926D01*
X139528081Y-59369750D01*
X139520849Y-59389962D01*
X139511670Y-59409368D01*
X139500634Y-59427781D01*
X139487846Y-59445024D01*
X139473430Y-59460930D01*
X139457524Y-59475346D01*
X139440281Y-59488134D01*
X139421868Y-59499170D01*
X139402462Y-59508349D01*
X139382250Y-59515581D01*
X139361426Y-59520797D01*
X139340191Y-59523947D01*
X139318750Y-59525000D01*
X138881250Y-59525000D01*
X138859809Y-59523947D01*
X138838574Y-59520797D01*
X138817750Y-59515581D01*
X138797538Y-59508349D01*
X138778132Y-59499170D01*
X138759719Y-59488134D01*
X138742476Y-59475346D01*
X138726570Y-59460930D01*
X138712154Y-59445024D01*
X138699366Y-59427781D01*
X138688330Y-59409368D01*
X138679151Y-59389962D01*
X138671919Y-59369750D01*
X138666703Y-59348926D01*
X138663553Y-59327691D01*
X138662500Y-59306250D01*
X138662500Y-58793750D01*
X138663553Y-58772309D01*
X138666703Y-58751074D01*
X138671919Y-58730250D01*
X138679151Y-58710038D01*
X138688330Y-58690632D01*
X138699366Y-58672219D01*
X138712154Y-58654976D01*
X138726570Y-58639070D01*
X138742476Y-58624654D01*
X138759719Y-58611866D01*
X138778132Y-58600830D01*
X138797538Y-58591651D01*
X138817750Y-58584419D01*
X138838574Y-58579203D01*
X138859809Y-58576053D01*
X138881250Y-58575000D01*
X139318750Y-58575000D01*
X139340191Y-58576053D01*
X139340191Y-58576053D01*
G37*
D33*
X139100000Y-59050000D03*
D10*
G36*
X137765191Y-58576053D02*
X137786426Y-58579203D01*
X137807250Y-58584419D01*
X137827462Y-58591651D01*
X137846868Y-58600830D01*
X137865281Y-58611866D01*
X137882524Y-58624654D01*
X137898430Y-58639070D01*
X137912846Y-58654976D01*
X137925634Y-58672219D01*
X137936670Y-58690632D01*
X137945849Y-58710038D01*
X137953081Y-58730250D01*
X137958297Y-58751074D01*
X137961447Y-58772309D01*
X137962500Y-58793750D01*
X137962500Y-59306250D01*
X137961447Y-59327691D01*
X137958297Y-59348926D01*
X137953081Y-59369750D01*
X137945849Y-59389962D01*
X137936670Y-59409368D01*
X137925634Y-59427781D01*
X137912846Y-59445024D01*
X137898430Y-59460930D01*
X137882524Y-59475346D01*
X137865281Y-59488134D01*
X137846868Y-59499170D01*
X137827462Y-59508349D01*
X137807250Y-59515581D01*
X137786426Y-59520797D01*
X137765191Y-59523947D01*
X137743750Y-59525000D01*
X137306250Y-59525000D01*
X137284809Y-59523947D01*
X137263574Y-59520797D01*
X137242750Y-59515581D01*
X137222538Y-59508349D01*
X137203132Y-59499170D01*
X137184719Y-59488134D01*
X137167476Y-59475346D01*
X137151570Y-59460930D01*
X137137154Y-59445024D01*
X137124366Y-59427781D01*
X137113330Y-59409368D01*
X137104151Y-59389962D01*
X137096919Y-59369750D01*
X137091703Y-59348926D01*
X137088553Y-59327691D01*
X137087500Y-59306250D01*
X137087500Y-58793750D01*
X137088553Y-58772309D01*
X137091703Y-58751074D01*
X137096919Y-58730250D01*
X137104151Y-58710038D01*
X137113330Y-58690632D01*
X137124366Y-58672219D01*
X137137154Y-58654976D01*
X137151570Y-58639070D01*
X137167476Y-58624654D01*
X137184719Y-58611866D01*
X137203132Y-58600830D01*
X137222538Y-58591651D01*
X137242750Y-58584419D01*
X137263574Y-58579203D01*
X137284809Y-58576053D01*
X137306250Y-58575000D01*
X137743750Y-58575000D01*
X137765191Y-58576053D01*
X137765191Y-58576053D01*
G37*
D33*
X137525000Y-59050000D03*
G04 #@! TD*
D10*
G04 #@! TO.C,CC1*
G36*
X131927691Y-48476053D02*
X131948926Y-48479203D01*
X131969750Y-48484419D01*
X131989962Y-48491651D01*
X132009368Y-48500830D01*
X132027781Y-48511866D01*
X132045024Y-48524654D01*
X132060930Y-48539070D01*
X132075346Y-48554976D01*
X132088134Y-48572219D01*
X132099170Y-48590632D01*
X132108349Y-48610038D01*
X132115581Y-48630250D01*
X132120797Y-48651074D01*
X132123947Y-48672309D01*
X132125000Y-48693750D01*
X132125000Y-49206250D01*
X132123947Y-49227691D01*
X132120797Y-49248926D01*
X132115581Y-49269750D01*
X132108349Y-49289962D01*
X132099170Y-49309368D01*
X132088134Y-49327781D01*
X132075346Y-49345024D01*
X132060930Y-49360930D01*
X132045024Y-49375346D01*
X132027781Y-49388134D01*
X132009368Y-49399170D01*
X131989962Y-49408349D01*
X131969750Y-49415581D01*
X131948926Y-49420797D01*
X131927691Y-49423947D01*
X131906250Y-49425000D01*
X131468750Y-49425000D01*
X131447309Y-49423947D01*
X131426074Y-49420797D01*
X131405250Y-49415581D01*
X131385038Y-49408349D01*
X131365632Y-49399170D01*
X131347219Y-49388134D01*
X131329976Y-49375346D01*
X131314070Y-49360930D01*
X131299654Y-49345024D01*
X131286866Y-49327781D01*
X131275830Y-49309368D01*
X131266651Y-49289962D01*
X131259419Y-49269750D01*
X131254203Y-49248926D01*
X131251053Y-49227691D01*
X131250000Y-49206250D01*
X131250000Y-48693750D01*
X131251053Y-48672309D01*
X131254203Y-48651074D01*
X131259419Y-48630250D01*
X131266651Y-48610038D01*
X131275830Y-48590632D01*
X131286866Y-48572219D01*
X131299654Y-48554976D01*
X131314070Y-48539070D01*
X131329976Y-48524654D01*
X131347219Y-48511866D01*
X131365632Y-48500830D01*
X131385038Y-48491651D01*
X131405250Y-48484419D01*
X131426074Y-48479203D01*
X131447309Y-48476053D01*
X131468750Y-48475000D01*
X131906250Y-48475000D01*
X131927691Y-48476053D01*
X131927691Y-48476053D01*
G37*
D33*
X131687500Y-48950000D03*
D10*
G36*
X130352691Y-48476053D02*
X130373926Y-48479203D01*
X130394750Y-48484419D01*
X130414962Y-48491651D01*
X130434368Y-48500830D01*
X130452781Y-48511866D01*
X130470024Y-48524654D01*
X130485930Y-48539070D01*
X130500346Y-48554976D01*
X130513134Y-48572219D01*
X130524170Y-48590632D01*
X130533349Y-48610038D01*
X130540581Y-48630250D01*
X130545797Y-48651074D01*
X130548947Y-48672309D01*
X130550000Y-48693750D01*
X130550000Y-49206250D01*
X130548947Y-49227691D01*
X130545797Y-49248926D01*
X130540581Y-49269750D01*
X130533349Y-49289962D01*
X130524170Y-49309368D01*
X130513134Y-49327781D01*
X130500346Y-49345024D01*
X130485930Y-49360930D01*
X130470024Y-49375346D01*
X130452781Y-49388134D01*
X130434368Y-49399170D01*
X130414962Y-49408349D01*
X130394750Y-49415581D01*
X130373926Y-49420797D01*
X130352691Y-49423947D01*
X130331250Y-49425000D01*
X129893750Y-49425000D01*
X129872309Y-49423947D01*
X129851074Y-49420797D01*
X129830250Y-49415581D01*
X129810038Y-49408349D01*
X129790632Y-49399170D01*
X129772219Y-49388134D01*
X129754976Y-49375346D01*
X129739070Y-49360930D01*
X129724654Y-49345024D01*
X129711866Y-49327781D01*
X129700830Y-49309368D01*
X129691651Y-49289962D01*
X129684419Y-49269750D01*
X129679203Y-49248926D01*
X129676053Y-49227691D01*
X129675000Y-49206250D01*
X129675000Y-48693750D01*
X129676053Y-48672309D01*
X129679203Y-48651074D01*
X129684419Y-48630250D01*
X129691651Y-48610038D01*
X129700830Y-48590632D01*
X129711866Y-48572219D01*
X129724654Y-48554976D01*
X129739070Y-48539070D01*
X129754976Y-48524654D01*
X129772219Y-48511866D01*
X129790632Y-48500830D01*
X129810038Y-48491651D01*
X129830250Y-48484419D01*
X129851074Y-48479203D01*
X129872309Y-48476053D01*
X129893750Y-48475000D01*
X130331250Y-48475000D01*
X130352691Y-48476053D01*
X130352691Y-48476053D01*
G37*
D33*
X130112500Y-48950000D03*
G04 #@! TD*
D10*
G04 #@! TO.C,C2*
G36*
X131677691Y-50226053D02*
X131698926Y-50229203D01*
X131719750Y-50234419D01*
X131739962Y-50241651D01*
X131759368Y-50250830D01*
X131777781Y-50261866D01*
X131795024Y-50274654D01*
X131810930Y-50289070D01*
X131825346Y-50304976D01*
X131838134Y-50322219D01*
X131849170Y-50340632D01*
X131858349Y-50360038D01*
X131865581Y-50380250D01*
X131870797Y-50401074D01*
X131873947Y-50422309D01*
X131875000Y-50443750D01*
X131875000Y-50881250D01*
X131873947Y-50902691D01*
X131870797Y-50923926D01*
X131865581Y-50944750D01*
X131858349Y-50964962D01*
X131849170Y-50984368D01*
X131838134Y-51002781D01*
X131825346Y-51020024D01*
X131810930Y-51035930D01*
X131795024Y-51050346D01*
X131777781Y-51063134D01*
X131759368Y-51074170D01*
X131739962Y-51083349D01*
X131719750Y-51090581D01*
X131698926Y-51095797D01*
X131677691Y-51098947D01*
X131656250Y-51100000D01*
X131143750Y-51100000D01*
X131122309Y-51098947D01*
X131101074Y-51095797D01*
X131080250Y-51090581D01*
X131060038Y-51083349D01*
X131040632Y-51074170D01*
X131022219Y-51063134D01*
X131004976Y-51050346D01*
X130989070Y-51035930D01*
X130974654Y-51020024D01*
X130961866Y-51002781D01*
X130950830Y-50984368D01*
X130941651Y-50964962D01*
X130934419Y-50944750D01*
X130929203Y-50923926D01*
X130926053Y-50902691D01*
X130925000Y-50881250D01*
X130925000Y-50443750D01*
X130926053Y-50422309D01*
X130929203Y-50401074D01*
X130934419Y-50380250D01*
X130941651Y-50360038D01*
X130950830Y-50340632D01*
X130961866Y-50322219D01*
X130974654Y-50304976D01*
X130989070Y-50289070D01*
X131004976Y-50274654D01*
X131022219Y-50261866D01*
X131040632Y-50250830D01*
X131060038Y-50241651D01*
X131080250Y-50234419D01*
X131101074Y-50229203D01*
X131122309Y-50226053D01*
X131143750Y-50225000D01*
X131656250Y-50225000D01*
X131677691Y-50226053D01*
X131677691Y-50226053D01*
G37*
D33*
X131400000Y-50662500D03*
D10*
G36*
X131677691Y-51801053D02*
X131698926Y-51804203D01*
X131719750Y-51809419D01*
X131739962Y-51816651D01*
X131759368Y-51825830D01*
X131777781Y-51836866D01*
X131795024Y-51849654D01*
X131810930Y-51864070D01*
X131825346Y-51879976D01*
X131838134Y-51897219D01*
X131849170Y-51915632D01*
X131858349Y-51935038D01*
X131865581Y-51955250D01*
X131870797Y-51976074D01*
X131873947Y-51997309D01*
X131875000Y-52018750D01*
X131875000Y-52456250D01*
X131873947Y-52477691D01*
X131870797Y-52498926D01*
X131865581Y-52519750D01*
X131858349Y-52539962D01*
X131849170Y-52559368D01*
X131838134Y-52577781D01*
X131825346Y-52595024D01*
X131810930Y-52610930D01*
X131795024Y-52625346D01*
X131777781Y-52638134D01*
X131759368Y-52649170D01*
X131739962Y-52658349D01*
X131719750Y-52665581D01*
X131698926Y-52670797D01*
X131677691Y-52673947D01*
X131656250Y-52675000D01*
X131143750Y-52675000D01*
X131122309Y-52673947D01*
X131101074Y-52670797D01*
X131080250Y-52665581D01*
X131060038Y-52658349D01*
X131040632Y-52649170D01*
X131022219Y-52638134D01*
X131004976Y-52625346D01*
X130989070Y-52610930D01*
X130974654Y-52595024D01*
X130961866Y-52577781D01*
X130950830Y-52559368D01*
X130941651Y-52539962D01*
X130934419Y-52519750D01*
X130929203Y-52498926D01*
X130926053Y-52477691D01*
X130925000Y-52456250D01*
X130925000Y-52018750D01*
X130926053Y-51997309D01*
X130929203Y-51976074D01*
X130934419Y-51955250D01*
X130941651Y-51935038D01*
X130950830Y-51915632D01*
X130961866Y-51897219D01*
X130974654Y-51879976D01*
X130989070Y-51864070D01*
X131004976Y-51849654D01*
X131022219Y-51836866D01*
X131040632Y-51825830D01*
X131060038Y-51816651D01*
X131080250Y-51809419D01*
X131101074Y-51804203D01*
X131122309Y-51801053D01*
X131143750Y-51800000D01*
X131656250Y-51800000D01*
X131677691Y-51801053D01*
X131677691Y-51801053D01*
G37*
D33*
X131400000Y-52237500D03*
G04 #@! TD*
D10*
G04 #@! TO.C,C3*
G36*
X143399504Y-48326204D02*
X143423773Y-48329804D01*
X143447571Y-48335765D01*
X143470671Y-48344030D01*
X143492849Y-48354520D01*
X143513893Y-48367133D01*
X143533598Y-48381747D01*
X143551777Y-48398223D01*
X143568253Y-48416402D01*
X143582867Y-48436107D01*
X143595480Y-48457151D01*
X143605970Y-48479329D01*
X143614235Y-48502429D01*
X143620196Y-48526227D01*
X143623796Y-48550496D01*
X143625000Y-48575000D01*
X143625000Y-50725000D01*
X143623796Y-50749504D01*
X143620196Y-50773773D01*
X143614235Y-50797571D01*
X143605970Y-50820671D01*
X143595480Y-50842849D01*
X143582867Y-50863893D01*
X143568253Y-50883598D01*
X143551777Y-50901777D01*
X143533598Y-50918253D01*
X143513893Y-50932867D01*
X143492849Y-50945480D01*
X143470671Y-50955970D01*
X143447571Y-50964235D01*
X143423773Y-50970196D01*
X143399504Y-50973796D01*
X143375000Y-50975000D01*
X142625000Y-50975000D01*
X142600496Y-50973796D01*
X142576227Y-50970196D01*
X142552429Y-50964235D01*
X142529329Y-50955970D01*
X142507151Y-50945480D01*
X142486107Y-50932867D01*
X142466402Y-50918253D01*
X142448223Y-50901777D01*
X142431747Y-50883598D01*
X142417133Y-50863893D01*
X142404520Y-50842849D01*
X142394030Y-50820671D01*
X142385765Y-50797571D01*
X142379804Y-50773773D01*
X142376204Y-50749504D01*
X142375000Y-50725000D01*
X142375000Y-48575000D01*
X142376204Y-48550496D01*
X142379804Y-48526227D01*
X142385765Y-48502429D01*
X142394030Y-48479329D01*
X142404520Y-48457151D01*
X142417133Y-48436107D01*
X142431747Y-48416402D01*
X142448223Y-48398223D01*
X142466402Y-48381747D01*
X142486107Y-48367133D01*
X142507151Y-48354520D01*
X142529329Y-48344030D01*
X142552429Y-48335765D01*
X142576227Y-48329804D01*
X142600496Y-48326204D01*
X142625000Y-48325000D01*
X143375000Y-48325000D01*
X143399504Y-48326204D01*
X143399504Y-48326204D01*
G37*
D34*
X143000000Y-49650000D03*
D10*
G36*
X146199504Y-48326204D02*
X146223773Y-48329804D01*
X146247571Y-48335765D01*
X146270671Y-48344030D01*
X146292849Y-48354520D01*
X146313893Y-48367133D01*
X146333598Y-48381747D01*
X146351777Y-48398223D01*
X146368253Y-48416402D01*
X146382867Y-48436107D01*
X146395480Y-48457151D01*
X146405970Y-48479329D01*
X146414235Y-48502429D01*
X146420196Y-48526227D01*
X146423796Y-48550496D01*
X146425000Y-48575000D01*
X146425000Y-50725000D01*
X146423796Y-50749504D01*
X146420196Y-50773773D01*
X146414235Y-50797571D01*
X146405970Y-50820671D01*
X146395480Y-50842849D01*
X146382867Y-50863893D01*
X146368253Y-50883598D01*
X146351777Y-50901777D01*
X146333598Y-50918253D01*
X146313893Y-50932867D01*
X146292849Y-50945480D01*
X146270671Y-50955970D01*
X146247571Y-50964235D01*
X146223773Y-50970196D01*
X146199504Y-50973796D01*
X146175000Y-50975000D01*
X145425000Y-50975000D01*
X145400496Y-50973796D01*
X145376227Y-50970196D01*
X145352429Y-50964235D01*
X145329329Y-50955970D01*
X145307151Y-50945480D01*
X145286107Y-50932867D01*
X145266402Y-50918253D01*
X145248223Y-50901777D01*
X145231747Y-50883598D01*
X145217133Y-50863893D01*
X145204520Y-50842849D01*
X145194030Y-50820671D01*
X145185765Y-50797571D01*
X145179804Y-50773773D01*
X145176204Y-50749504D01*
X145175000Y-50725000D01*
X145175000Y-48575000D01*
X145176204Y-48550496D01*
X145179804Y-48526227D01*
X145185765Y-48502429D01*
X145194030Y-48479329D01*
X145204520Y-48457151D01*
X145217133Y-48436107D01*
X145231747Y-48416402D01*
X145248223Y-48398223D01*
X145266402Y-48381747D01*
X145286107Y-48367133D01*
X145307151Y-48354520D01*
X145329329Y-48344030D01*
X145352429Y-48335765D01*
X145376227Y-48329804D01*
X145400496Y-48326204D01*
X145425000Y-48325000D01*
X146175000Y-48325000D01*
X146199504Y-48326204D01*
X146199504Y-48326204D01*
G37*
D34*
X145800000Y-49650000D03*
G04 #@! TD*
D10*
G04 #@! TO.C,C1*
G36*
X127199504Y-58726204D02*
X127223773Y-58729804D01*
X127247571Y-58735765D01*
X127270671Y-58744030D01*
X127292849Y-58754520D01*
X127313893Y-58767133D01*
X127333598Y-58781747D01*
X127351777Y-58798223D01*
X127368253Y-58816402D01*
X127382867Y-58836107D01*
X127395480Y-58857151D01*
X127405970Y-58879329D01*
X127414235Y-58902429D01*
X127420196Y-58926227D01*
X127423796Y-58950496D01*
X127425000Y-58975000D01*
X127425000Y-61125000D01*
X127423796Y-61149504D01*
X127420196Y-61173773D01*
X127414235Y-61197571D01*
X127405970Y-61220671D01*
X127395480Y-61242849D01*
X127382867Y-61263893D01*
X127368253Y-61283598D01*
X127351777Y-61301777D01*
X127333598Y-61318253D01*
X127313893Y-61332867D01*
X127292849Y-61345480D01*
X127270671Y-61355970D01*
X127247571Y-61364235D01*
X127223773Y-61370196D01*
X127199504Y-61373796D01*
X127175000Y-61375000D01*
X126425000Y-61375000D01*
X126400496Y-61373796D01*
X126376227Y-61370196D01*
X126352429Y-61364235D01*
X126329329Y-61355970D01*
X126307151Y-61345480D01*
X126286107Y-61332867D01*
X126266402Y-61318253D01*
X126248223Y-61301777D01*
X126231747Y-61283598D01*
X126217133Y-61263893D01*
X126204520Y-61242849D01*
X126194030Y-61220671D01*
X126185765Y-61197571D01*
X126179804Y-61173773D01*
X126176204Y-61149504D01*
X126175000Y-61125000D01*
X126175000Y-58975000D01*
X126176204Y-58950496D01*
X126179804Y-58926227D01*
X126185765Y-58902429D01*
X126194030Y-58879329D01*
X126204520Y-58857151D01*
X126217133Y-58836107D01*
X126231747Y-58816402D01*
X126248223Y-58798223D01*
X126266402Y-58781747D01*
X126286107Y-58767133D01*
X126307151Y-58754520D01*
X126329329Y-58744030D01*
X126352429Y-58735765D01*
X126376227Y-58729804D01*
X126400496Y-58726204D01*
X126425000Y-58725000D01*
X127175000Y-58725000D01*
X127199504Y-58726204D01*
X127199504Y-58726204D01*
G37*
D34*
X126800000Y-60050000D03*
D10*
G36*
X129999504Y-58726204D02*
X130023773Y-58729804D01*
X130047571Y-58735765D01*
X130070671Y-58744030D01*
X130092849Y-58754520D01*
X130113893Y-58767133D01*
X130133598Y-58781747D01*
X130151777Y-58798223D01*
X130168253Y-58816402D01*
X130182867Y-58836107D01*
X130195480Y-58857151D01*
X130205970Y-58879329D01*
X130214235Y-58902429D01*
X130220196Y-58926227D01*
X130223796Y-58950496D01*
X130225000Y-58975000D01*
X130225000Y-61125000D01*
X130223796Y-61149504D01*
X130220196Y-61173773D01*
X130214235Y-61197571D01*
X130205970Y-61220671D01*
X130195480Y-61242849D01*
X130182867Y-61263893D01*
X130168253Y-61283598D01*
X130151777Y-61301777D01*
X130133598Y-61318253D01*
X130113893Y-61332867D01*
X130092849Y-61345480D01*
X130070671Y-61355970D01*
X130047571Y-61364235D01*
X130023773Y-61370196D01*
X129999504Y-61373796D01*
X129975000Y-61375000D01*
X129225000Y-61375000D01*
X129200496Y-61373796D01*
X129176227Y-61370196D01*
X129152429Y-61364235D01*
X129129329Y-61355970D01*
X129107151Y-61345480D01*
X129086107Y-61332867D01*
X129066402Y-61318253D01*
X129048223Y-61301777D01*
X129031747Y-61283598D01*
X129017133Y-61263893D01*
X129004520Y-61242849D01*
X128994030Y-61220671D01*
X128985765Y-61197571D01*
X128979804Y-61173773D01*
X128976204Y-61149504D01*
X128975000Y-61125000D01*
X128975000Y-58975000D01*
X128976204Y-58950496D01*
X128979804Y-58926227D01*
X128985765Y-58902429D01*
X128994030Y-58879329D01*
X129004520Y-58857151D01*
X129017133Y-58836107D01*
X129031747Y-58816402D01*
X129048223Y-58798223D01*
X129066402Y-58781747D01*
X129086107Y-58767133D01*
X129107151Y-58754520D01*
X129129329Y-58744030D01*
X129152429Y-58735765D01*
X129176227Y-58729804D01*
X129200496Y-58726204D01*
X129225000Y-58725000D01*
X129975000Y-58725000D01*
X129999504Y-58726204D01*
X129999504Y-58726204D01*
G37*
D34*
X129600000Y-60050000D03*
G04 #@! TD*
D10*
G04 #@! TO.C,RC1*
G36*
X130342691Y-46536053D02*
X130363926Y-46539203D01*
X130384750Y-46544419D01*
X130404962Y-46551651D01*
X130424368Y-46560830D01*
X130442781Y-46571866D01*
X130460024Y-46584654D01*
X130475930Y-46599070D01*
X130490346Y-46614976D01*
X130503134Y-46632219D01*
X130514170Y-46650632D01*
X130523349Y-46670038D01*
X130530581Y-46690250D01*
X130535797Y-46711074D01*
X130538947Y-46732309D01*
X130540000Y-46753750D01*
X130540000Y-47266250D01*
X130538947Y-47287691D01*
X130535797Y-47308926D01*
X130530581Y-47329750D01*
X130523349Y-47349962D01*
X130514170Y-47369368D01*
X130503134Y-47387781D01*
X130490346Y-47405024D01*
X130475930Y-47420930D01*
X130460024Y-47435346D01*
X130442781Y-47448134D01*
X130424368Y-47459170D01*
X130404962Y-47468349D01*
X130384750Y-47475581D01*
X130363926Y-47480797D01*
X130342691Y-47483947D01*
X130321250Y-47485000D01*
X129883750Y-47485000D01*
X129862309Y-47483947D01*
X129841074Y-47480797D01*
X129820250Y-47475581D01*
X129800038Y-47468349D01*
X129780632Y-47459170D01*
X129762219Y-47448134D01*
X129744976Y-47435346D01*
X129729070Y-47420930D01*
X129714654Y-47405024D01*
X129701866Y-47387781D01*
X129690830Y-47369368D01*
X129681651Y-47349962D01*
X129674419Y-47329750D01*
X129669203Y-47308926D01*
X129666053Y-47287691D01*
X129665000Y-47266250D01*
X129665000Y-46753750D01*
X129666053Y-46732309D01*
X129669203Y-46711074D01*
X129674419Y-46690250D01*
X129681651Y-46670038D01*
X129690830Y-46650632D01*
X129701866Y-46632219D01*
X129714654Y-46614976D01*
X129729070Y-46599070D01*
X129744976Y-46584654D01*
X129762219Y-46571866D01*
X129780632Y-46560830D01*
X129800038Y-46551651D01*
X129820250Y-46544419D01*
X129841074Y-46539203D01*
X129862309Y-46536053D01*
X129883750Y-46535000D01*
X130321250Y-46535000D01*
X130342691Y-46536053D01*
X130342691Y-46536053D01*
G37*
D33*
X130102500Y-47010000D03*
D10*
G36*
X131917691Y-46536053D02*
X131938926Y-46539203D01*
X131959750Y-46544419D01*
X131979962Y-46551651D01*
X131999368Y-46560830D01*
X132017781Y-46571866D01*
X132035024Y-46584654D01*
X132050930Y-46599070D01*
X132065346Y-46614976D01*
X132078134Y-46632219D01*
X132089170Y-46650632D01*
X132098349Y-46670038D01*
X132105581Y-46690250D01*
X132110797Y-46711074D01*
X132113947Y-46732309D01*
X132115000Y-46753750D01*
X132115000Y-47266250D01*
X132113947Y-47287691D01*
X132110797Y-47308926D01*
X132105581Y-47329750D01*
X132098349Y-47349962D01*
X132089170Y-47369368D01*
X132078134Y-47387781D01*
X132065346Y-47405024D01*
X132050930Y-47420930D01*
X132035024Y-47435346D01*
X132017781Y-47448134D01*
X131999368Y-47459170D01*
X131979962Y-47468349D01*
X131959750Y-47475581D01*
X131938926Y-47480797D01*
X131917691Y-47483947D01*
X131896250Y-47485000D01*
X131458750Y-47485000D01*
X131437309Y-47483947D01*
X131416074Y-47480797D01*
X131395250Y-47475581D01*
X131375038Y-47468349D01*
X131355632Y-47459170D01*
X131337219Y-47448134D01*
X131319976Y-47435346D01*
X131304070Y-47420930D01*
X131289654Y-47405024D01*
X131276866Y-47387781D01*
X131265830Y-47369368D01*
X131256651Y-47349962D01*
X131249419Y-47329750D01*
X131244203Y-47308926D01*
X131241053Y-47287691D01*
X131240000Y-47266250D01*
X131240000Y-46753750D01*
X131241053Y-46732309D01*
X131244203Y-46711074D01*
X131249419Y-46690250D01*
X131256651Y-46670038D01*
X131265830Y-46650632D01*
X131276866Y-46632219D01*
X131289654Y-46614976D01*
X131304070Y-46599070D01*
X131319976Y-46584654D01*
X131337219Y-46571866D01*
X131355632Y-46560830D01*
X131375038Y-46551651D01*
X131395250Y-46544419D01*
X131416074Y-46539203D01*
X131437309Y-46536053D01*
X131458750Y-46535000D01*
X131896250Y-46535000D01*
X131917691Y-46536053D01*
X131917691Y-46536053D01*
G37*
D33*
X131677500Y-47010000D03*
G04 #@! TD*
D10*
G04 #@! TO.C,RF1*
G36*
X137980142Y-49201174D02*
X138003803Y-49204684D01*
X138027007Y-49210496D01*
X138049529Y-49218554D01*
X138071153Y-49228782D01*
X138091670Y-49241079D01*
X138110883Y-49255329D01*
X138128607Y-49271393D01*
X138144671Y-49289117D01*
X138158921Y-49308330D01*
X138171218Y-49328847D01*
X138181446Y-49350471D01*
X138189504Y-49372993D01*
X138195316Y-49396197D01*
X138198826Y-49419858D01*
X138200000Y-49443750D01*
X138200000Y-49931250D01*
X138198826Y-49955142D01*
X138195316Y-49978803D01*
X138189504Y-50002007D01*
X138181446Y-50024529D01*
X138171218Y-50046153D01*
X138158921Y-50066670D01*
X138144671Y-50085883D01*
X138128607Y-50103607D01*
X138110883Y-50119671D01*
X138091670Y-50133921D01*
X138071153Y-50146218D01*
X138049529Y-50156446D01*
X138027007Y-50164504D01*
X138003803Y-50170316D01*
X137980142Y-50173826D01*
X137956250Y-50175000D01*
X137043750Y-50175000D01*
X137019858Y-50173826D01*
X136996197Y-50170316D01*
X136972993Y-50164504D01*
X136950471Y-50156446D01*
X136928847Y-50146218D01*
X136908330Y-50133921D01*
X136889117Y-50119671D01*
X136871393Y-50103607D01*
X136855329Y-50085883D01*
X136841079Y-50066670D01*
X136828782Y-50046153D01*
X136818554Y-50024529D01*
X136810496Y-50002007D01*
X136804684Y-49978803D01*
X136801174Y-49955142D01*
X136800000Y-49931250D01*
X136800000Y-49443750D01*
X136801174Y-49419858D01*
X136804684Y-49396197D01*
X136810496Y-49372993D01*
X136818554Y-49350471D01*
X136828782Y-49328847D01*
X136841079Y-49308330D01*
X136855329Y-49289117D01*
X136871393Y-49271393D01*
X136889117Y-49255329D01*
X136908330Y-49241079D01*
X136928847Y-49228782D01*
X136950471Y-49218554D01*
X136972993Y-49210496D01*
X136996197Y-49204684D01*
X137019858Y-49201174D01*
X137043750Y-49200000D01*
X137956250Y-49200000D01*
X137980142Y-49201174D01*
X137980142Y-49201174D01*
G37*
D35*
X137500000Y-49687500D03*
D10*
G36*
X137980142Y-47326174D02*
X138003803Y-47329684D01*
X138027007Y-47335496D01*
X138049529Y-47343554D01*
X138071153Y-47353782D01*
X138091670Y-47366079D01*
X138110883Y-47380329D01*
X138128607Y-47396393D01*
X138144671Y-47414117D01*
X138158921Y-47433330D01*
X138171218Y-47453847D01*
X138181446Y-47475471D01*
X138189504Y-47497993D01*
X138195316Y-47521197D01*
X138198826Y-47544858D01*
X138200000Y-47568750D01*
X138200000Y-48056250D01*
X138198826Y-48080142D01*
X138195316Y-48103803D01*
X138189504Y-48127007D01*
X138181446Y-48149529D01*
X138171218Y-48171153D01*
X138158921Y-48191670D01*
X138144671Y-48210883D01*
X138128607Y-48228607D01*
X138110883Y-48244671D01*
X138091670Y-48258921D01*
X138071153Y-48271218D01*
X138049529Y-48281446D01*
X138027007Y-48289504D01*
X138003803Y-48295316D01*
X137980142Y-48298826D01*
X137956250Y-48300000D01*
X137043750Y-48300000D01*
X137019858Y-48298826D01*
X136996197Y-48295316D01*
X136972993Y-48289504D01*
X136950471Y-48281446D01*
X136928847Y-48271218D01*
X136908330Y-48258921D01*
X136889117Y-48244671D01*
X136871393Y-48228607D01*
X136855329Y-48210883D01*
X136841079Y-48191670D01*
X136828782Y-48171153D01*
X136818554Y-48149529D01*
X136810496Y-48127007D01*
X136804684Y-48103803D01*
X136801174Y-48080142D01*
X136800000Y-48056250D01*
X136800000Y-47568750D01*
X136801174Y-47544858D01*
X136804684Y-47521197D01*
X136810496Y-47497993D01*
X136818554Y-47475471D01*
X136828782Y-47453847D01*
X136841079Y-47433330D01*
X136855329Y-47414117D01*
X136871393Y-47396393D01*
X136889117Y-47380329D01*
X136908330Y-47366079D01*
X136928847Y-47353782D01*
X136950471Y-47343554D01*
X136972993Y-47335496D01*
X136996197Y-47329684D01*
X137019858Y-47326174D01*
X137043750Y-47325000D01*
X137956250Y-47325000D01*
X137980142Y-47326174D01*
X137980142Y-47326174D01*
G37*
D35*
X137500000Y-47812500D03*
G04 #@! TD*
D10*
G04 #@! TO.C,RS1*
G36*
X143999504Y-57976204D02*
X144023773Y-57979804D01*
X144047571Y-57985765D01*
X144070671Y-57994030D01*
X144092849Y-58004520D01*
X144113893Y-58017133D01*
X144133598Y-58031747D01*
X144151777Y-58048223D01*
X144168253Y-58066402D01*
X144182867Y-58086107D01*
X144195480Y-58107151D01*
X144205970Y-58129329D01*
X144214235Y-58152429D01*
X144220196Y-58176227D01*
X144223796Y-58200496D01*
X144225000Y-58225000D01*
X144225000Y-59475000D01*
X144223796Y-59499504D01*
X144220196Y-59523773D01*
X144214235Y-59547571D01*
X144205970Y-59570671D01*
X144195480Y-59592849D01*
X144182867Y-59613893D01*
X144168253Y-59633598D01*
X144151777Y-59651777D01*
X144133598Y-59668253D01*
X144113893Y-59682867D01*
X144092849Y-59695480D01*
X144070671Y-59705970D01*
X144047571Y-59714235D01*
X144023773Y-59720196D01*
X143999504Y-59723796D01*
X143975000Y-59725000D01*
X143225000Y-59725000D01*
X143200496Y-59723796D01*
X143176227Y-59720196D01*
X143152429Y-59714235D01*
X143129329Y-59705970D01*
X143107151Y-59695480D01*
X143086107Y-59682867D01*
X143066402Y-59668253D01*
X143048223Y-59651777D01*
X143031747Y-59633598D01*
X143017133Y-59613893D01*
X143004520Y-59592849D01*
X142994030Y-59570671D01*
X142985765Y-59547571D01*
X142979804Y-59523773D01*
X142976204Y-59499504D01*
X142975000Y-59475000D01*
X142975000Y-58225000D01*
X142976204Y-58200496D01*
X142979804Y-58176227D01*
X142985765Y-58152429D01*
X142994030Y-58129329D01*
X143004520Y-58107151D01*
X143017133Y-58086107D01*
X143031747Y-58066402D01*
X143048223Y-58048223D01*
X143066402Y-58031747D01*
X143086107Y-58017133D01*
X143107151Y-58004520D01*
X143129329Y-57994030D01*
X143152429Y-57985765D01*
X143176227Y-57979804D01*
X143200496Y-57976204D01*
X143225000Y-57975000D01*
X143975000Y-57975000D01*
X143999504Y-57976204D01*
X143999504Y-57976204D01*
G37*
D34*
X143600000Y-58850000D03*
D10*
G36*
X141199504Y-57976204D02*
X141223773Y-57979804D01*
X141247571Y-57985765D01*
X141270671Y-57994030D01*
X141292849Y-58004520D01*
X141313893Y-58017133D01*
X141333598Y-58031747D01*
X141351777Y-58048223D01*
X141368253Y-58066402D01*
X141382867Y-58086107D01*
X141395480Y-58107151D01*
X141405970Y-58129329D01*
X141414235Y-58152429D01*
X141420196Y-58176227D01*
X141423796Y-58200496D01*
X141425000Y-58225000D01*
X141425000Y-59475000D01*
X141423796Y-59499504D01*
X141420196Y-59523773D01*
X141414235Y-59547571D01*
X141405970Y-59570671D01*
X141395480Y-59592849D01*
X141382867Y-59613893D01*
X141368253Y-59633598D01*
X141351777Y-59651777D01*
X141333598Y-59668253D01*
X141313893Y-59682867D01*
X141292849Y-59695480D01*
X141270671Y-59705970D01*
X141247571Y-59714235D01*
X141223773Y-59720196D01*
X141199504Y-59723796D01*
X141175000Y-59725000D01*
X140425000Y-59725000D01*
X140400496Y-59723796D01*
X140376227Y-59720196D01*
X140352429Y-59714235D01*
X140329329Y-59705970D01*
X140307151Y-59695480D01*
X140286107Y-59682867D01*
X140266402Y-59668253D01*
X140248223Y-59651777D01*
X140231747Y-59633598D01*
X140217133Y-59613893D01*
X140204520Y-59592849D01*
X140194030Y-59570671D01*
X140185765Y-59547571D01*
X140179804Y-59523773D01*
X140176204Y-59499504D01*
X140175000Y-59475000D01*
X140175000Y-58225000D01*
X140176204Y-58200496D01*
X140179804Y-58176227D01*
X140185765Y-58152429D01*
X140194030Y-58129329D01*
X140204520Y-58107151D01*
X140217133Y-58086107D01*
X140231747Y-58066402D01*
X140248223Y-58048223D01*
X140266402Y-58031747D01*
X140286107Y-58017133D01*
X140307151Y-58004520D01*
X140329329Y-57994030D01*
X140352429Y-57985765D01*
X140376227Y-57979804D01*
X140400496Y-57976204D01*
X140425000Y-57975000D01*
X141175000Y-57975000D01*
X141199504Y-57976204D01*
X141199504Y-57976204D01*
G37*
D34*
X140800000Y-58850000D03*
G04 #@! TD*
D10*
G04 #@! TO.C,Rsen1*
G36*
X135699505Y-46426204D02*
X135723773Y-46429804D01*
X135747572Y-46435765D01*
X135770671Y-46444030D01*
X135792850Y-46454520D01*
X135813893Y-46467132D01*
X135833599Y-46481747D01*
X135851777Y-46498223D01*
X135868253Y-46516401D01*
X135882868Y-46536107D01*
X135895480Y-46557150D01*
X135905970Y-46579329D01*
X135914235Y-46602428D01*
X135920196Y-46626227D01*
X135923796Y-46650495D01*
X135925000Y-46674999D01*
X135925000Y-47525001D01*
X135923796Y-47549505D01*
X135920196Y-47573773D01*
X135914235Y-47597572D01*
X135905970Y-47620671D01*
X135895480Y-47642850D01*
X135882868Y-47663893D01*
X135868253Y-47683599D01*
X135851777Y-47701777D01*
X135833599Y-47718253D01*
X135813893Y-47732868D01*
X135792850Y-47745480D01*
X135770671Y-47755970D01*
X135747572Y-47764235D01*
X135723773Y-47770196D01*
X135699505Y-47773796D01*
X135675001Y-47775000D01*
X133524999Y-47775000D01*
X133500495Y-47773796D01*
X133476227Y-47770196D01*
X133452428Y-47764235D01*
X133429329Y-47755970D01*
X133407150Y-47745480D01*
X133386107Y-47732868D01*
X133366401Y-47718253D01*
X133348223Y-47701777D01*
X133331747Y-47683599D01*
X133317132Y-47663893D01*
X133304520Y-47642850D01*
X133294030Y-47620671D01*
X133285765Y-47597572D01*
X133279804Y-47573773D01*
X133276204Y-47549505D01*
X133275000Y-47525001D01*
X133275000Y-46674999D01*
X133276204Y-46650495D01*
X133279804Y-46626227D01*
X133285765Y-46602428D01*
X133294030Y-46579329D01*
X133304520Y-46557150D01*
X133317132Y-46536107D01*
X133331747Y-46516401D01*
X133348223Y-46498223D01*
X133366401Y-46481747D01*
X133386107Y-46467132D01*
X133407150Y-46454520D01*
X133429329Y-46444030D01*
X133452428Y-46435765D01*
X133476227Y-46429804D01*
X133500495Y-46426204D01*
X133524999Y-46425000D01*
X135675001Y-46425000D01*
X135699505Y-46426204D01*
X135699505Y-46426204D01*
G37*
D36*
X134600000Y-47100000D03*
D10*
G36*
X135699505Y-50926204D02*
X135723773Y-50929804D01*
X135747572Y-50935765D01*
X135770671Y-50944030D01*
X135792850Y-50954520D01*
X135813893Y-50967132D01*
X135833599Y-50981747D01*
X135851777Y-50998223D01*
X135868253Y-51016401D01*
X135882868Y-51036107D01*
X135895480Y-51057150D01*
X135905970Y-51079329D01*
X135914235Y-51102428D01*
X135920196Y-51126227D01*
X135923796Y-51150495D01*
X135925000Y-51174999D01*
X135925000Y-52025001D01*
X135923796Y-52049505D01*
X135920196Y-52073773D01*
X135914235Y-52097572D01*
X135905970Y-52120671D01*
X135895480Y-52142850D01*
X135882868Y-52163893D01*
X135868253Y-52183599D01*
X135851777Y-52201777D01*
X135833599Y-52218253D01*
X135813893Y-52232868D01*
X135792850Y-52245480D01*
X135770671Y-52255970D01*
X135747572Y-52264235D01*
X135723773Y-52270196D01*
X135699505Y-52273796D01*
X135675001Y-52275000D01*
X133524999Y-52275000D01*
X133500495Y-52273796D01*
X133476227Y-52270196D01*
X133452428Y-52264235D01*
X133429329Y-52255970D01*
X133407150Y-52245480D01*
X133386107Y-52232868D01*
X133366401Y-52218253D01*
X133348223Y-52201777D01*
X133331747Y-52183599D01*
X133317132Y-52163893D01*
X133304520Y-52142850D01*
X133294030Y-52120671D01*
X133285765Y-52097572D01*
X133279804Y-52073773D01*
X133276204Y-52049505D01*
X133275000Y-52025001D01*
X133275000Y-51174999D01*
X133276204Y-51150495D01*
X133279804Y-51126227D01*
X133285765Y-51102428D01*
X133294030Y-51079329D01*
X133304520Y-51057150D01*
X133317132Y-51036107D01*
X133331747Y-51016401D01*
X133348223Y-50998223D01*
X133366401Y-50981747D01*
X133386107Y-50967132D01*
X133407150Y-50954520D01*
X133429329Y-50944030D01*
X133452428Y-50935765D01*
X133476227Y-50929804D01*
X133500495Y-50926204D01*
X133524999Y-50925000D01*
X135675001Y-50925000D01*
X135699505Y-50926204D01*
X135699505Y-50926204D01*
G37*
D36*
X134600000Y-51600000D03*
G04 #@! TD*
M02*
